<svg xmlns="http://www.w3.org/2000/svg" xmlns:xlink="http://www.w3.org/1999/xlink" width="714.403" height="644.725" viewBox="0 0 714.403 644.725"><defs><style>.a{fill:#ebf5ff;}.b,.c{fill:#3f92d1;}.b{opacity:0.5;}.d{fill:#92b4d1;}.d,.r{opacity:0.2;}.e{fill:#0a86ff;}.f{fill:#d1ebff;}.g{fill:#a8cff0;}.h{fill:#2672ab;}.i{fill:#084c94;}.j{fill:#001a46;}.k{fill:#72b5e8;}.l{fill:#d62d69;}.m{fill:#fff;}.n{fill:#3beeff;}.o{fill:url(#a);}.p{fill:#ffe6b3;}.q{fill:#03336e;}.r,.s{fill:url(#g);}</style><linearGradient id="a" x1="0.5" x2="0.5" y2="1" gradientUnits="objectBoundingBox"><stop offset="0" stop-color="#f5c35d" stop-opacity="0.91"/><stop offset="1" stop-color="#cb8800" stop-opacity="0.69"/></linearGradient><linearGradient id="g" x1="0.5" x2="0.5" y2="1" gradientUnits="objectBoundingBox"><stop offset="0" stop-color="#2aa6f8" stop-opacity="0.769"/><stop offset="1" stop-color="#0051de" stop-opacity="0.78"/></linearGradient></defs><g transform="translate(-236.787 -1723.958)"><path class="a" d="M61.316,434.6C-50,360.977-4.073,222.367,153.171,166.429S358.679-105.034,564.186,62.78s159.969,305.19,34.251,398.145S172.632,508.225,61.316,434.6Z" transform="translate(245.74 1843.428) rotate(1)"/><g transform="translate(-7.389 1671.389)"><path class="b" d="M483.292,357.3c-15.6,9.007-39.2,9.984-52.7,2.185v10.262c13.508,7.8,37.105,6.822,52.7-2.185Z" transform="translate(93.179 207.835)"/><path class="c" d="M482.846,391.712,363.085,322.568c-5.828-3.364-8.812-7.815-9.085-12.509-.03,2.007-.04,9.381-.034,9.761.081,4.879,3.081,9.525,9.118,13.01l119.761,69.144Z" transform="translate(40.921 175.612)"/><g transform="translate(394.885 297.712)"><path class="d" d="M482.846,478.382,363.085,409.238c-13.51-7.8-11.816-21.422,3.783-30.429L648.479,216.22c15.6-9.005,39.2-9.983,52.706-2.185l119.761,69.144c13.508,7.8,11.815,21.424-3.785,30.431L535.551,476.2C519.952,485.2,496.355,486.181,482.846,478.382Z" transform="translate(-353.964 -191.181)"/><path class="e" d="M370.607,369.9l280.55-161.976c11.446-6.609,28.761-7.325,38.673-1.6l116.586,67.311c9.912,5.722,8.669,15.718-2.777,22.327L523.089,457.933c-11.446,6.609-28.761,7.325-38.675,1.6L367.83,392.225C357.918,386.5,359.161,376.507,370.607,369.9Z" transform="translate(-349.071 -195.488)"/><path class="f" d="M820.947,272.722,701.186,203.579c-13.51-7.8-37.107-6.822-52.706,2.185L366.868,368.351c-15.6,9.007-17.293,22.63-3.783,30.429l119.761,69.144c13.508,7.8,37.105,6.822,52.7-2.185L817.162,303.151C832.761,294.146,834.457,280.523,820.947,272.722Zm-12.415,26.06L527.98,460.758c-11.444,6.609-28.759,7.325-38.673,1.6L372.723,395.05c-9.912-5.722-8.669-15.718,2.777-22.327L656.05,210.746c11.446-6.609,28.761-7.327,38.673-1.6l116.585,67.311C821.221,282.177,819.978,292.173,808.532,298.782Z" transform="translate(-353.964 -198.313)"/><path class="e" d="M830.065,250.566a4.033,4.033,0,0,0-.22-1.453c1.206,6.6-3.1,13.863-12.682,19.392L535.55,431.094c-15.6,9.007-39.2,9.984-52.7,2.185L363.085,364.134c-5.828-3.364-8.81-7.813-9.085-12.507-.03,2.008-.04,9.379-.034,9.759.081,4.879,3.081,9.525,9.118,13.01l119.761,69.144c13.508,7.8,37.105,6.822,52.7-2.185L817.162,278.767c8.028-4.634,12.373-10.492,12.859-16.151C830.058,262.189,830.072,250.99,830.065,250.566Z" transform="translate(-353.964 -163.667)"/><path class="g" d="M363.083,362.175l119.761,69.146c13.51,7.8,37.107,6.821,52.7-2.185L817.16,266.548c8.212-4.742,12.563-10.762,12.881-16.538.34,6.176-4.028,12.773-12.881,17.883L535.548,430.482c-15.6,9.006-39.194,9.984-52.7,2.185L363.083,363.523c-6.4-3.694-9.381-8.694-9.1-13.892C354.246,354.339,357.24,358.8,363.083,362.175Z" transform="translate(-353.962 -163.055)"/><path class="e" d="M804.132,274.79,687.546,207.48c-3.938-2.274-9.455-3.525-15.535-3.525a42.409,42.409,0,0,0-20.615,5.128L523.464,282.946,670.393,368.36l130.96-75.612c5.218-3.011,8.208-6.819,8.208-10.445S806.608,276.221,804.132,274.79ZM370.846,371.06c-5.216,3.013-8.208,6.817-8.208,10.445s2.954,6.082,5.431,7.512l116.584,67.311c3.938,2.274,9.455,3.525,15.537,3.525a42.421,42.421,0,0,0,20.613-5.128l62.322-35.982L436.2,333.329Z" transform="translate(-348.049 -194.465)"/><path class="h" d="M458.317,250.917l146.928,85.414v1.206L458.159,252.175Z" transform="translate(-282.902 -162.436)"/></g><path class="i" d="M523.232,246.008l28.986,16.736c8.006,4.622,21.992,4.044,31.238-1.3L607.6,247.512c9.244-5.337,10.25-13.412,2.242-18.035l-28.986-16.734c-8.006-4.624-21.992-4.044-31.238,1.293l-24.139,13.937C516.228,233.312,515.224,241.386,523.232,246.008Z" transform="translate(152.677 107.112)"/><path class="i" d="M650.713,253.1l-28.986-16.734c-8.008-4.624-21.992-4.044-31.239,1.293L566.349,251.6c-9.246,5.339-10.25,13.412-2.244,18.036l28.988,16.734c8.006,4.624,21.992,4.044,31.237-1.3l24.139-13.935C657.715,265.8,658.719,257.727,650.713,253.1Z" transform="translate(180.554 123.225)"/><path class="i" d="M482.4,269.508l28.988,16.736c8.006,4.622,21.992,4.044,31.237-1.3l24.14-13.937c9.244-5.337,10.249-13.412,2.242-18.035l-28.986-16.734c-8.008-4.624-21.992-4.044-31.238,1.293l-24.139,13.937C475.4,256.812,474.391,264.886,482.4,269.508Z" transform="translate(124.828 123.139)"/><path class="i" d="M609.88,276.6l-28.988-16.734c-8.006-4.624-21.992-4.044-31.237,1.293L525.515,275.1c-9.244,5.339-10.248,13.412-2.242,18.036l28.986,16.734c8.006,4.624,21.992,4.044,31.238-1.3l24.139-13.935C616.882,289.3,617.886,281.227,609.88,276.6Z" transform="translate(152.705 139.253)"/><path class="i" d="M467.338,311.477l-28.986-16.734c-8.006-4.624-21.992-4.044-31.238,1.294l-24.139,13.937c-9.246,5.339-10.25,13.412-2.242,18.035l28.986,16.736c8.006,4.622,21.992,4.043,31.238-1.3L465.1,329.512C474.34,324.175,475.346,316.1,467.338,311.477Z" transform="translate(55.489 163.037)"/><path class="i" d="M467.338,311.477l-28.986-16.734c-8.006-4.624-21.992-4.044-31.238,1.294l-24.139,13.937c-9.246,5.339-10.25,13.412-2.242,18.035l28.986,16.736c8.006,4.622,21.992,4.043,31.238-1.3L465.1,329.512C474.34,324.175,475.346,316.1,467.338,311.477Z" transform="translate(124.489 123.037)"/><path class="i" d="M508.213,335.1l-28.986-16.734c-8.008-4.624-21.992-4.044-31.238,1.294L423.849,333.6c-9.246,5.339-10.25,13.412-2.244,18.036l28.988,16.734c8.006,4.624,21.992,4.044,31.237-1.3l24.139-13.935C515.215,347.8,516.219,339.727,508.213,335.1Z" transform="translate(83.367 179.15)"/><path class="i" d="M508.213,335.1l-28.986-16.734c-8.008-4.624-21.992-4.044-31.238,1.294L423.849,333.6c-9.246,5.339-10.25,13.412-2.244,18.036l28.988,16.734c8.006,4.624,21.992,4.044,31.237-1.3l24.139-13.935C515.215,347.8,516.219,339.727,508.213,335.1Z" transform="translate(152.367 139.15)"/><path class="j" d="M525.466,232.6,549.6,218.662c9.246-5.337,23.232-5.917,31.238-1.293L609.829,234.1a10.451,10.451,0,0,1,5.016,5.567c1.191-3.754-.422-7.542-5.016-10.193l-28.986-16.734c-8.006-4.624-21.992-4.044-31.238,1.293l-24.139,13.937c-6.155,3.552-8.634,8.316-7.258,12.469C519.094,237.65,521.523,234.875,525.466,232.6Z" transform="translate(152.685 107.112)"/><path class="j" d="M559.083,264.068c.885-2.792,3.315-5.566,7.258-7.843l24.139-13.937c9.246-5.337,23.23-5.917,31.239-1.293L650.7,257.729a10.447,10.447,0,0,1,5.014,5.568c1.191-3.754-.422-7.541-5.014-10.193l-28.986-16.734c-8.008-4.624-21.992-4.044-31.239,1.293L566.341,251.6C560.186,255.153,557.707,259.915,559.083,264.068Z" transform="translate(180.563 123.225)"/><path class="j" d="M484.633,256.1l24.139-13.937c9.246-5.337,23.23-5.917,31.238-1.293L569,257.6a10.446,10.446,0,0,1,5.014,5.567c1.191-3.754-.422-7.542-5.014-10.193L540.01,236.243c-8.008-4.624-21.992-4.044-31.238,1.293l-24.139,13.937c-6.154,3.552-8.634,8.316-7.258,12.467C478.261,261.15,480.69,258.375,484.633,256.1Z" transform="translate(124.836 123.139)"/><path class="j" d="M382.966,314.6,407.1,300.662c9.246-5.337,23.232-5.917,31.238-1.293L467.329,316.1a10.451,10.451,0,0,1,5.016,5.567c1.191-3.754-.422-7.542-5.016-10.193l-28.986-16.734c-8.006-4.624-21.992-4.044-31.238,1.294l-24.139,13.937c-6.154,3.552-8.634,8.316-7.258,12.469C376.594,319.65,379.023,316.875,382.966,314.6Z" transform="translate(55.498 163.037)"/><path class="j" d="M382.966,314.6,407.1,300.662c9.246-5.337,23.232-5.917,31.238-1.293L467.329,316.1a10.451,10.451,0,0,1,5.016,5.567c1.191-3.754-.422-7.542-5.016-10.193l-28.986-16.734c-8.006-4.624-21.992-4.044-31.238,1.294l-24.139,13.937c-6.154,3.552-8.634,8.316-7.258,12.469C376.594,319.65,379.023,316.875,382.966,314.6Z" transform="translate(124.498 123.037)"/><path class="j" d="M609.871,276.6l-28.988-16.734c-8.006-4.624-21.992-4.044-31.237,1.293L525.506,275.1c-6.155,3.554-8.632,8.316-7.258,12.469.886-2.792,3.315-5.566,7.258-7.843l24.14-13.937c9.244-5.337,23.23-5.917,31.237-1.293l28.988,16.734a10.453,10.453,0,0,1,5.014,5.568C616.076,283.042,614.463,279.256,609.871,276.6Z" transform="translate(152.713 139.253)"/><path class="j" d="M508.2,335.1l-28.986-16.734c-8.008-4.624-21.992-4.044-31.238,1.294L423.841,333.6c-6.154,3.554-8.634,8.316-7.258,12.469.885-2.792,3.315-5.566,7.258-7.843l24.139-13.937c9.246-5.337,23.23-5.917,31.238-1.293L508.2,339.729a10.447,10.447,0,0,1,5.014,5.567C514.409,341.542,512.8,337.756,508.2,335.1Z" transform="translate(83.375 179.15)"/><path class="j" d="M508.2,335.1l-28.986-16.734c-8.008-4.624-21.992-4.044-31.238,1.294L423.841,333.6c-6.154,3.554-8.634,8.316-7.258,12.469.885-2.792,3.315-5.566,7.258-7.843l24.139-13.937c9.246-5.337,23.23-5.917,31.238-1.293L508.2,339.729a10.447,10.447,0,0,1,5.014,5.567C514.409,341.542,512.8,337.756,508.2,335.1Z" transform="translate(152.375 139.15)"/><g transform="translate(671.083 312.409)"><path class="k" d="M552.326,259.808l-28.788-16.62c-7.951-4.59-6.953-12.61,2.229-17.91l23.972-13.841c9.182-5.3,23.07-5.877,31.023-1.287l28.786,16.62c7.953,4.592,6.955,12.61-2.227,17.912l-23.972,13.841C574.167,263.823,560.277,264.4,552.326,259.808Z" transform="translate(-518.171 -207.051)"/><g transform="translate(0.005 27.865)"><path class="l" d="M518.2,223.617h-.015v.37C518.187,223.864,518.192,223.741,518.2,223.617Z" transform="translate(-518.167 -223.617)"/><path class="h" d="M607.319,233.383l-23.972,13.841c-9.182,5.3-23.072,5.877-31.023,1.285l-28.788-16.62c-3.421-1.975-5.174-4.585-5.344-7.34v4.02c-.219,3.1,1.531,6.092,5.344,8.294l28.788,16.62c7.951,4.592,21.841,4.015,31.023-1.285l23.972-13.841c4.745-2.74,7.3-6.2,7.566-9.549h.007v-.069a7.407,7.407,0,0,0,0-1.023v-4.1h-.01C614.71,227.028,612.168,230.584,607.319,233.383Z" transform="translate(-518.174 -223.617)"/></g><g transform="translate(0.005 27.865)"><path class="l" d="M518.2,223.617h-.015v.37C518.187,223.864,518.192,223.741,518.2,223.617Z" transform="translate(-518.167 -223.617)"/><path class="c" d="M552.324,248.131l-28.788-16.62c-3.421-1.975-5.174-4.585-5.344-7.34v4.02c-.219,3.1,1.531,6.092,5.344,8.294l28.788,16.62Z" transform="translate(-518.174 -223.239)"/></g><path class="m" d="M607.314,232.518l-23.972,13.841c-9.182,5.3-23.072,5.877-31.023,1.285l-28.788-16.62c-3.347-1.933-5.09-4.476-5.322-7.167-.279,3.149,1.453,6.195,5.322,8.429l28.788,16.62c7.951,4.592,21.841,4.015,31.023-1.285l23.972-13.841c5.315-3.068,7.869-7.046,7.549-10.745C614.569,226.359,612.029,229.8,607.314,232.518Z" transform="translate(-518.164 -196.149)"/><path class="m" d="M579.787,229.789l-25.516-14.733a6.248,6.248,0,0,0-5.652-.01l-14.968,8.642c-1.556.9-1.549,2.36.017,3.263l15.949,9.207.049,9.179,7.926-4.575,1.595.922a6.248,6.248,0,0,0,5.651.01l14.968-8.642C581.362,232.154,581.353,230.692,579.787,229.789ZM550,226.213c-1.655,0-3-.78-3.007-1.736s1.334-1.727,2.989-1.726,3,.78,3.008,1.738S551.661,226.216,550,226.213Zm6.911,3.99c-1.655,0-3-.779-3.008-1.736s1.332-1.727,2.989-1.724,3,.779,3.008,1.736S558.57,230.206,556.915,230.2Zm6.911,3.99c-1.657,0-3-.779-3.008-1.736s1.332-1.727,2.987-1.724,3,.779,3.008,1.736S565.482,234.2,563.827,234.192Z" transform="translate(-508.406 -202.055)"/></g><g transform="translate(739.555 351.797)"><path class="n" d="M593.034,283.225,564.248,266.6c-7.953-4.592-6.955-12.61,2.227-17.912l23.972-13.84c9.182-5.3,23.072-5.877,31.023-1.287l28.788,16.62c7.951,4.592,6.953,12.61-2.229,17.912l-23.972,13.84C614.875,287.24,600.987,287.815,593.034,283.225Z" transform="translate(-558.879 -230.468)"/><g transform="translate(0.005 27.865)"><path class="n" d="M558.908,247.034h-.015v.37C558.9,247.281,558.9,247.157,558.908,247.034Z" transform="translate(-558.875 -247.034)"/><path class="n" d="M648.027,256.8l-23.972,13.84c-9.182,5.3-23.07,5.877-31.023,1.287l-28.786-16.62c-3.421-1.975-5.175-4.585-5.345-7.34v4.02c-.219,3.1,1.531,6.092,5.345,8.294l28.786,16.62c7.953,4.59,21.841,4.015,31.023-1.287l23.972-13.84c4.747-2.74,7.3-6.2,7.566-9.549h.007v-.069a7.412,7.412,0,0,0,0-1.024v-4.1h-.01C655.418,250.443,652.876,254,648.027,256.8Z" transform="translate(-558.882 -247.034)"/></g><g transform="translate(0.005 27.865)"><path class="n" d="M558.908,247.034h-.015v.37C558.9,247.281,558.9,247.157,558.908,247.034Z" transform="translate(-558.875 -247.034)"/><path class="n" d="M593.032,271.548l-28.786-16.62c-3.421-1.975-5.175-4.585-5.345-7.34v4.02c-.219,3.1,1.531,6.092,5.345,8.294l28.786,16.62Z" transform="translate(-558.882 -246.656)"/></g><path class="n" d="M648.023,255.935l-23.972,13.84c-9.182,5.3-23.071,5.877-31.023,1.287l-28.786-16.62c-3.349-1.934-5.091-4.478-5.324-7.167-.279,3.149,1.455,6.195,5.324,8.429l28.786,16.62c7.953,4.59,21.841,4.015,31.023-1.287l23.972-13.84c5.317-3.07,7.868-7.046,7.551-10.745C655.277,249.776,652.737,253.212,648.023,255.935Z" transform="translate(-558.872 -219.566)"/></g><g transform="translate(602.26 329.09)"><path class="o" d="M511.409,269.725,482.623,253.1c-7.953-4.592-6.955-12.61,2.227-17.912l23.972-13.84c9.182-5.3,23.072-5.877,31.023-1.287l28.788,16.62c7.951,4.592,6.953,12.61-2.229,17.912l-23.972,13.84C533.25,273.74,519.362,274.315,511.409,269.725Z" transform="translate(-477.254 -216.968)"/><g transform="translate(0.005 27.865)"><path class="o" d="M477.283,233.534h-.015v.37C477.271,233.781,477.276,233.657,477.283,233.534Z" transform="translate(-477.25 -233.534)"/><path class="o" d="M566.4,243.3l-23.972,13.84c-9.182,5.3-23.071,5.877-31.023,1.287l-28.786-16.62c-3.421-1.975-5.176-4.585-5.345-7.34V243.6c-.219,3.1,1.531,6.092,5.345,8.294l28.786,16.62c7.953,4.592,21.841,4.015,31.023-1.285L566.4,253.392c4.747-2.74,7.3-6.2,7.566-9.549h.007v-.069a7.407,7.407,0,0,0,0-1.023v-9.217h-.01C573.793,236.943,571.251,240.5,566.4,243.3Z" transform="translate(-477.257 -233.534)"/></g><g transform="translate(0.005 27.865)"><path class="o" d="M477.283,233.534h-.015v.37C477.271,233.781,477.276,233.657,477.283,233.534Z" transform="translate(-477.25 -233.534)"/><path class="o" d="M511.407,258.048l-28.786-16.62c-3.421-1.975-5.176-4.585-5.345-7.34v9.138c-.219,3.1,1.531,6.092,5.345,8.294l28.786,16.62Z" transform="translate(-477.257 -233.156)"/></g><path class="o" d="M566.4,242.435l-23.972,13.84c-9.182,5.3-23.071,5.877-31.023,1.287l-28.786-16.62c-3.349-1.934-5.091-4.478-5.324-7.167-.279,3.149,1.455,6.195,5.324,8.429l28.786,16.62c7.953,4.59,21.841,4.015,31.023-1.287L566.4,243.7c5.317-3.07,7.868-7.046,7.551-10.745C573.652,236.276,571.112,239.712,566.4,242.435Z" transform="translate(-477.247 -206.066)"/><path class="p" d="M513.885,253.208l-22.832-13.182a1.29,1.29,0,0,1-.012-2.442l4.261-2.459a13.035,13.035,0,0,1,10.156-.68,20.712,20.712,0,0,0,6.556,1.142,2.43,2.43,0,0,0,1.2-.274.932.932,0,0,0,.552-.759,6.078,6.078,0,0,1,1-3.277,1.569,1.569,0,0,1,.453-2.513,5.857,5.857,0,0,1,3.547-.691c5.462-2.735,10.7-2.691,15.594.131s4.962,5.85.227,9c.278.658-.168,1.453-1.2,2.049a6.384,6.384,0,0,1-4.353.261,27.466,27.466,0,0,1-5.672.577,2.678,2.678,0,0,0-1.315.32.808.808,0,0,0-.476.693,5.628,5.628,0,0,0,1.978,3.786c2.013,1.891,1.531,4.3-1.174,5.863l-4.262,2.461A4.68,4.68,0,0,1,513.885,253.208Z" transform="translate(-468.444 -210.77)"/></g><g transform="translate(415.021 52.569)"><g transform="translate(184.538 161.435)"><path class="h" d="M556.621,267.2a.84.84,0,0,1-.841-.841V252.228l-50.04-47.2a.84.84,0,0,1,1.154-1.221l50.568,47.7v14.862A.839.839,0,0,1,556.621,267.2Z" transform="translate(-455.305 -111.018)"/><path class="k" d="M514.45,197.947a12.609,12.609,0,0,0-5.724-9.872c-1.627-.94-3.093-1-4.134-.353l-1.706.976L504,190.6c-.005.106-.013.209-.013.32a12.612,12.612,0,0,0,5.722,9.872c.148.084.293.155.436.227l.923,1.563,1.209-.742C513.6,201.4,514.45,200.031,514.45,197.947Z" transform="translate(-457.071 -122.121)"/><path class="g" d="M513.443,198.5c0,3.626-2.563,5.088-5.724,3.263a12.614,12.614,0,0,1-5.724-9.872c0-3.628,2.563-5.088,5.724-3.263A12.611,12.611,0,0,1,513.443,198.5Z" transform="translate(-457.679 -121.743)"/><path class="k" d="M518.538,163.82c0-5.2-3.674-11.535-8.2-14.152-2.335-1.347-4.434-1.436-5.929-.5l-2.446,1.4,1.606,2.721c-.007.153-.022.3-.022.458,0,5.2,3.674,11.535,8.205,14.152.212.121.419.222.626.325l1.322,2.24,1.736-1.061C517.321,168.762,518.538,166.807,518.538,163.82Z" transform="translate(-457.704 -148.546)"/><path class="g" d="M517.092,164.617c0,5.2-3.674,7.293-8.2,4.678s-8.2-8.952-8.2-14.152,3.674-7.293,8.2-4.678S517.092,159.416,517.092,164.617Z" transform="translate(-458.574 -148.006)"/><path class="h" d="M511.32,228.637a6.2,6.2,0,0,1-3.1-.93,14.168,14.168,0,0,1-6.4-10.973l-3-59.131c-.024-.3-.04-.668-.04-1.031,0-4.385,2.284-7.219,5.82-7.219a8.984,8.984,0,0,1,4.461,1.349c5.206,3.006,9.439,10.312,9.439,16.285,0,.367-.015.717-.045,1.056l-3,55.673C515.441,226.689,513.815,228.637,511.32,228.637Zm-6.716-77.6c-2.553,0-4.138,2.123-4.138,5.537,0,.318.013.636.035.92l3,59.194a12.517,12.517,0,0,0,5.561,9.567,4.648,4.648,0,0,0,2.256.7c1.526,0,2.447-1.23,2.462-3.292l3-55.742c.029-.32.04-.622.04-.935,0-5.44-3.857-12.09-8.6-14.83A7.478,7.478,0,0,0,504.6,151.034Z" transform="translate(-459.869 -147.997)"/><path class="j" d="M511.045,214.294c-2.9-1.675-5.256-4.427-5.256-7.673,0-4.434,4.313-2.639,4.313-4.822v-4.647l-3.234-1.867v4.967c-2.733-.468-4.627,1.591-4.269,5.4a14.765,14.765,0,0,0,5.665,9.773c2.239,1.586,4.277,1.741,5.615.765.325-.237-.1-1.142-.545-1.157A5,5,0,0,1,511.045,214.294Z" transform="translate(-457.298 -116.67)"/><path class="q" d="M510.552,214.5c-2.9-1.677-5.256-4.429-5.256-7.675,0-4.432,4.313-2.639,4.313-4.821v-4.647l-3.235-1.869v4.969c-2.733-.468-4.627,1.589-4.269,5.4a14.766,14.766,0,0,0,5.665,9.772c2.239,1.586,4.277,1.743,5.615.765.325-.235-.1-1.14-.545-1.157A5,5,0,0,1,510.552,214.5Z" transform="translate(-457.634 -116.534)"/><path class="k" d="M516.089,165.16c0-5.2-3.673-11.535-8.2-14.152-2.335-1.347-4.434-1.436-5.929-.506l-2.446,1.4,1.606,2.721c-.007.151-.022.3-.022.458,0,5.2,3.674,11.535,8.2,14.152.212.121.419.222.626.325l1.322,2.24,1.736-1.061C514.873,170.1,516.089,168.148,516.089,165.16Z" transform="translate(-459.374 -147.632)"/><ellipse class="g" cx="6.678" cy="11.567" rx="6.678" ry="11.567" transform="matrix(0.863, -0.505, 0.505, 0.863, 34.591, 7.512)"/><path class="q" d="M509.518,161.952c0,2.89-2.04,4.052-4.558,2.6a10.047,10.047,0,0,1-4.558-7.862c0-2.89,2.042-4.052,4.558-2.6A10.042,10.042,0,0,1,509.518,161.952Z" transform="translate(-458.766 -145.192)"/><path class="k" d="M512.743,198.882a12.614,12.614,0,0,0-5.724-9.872c-1.628-.94-3.093-1-4.136-.353l-1.706.976,1.12,1.9c-.005.108-.015.21-.015.321a12.614,12.614,0,0,0,5.724,9.872c.146.084.291.155.436.225l.922,1.564,1.211-.742C511.893,202.33,512.743,200.966,512.743,198.882Z" transform="translate(-458.237 -121.483)"/><path class="g" d="M511.735,199.437c0,3.628-2.563,5.088-5.724,3.263a12.611,12.611,0,0,1-5.724-9.872c0-3.626,2.563-5.088,5.724-3.263A12.614,12.614,0,0,1,511.735,199.437Z" transform="translate(-458.844 -121.106)"/><path class="q" d="M508.159,196.644c0,2.015-1.423,2.827-3.179,1.813a7.009,7.009,0,0,1-3.181-5.485c0-2.015,1.425-2.826,3.181-1.812A7,7,0,0,1,508.159,196.644Z" transform="translate(-457.813 -119.781)"/><path class="h" d="M506.317,294.175a.84.84,0,0,1-.841-.841V204.413a.841.841,0,1,1,1.682,0v88.921A.839.839,0,0,1,506.317,294.175Z" transform="translate(-455.305 -111.018)"/><path class="h" d="M476.489,267.2a.84.84,0,0,1-.841-.841V251.5l.264-.247L526.218,203.8a.84.84,0,1,1,1.154,1.221l-50.042,47.2v14.136A.84.84,0,0,1,476.489,267.2Z" transform="translate(-475.648 -111.018)"/></g><g transform="translate(0 29.135)"><g transform="translate(0 26.008)"><path class="h" d="M378.3,119.866,413.725,99.5V92.633L378.3,113Z" transform="translate(-357.501 -80.388)"/><path class="c" d="M365.936,104.315l20.822,12.248V109.7L365.936,97.475Z" transform="translate(-365.936 -77.086)"/><path class="k" d="M365.936,105.742l20.822,12.223L422.16,97.6,401.3,85.353Z" transform="translate(-365.936 -85.353)"/></g><g transform="translate(0 17.322)"><path class="h" d="M378.3,114.7l35.422-20.365V87.469L378.3,107.836Z" transform="translate(-357.501 -75.224)"/><path class="c" d="M365.936,99.151,386.758,111.4v-6.865L365.936,92.311Z" transform="translate(-365.936 -71.922)"/><path class="k" d="M365.936,100.578,386.758,112.8l35.4-20.367L401.3,80.189Z" transform="translate(-365.936 -80.189)"/></g><g transform="translate(0 8.854)"><path class="h" d="M378.3,109.667,413.725,89.3V82.434L378.3,102.8Z" transform="translate(-357.501 -70.189)"/><path class="c" d="M365.936,94.117l20.822,12.248V99.5L365.936,87.276Z" transform="translate(-365.936 -66.887)"/><path class="k" d="M365.936,95.543l20.822,12.223L422.16,87.4,401.3,75.154Z" transform="translate(-365.936 -75.154)"/></g><path class="h" d="M378.3,104.4l35.422-20.365V77.171L378.3,97.538Z" transform="translate(-357.501 -64.926)"/><path class="c" d="M365.936,88.853,386.758,101.1V94.236L365.936,82.012Z" transform="translate(-365.936 -61.623)"/><path class="k" d="M365.936,90.279,386.758,102.5l35.4-20.367L401.3,69.891Z" transform="translate(-365.936 -69.891)"/></g><g transform="translate(14.887 276.612)"><path class="d" d="M374.787,255.619l59.268,34.514,60.073-34.56L434.8,221.022Z" transform="translate(-374.787 -214.294)"/><path class="h" d="M410.01,276.046,468.531,242.4v-5.378L410.01,270.671Z" transform="translate(-350.764 -203.382)"/><path class="c" d="M375.722,242.382l57.705,33.646v-5.375l-57.705-33.6Z" transform="translate(-374.149 -203.364)"/><path class="f" d="M375.722,250.707l57.705,33.6,58.489-33.649-57.767-33.64Z" transform="translate(-374.149 -217.022)"/><path class="m" d="M375.722,237.067l57.705,33.6,58.489-33.649-58.3,32.5Z" transform="translate(-374.149 -203.382)"/><path class="k" d="M410.11,260.923l35.422-20.365v-6.867L410.11,254.058Z" transform="translate(-350.696 -205.653)"/><path class="g" d="M389.355,240.547l34.928,20.365v-6.865l-34.928-20.34Z" transform="translate(-364.85 -205.643)"/><path class="f" d="M389.355,241.974l34.928,20.34,35.4-20.367L424.72,221.585Z" transform="translate(-364.85 -213.91)"/><path class="m" d="M389.355,233.718l34.928,20.34,35.4-20.367L424.4,252.711Z" transform="translate(-364.85 -205.654)"/></g><g transform="translate(74.216 98.583)"><path class="k" d="M422.914,120.691v4.141l3.612-2.08v-4.141Z" transform="translate(-401.292 -106.11)"/><path class="g" d="M431.692,124.913v4.141l-21.632-12.5v-4.13Z" transform="translate(-410.059 -110.331)"/><path class="f" d="M410.059,113.27l21.632,12.491,3.6-2.08-21.652-12.5Z" transform="translate(-410.059 -111.179)"/></g><g transform="translate(74.216 131.94)"><path class="k" d="M422.914,140.523v4.141l3.612-2.08v-4.141Z" transform="translate(-401.292 -125.941)"/><path class="g" d="M431.692,144.745v4.141l-21.632-12.5v-4.13Z" transform="translate(-410.059 -130.163)"/><path class="f" d="M410.059,133.1l21.632,12.491,3.6-2.08-21.652-12.5Z" transform="translate(-410.059 -131.011)"/></g><g transform="translate(74.216 165.167)"><path class="k" d="M422.914,160.278v4.141l3.612-2.08V158.2Z" transform="translate(-401.292 -145.696)"/><path class="g" d="M431.692,164.5v4.141l-21.632-12.5v-4.13Z" transform="translate(-410.059 -149.917)"/><path class="f" d="M410.059,152.856l21.632,12.491,3.6-2.08-21.652-12.5Z" transform="translate(-410.059 -150.765)"/></g><g transform="translate(74.216 198.281)"><path class="k" d="M422.914,179.965v4.141l3.612-2.08v-4.141Z" transform="translate(-401.292 -165.383)"/><path class="g" d="M431.692,184.186v4.141l-21.632-12.5V171.7Z" transform="translate(-410.059 -169.604)"/><path class="f" d="M410.059,172.543l21.632,12.491,3.6-2.08-21.652-12.5Z" transform="translate(-410.059 -170.452)"/></g><g transform="translate(74.216 231.638)"><path class="k" d="M422.914,199.8v4.141l3.612-2.08v-4.141Z" transform="translate(-401.292 -185.215)"/><path class="g" d="M431.692,204.018v4.141l-21.632-12.5v-4.13Z" transform="translate(-410.059 -189.436)"/><path class="f" d="M410.059,192.375l21.632,12.491,3.6-2.08-21.652-12.5Z" transform="translate(-410.059 -190.284)"/></g><g transform="translate(74.216 264.865)"><path class="k" d="M422.914,219.551v4.141l3.612-2.08v-4.141Z" transform="translate(-401.292 -204.969)"/><path class="g" d="M431.692,223.772v4.141l-21.632-12.5v-4.13Z" transform="translate(-410.059 -209.191)"/><path class="f" d="M410.059,212.129l21.632,12.491,3.6-2.08-21.652-12.5Z" transform="translate(-410.059 -210.038)"/></g><g transform="translate(49.1 65.469)"><path class="k" d="M398.739,101v4.141l-3.612-2.08V98.925Z" transform="translate(-395.127 -86.423)"/><path class="k" d="M397.268,105.226v4.141l21.632-12.5v-4.13Z" transform="translate(-393.666 -90.644)"/><path class="f" d="M420.361,93.583l-21.632,12.491-3.6-2.08,21.652-12.5Z" transform="translate(-395.127 -91.492)"/></g><g transform="translate(74.216 65.469)"><path class="k" d="M422.914,101v4.141l3.612-2.08V98.925Z" transform="translate(-401.292 -86.423)"/><path class="g" d="M431.692,105.226v4.141l-21.632-12.5v-4.13Z" transform="translate(-410.059 -90.644)"/><path class="f" d="M410.059,93.583l21.632,12.491,3.6-2.08-21.652-12.5Z" transform="translate(-410.059 -91.492)"/></g><g transform="translate(95.884 32.773)"><path class="k" d="M425.065,75.37V345.35l3.612-2.08V73.29Z" transform="translate(-421.492 -71.21)"/><path class="g" d="M426.524,75.365v269.98l-3.583-2.08V73.3Z" transform="translate(-422.941 -71.206)"/><path class="f" d="M422.941,74.144l3.583,2.069,3.6-2.08-3.6-2.08Z" transform="translate(-422.941 -72.053)"/></g><g transform="translate(74.216 80.232)"><path class="k" d="M413.671,109.781v4.141l-3.612-2.08V107.7Z" transform="translate(-410.059 -95.2)"/><path class="k" d="M412.2,114v4.141l21.633-12.5v-4.13Z" transform="translate(-408.599 -99.421)"/><path class="f" d="M435.294,102.36l-21.633,12.491-3.6-2.08,21.652-12.5Z" transform="translate(-410.059 -100.269)"/></g><g transform="translate(3.295 10.458)"><g transform="translate(3.487 20.212)"><path class="k" d="M373.58,77.1v4.141l-3.612-2.08V75.017Z" transform="translate(-369.968 -67.93)"/><path class="k" d="M372.109,79.122v4.141l11.79-7.087v-4.13Z" transform="translate(-368.507 -69.956)"/><path class="f" d="M385.36,72.894,373.57,79.97l-3.6-2.08L381.777,70.8Z" transform="translate(-369.968 -70.804)"/></g><g transform="translate(15.297 4.318)"><path class="k" d="M379.113,64.67V78.476l3.612-2.08V62.591Z" transform="translate(-375.54 -60.511)"/><path class="g" d="M380.572,64.666V78.471l-3.583-2.08V62.6Z" transform="translate(-376.989 -60.506)"/><path class="f" d="M376.989,63.445l3.583,2.069,3.6-2.08-3.6-2.08Z" transform="translate(-376.989 -61.354)"/></g><g transform="translate(14.949 17.836)"><path class="k" d="M519.507,154.279v4.141l3.612-2.08V152.2Z" transform="translate(-279.441 -12.914)"/><path class="g" d="M616.858,209.908v4.141L376.782,74.764v-4.13Z" transform="translate(-376.782 -68.543)"/><path class="f" d="M376.782,71.481,616.858,210.755l3.6-2.08L380.365,69.391Z" transform="translate(-376.782 -69.391)"/></g><g transform="translate(45.061 44.143)"><path class="k" d="M398.3,91.324v4.141l-3.612-2.08V89.244Z" transform="translate(-394.684 -82.157)"/><path class="k" d="M396.826,93.349v4.141l11.79-7.087v-4.13Z" transform="translate(-393.224 -84.183)"/><path class="f" d="M410.076,87.122,398.287,94.2l-3.6-2.08,11.809-7.087Z" transform="translate(-394.684 -85.031)"/></g><g transform="translate(56.871 28.403)"><path class="k" d="M403.83,78.989V92.795l3.612-2.08V76.909Z" transform="translate(-400.257 -74.83)"/><path class="g" d="M405.289,78.985V92.79l-3.583-2.08V76.916Z" transform="translate(-401.706 -74.825)"/><path class="f" d="M401.706,77.764l3.583,2.069,3.6-2.08-3.6-2.08Z" transform="translate(-401.706 -75.673)"/></g><g transform="translate(24.338 32.274)"><path class="k" d="M385.976,84.267v4.141l-3.612-2.08V82.188Z" transform="translate(-382.364 -75.101)"/><path class="k" d="M384.506,86.293v4.141l11.79-7.087v-4.13Z" transform="translate(-380.904 -77.127)"/><path class="f" d="M397.756,80.065l-11.79,7.076-3.6-2.08,11.809-7.087Z" transform="translate(-382.364 -77.975)"/></g><g transform="translate(36.148 16.38)"><path class="k" d="M391.51,71.841V85.647l3.612-2.08V69.761Z" transform="translate(-387.937 -67.682)"/><path class="g" d="M392.968,71.837V85.642l-3.583-2.08V69.768Z" transform="translate(-389.385 -67.677)"/><path class="f" d="M389.385,70.616l3.583,2.069,3.6-2.08-3.6-2.08Z" transform="translate(-389.385 -68.525)"/></g><g transform="translate(190.377 128.51)"><path class="k" d="M484.69,141.482v4.141l-3.612-2.08V139.4Z" transform="translate(-481.078 -132.316)"/><path class="k" d="M483.22,143.508v4.141l11.79-7.087v-4.13Z" transform="translate(-479.618 -134.341)"/><path class="f" d="M496.47,137.28l-11.79,7.076-3.6-2.08,11.809-7.086Z" transform="translate(-481.078 -135.189)"/></g><g transform="translate(202.187 112.769)"><path class="k" d="M490.224,129.147v13.805l3.612-2.08V127.068Z" transform="translate(-486.651 -124.988)"/><path class="g" d="M491.682,129.143v13.805l-3.583-2.08V127.074Z" transform="translate(-488.099 -124.983)"/><path class="f" d="M488.1,127.922l3.583,2.069,3.6-2.08-3.6-2.08Z" transform="translate(-488.099 -125.831)"/></g><g transform="translate(169.654 116.64)"><path class="k" d="M472.37,134.425v4.141l-3.612-2.08v-4.141Z" transform="translate(-468.758 -125.259)"/><path class="k" d="M470.9,136.451v4.141l11.79-7.087v-4.13Z" transform="translate(-467.298 -127.285)"/><path class="f" d="M484.15,130.223,472.36,137.3l-3.6-2.08,11.809-7.087Z" transform="translate(-468.758 -128.133)"/></g><g transform="translate(181.464 100.9)"><path class="k" d="M477.9,122.091V135.9l3.612-2.08V120.011Z" transform="translate(-474.33 -117.931)"/><path class="g" d="M479.362,122.086v13.805l-3.583-2.08V120.018Z" transform="translate(-475.779 -117.927)"/><path class="f" d="M475.779,120.865l3.583,2.069,3.6-2.08-3.6-2.08Z" transform="translate(-475.779 -118.775)"/></g><g transform="translate(148.803 104.579)"><path class="k" d="M459.974,127.254V131.4l-3.612-2.08v-4.141Z" transform="translate(-456.362 -118.088)"/><path class="k" d="M458.5,129.28v4.141l11.79-7.087V122.2Z" transform="translate(-454.901 -120.114)"/><path class="f" d="M471.753,123.052l-11.79,7.076-3.6-2.08,11.809-7.087Z" transform="translate(-456.362 -120.962)"/></g><g transform="translate(160.613 88.839)"><path class="k" d="M465.507,114.92v13.805l3.612-2.08V112.84Z" transform="translate(-461.934 -110.76)"/><path class="g" d="M466.966,114.915v13.805l-3.583-2.08V112.847Z" transform="translate(-463.383 -110.756)"/><path class="f" d="M463.383,113.694l3.583,2.069,3.6-2.08-3.6-2.08Z" transform="translate(-463.383 -111.604)"/></g><g transform="translate(128.08 92.389)"><path class="k" d="M447.653,120.007v4.141l-3.612-2.08v-4.141Z" transform="translate(-444.041 -110.841)"/><path class="k" d="M446.183,122.033v4.141l11.79-7.087v-4.13Z" transform="translate(-442.581 -112.867)"/><path class="f" d="M459.433,115.805l-11.79,7.076-3.6-2.08,11.809-7.087Z" transform="translate(-444.041 -113.714)"/></g><g transform="translate(139.89 76.649)"><path class="k" d="M453.187,107.673v13.805l3.612-2.08V105.593Z" transform="translate(-449.614 -103.513)"/><path class="g" d="M454.646,107.668v13.805l-3.583-2.08V105.6Z" transform="translate(-451.063 -103.509)"/><path class="f" d="M451.063,106.447l3.583,2.069,3.6-2.08-3.6-2.08Z" transform="translate(-451.063 -104.357)"/></g><g transform="translate(107.229 80.328)"><path class="k" d="M435.257,112.837v4.141l-3.612-2.08v-4.141Z" transform="translate(-431.645 -103.67)"/><path class="k" d="M433.786,114.862V119l11.79-7.087v-4.13Z" transform="translate(-430.184 -105.696)"/><path class="f" d="M447.037,108.634l-11.79,7.076-3.6-2.08,11.809-7.086Z" transform="translate(-431.645 -106.544)"/></g><g transform="translate(119.039 64.587)"><path class="k" d="M440.791,100.5v13.805l3.612-2.08V98.422Z" transform="translate(-437.217 -96.342)"/><path class="g" d="M442.249,100.5V114.3l-3.583-2.08V98.429Z" transform="translate(-438.666 -96.338)"/><path class="f" d="M438.666,99.276l3.583,2.069,3.6-2.08-3.6-2.08Z" transform="translate(-438.666 -97.186)"/></g><g transform="translate(86.507 68.458)"><path class="k" d="M422.937,105.78v4.141l-3.612-2.08V103.7Z" transform="translate(-419.325 -96.614)"/><path class="k" d="M421.466,107.806v4.141l11.79-7.087v-4.13Z" transform="translate(-417.864 -98.639)"/><path class="f" d="M434.717,101.578l-11.79,7.076-3.6-2.08,11.809-7.087Z" transform="translate(-419.325 -99.487)"/></g><g transform="translate(98.316 52.718)"><path class="k" d="M428.47,93.445v13.805l3.612-2.08V91.366Z" transform="translate(-424.897 -89.286)"/><path class="g" d="M429.929,93.441v13.805l-3.583-2.08V91.372Z" transform="translate(-426.346 -89.281)"/><path class="f" d="M426.346,92.22l3.583,2.069,3.6-2.08-3.6-2.08Z" transform="translate(-426.346 -90.129)"/></g><g transform="translate(65.655 56.397)"><path class="k" d="M410.54,98.609v4.141l-3.612-2.08V96.529Z" transform="translate(-406.928 -89.443)"/><path class="k" d="M409.07,100.635v4.141l11.79-7.087v-4.13Z" transform="translate(-405.468 -91.468)"/><path class="f" d="M422.32,94.407l-11.79,7.075-3.6-2.08,11.809-7.087Z" transform="translate(-406.928 -92.316)"/></g><g transform="translate(77.465 40.657)"><path class="k" d="M416.074,86.275V100.08L419.686,98V84.195Z" transform="translate(-412.501 -82.115)"/><path class="g" d="M417.533,86.27v13.805L413.95,98V84.2Z" transform="translate(-413.95 -82.111)"/><path class="f" d="M413.95,85.049l3.583,2.069,3.6-2.08-3.6-2.08Z" transform="translate(-413.95 -82.958)"/></g><g transform="translate(211.228 140.571)"><path class="k" d="M497.087,148.653v4.141l-3.612-2.08v-4.141Z" transform="translate(-493.475 -139.486)"/><path class="k" d="M495.616,150.678v4.141l11.79-7.087V143.6Z" transform="translate(-492.014 -141.512)"/><path class="f" d="M508.866,144.451l-11.79,7.076-3.6-2.08,11.809-7.087Z" transform="translate(-493.475 -142.36)"/></g><g transform="translate(0 27.138)"><path class="k" d="M510.467,159.657V163.8l3.612-2.08v-4.141Z" transform="translate(-270.658 -18.549)"/><path class="g" d="M607.714,215.182v4.141L367.895,80.295v-4.13Z" transform="translate(-367.895 -74.074)"/><path class="f" d="M367.895,77.012,607.714,216.03l3.6-2.08L371.477,74.921Z" transform="translate(-367.895 -74.921)"/></g><g transform="translate(223.038 124.831)"><path class="k" d="M502.62,136.318v13.805l3.612-2.08V134.238Z" transform="translate(-499.047 -132.159)"/><path class="g" d="M504.079,136.314v13.805l-3.583-2.08V134.245Z" transform="translate(-500.496 -132.154)"/><path class="f" d="M500.5,135.093l3.583,2.069,3.6-2.08-3.6-2.08Z" transform="translate(-500.496 -133.002)"/></g><g transform="translate(15.205)"><path class="k" d="M509.781,138.03v4.141l3.612-2.08V135.95Z" transform="translate(-286.331 -6.16)"/><path class="g" d="M600.394,189.809v4.141L376.934,64.16V60.03Z" transform="translate(-376.934 -57.939)"/><path class="f" d="M376.934,60.878,600.394,190.656l3.6-2.08L380.517,58.787Z" transform="translate(-376.934 -58.787)"/></g><g transform="translate(239.617 157.027)"><path class="k" d="M513.965,158.436v4.141l-3.612-2.08v-4.141Z" transform="translate(-510.353 -149.27)"/><path class="k" d="M512.495,160.462V164.6l11.79-7.086v-4.13Z" transform="translate(-508.892 -151.296)"/><path class="f" d="M525.745,154.234l-11.79,7.076-3.6-2.08,11.809-7.087Z" transform="translate(-510.353 -152.143)"/></g><g transform="translate(235.033 129.841)"><path class="k" d="M509.752,138.06l16.41,27.266,3.612-2.08-16.41-27.266Z" transform="translate(-506.179 -135.981)"/><path class="g" d="M511.211,138.056l16.41,27.266-3.583-2.08-16.41-27.255Z" transform="translate(-507.628 -135.976)"/></g><rect class="h" width="1.682" height="236.034" transform="translate(23.781 34.383) rotate(-59.841)"/><g transform="translate(207.784 133.829)"><path class="k" d="M493.552,141.668v13.805l3.612-2.08V139.588Z" transform="translate(-489.979 -137.508)"/><path class="g" d="M495.01,141.663v13.805l-3.583-2.08V139.594Z" transform="translate(-491.428 -137.504)"/><path class="f" d="M491.428,140.442l3.583,2.069,3.6-2.08-3.6-2.08Z" transform="translate(-491.428 -138.351)"/></g><g transform="translate(211.228 122.768)"><path class="k" d="M497.087,138.068v4.141l-3.612-2.08v-4.141Z" transform="translate(-493.475 -128.902)"/><path class="k" d="M495.616,140.094v4.141l11.79-7.087v-4.13Z" transform="translate(-492.014 -130.927)"/><path class="f" d="M508.866,133.866l-11.79,7.076-3.6-2.08,11.809-7.087Z" transform="translate(-493.475 -131.775)"/></g><g transform="translate(186.933 121.767)"><path class="k" d="M481.155,134.5V148.3l3.612-2.08V132.417Z" transform="translate(-477.582 -130.337)"/><path class="g" d="M482.614,134.492V148.3l-3.583-2.08V132.424Z" transform="translate(-479.031 -130.333)"/><path class="f" d="M479.031,133.271l3.583,2.069,3.6-2.08-3.6-2.08Z" transform="translate(-479.031 -131.181)"/></g><g transform="translate(190.377 110.706)"><path class="k" d="M484.69,130.9v4.141l-3.612-2.08v-4.141Z" transform="translate(-481.078 -121.731)"/><path class="k" d="M483.22,132.923v4.141l11.79-7.087v-4.13Z" transform="translate(-479.618 -123.757)"/><path class="f" d="M496.47,126.7l-11.79,7.076-3.6-2.08,11.809-7.087Z" transform="translate(-481.078 -124.604)"/></g><g transform="translate(166.211 109.898)"><path class="k" d="M468.835,127.44v13.805l3.612-2.08V125.361Z" transform="translate(-465.262 -123.281)"/><path class="g" d="M470.294,127.436v13.805l-3.583-2.08V125.367Z" transform="translate(-466.711 -123.276)"/><path class="f" d="M466.711,126.215l3.583,2.069,3.6-2.08-3.6-2.08Z" transform="translate(-466.711 -124.124)"/></g><g transform="translate(169.654 98.837)"><path class="k" d="M472.37,123.841v4.141l-3.612-2.08v-4.141Z" transform="translate(-468.758 -114.674)"/><path class="k" d="M470.9,125.866v4.141l11.79-7.087v-4.13Z" transform="translate(-467.298 -116.7)"/><path class="f" d="M484.15,119.639l-11.79,7.076-3.6-2.08,11.809-7.087Z" transform="translate(-468.758 -117.548)"/></g><g transform="translate(145.36 97.837)"><path class="k" d="M456.439,120.269v13.805l3.612-2.08V118.19Z" transform="translate(-452.866 -116.11)"/><path class="g" d="M457.9,120.265V134.07l-3.583-2.08V118.2Z" transform="translate(-454.314 -116.105)"/><path class="f" d="M454.314,119.044l3.583,2.069,3.6-2.08-3.6-2.08Z" transform="translate(-454.314 -116.953)"/></g><g transform="translate(148.803 86.775)"><path class="k" d="M459.974,116.67v4.141l-3.612-2.08V114.59Z" transform="translate(-456.362 -107.503)"/><path class="k" d="M458.5,118.7v4.141l11.79-7.087v-4.13Z" transform="translate(-454.901 -109.529)"/><path class="f" d="M471.753,112.468l-11.79,7.075-3.6-2.08,11.809-7.087Z" transform="translate(-456.362 -110.377)"/></g><g transform="translate(124.637 85.647)"><path class="k" d="M444.118,113.022v13.805l3.612-2.08V110.943Z" transform="translate(-440.545 -108.863)"/><path class="g" d="M445.577,113.018v13.805l-3.583-2.08V110.949Z" transform="translate(-441.994 -108.858)"/><path class="f" d="M441.994,111.8l3.583,2.069,3.6-2.08-3.6-2.08Z" transform="translate(-441.994 -109.706)"/></g><g transform="translate(128.08 74.585)"><path class="k" d="M447.653,109.423v4.141l-3.612-2.08v-4.141Z" transform="translate(-444.041 -100.256)"/><path class="k" d="M446.183,111.448v4.141l11.79-7.087v-4.13Z" transform="translate(-442.581 -102.282)"/><path class="f" d="M459.433,105.221l-11.79,7.076-3.6-2.08,11.809-7.087Z" transform="translate(-444.041 -103.13)"/></g><g transform="translate(103.786 73.585)"><path class="k" d="M431.722,105.851v13.805l3.612-2.08V103.772Z" transform="translate(-428.149 -101.692)"/><path class="g" d="M433.181,105.847v13.805l-3.583-2.08V103.778Z" transform="translate(-429.598 -101.687)"/><path class="f" d="M429.6,104.626l3.583,2.069,3.6-2.08-3.6-2.08Z" transform="translate(-429.598 -102.535)"/></g><g transform="translate(107.229 62.524)"><path class="k" d="M435.257,102.252v4.141l-3.612-2.08v-4.141Z" transform="translate(-431.645 -93.085)"/><path class="k" d="M433.786,104.277v4.141l11.79-7.087V97.2Z" transform="translate(-430.184 -95.111)"/><path class="f" d="M447.037,98.05l-11.79,7.076-3.6-2.08,11.809-7.087Z" transform="translate(-431.645 -95.959)"/></g><g transform="translate(83.063 61.716)"><path class="k" d="M419.4,98.795V112.6l3.612-2.08V96.715Z" transform="translate(-415.829 -94.635)"/><path class="g" d="M420.86,98.79V112.6l-3.583-2.08V96.722Z" transform="translate(-417.277 -94.631)"/><path class="f" d="M417.277,97.569l3.583,2.069,3.6-2.08-3.6-2.08Z" transform="translate(-417.277 -95.479)"/></g><g transform="translate(86.507 50.655)"><path class="k" d="M422.937,95.2v4.141l-3.612-2.08V93.116Z" transform="translate(-419.325 -86.029)"/><path class="k" d="M421.466,97.221v4.141l11.79-7.087v-4.13Z" transform="translate(-417.864 -88.055)"/><path class="f" d="M434.717,90.993l-11.79,7.075-3.6-2.08L431.134,88.9Z" transform="translate(-419.325 -88.902)"/></g><g transform="translate(62.212 49.655)"><path class="k" d="M407.005,91.624v13.805l3.612-2.08V89.544Z" transform="translate(-403.432 -87.464)"/><path class="g" d="M408.464,91.619v13.805l-3.583-2.08V89.551Z" transform="translate(-404.881 -87.46)"/><path class="f" d="M404.881,90.4l3.583,2.069,3.6-2.08-3.6-2.08Z" transform="translate(-404.881 -88.308)"/></g><g transform="translate(65.655 38.593)"><path class="k" d="M410.54,88.025v4.141l-3.612-2.08V85.945Z" transform="translate(-406.928 -78.858)"/><path class="k" d="M409.07,90.05v4.141L420.86,87.1v-4.13Z" transform="translate(-405.468 -80.884)"/><path class="f" d="M422.32,83.822,410.53,90.9l-3.6-2.08,11.809-7.087Z" transform="translate(-406.928 -81.732)"/></g><g transform="translate(41.618 37.401)"><path class="k" d="M394.761,84.339V98.144l3.612-2.08V82.259Z" transform="translate(-391.188 -80.179)"/><path class="g" d="M396.22,84.334V98.14l-3.583-2.08V82.265Z" transform="translate(-392.637 -80.175)"/><path class="f" d="M392.637,83.113l3.583,2.069,3.6-2.08-3.6-2.08Z" transform="translate(-392.637 -81.022)"/></g><g transform="translate(45.061 26.339)"><path class="k" d="M398.3,80.739v4.141l-3.612-2.08V78.659Z" transform="translate(-394.684 -71.573)"/><path class="k" d="M396.826,82.765v4.141l11.79-7.087v-4.13Z" transform="translate(-393.224 -73.599)"/><path class="f" d="M410.076,76.537l-11.79,7.076-3.6-2.08,11.809-7.086Z" transform="translate(-394.684 -74.446)"/></g><g transform="translate(20.895 25.378)"><path class="k" d="M382.441,77.191V91l3.612-2.08V75.111Z" transform="translate(-378.868 -73.031)"/><path class="g" d="M383.9,77.186V90.991l-3.583-2.08V75.118Z" transform="translate(-380.317 -73.027)"/><path class="f" d="M380.317,75.965l3.583,2.069,3.6-2.08-3.6-2.08Z" transform="translate(-380.317 -73.874)"/></g><g transform="translate(24.338 14.47)"><path class="k" d="M385.976,73.683v4.141l-3.612-2.08V71.6Z" transform="translate(-382.364 -64.516)"/><path class="k" d="M384.506,75.708V79.85l11.79-7.087v-4.13Z" transform="translate(-380.904 -66.542)"/><path class="f" d="M397.756,69.481l-11.79,7.076-3.6-2.08,11.809-7.087Z" transform="translate(-382.364 -67.39)"/></g><g transform="translate(0.044 13.316)"><path class="k" d="M370.045,70.02V83.825l3.612-2.08V67.94Z" transform="translate(-366.472 -65.86)"/><path class="g" d="M371.5,70.015V83.821l-3.583-2.08V67.947Z" transform="translate(-367.92 -65.856)"/><path class="f" d="M367.92,68.794l3.583,2.069,3.6-2.08-3.6-2.08Z" transform="translate(-367.92 -66.704)"/></g><g transform="translate(3.487 2.101)"><path class="k" d="M373.58,66.329V70.47l-3.612-2.08V64.249Z" transform="translate(-369.968 -57.162)"/><path class="k" d="M372.109,68.354V72.5l11.79-7.087v-4.13Z" transform="translate(-368.507 -59.188)"/><path class="f" d="M385.36,62.127,373.57,69.2l-3.6-2.08,11.809-7.087Z" transform="translate(-369.968 -60.036)"/></g><g transform="translate(0 9.046)"><path class="k" d="M500.741,143.408v4.141l3.612-2.08v-4.141Z" transform="translate(-277.291 -11.539)"/><path class="g" d="M591.354,195.187v4.141L367.895,69.538v-4.13Z" transform="translate(-367.895 -63.317)"/><path class="f" d="M367.895,66.256,591.354,196.035l3.6-2.08L371.477,64.165Z" transform="translate(-367.895 -64.165)"/></g><g transform="translate(219.86 138.871)"><path class="k" d="M500.731,143.429l16.474,27.427,3.612-2.08-16.474-27.427Z" transform="translate(-497.158 -141.349)"/><path class="g" d="M502.19,143.424l16.474,27.427-3.583-2.08-16.474-27.416Z" transform="translate(-498.607 -141.345)"/></g></g><g transform="translate(70.768 4.422)"><path class="k" d="M410.133,58.514V342.305l3.612-2.08V56.435Z" transform="translate(-406.56 -54.355)"/><path class="g" d="M411.592,58.51V342.3l-3.583-2.08V56.441Z" transform="translate(-408.009 -54.35)"/><path class="f" d="M408.009,57.289l3.583,2.069,3.6-2.08-3.6-2.08Z" transform="translate(-408.009 -55.198)"/></g><g transform="translate(49.1 98.583)"><path class="k" d="M398.739,120.691v4.141l-3.612-2.08v-4.141Z" transform="translate(-395.127 -106.11)"/><path class="k" d="M397.268,124.913v4.141l21.632-12.5v-4.13Z" transform="translate(-393.666 -110.331)"/><path class="f" d="M420.361,113.27l-21.632,12.491-3.6-2.08,21.652-12.5Z" transform="translate(-395.127 -111.179)"/></g><g transform="translate(49.1 131.94)"><path class="k" d="M398.739,140.523v4.141l-3.612-2.08v-4.141Z" transform="translate(-395.127 -125.941)"/><path class="k" d="M397.268,144.745v4.141l21.632-12.5v-4.13Z" transform="translate(-393.666 -130.163)"/><path class="f" d="M420.361,133.1l-21.632,12.491-3.6-2.08,21.652-12.5Z" transform="translate(-395.127 -131.011)"/></g><g transform="translate(49.1 165.167)"><path class="k" d="M398.739,160.278v4.141l-3.612-2.08V158.2Z" transform="translate(-395.127 -145.696)"/><path class="k" d="M397.268,164.5v4.141l21.632-12.5v-4.13Z" transform="translate(-393.666 -149.917)"/><path class="f" d="M420.361,152.856l-21.632,12.491-3.6-2.08,21.652-12.5Z" transform="translate(-395.127 -150.765)"/></g><g transform="translate(49.1 198.281)"><path class="k" d="M398.739,179.965v4.141l-3.612-2.08v-4.141Z" transform="translate(-395.127 -165.383)"/><path class="k" d="M397.268,184.186v4.141l21.632-12.5V171.7Z" transform="translate(-393.666 -169.604)"/><path class="f" d="M420.361,172.543l-21.632,12.491-3.6-2.08,21.652-12.5Z" transform="translate(-395.127 -170.452)"/></g><g transform="translate(49.1 231.638)"><path class="k" d="M398.739,199.8v4.141l-3.612-2.08v-4.141Z" transform="translate(-395.127 -185.215)"/><path class="k" d="M397.268,204.018v4.141l21.632-12.5v-4.13Z" transform="translate(-393.666 -189.436)"/><path class="f" d="M420.361,192.375l-21.632,12.491-3.6-2.08,21.652-12.5Z" transform="translate(-395.127 -190.284)"/></g><g transform="translate(49.1 264.865)"><path class="k" d="M398.739,219.551v4.141l-3.612-2.08v-4.141Z" transform="translate(-395.127 -204.969)"/><path class="k" d="M397.268,223.772v4.141l21.632-12.5v-4.13Z" transform="translate(-393.666 -209.191)"/><path class="f" d="M420.361,212.129,398.729,224.62l-3.6-2.08,21.652-12.5Z" transform="translate(-395.127 -210.038)"/></g><g transform="translate(45.536 18.649)"><path class="k" d="M395.132,66.973V351.114l3.612-2.08V64.893Z" transform="translate(-391.559 -62.813)"/><path class="g" d="M396.591,66.968V351.109l-3.583-2.08V64.9Z" transform="translate(-393.008 -62.809)"/><path class="f" d="M393.008,65.747l3.583,2.069,3.6-2.08-3.6-2.08Z" transform="translate(-393.008 -63.656)"/></g><g transform="translate(49.1 279.628)"><path class="k" d="M407.982,228.328v4.141l3.612-2.08v-4.141Z" transform="translate(-386.359 -213.746)"/><path class="g" d="M416.759,232.549v4.141l-21.633-12.5v-4.13Z" transform="translate(-395.127 -217.967)"/><path class="f" d="M395.127,220.906,416.759,233.4l3.6-2.08-21.652-12.5Z" transform="translate(-395.127 -218.815)"/></g><g transform="translate(49.1 250.808)"><path class="k" d="M407.982,225.828v4.141l3.612-2.08v-4.141Z" transform="translate(-386.359 -186.631)"/><path class="g" d="M416.759,240.03v4.141l-21.633-37.117v-4.13Z" transform="translate(-395.127 -200.833)"/><path class="f" d="M395.127,203.772l21.633,37.106,3.6-2.08L398.71,201.681Z" transform="translate(-395.127 -201.681)"/></g><g transform="translate(49.1 246.401)"><path class="k" d="M407.982,208.573v4.142l3.612-2.08v-4.141Z" transform="translate(-386.359 -193.991)"/><path class="g" d="M416.759,212.795v4.141l-21.633-12.5V200.3Z" transform="translate(-395.127 -198.213)"/><path class="f" d="M395.127,201.151l21.633,12.491,3.6-2.08-21.652-12.5Z" transform="translate(-395.127 -199.061)"/></g><g transform="translate(74.216 279.628)"><path class="k" d="M413.671,228.328v4.141l-3.612-2.08v-4.141Z" transform="translate(-410.059 -213.746)"/><path class="k" d="M412.2,232.549v4.141l21.633-12.5v-4.13Z" transform="translate(-408.599 -217.967)"/><path class="f" d="M435.294,220.906,413.661,233.4l-3.6-2.08,21.652-12.5Z" transform="translate(-410.059 -218.815)"/></g><g transform="translate(74.216 250.668)"><path class="k" d="M413.671,228.328v4.141l-3.612-2.08v-4.141Z" transform="translate(-410.059 -184.785)"/><path class="k" d="M412.2,244.292v4.141l21.633-41.462v-4.13Z" transform="translate(-408.599 -200.75)"/><path class="f" d="M435.294,203.688,413.661,245.14l-3.6-2.08L431.711,201.6Z" transform="translate(-410.059 -201.597)"/></g><g transform="translate(74.216 246.401)"><path class="k" d="M413.671,208.573v4.142l-3.612-2.08v-4.141Z" transform="translate(-410.059 -193.991)"/><path class="k" d="M412.2,212.795v4.141l21.633-12.5V200.3Z" transform="translate(-408.599 -198.213)"/><path class="f" d="M435.294,201.151l-21.633,12.491-3.6-2.08,21.652-12.5Z" transform="translate(-410.059 -199.061)"/></g><g transform="translate(74.216 213.453)"><path class="k" d="M413.671,206.2v4.141l-3.612-2.08v-4.141Z" transform="translate(-410.059 -162.66)"/><path class="k" d="M412.2,222.167v4.141l21.633-41.462v-4.13Z" transform="translate(-408.599 -178.625)"/><path class="f" d="M435.294,181.563l-21.633,41.451-3.6-2.08,21.652-41.463Z" transform="translate(-410.059 -179.472)"/></g><g transform="translate(74.216 213.044)"><path class="k" d="M413.671,188.742v4.141l-3.612-2.08v-4.141Z" transform="translate(-410.059 -174.16)"/><path class="k" d="M412.2,192.963V197.1l21.633-12.5v-4.13Z" transform="translate(-408.599 -178.381)"/><path class="f" d="M435.294,181.32l-21.633,12.491-3.6-2.08,21.652-12.5Z" transform="translate(-410.059 -179.229)"/></g><g transform="translate(49.1 113.345)"><path class="k" d="M407.982,129.468v4.141l3.612-2.08v-4.141Z" transform="translate(-386.359 -114.887)"/><path class="g" d="M416.759,133.69v4.141l-21.633-12.5V121.2Z" transform="translate(-395.127 -119.108)"/><path class="f" d="M395.127,122.047l21.633,12.491,3.6-2.08-21.652-12.5Z" transform="translate(-395.127 -119.956)"/></g><g transform="translate(74.216 113.345)"><path class="k" d="M413.671,129.468v4.141l-3.612-2.08v-4.141Z" transform="translate(-410.059 -114.887)"/><path class="k" d="M412.2,133.69v4.141l21.633-12.5V121.2Z" transform="translate(-408.599 -119.108)"/><path class="f" d="M435.294,122.047l-21.633,12.491-3.6-2.08,21.652-12.5Z" transform="translate(-410.059 -119.956)"/></g><g transform="translate(49.1 80.232)"><path class="k" d="M407.982,109.781v4.141l3.612-2.08V107.7Z" transform="translate(-386.359 -95.2)"/><path class="g" d="M416.759,114v4.141l-21.633-12.5v-4.13Z" transform="translate(-395.127 -99.421)"/><path class="f" d="M395.127,102.36l21.633,12.491,3.6-2.08-21.652-12.5Z" transform="translate(-395.127 -100.269)"/></g><g transform="translate(70.597)"><path class="k" d="M415.364,59.113v4.141l3.612-2.08V57.034Z" transform="translate(-402.821 -49.525)"/><path class="g" d="M420.459,61.31v4.141l-12.552-7.509v-4.13Z" transform="translate(-407.907 -51.722)"/><path class="f" d="M407.907,54.66l12.552,7.5,3.6-2.08L411.49,52.569Z" transform="translate(-407.907 -52.569)"/></g><g transform="translate(79.518 7.56)"><path class="k" d="M415.335,59.144l16.41,27.266,3.612-2.08-16.41-27.266Z" transform="translate(-411.762 -57.064)"/><path class="g" d="M416.794,59.139,433.2,86.406l-3.583-2.08-16.41-27.255Z" transform="translate(-413.211 -57.06)"/></g><g transform="translate(49.1 2.23)"><path class="k" d="M398.739,63.407v4.141l-3.612-2.08V61.328Z" transform="translate(-395.127 -48.826)"/><path class="k" d="M397.268,67.629V71.77l21.632-12.5v-4.13Z" transform="translate(-393.666 -53.047)"/><path class="f" d="M420.361,55.986,398.729,68.477l-3.6-2.08,21.652-12.5Z" transform="translate(-395.127 -53.895)"/></g><g transform="translate(74.12 34.819)"><path class="k" d="M413.614,82.782v4.141L410,84.844V80.7Z" transform="translate(-410.002 -68.201)"/><path class="k" d="M412.143,87v4.141l21.632-12.5v-4.13Z" transform="translate(-408.541 -72.422)"/><path class="f" d="M435.236,75.361,413.6,87.852l-3.6-2.08,21.652-12.5Z" transform="translate(-410.002 -73.27)"/></g><g transform="translate(74.216 180.023)"><path class="k" d="M413.671,186.328v4.141l-3.612-2.08v-4.141Z" transform="translate(-410.059 -142.785)"/><path class="k" d="M412.2,202.292v4.141l21.633-41.462v-4.13Z" transform="translate(-408.599 -158.75)"/><path class="f" d="M435.294,161.688,413.661,203.14l-3.6-2.08L431.711,159.6Z" transform="translate(-410.059 -159.597)"/></g><g transform="translate(74.216 179.93)"><path class="k" d="M413.671,169.055V173.2l-3.612-2.08v-4.141Z" transform="translate(-410.059 -154.473)"/><path class="k" d="M412.2,173.276v4.141l21.633-12.5v-4.13Z" transform="translate(-408.599 -158.694)"/><path class="f" d="M435.294,161.633l-21.633,12.491-3.6-2.08,21.652-12.5Z" transform="translate(-410.059 -159.542)"/></g><g transform="translate(74.216 146.873)"><path class="k" d="M413.671,166.619v4.141l-3.612-2.08v-4.141Z" transform="translate(-410.059 -123.077)"/><path class="k" d="M412.2,182.584v4.141l21.633-41.462v-4.13Z" transform="translate(-408.599 -139.041)"/><path class="f" d="M435.294,141.98l-21.633,41.451-3.6-2.08,21.652-41.462Z" transform="translate(-410.059 -139.889)"/></g><g transform="translate(74.216 146.703)"><path class="k" d="M413.671,149.3v4.141l-3.612-2.08V147.22Z" transform="translate(-410.059 -134.718)"/><path class="k" d="M412.2,153.522v4.141l21.633-12.5v-4.13Z" transform="translate(-408.599 -138.94)"/><path class="f" d="M435.294,141.878l-21.633,12.491-3.6-2.08,21.652-12.5Z" transform="translate(-410.059 -139.788)"/></g><g transform="translate(74.216 113.934)"><path class="k" d="M413.671,147.036v4.142l-3.612-2.08v-4.141Z" transform="translate(-410.059 -103.494)"/><path class="k" d="M412.2,163v4.141l21.633-41.463v-4.13Z" transform="translate(-408.599 -119.458)"/><path class="f" d="M435.294,122.4l-21.633,41.451-3.6-2.08,21.652-41.462Z" transform="translate(-410.059 -120.306)"/></g><g transform="translate(49.1 217.588)"><path class="k" d="M407.982,206.078v4.141l3.612-2.08V204Z" transform="translate(-386.359 -166.881)"/><path class="g" d="M416.759,220.28v4.141L395.127,187.3v-4.13Z" transform="translate(-395.127 -181.083)"/><path class="f" d="M395.127,184.022l21.633,37.106,3.6-2.08L398.71,181.931Z" transform="translate(-395.127 -181.931)"/></g><g transform="translate(49.1 213.044)"><path class="k" d="M407.982,188.742v4.141l3.612-2.08v-4.141Z" transform="translate(-386.359 -174.16)"/><path class="g" d="M416.759,192.963V197.1l-21.633-12.5v-4.13Z" transform="translate(-395.127 -178.381)"/><path class="f" d="M395.127,181.32l21.633,12.491,3.6-2.08-21.652-12.5Z" transform="translate(-395.127 -179.229)"/></g><g transform="translate(49.1 184.368)"><path class="k" d="M407.982,186.328v4.141l3.612-2.08v-4.141Z" transform="translate(-386.359 -147.131)"/><path class="g" d="M416.759,200.53v4.141l-21.633-37.117v-4.13Z" transform="translate(-395.127 -161.333)"/><path class="f" d="M395.127,164.272l21.633,37.106,3.6-2.08L398.71,162.181Z" transform="translate(-395.127 -162.181)"/></g><g transform="translate(49.1 179.93)"><path class="k" d="M407.982,169.055V173.2l3.612-2.08v-4.141Z" transform="translate(-386.359 -154.473)"/><path class="g" d="M416.759,173.276v4.141l-21.633-12.5v-4.13Z" transform="translate(-395.127 -158.694)"/><path class="f" d="M395.127,161.633l21.633,12.491,3.6-2.08-21.652-12.5Z" transform="translate(-395.127 -159.542)"/></g><g transform="translate(49.1 151.148)"><path class="k" d="M407.982,166.578v4.141l3.612-2.08V164.5Z" transform="translate(-386.359 -127.381)"/><path class="g" d="M416.759,180.78v4.141L395.127,147.8v-4.13Z" transform="translate(-395.127 -141.583)"/><path class="f" d="M395.127,144.522l21.633,37.106,3.6-2.08L398.71,142.431Z" transform="translate(-395.127 -142.431)"/></g><g transform="translate(49.1 146.703)"><path class="k" d="M407.982,149.3v4.141l3.612-2.08V147.22Z" transform="translate(-386.359 -134.718)"/><path class="g" d="M416.759,153.522v4.141l-21.633-12.5v-4.13Z" transform="translate(-395.127 -138.94)"/><path class="f" d="M395.127,141.878l21.633,12.491,3.6-2.08-21.652-12.5Z" transform="translate(-395.127 -139.788)"/></g><g transform="translate(49.1 118.069)"><path class="k" d="M407.982,146.911v4.141l3.612-2.08v-4.141Z" transform="translate(-386.359 -107.714)"/><path class="g" d="M416.759,161.113v4.141l-21.633-37.117v-4.13Z" transform="translate(-395.127 -121.916)"/><path class="f" d="M395.127,124.855l21.633,37.106,3.6-2.08L398.71,122.764Z" transform="translate(-395.127 -122.764)"/></g><g transform="translate(70.768 47.391)"><path class="k" d="M410.133,84.061V354.031l3.612-2.08V81.981Z" transform="translate(-406.56 -79.901)"/><path class="g" d="M411.592,84.056V354.027l-3.583-2.08V81.987Z" transform="translate(-408.009 -79.897)"/><path class="f" d="M408.009,82.835l3.583,2.069,3.6-2.08-3.6-2.08Z" transform="translate(-408.009 -80.744)"/></g><g transform="translate(32.564 50.605)"><path class="g" d="M430.811,164.174,385.3,137.9V92.33l30.133,17.4,15.383,40.422Z" transform="translate(-385.296 -76.057)"/><path class="k" d="M412.356,133.3v14.025l28.517-16.273V117.03Z" transform="translate(-366.84 -59.211)"/><path class="k" d="M431.728,93l-28.517,16.273,15.383,40.422,28.517-16.273Z" transform="translate(-373.077 -75.601)"/><path class="j" d="M404.344,112.318l13.477,35.414,28.517-16.274L432.8,95.873Z" transform="translate(-372.305 -73.64)"/><path class="q" d="M442.8,129.112l-23.557-29.8-9.708,5.611Z" transform="translate(-368.765 -71.293)"/><path class="f" d="M413.813,82.655,385.3,98.929l30.133,17.4,28.517-16.273Z" transform="translate(-385.296 -82.655)"/><path class="m" d="M415.418,108.591,385.3,92.33l30.133,17.4,28.517-16.274Z" transform="translate(-385.296 -76.057)"/><path class="q" d="M391.991,98.5v27.742l34.253,19.776v-.083l-13.49-35.447Z" transform="translate(-380.729 -71.846)"/><path class="j" d="M393.043,125.93V99.111l-1.051-.607v27.742l34.253,19.776v-.083l-.409-1.075Z" transform="translate(-380.729 -71.846)"/></g><g transform="translate(57.93 7.486)"><path class="k" d="M403.989,66.532v4.141l-3.612-2.08V64.453Z" transform="translate(-400.377 -51.951)"/><path class="k" d="M402.518,70.754V74.9l21.632-12.5v-4.13Z" transform="translate(-398.916 -56.172)"/><path class="f" d="M425.611,59.111,403.979,71.6l-3.6-2.08,21.652-12.5Z" transform="translate(-400.377 -57.02)"/></g><g transform="translate(45.579 14.513)"><path class="k" d="M400.491,67.741v4.141L404.1,69.8V65.662Z" transform="translate(-387.948 -58.153)"/><path class="g" d="M405.586,69.938V74.08l-12.552-7.509V62.44Z" transform="translate(-393.034 -60.35)"/><path class="f" d="M393.034,63.288l12.552,7.5,3.6-2.08L396.617,61.2Z" transform="translate(-393.034 -61.197)"/></g><g transform="translate(54.533 22.057)"><path class="k" d="M400.481,67.762l16.474,27.427,3.612-2.08L404.093,65.683Z" transform="translate(-396.908 -65.683)"/><path class="g" d="M401.94,67.758l16.474,27.427-3.583-2.08L398.357,65.689Z" transform="translate(-398.357 -65.678)"/></g></g><path class="m" d="M619.546,258.272,594.2,243.637l2.7-3.29c.294-.36.163-.791-.326-1.073l-7.779-4.491a2.546,2.546,0,0,0-2.309,0,.7.7,0,0,0,.008,1.332l6.96,4.02-15.52,18.916c-.294.36-.163.791.326,1.073l2.481,1.433c-.168-.012-.335-.03-.51-.03-2.375-.005-4.294,1.1-4.286,2.474s1.938,2.486,4.313,2.489,4.294-1.1,4.287-2.474a1.567,1.567,0,0,0-.054-.294l5.384,3.108c-.17-.012-.337-.03-.511-.03-2.373-.005-4.293,1.1-4.286,2.474s1.939,2.486,4.313,2.491,4.294-1.105,4.287-2.476a1.474,1.474,0,0,0-.054-.294l1.147.663a2.547,2.547,0,0,0,2.31,0,.7.7,0,0,0-.007-1.332l-15.695-9.063,3.167-3.86,18.272,10.55a7.972,7.972,0,0,0,6.277.4l9.653-3.6C621.425,261.754,621.814,259.581,619.546,258.272Z" transform="translate(192.315 124.083)"/><g transform="translate(305.965 275.539)"><path class="r" d="M333.049,288.638l-28.786-16.62c-7.953-4.592-6.955-12.61,2.227-17.912l23.974-13.841c9.18-5.3,23.071-5.875,31.021-1.285l28.788,16.62c7.951,4.59,6.955,12.61-2.227,17.912l-23.974,13.84C354.892,292.653,341,293.228,333.049,288.638Z" transform="translate(-290.603 -150.518)"/><path class="r" d="M365.12,306.03l-28.786-16.62c-7.953-4.592-6.955-12.61,2.227-17.912l23.972-13.84c9.182-5.3,23.072-5.877,31.023-1.287l28.788,16.62c7.951,4.592,6.953,12.61-2.229,17.912l-23.972,13.84C386.961,310.045,373.071,310.62,365.12,306.03Z" transform="translate(-268.731 -138.656)"/><path class="r" d="M328.12,325.23l-28.786-16.62c-7.953-4.592-6.955-12.61,2.227-17.912l23.972-13.84c9.182-5.3,23.072-5.877,31.023-1.287l28.788,16.62c7.951,4.592,6.953,12.61-2.229,17.912l-23.972,13.84C349.961,329.245,336.071,329.82,328.12,325.23Z" transform="translate(-293.965 -125.561)"/><g transform="translate(8.291 70.925)"><path class="s" d="M333.049,280.054l-28.786-16.62c-7.953-4.59-6.955-12.61,2.227-17.91l23.974-13.841c9.18-5.3,23.071-5.877,31.021-1.287l28.788,16.622c7.951,4.59,6.955,12.608-2.227,17.91l-23.974,13.841C354.892,284.069,341,284.646,333.049,280.054Z" transform="translate(-298.894 -227.297)"/><g transform="translate(0.007 27.865)"><path class="s" d="M298.924,243.863h-.015v.372C298.911,244.11,298.916,243.987,298.924,243.863Z" transform="translate(-298.891 -243.863)"/><path class="s" d="M388.043,253.629,364.069,267.47c-9.18,5.3-23.071,5.877-31.023,1.285l-28.786-16.62c-3.421-1.975-5.176-4.585-5.344-7.34v9.14c-.22,3.1,1.531,6.091,5.344,8.294l28.786,16.62c7.953,4.59,21.843,4.015,31.023-1.287l23.974-13.841c4.745-2.738,7.3-6.2,7.566-9.547h.005V254.1a6.924,6.924,0,0,0,0-1.023v-9.217h-.01C395.434,247.274,392.892,250.83,388.043,253.629Z" transform="translate(-298.898 -243.863)"/></g><g transform="translate(0.007 27.865)"><path class="s" d="M298.924,243.863h-.015v.372C298.911,244.11,298.916,243.987,298.924,243.863Z" transform="translate(-298.891 -243.863)"/><path class="s" d="M333.046,268.377l-28.786-16.62c-3.421-1.975-5.176-4.585-5.344-7.34v9.14c-.22,3.1,1.531,6.091,5.344,8.294l28.786,16.62Z" transform="translate(-298.898 -243.485)"/></g><path class="s" d="M388.039,252.764l-23.974,13.841c-9.18,5.3-23.071,5.877-31.023,1.285l-28.786-16.62c-3.349-1.933-5.09-4.476-5.322-7.165-.279,3.147,1.453,6.193,5.322,8.427l28.786,16.62c7.953,4.592,21.843,4.015,31.023-1.285l23.974-13.841c5.315-3.068,7.867-7.046,7.549-10.745C395.293,246.6,392.753,250.043,388.039,252.764Z" transform="translate(-298.887 -216.395)"/></g><g transform="translate(8.291 56.712)"><path class="s" d="M333.049,271.6l-28.786-16.62c-7.953-4.59-6.955-12.61,2.227-17.91l23.974-13.841c9.18-5.3,23.071-5.877,31.021-1.285l28.788,16.62c7.951,4.59,6.955,12.608-2.227,17.91l-23.974,13.841C354.892,275.619,341,276.2,333.049,271.6Z" transform="translate(-298.894 -218.847)"/><g transform="translate(0.007 27.865)"><path class="s" d="M298.924,235.413h-.015v.372C298.911,235.66,298.916,235.537,298.924,235.413Z" transform="translate(-298.891 -235.413)"/><path class="s" d="M388.043,245.179,364.069,259.02c-9.18,5.3-23.071,5.877-31.023,1.285l-28.786-16.62c-3.421-1.975-5.176-4.585-5.344-7.34v9.14c-.22,3.1,1.531,6.091,5.344,8.294l28.786,16.62c7.953,4.59,21.843,4.015,31.023-1.287l23.974-13.841c4.745-2.738,7.3-6.2,7.566-9.547h.005v-.071a6.924,6.924,0,0,0,0-1.023v-9.217h-.01C395.434,238.824,392.892,242.38,388.043,245.179Z" transform="translate(-298.898 -235.413)"/></g><g transform="translate(0.007 27.865)"><path class="s" d="M298.924,235.413h-.015v.372C298.911,235.66,298.916,235.537,298.924,235.413Z" transform="translate(-298.891 -235.413)"/><path class="s" d="M333.046,259.927l-28.786-16.62c-3.421-1.975-5.176-4.585-5.344-7.34v9.14c-.22,3.1,1.531,6.091,5.344,8.294l28.786,16.62Z" transform="translate(-298.898 -235.035)"/></g><path class="s" d="M388.039,244.314l-23.974,13.841c-9.18,5.3-23.071,5.877-31.023,1.285l-28.786-16.62c-3.349-1.933-5.09-4.476-5.322-7.167-.279,3.149,1.453,6.195,5.322,8.429l28.786,16.62c7.953,4.592,21.843,4.015,31.023-1.285l23.974-13.841c5.315-3.068,7.867-7.046,7.549-10.745C395.293,238.155,392.753,241.593,388.039,244.314Z" transform="translate(-298.887 -207.945)"/></g><g transform="translate(8.291 42.415)"><path class="s" d="M333.049,263.1l-28.786-16.62c-7.953-4.59-6.955-12.61,2.227-17.91l23.974-13.841c9.18-5.3,23.071-5.877,31.021-1.285l28.788,16.62c7.951,4.59,6.955,12.608-2.227,17.91l-23.974,13.841C354.892,267.119,341,267.7,333.049,263.1Z" transform="translate(-298.894 -210.347)"/><g transform="translate(0.007 27.865)"><path class="s" d="M298.924,226.913h-.015v.372C298.911,227.16,298.916,227.037,298.924,226.913Z" transform="translate(-298.891 -226.913)"/><path class="s" d="M388.043,236.679,364.069,250.52c-9.18,5.3-23.071,5.877-31.023,1.285l-28.786-16.62c-3.421-1.975-5.176-4.585-5.344-7.34v9.14c-.22,3.1,1.531,6.091,5.344,8.294l28.786,16.62c7.953,4.59,21.843,4.015,31.023-1.287l23.974-13.841c4.745-2.738,7.3-6.2,7.566-9.547h.005v-.071a6.924,6.924,0,0,0,0-1.023v-9.217h-.01C395.434,230.324,392.892,233.88,388.043,236.679Z" transform="translate(-298.898 -226.913)"/></g><g transform="translate(0.007 27.865)"><path class="s" d="M298.924,226.913h-.015v.372C298.911,227.16,298.916,227.037,298.924,226.913Z" transform="translate(-298.891 -226.913)"/><path class="s" d="M333.046,251.427l-28.786-16.62c-3.421-1.975-5.176-4.585-5.344-7.34v9.14c-.22,3.1,1.531,6.091,5.344,8.294l28.786,16.62Z" transform="translate(-298.898 -226.535)"/></g><path class="s" d="M388.039,235.814l-23.974,13.841c-9.18,5.3-23.071,5.877-31.023,1.285l-28.786-16.62c-3.349-1.933-5.09-4.476-5.322-7.167-.279,3.149,1.453,6.195,5.322,8.429l28.786,16.62c7.953,4.592,21.843,4.015,31.023-1.285l23.974-13.841c5.315-3.068,7.867-7.046,7.549-10.745C395.293,229.655,392.753,233.093,388.039,235.814Z" transform="translate(-298.887 -199.445)"/></g><g transform="translate(8.291 28.538)"><path class="s" d="M333.049,254.854l-28.786-16.62c-7.953-4.59-6.955-12.61,2.227-17.91l23.974-13.841c9.18-5.3,23.071-5.877,31.021-1.285l28.788,16.62c7.951,4.59,6.955,12.608-2.227,17.91l-23.974,13.841C354.892,258.869,341,259.445,333.049,254.854Z" transform="translate(-298.894 -202.097)"/><g transform="translate(0.007 27.865)"><path class="s" d="M298.924,218.663h-.015v.372C298.911,218.91,298.916,218.788,298.924,218.663Z" transform="translate(-298.891 -218.663)"/><path class="s" d="M388.043,228.429,364.069,242.27c-9.18,5.3-23.071,5.877-31.023,1.285l-28.786-16.62c-3.421-1.975-5.176-4.585-5.344-7.34v9.14c-.22,3.1,1.531,6.091,5.344,8.294l28.786,16.62c7.953,4.59,21.843,4.015,31.023-1.287l23.974-13.841c4.745-2.738,7.3-6.2,7.566-9.547h.005V228.9a6.924,6.924,0,0,0,0-1.023v-9.217h-.01C395.434,222.074,392.892,225.63,388.043,228.429Z" transform="translate(-298.898 -218.663)"/></g><g transform="translate(0.007 27.865)"><path class="s" d="M298.924,218.663h-.015v.372C298.911,218.91,298.916,218.788,298.924,218.663Z" transform="translate(-298.891 -218.663)"/><path class="s" d="M333.046,243.177l-28.786-16.62c-3.421-1.975-5.176-4.585-5.344-7.34v9.14c-.22,3.1,1.531,6.091,5.344,8.294l28.786,16.62Z" transform="translate(-298.898 -218.285)"/></g><path class="s" d="M388.039,227.564l-23.974,13.841c-9.18,5.3-23.071,5.877-31.023,1.285l-28.786-16.62c-3.349-1.933-5.09-4.476-5.322-7.167-.279,3.149,1.453,6.195,5.322,8.429l28.786,16.62c7.953,4.592,21.843,4.015,31.023-1.285l23.974-13.841c5.315-3.068,7.867-7.046,7.549-10.745C395.293,221.4,392.753,224.843,388.039,227.564Z" transform="translate(-298.887 -191.195)"/></g><g transform="translate(8.291 14.241)"><path class="s" d="M333.049,246.354l-28.786-16.62c-7.953-4.59-6.955-12.61,2.227-17.91l23.974-13.841c9.18-5.3,23.071-5.877,31.021-1.285l28.788,16.62c7.951,4.59,6.955,12.608-2.227,17.91l-23.974,13.841C354.892,250.369,341,250.945,333.049,246.354Z" transform="translate(-298.894 -193.597)"/><g transform="translate(0.007 27.865)"><path class="s" d="M298.924,210.163h-.015v.372C298.911,210.41,298.916,210.287,298.924,210.163Z" transform="translate(-298.891 -210.163)"/><path class="s" d="M388.043,219.929,364.069,233.77c-9.18,5.3-23.071,5.877-31.023,1.285l-28.786-16.62c-3.421-1.975-5.176-4.585-5.344-7.34v9.14c-.22,3.1,1.531,6.091,5.344,8.294l28.786,16.62c7.953,4.59,21.843,4.015,31.023-1.287l23.974-13.841c4.745-2.738,7.3-6.2,7.566-9.547h.005V220.4a6.924,6.924,0,0,0,0-1.023v-9.217h-.01C395.434,213.574,392.892,217.13,388.043,219.929Z" transform="translate(-298.898 -210.163)"/></g><g transform="translate(0.007 27.865)"><path class="s" d="M298.924,210.163h-.015v.372C298.911,210.41,298.916,210.287,298.924,210.163Z" transform="translate(-298.891 -210.163)"/><path class="s" d="M333.046,234.677l-28.786-16.62c-3.421-1.975-5.176-4.585-5.344-7.34v9.14c-.22,3.1,1.531,6.091,5.344,8.294l28.786,16.62Z" transform="translate(-298.898 -209.785)"/></g><path class="s" d="M388.039,219.064l-23.974,13.841c-9.18,5.3-23.071,5.877-31.023,1.285l-28.786-16.62c-3.349-1.933-5.09-4.476-5.322-7.167-.279,3.149,1.453,6.195,5.322,8.429l28.786,16.62c7.953,4.592,21.843,4.015,31.023-1.285l23.974-13.841c5.315-3.068,7.867-7.046,7.549-10.745C395.293,212.9,392.753,216.343,388.039,219.064Z" transform="translate(-298.887 -182.695)"/></g><g transform="translate(8.291)"><path class="s" d="M333.049,237.888l-28.786-16.62c-7.953-4.592-6.955-12.61,2.227-17.912l23.974-13.841c9.18-5.3,23.071-5.877,31.021-1.285l28.788,16.62c7.951,4.59,6.955,12.61-2.227,17.912L364.072,236.6C354.892,241.9,341,242.478,333.049,237.888Z" transform="translate(-298.894 -185.13)"/><g transform="translate(0.007 27.864)"><path class="s" d="M298.924,201.7h-.015v.372C298.911,201.945,298.916,201.82,298.924,201.7Z" transform="translate(-298.891 -201.696)"/><path class="s" d="M388.043,211.464,364.069,225.3c-9.18,5.3-23.071,5.877-31.023,1.287L304.26,209.97c-3.421-1.976-5.176-4.587-5.344-7.34v9.138c-.22,3.1,1.531,6.092,5.344,8.294l28.786,16.62c7.953,4.59,21.843,4.015,31.023-1.287l23.974-13.84c4.745-2.74,7.3-6.2,7.566-9.549h.005v-.069a6.947,6.947,0,0,0,0-1.024V201.7h-.01C395.434,205.107,392.892,208.663,388.043,211.464Z" transform="translate(-298.898 -201.696)"/></g><g transform="translate(0.007 27.864)"><path class="s" d="M298.924,201.7h-.015v.372C298.911,201.945,298.916,201.82,298.924,201.7Z" transform="translate(-298.891 -201.696)"/><path class="s" d="M333.046,226.211l-28.786-16.62c-3.421-1.976-5.176-4.587-5.344-7.34v9.138c-.22,3.1,1.531,6.092,5.344,8.294l28.786,16.62Z" transform="translate(-298.898 -201.317)"/></g><path class="s" d="M388.039,210.6l-23.974,13.84c-9.18,5.3-23.071,5.877-31.023,1.287L304.256,209.1c-3.349-1.934-5.09-4.478-5.322-7.167-.279,3.149,1.453,6.195,5.322,8.429l28.786,16.62c7.953,4.59,21.843,4.015,31.023-1.287l23.974-13.84c5.315-3.07,7.867-7.048,7.549-10.745C395.293,204.439,392.753,207.875,388.039,210.6Z" transform="translate(-298.887 -174.228)"/></g><g transform="translate(62.235 100.179)"><path class="s" d="M365.12,297.447l-28.786-16.62c-7.953-4.592-6.955-12.61,2.227-17.912l23.972-13.841c9.182-5.3,23.072-5.877,31.023-1.285l28.788,16.62c7.951,4.59,6.953,12.61-2.229,17.91L396.143,296.16C386.961,301.462,373.071,302.037,365.12,297.447Z" transform="translate(-330.965 -244.689)"/><g transform="translate(0.005 27.864)"><g transform="translate(0.018)"><path class="s" d="M330.994,261.255h-.015v.372C330.982,261.5,330.986,261.38,330.994,261.255Z" transform="translate(-330.979 -261.255)"/></g><path class="s" d="M420.113,271.021l-23.972,13.841c-9.182,5.3-23.071,5.877-31.023,1.287l-28.786-16.62c-3.421-1.976-5.176-4.587-5.346-7.342v9.14c-.219,3.1,1.531,6.092,5.346,8.294l28.786,16.62c7.953,4.59,21.841,4.015,31.023-1.287l23.972-13.84c4.747-2.74,7.3-6.207,7.566-9.549h.007V271.5a7.413,7.413,0,0,0,0-1.024v-9.217h-.01C427.5,264.666,424.962,268.222,420.113,271.021Z" transform="translate(-330.968 -261.255)"/></g><g transform="translate(0.005 27.864)"><path class="s" d="M330.994,261.255h-.015v.372C330.982,261.5,330.986,261.38,330.994,261.255Z" transform="translate(-330.961 -261.255)"/><path class="s" d="M365.118,285.771l-28.786-16.62c-3.421-1.976-5.176-4.587-5.346-7.342v9.14c-.219,3.1,1.531,6.092,5.346,8.294l28.786,16.62Z" transform="translate(-330.968 -260.877)"/></g><path class="s" d="M420.109,270.156,396.136,284c-9.182,5.3-23.071,5.877-31.023,1.287l-28.786-16.62c-3.349-1.934-5.091-4.478-5.324-7.167-.279,3.149,1.453,6.195,5.324,8.429l28.786,16.62c7.953,4.59,21.841,4.015,31.023-1.287l23.972-13.841c5.315-3.068,7.868-7.046,7.551-10.743C427.363,264,424.823,267.434,420.109,270.156Z" transform="translate(-330.959 -233.787)"/></g><g transform="translate(62.235 85.602)"><path class="s" d="M365.12,288.78l-28.786-16.62c-7.953-4.592-6.955-12.61,2.227-17.912l23.972-13.84c9.182-5.3,23.072-5.877,31.023-1.287l28.788,16.62c7.951,4.592,6.953,12.61-2.229,17.912l-23.972,13.84C386.961,292.795,373.071,293.37,365.12,288.78Z" transform="translate(-330.965 -236.023)"/><g transform="translate(0.005 27.865)"><path class="s" d="M330.994,252.589h-.015v.37C330.982,252.836,330.986,252.712,330.994,252.589Z" transform="translate(-330.961 -252.589)"/><path class="s" d="M420.113,262.355l-23.972,13.84c-9.182,5.3-23.071,5.877-31.023,1.287l-28.786-16.62c-3.421-1.975-5.176-4.585-5.346-7.34v9.138c-.219,3.1,1.531,6.092,5.346,8.294l28.786,16.62c7.953,4.592,21.841,4.015,31.023-1.285l23.972-13.841c4.747-2.74,7.3-6.2,7.566-9.549h.007v-.069a7.388,7.388,0,0,0,0-1.023v-9.217h-.01C427.5,256,424.962,259.554,420.113,262.355Z" transform="translate(-330.968 -252.589)"/></g><g transform="translate(0.005 27.865)"><path class="s" d="M330.994,252.589h-.015v.37C330.982,252.836,330.986,252.712,330.994,252.589Z" transform="translate(-330.961 -252.589)"/><path class="s" d="M365.118,277.1l-28.786-16.62c-3.421-1.975-5.176-4.585-5.346-7.34v9.138c-.219,3.1,1.531,6.092,5.346,8.294l28.786,16.62Z" transform="translate(-330.968 -252.211)"/></g><path class="s" d="M420.109,261.49l-23.972,13.84c-9.182,5.3-23.071,5.877-31.023,1.287L336.327,260c-3.349-1.933-5.091-4.477-5.324-7.167-.279,3.149,1.453,6.195,5.324,8.429l28.786,16.62c7.953,4.59,21.841,4.015,31.023-1.287l23.972-13.84c5.315-3.07,7.868-7.046,7.551-10.745C427.363,255.331,424.823,258.767,420.109,261.49Z" transform="translate(-330.959 -225.121)"/></g><g transform="translate(62.235 71.024)"><path class="s" d="M365.12,280.113l-28.786-16.62c-7.953-4.59-6.955-12.61,2.227-17.91l23.972-13.841c9.182-5.3,23.072-5.877,31.023-1.287l28.788,16.62c7.951,4.592,6.953,12.61-2.229,17.912l-23.972,13.841C386.961,284.128,373.071,284.7,365.12,280.113Z" transform="translate(-330.965 -227.356)"/><g transform="translate(0.005 27.865)"><path class="s" d="M330.994,243.922h-.015v.37C330.982,244.169,330.986,244.046,330.994,243.922Z" transform="translate(-330.961 -243.922)"/><path class="s" d="M420.113,253.688l-23.972,13.841c-9.182,5.3-23.071,5.877-31.023,1.285l-28.786-16.62c-3.421-1.975-5.176-4.585-5.346-7.34v9.14c-.219,3.1,1.531,6.091,5.346,8.294l28.786,16.62c7.953,4.59,21.841,4.015,31.023-1.287l23.972-13.841c4.747-2.738,7.3-6.2,7.566-9.549h.007v-.069a7.388,7.388,0,0,0,0-1.023v-9.217h-.01C427.5,247.333,424.962,250.889,420.113,253.688Z" transform="translate(-330.968 -243.922)"/></g><g transform="translate(0.005 27.865)"><path class="s" d="M330.994,243.922h-.015v.37C330.982,244.169,330.986,244.046,330.994,243.922Z" transform="translate(-330.961 -243.922)"/><path class="s" d="M365.118,268.436l-28.786-16.62c-3.421-1.975-5.176-4.585-5.346-7.34v9.14c-.219,3.1,1.531,6.091,5.346,8.294l28.786,16.62Z" transform="translate(-330.968 -243.544)"/></g><path class="s" d="M420.109,252.823l-23.972,13.841c-9.182,5.3-23.071,5.877-31.023,1.285l-28.786-16.62c-3.349-1.933-5.091-4.476-5.324-7.167-.279,3.149,1.453,6.195,5.324,8.429l28.786,16.62c7.953,4.592,21.841,4.015,31.023-1.285l23.972-13.841c5.315-3.068,7.868-7.046,7.551-10.745C427.363,246.664,424.823,250.1,420.109,252.823Z" transform="translate(-330.959 -216.454)"/><g transform="translate(20.815 10.983)"><path class="m" d="M357,233.9l2.5,18.225,31.565,1.443,0,.015a2.567,2.567,0,0,0-1.329-1.569l-30.049-17.348a6.52,6.52,0,0,0-2.716-.767Z" transform="translate(-334.04 -233.875)"/><path class="m" d="M400.377,253.633l-34.063-.061-.03-5.567-22.6-1.034c-.005-.018-.007-.037-.01-.055l22.6.042-.071-13.052a7.016,7.016,0,0,0-3.872.76l-17.627,10.176c-1.832,1.058-1.822,2.779.022,3.843l30.049,17.35a7.358,7.358,0,0,0,6.657.012l17.628-10.178A2.142,2.142,0,0,0,400.377,253.633Zm-22.63,13.005-1.79-13.049,1.815,0,.071,13.051C377.811,266.642,377.779,266.642,377.747,266.639Z" transform="translate(-343.34 -233.885)"/></g></g><g transform="translate(0 132.474)"><path class="s" d="M328.12,316.647l-28.786-16.622c-7.953-4.59-6.955-12.608,2.227-17.91l23.972-13.841c9.182-5.3,23.072-5.877,31.023-1.285l28.788,16.62c7.951,4.59,6.953,12.61-2.229,17.91L359.143,315.36C349.961,320.662,336.071,321.237,328.12,316.647Z" transform="translate(-293.965 -263.889)"/><g transform="translate(0.005 27.864)"><path class="s" d="M293.994,280.455h-.015v.372C293.982,280.7,293.986,280.579,293.994,280.455Z" transform="translate(-293.961 -280.455)"/><path class="s" d="M383.113,290.221l-23.972,13.841c-9.182,5.3-23.071,5.877-31.023,1.285l-28.786-16.62c-3.421-1.975-5.176-4.585-5.345-7.339v9.138c-.219,3.1,1.531,6.092,5.345,8.294l28.786,16.62c7.953,4.59,21.841,4.015,31.023-1.287l23.972-13.84c4.747-2.74,7.3-6.2,7.566-9.549h.007V290.7a7.441,7.441,0,0,0,0-1.024v-9.217h-.01C390.5,283.866,387.962,287.422,383.113,290.221Z" transform="translate(-293.968 -280.455)"/></g><g transform="translate(0.005 27.864)"><path class="s" d="M293.994,280.455h-.015v.372C293.982,280.7,293.986,280.579,293.994,280.455Z" transform="translate(-293.961 -280.455)"/><path class="s" d="M328.118,304.969l-28.786-16.62c-3.421-1.975-5.176-4.585-5.345-7.339v9.138c-.219,3.1,1.531,6.092,5.345,8.294l28.786,16.62Z" transform="translate(-293.968 -280.076)"/></g><path class="s" d="M383.109,289.355,359.136,303.2c-9.182,5.3-23.071,5.877-31.023,1.285l-28.786-16.62c-3.349-1.933-5.091-4.476-5.324-7.165-.279,3.149,1.453,6.195,5.324,8.427l28.786,16.62c7.953,4.592,21.841,4.017,31.023-1.285l23.972-13.841c5.315-3.068,7.868-7.046,7.551-10.743C390.363,283.2,387.823,286.634,383.109,289.355Z" transform="translate(-293.959 -252.987)"/><path class="s" d="M347.114,280.359c-.03-5.522-7.808-10.011-17.372-10.03s-17.293,4.445-17.263,9.968c.027,5.053,6.55,9.231,14.985,9.919l.015,2.8c-1.6.244-2.779,1.078-2.774,2.079l.052,9.554c.007,1.2,1.69,2.17,3.763,2.173l2.839.005c2.071,0,3.746-.962,3.739-2.16l-.052-9.554c-.005-1-1.194-1.838-2.8-2.089l-.015-2.8C340.666,289.566,347.141,285.412,347.114,280.359Zm-17.281,6.555c-6.3-.012-11.424-2.969-11.444-6.607s5.073-6.577,11.372-6.565,11.424,2.969,11.444,6.607S336.133,286.925,329.833,286.914Z" transform="translate(-281.338 -259.497)"/></g><g transform="translate(0 118.597)"><path class="s" d="M328.12,308.4l-28.786-16.622c-7.953-4.59-6.955-12.608,2.227-17.91l23.972-13.841c9.182-5.3,23.072-5.877,31.023-1.285l28.788,16.62c7.951,4.59,6.953,12.61-2.229,17.91L359.143,307.11C349.961,312.412,336.071,312.987,328.12,308.4Z" transform="translate(-293.965 -255.639)"/><g transform="translate(0.005 27.864)"><path class="s" d="M293.994,272.2h-.015v.372C293.982,272.452,293.986,272.329,293.994,272.2Z" transform="translate(-293.961 -272.205)"/><path class="s" d="M383.113,281.971l-23.972,13.841c-9.182,5.3-23.071,5.877-31.023,1.285l-28.786-16.62c-3.421-1.975-5.176-4.585-5.345-7.339v9.138c-.219,3.1,1.531,6.092,5.345,8.294l28.786,16.62c7.953,4.59,21.841,4.015,31.023-1.287l23.972-13.84c4.747-2.74,7.3-6.2,7.566-9.549h.007v-.069a7.441,7.441,0,0,0,0-1.024V272.2h-.01C390.5,275.616,387.962,279.172,383.113,281.971Z" transform="translate(-293.968 -272.205)"/></g><g transform="translate(0.005 27.864)"><path class="s" d="M293.994,272.2h-.015v.372C293.982,272.452,293.986,272.329,293.994,272.2Z" transform="translate(-293.961 -272.205)"/><path class="s" d="M328.118,296.719,299.332,280.1c-3.421-1.975-5.176-4.585-5.345-7.339V281.9c-.219,3.1,1.531,6.092,5.345,8.294l28.786,16.62Z" transform="translate(-293.968 -271.826)"/></g><path class="s" d="M383.109,281.105l-23.972,13.841c-9.182,5.3-23.071,5.877-31.023,1.285l-28.786-16.62c-3.349-1.933-5.091-4.476-5.324-7.165-.279,3.149,1.453,6.195,5.324,8.427l28.786,16.62c7.953,4.592,21.841,4.017,31.023-1.285l23.972-13.841c5.315-3.068,7.868-7.046,7.551-10.743C390.363,274.946,387.823,278.384,383.109,281.105Z" transform="translate(-293.959 -244.737)"/><path class="m" d="M347.114,272.109c-.03-5.522-7.808-10.011-17.372-10.03s-17.293,4.446-17.263,9.968c.027,5.053,6.55,9.231,14.985,9.919l.015,2.8c-1.6.244-2.779,1.078-2.774,2.079l.052,9.554c.007,1.2,1.69,2.17,3.763,2.173l2.839.005c2.071,0,3.746-.962,3.739-2.16l-.052-9.554c-.005-1-1.194-1.838-2.8-2.089l-.015-2.8C340.666,281.316,347.141,277.162,347.114,272.109Zm-17.281,6.555c-6.3-.012-11.424-2.969-11.444-6.607s5.073-6.577,11.372-6.565,11.424,2.969,11.444,6.607S336.133,278.676,329.833,278.664Z" transform="translate(-281.338 -251.247)"/></g><path class="m" d="M308.281,205.266l7.974,4.6,14.449-8.342-7.974-4.6Z" transform="translate(-284.201 -177.086)"/><path class="m" d="M314.46,211.378l7.976,4.6,25.32-14.619-7.975-4.6Z" transform="translate(-279.987 -177.198)"/><path class="m" d="M356.833,196.6l-36.193,20.9,7.974,4.6,36.193-20.9Z" transform="translate(-275.773 -177.31)"/></g></g></g></svg>