<svg xmlns="http://www.w3.org/2000/svg" width="188" height="188" viewBox="0 0 188 188"><defs><style>.a,.c{fill:#ed1a3b;}.a{opacity:0.1;}.b{fill:#101010;font-size:14px;font-family:SFProText-Medium, SF Pro Text;font-weight:500;letter-spacing:-0.054em;}</style></defs><g transform="translate(0.002)"><rect class="a" width="188" height="188" transform="translate(-0.002)"/><text class="b" transform="translate(92.999 150)"><tspan x="-71.962" y="0">Corporate performance</tspan><tspan x="-42.099" y="18" xml:space="preserve"> management</tspan></text><path class="c" d="M56.967,130.6A28.484,28.484,0,0,0,8.343,110.464,28.3,28.3,0,0,0,0,130.6v1.669H22.811a5.98,5.98,0,0,0,10.823,1.151,6.035,6.035,0,0,0,.525-1.151H56.967Zm-26.208,1.123a2.643,2.643,0,1,1,.283-2,2.645,2.645,0,0,1-.283,2Zm3.526-2.792c0-.014-.006-.029-.01-.043a5.946,5.946,0,0,0-1.434-2.606l4.8-8.124-2.874-1.7-4.8,8.124a5.99,5.99,0,0,0-7.288,4.347H3.393a24.958,24.958,0,0,1,2.531-9.429l3.706,2.14,1.669-2.891-3.7-2.137a25.352,25.352,0,0,1,6.9-6.9l2.138,3.7,2.891-1.669-2.14-3.707a24.958,24.958,0,0,1,9.429-2.529V109.8h3.338v-4.283a24.958,24.958,0,0,1,9.429,2.529l-2.14,3.707,2.891,1.669,2.138-3.7a25.354,25.354,0,0,1,6.9,6.9l-3.7,2.137,1.669,2.891,3.706-2.14a24.958,24.958,0,0,1,2.531,9.429Z" transform="translate(65.515 -42.363)"/></g></svg>