<svg xmlns="http://www.w3.org/2000/svg" width="113.27" height="67.735" viewBox="0 0 113.27 67.735"><defs><style>.a{fill:#f90;}</style></defs><g transform="translate(-49.664 -110.1)"><path d="M89.333,134.7a11.4,11.4,0,0,0,.414,3.353,20.165,20.165,0,0,0,1.206,2.712,1.639,1.639,0,0,1,.264.866,1.492,1.492,0,0,1-.716,1.13l-2.373,1.582a1.806,1.806,0,0,1-.979.339,1.733,1.733,0,0,1-1.13-.527,11.655,11.655,0,0,1-1.356-1.771c-.377-.64-.753-1.356-1.168-2.223a13.916,13.916,0,0,1-11.075,5.2,10.321,10.321,0,0,1-7.534-2.712,10.627,10.627,0,0,1,.64-14.994c2.3-1.959,5.349-2.938,9.23-2.938a29.825,29.825,0,0,1,3.993.3c1.394.188,2.825.49,4.332.829V123.1c0-2.863-.6-4.86-1.771-6.028-1.206-1.168-3.24-1.733-6.14-1.733a17.14,17.14,0,0,0-4.069.49,30.016,30.016,0,0,0-4.069,1.281,10.859,10.859,0,0,1-1.319.49,2.31,2.31,0,0,1-.6.113c-.527,0-.791-.377-.791-1.168V114.7a2.384,2.384,0,0,1,.264-1.319,2.818,2.818,0,0,1,1.055-.791,21.691,21.691,0,0,1,4.746-1.7,22.845,22.845,0,0,1,5.877-.716c4.483,0,7.76,1.017,9.87,3.051,2.072,2.034,3.127,5.123,3.127,9.267V134.7Zm-15.295,5.726a12.209,12.209,0,0,0,3.88-.678,8.4,8.4,0,0,0,3.579-2.411,5.979,5.979,0,0,0,1.281-2.411,13.524,13.524,0,0,0,.377-3.277v-1.582a31.467,31.467,0,0,0-3.466-.64,28.388,28.388,0,0,0-3.541-.226c-2.524,0-4.37.49-5.613,1.507a5.382,5.382,0,0,0,3.5,9.719Zm30.251,4.069a2.1,2.1,0,0,1-1.432-.377,3.07,3.07,0,0,1-.791-1.469l-8.853-29.121a6.6,6.6,0,0,1-.339-1.507.826.826,0,0,1,.9-.942H97.47a2.088,2.088,0,0,1,1.469.377,3.082,3.082,0,0,1,.753,1.469l6.329,24.939,5.877-24.939a2.642,2.642,0,0,1,.716-1.469,2.591,2.591,0,0,1,1.507-.377h3.014a2.267,2.267,0,0,1,1.507.377,2.538,2.538,0,0,1,.716,1.469l5.952,25.241,6.517-25.241a3.231,3.231,0,0,1,.753-1.469,2.458,2.458,0,0,1,1.469-.377h3.5a.837.837,0,0,1,.942.942,3.758,3.758,0,0,1-.075.6,5.359,5.359,0,0,1-.264.942l-9.079,29.121a2.889,2.889,0,0,1-.791,1.469,2.41,2.41,0,0,1-1.432.377h-3.24a2.267,2.267,0,0,1-1.507-.377,2.671,2.671,0,0,1-.716-1.507l-5.839-24.3-5.8,24.261a2.94,2.94,0,0,1-.716,1.507,2.335,2.335,0,0,1-1.507.377Zm48.409,1.017a24.929,24.929,0,0,1-5.8-.678,17.136,17.136,0,0,1-4.332-1.507,2.714,2.714,0,0,1-1.168-1.055,2.659,2.659,0,0,1-.226-1.055V139.3c0-.791.3-1.168.866-1.168a2.133,2.133,0,0,1,.678.113c.226.075.565.226.942.377a20.489,20.489,0,0,0,4.144,1.319,22.624,22.624,0,0,0,4.483.452,10.165,10.165,0,0,0,5.5-1.243,4.057,4.057,0,0,0,1.959-3.579,3.667,3.667,0,0,0-1.017-2.637,9.452,9.452,0,0,0-3.8-1.959l-5.463-1.7a11.49,11.49,0,0,1-6.028-3.843,8.976,8.976,0,0,1-1.884-5.462,8.384,8.384,0,0,1,1.017-4.182,9.686,9.686,0,0,1,2.712-3.089,11.957,11.957,0,0,1,3.918-1.959,16.419,16.419,0,0,1,4.747-.64,18.913,18.913,0,0,1,2.524.151c.866.113,1.658.264,2.449.414.753.188,1.469.377,2.147.6a8.227,8.227,0,0,1,1.583.678,3.258,3.258,0,0,1,1.13.942,2.03,2.03,0,0,1,.339,1.243V115.9c0,.791-.3,1.206-.866,1.206a3.919,3.919,0,0,1-1.432-.452,17.234,17.234,0,0,0-7.233-1.469,9.724,9.724,0,0,0-5.01,1.055,3.638,3.638,0,0,0-1.771,3.353,3.557,3.557,0,0,0,1.13,2.675,11.253,11.253,0,0,0,4.144,2.072l5.349,1.7a11.458,11.458,0,0,1,5.839,3.617A8.525,8.525,0,0,1,166,134.926a9.685,9.685,0,0,1-.979,4.37,10.132,10.132,0,0,1-2.75,3.315,12.143,12.143,0,0,1-4.182,2.11A17.918,17.918,0,0,1,152.7,145.512Z" transform="translate(-7.748 0)"/><path class="a" d="M152.07,233.685c-12.394,9.154-30.4,14.014-45.885,14.014a83.01,83.01,0,0,1-56.018-21.36c-1.168-1.055-.113-2.486,1.28-1.658a111.258,111.258,0,0,0,98.815,6.141C152.334,229.88,154.1,232.178,152.07,233.685Zm5.161-5.877c-1.582-2.034-10.473-.979-14.5-.49-1.206.151-1.394-.9-.3-1.7,7.082-4.973,18.723-3.541,20.079-1.884,1.356,1.7-.377,13.336-7.007,18.912-1.017.866-2,.414-1.545-.716C155.46,238.206,158.813,229.805,157.231,227.808Z" transform="translate(0 -69.864)"/></g></svg>