<svg xmlns="http://www.w3.org/2000/svg" width="76.581" height="75.999" viewBox="0 0 76.581 75.999"><defs><style>.a{fill:none;stroke:#344154;stroke-linecap:round;stroke-linejoin:round;stroke-width:2px;}.b{fill:#3075dc;}.c{fill:#6493ff;}</style></defs><g transform="translate(-1372.53 -366.261)"><path class="a" d="M1447.938,420.4V402.626a4,4,0,0,0-4-4h-65.151a4,4,0,0,0-4,4V420.4" transform="translate(-0.538 -13.51)"/><line class="a" x2="29.448" transform="translate(1396.03 419.131)"/><g transform="translate(1373.53 403.47)"><g transform="translate(55.736)"><path class="a" d="M1483.97,442.353v-9.7a1.781,1.781,0,0,0-1.782-1.781h0a1.782,1.782,0,0,0-1.782,1.781V445.27" transform="translate(-1475.306 -430.872)"/><path class="a" d="M1491.578,447.6v-2.761a1.781,1.781,0,0,0-1.782-1.781h0" transform="translate(-1479.351 -436.123)"/><path class="a" d="M1497.837,448.5v-1.581a1.782,1.782,0,0,0-1.781-1.782h0" transform="translate(-1482.048 -437.015)"/><path class="a" d="M1500.355,467.511c-.071-3.282.2-3.907.2-3.907a18.049,18.049,0,0,1,.495-1.857,35.457,35.457,0,0,0,1.683-9.937l.012-1.5a1.781,1.781,0,0,0-1.782-1.782h0" transform="translate(-1483.895 -438.476)"/><path class="a" d="M1473.347,446.832h0a1.733,1.733,0,0,0-1.787,1.187c-.016.053-.031.109-.044.164a2.932,2.932,0,0,0,.172,1.789,11.285,11.285,0,0,1,.709,5.8,6.425,6.425,0,0,0,1.067,4.491c.573.832,1.26,1.775,1.976,2.643a6.257,6.257,0,0,1,1.768,3.879" transform="translate(-1471.446 -437.747)"/><line class="a" x1="1.274" transform="translate(15.789 10.048)"/><line class="a" x1="1.888" transform="translate(12.12 8.118)"/><line class="a" x1="1.782" transform="translate(8.664 6.938)"/><g transform="translate(3.751 29.035)"><path class="a" d="M1478.037,490.635v-7.746a1.009,1.009,0,0,1,1.009-1.009h12.708a1.009,1.009,0,0,1,1.009,1.009v7.746" transform="translate(-1478.037 -481.88)"/></g></g><path class="a" d="M1391.417,442.353v-9.7a1.781,1.781,0,0,1,1.781-1.781h0a1.781,1.781,0,0,1,1.781,1.781V445.27" transform="translate(-1381.235 -430.872)"/><path class="a" d="M1385.157,447.6v-2.761a1.781,1.781,0,0,1,1.782-1.781h0" transform="translate(-1378.539 -436.123)"/><path class="a" d="M1378.9,448.5v-1.581a1.782,1.782,0,0,1,1.782-1.782h0" transform="translate(-1375.842 -437.015)"/><path class="a" d="M1375.915,467.511c.071-3.282-.2-3.907-.2-3.907a18.049,18.049,0,0,0-.495-1.857,35.438,35.438,0,0,1-1.682-9.937l-.012-1.5a1.781,1.781,0,0,1,1.782-1.782h0" transform="translate(-1373.53 -438.476)"/><path class="a" d="M1400.376,446.832h0a1.732,1.732,0,0,1,1.787,1.187c.016.053.031.109.044.164a2.93,2.93,0,0,1-.172,1.789,11.284,11.284,0,0,0-.708,5.8,6.429,6.429,0,0,1-1.067,4.491c-.573.832-1.26,1.775-1.976,2.643a6.257,6.257,0,0,0-1.768,3.879" transform="translate(-1383.431 -437.747)"/><line class="a" x2="1.274" transform="translate(1.782 10.048)"/><line class="a" x2="1.888" transform="translate(4.837 8.118)"/><line class="a" x2="1.782" transform="translate(8.4 6.938)"/><g transform="translate(0.367 29.035)"><path class="a" d="M1388.9,490.635v-7.746a1.009,1.009,0,0,0-1.009-1.009h-12.708a1.009,1.009,0,0,0-1.009,1.009v7.746" transform="translate(-1374.175 -481.88)"/></g></g><path class="a" d="M1423.736,385.112h0a4.759,4.759,0,0,1,4.759-4.759h9.183a3.842,3.842,0,0,0,3.842-3.842h0a3.842,3.842,0,0,0-3.842-3.842h-28.6a5.408,5.408,0,0,1-5.408-5.408h0" transform="translate(-12.982)"/><g transform="translate(1380.264 390.409)"><rect class="b" width="4.174" height="4.174"/><rect class="b" width="4.174" height="4.174" transform="translate(9.49)"/><rect class="b" width="4.174" height="4.174" transform="translate(18.979)"/><rect class="b" width="4.174" height="4.174" transform="translate(28.469)"/><rect class="b" width="4.174" height="4.174" transform="translate(37.959)"/><rect class="b" width="4.174" height="4.174" transform="translate(47.449)"/><rect class="b" width="4.174" height="4.174" transform="translate(56.938)"/></g><g transform="translate(1399.244 400.086)"><rect class="c" width="4.174" height="4.174" transform="translate(0 0)"/><rect class="c" width="4.174" height="4.174" transform="translate(9.49 0)"/><rect class="c" width="4.174" height="4.174" transform="translate(18.979 0)"/></g></g></svg>