<svg xmlns="http://www.w3.org/2000/svg" width="58.303" height="61.008" viewBox="0 0 58.303 61.008"><defs><style>.a,.e{fill:none;}.a{stroke:#6493ff;stroke-width:4px;}.b,.f{fill:#fff;}.c{stroke-linecap:round;stroke-linejoin:bevel;}.d,.f{stroke:none;}</style></defs><g transform="translate(-749 -635)"><g class="a" transform="translate(749 644.008)"><circle class="d" cx="26" cy="26" r="26"/><circle class="e" cx="26" cy="26" r="24"/></g><g transform="translate(750.488 636)"><path class="b" d="M968.623,2396.364a17.539,17.539,0,0,1-8.918-2.557,75.708,75.708,0,0,1-29.576-29.924,15.2,15.2,0,0,1,2.5-18.273q1.787-1.845,3.629-3.636a4.163,4.163,0,0,1,6.089-.086q3.864,3.738,7.6,7.6a4.053,4.053,0,0,1-.042,5.893q-2.189,2.286-4.479,4.474a1.731,1.731,0,0,0-.271,2.605,71.509,71.509,0,0,0,16.9,16.894,1.737,1.737,0,0,0,2.609-.266c1.407-1.464,2.854-2.891,4.307-4.31a4.212,4.212,0,0,1,6.348.036q3.517,3.494,7.009,7.014c2.181,2.208,2.215,4.523-.039,6.66a68.444,68.444,0,0,1-6.63,5.786A12.291,12.291,0,0,1,968.623,2396.364Z" transform="translate(-928.151 -2340.608)"/><g class="c" transform="translate(-928.151 -2340.608)"><path class="d" d="M 968.6257934570313 2396.8642578125 L 968.6199951171875 2396.8642578125 C 965.4246826171875 2396.843017578125 962.5987548828125 2396.0341796875 959.4571533203125 2394.24169921875 C 953.0807495117188 2390.60302734375 947.355712890625 2386.246337890625 942.4408569335938 2381.29296875 C 937.4579467773438 2376.270751953125 933.1679077148438 2370.494140625 929.68994140625 2364.123291015625 C 927.9902954101563 2361.01025390625 927.33447265625 2357.597900390625 927.79345703125 2354.25537109375 C 928.2515869140625 2350.919189453125 929.7977905273438 2347.809814453125 932.264892578125 2345.26318359375 C 933.455078125 2344.034423828125 934.6796875 2342.8076171875 935.90478515625 2341.61669921875 C 936.9061279296875 2340.6435546875 938.13720703125 2340.107666015625 939.3712768554688 2340.107666015625 C 940.5800170898438 2340.107666015625 941.7274169921875 2340.599365234375 942.6893920898438 2341.52978515625 C 945.1837768554688 2343.942626953125 947.745849609375 2346.504150390625 950.304443359375 2349.14306640625 C 951.2255249023438 2350.093017578125 951.7061767578125 2351.230712890625 951.6943969726563 2352.433349609375 C 951.6827392578125 2353.625732421875 951.1881713867188 2354.765869140625 950.2642822265625 2355.73046875 C 948.8265991210938 2357.23193359375 947.3143310546875 2358.74267578125 945.7697143554688 2360.22021484375 C 945.0580444335938 2360.901123046875 945.005126953125 2361.394287109375 945.5601196289063 2362.17431640625 C 950.1817626953125 2368.667236328125 955.8272094726563 2374.311767578125 962.3395385742188 2378.95068359375 C 962.6956176757813 2379.20458984375 962.9987182617188 2379.327880859375 963.2662963867188 2379.327880859375 C 963.46923828125 2379.327880859375 963.7969360351563 2379.267578125 964.2977294921875 2378.745849609375 C 965.7306518554688 2377.254150390625 967.2199096679688 2375.787353515625 968.6157836914063 2374.4248046875 C 969.6658935546875 2373.3994140625 970.8782958984375 2372.857666015625 972.1218872070313 2372.857666015625 C 973.3823852539063 2372.857666015625 974.6077270507813 2373.4130859375 975.6654052734375 2374.4638671875 C 977.9197387695313 2376.703369140625 980.32958984375 2379.103515625 982.677978515625 2381.48095703125 C 983.8851318359375 2382.703125 984.4864501953125 2383.9716796875 984.4653930664063 2385.251220703125 C 984.4447631835938 2386.505859375 983.8262939453125 2387.71826171875 982.627197265625 2388.854736328125 L 982.3994750976563 2389.07080078125 C 980.360595703125 2391.004150390625 978.2523193359375 2393.00341796875 975.9478149414063 2394.681884765625 C 973.5546264648438 2396.424560546875 970.6483154296875 2396.830322265625 968.6316528320313 2396.8642578125 L 968.6257934570313 2396.8642578125 Z M 939.356689453125 2343.899658203125 C 939.127685546875 2343.899658203125 938.8379516601563 2344.0732421875 938.4710083007813 2344.430419921875 L 938.1182250976563 2344.773681640625 C 937.0023803710938 2345.85888671875 935.8485107421875 2346.981201171875 934.781494140625 2348.137939453125 C 931.1158447265625 2352.11328125 930.4363403320313 2357.527099609375 933.0081787109375 2362.266357421875 C 939.4959716796875 2374.2216796875 949.0528564453125 2383.885498046875 961.413330078125 2390.989501953125 C 963.897705078125 2392.4169921875 966.1122436523438 2393.0546875 968.5926513671875 2393.056884765625 C 971.3704833984375 2392.97509765625 973.9285888671875 2391.939208984375 975.9912719726563 2390.061279296875 C 977.3101806640625 2388.8603515625 978.5894165039063 2387.5615234375 979.8265380859375 2386.30517578125 L 980.064453125 2386.063720703125 C 980.4507446289063 2385.67138671875 980.6296997070313 2385.3818359375 980.6275634765625 2385.152099609375 C 980.6253662109375 2384.92041015625 980.4400634765625 2384.626220703125 980.0443725585938 2384.2265625 C 977.8169555664063 2381.977783203125 975.4578247070313 2379.6201171875 973.0325927734375 2377.21875 C 972.6644897460938 2376.8544921875 972.364501953125 2376.67724609375 972.1153564453125 2376.67724609375 C 971.86279296875 2376.67724609375 971.5553588867188 2376.858642578125 971.175537109375 2377.2314453125 C 970.3946533203125 2377.997314453125 969.6090087890625 2378.787109375 968.8493041992188 2379.550537109375 C 968.22802734375 2380.175048828125 967.585693359375 2380.82080078125 966.9481201171875 2381.451171875 C 965.746826171875 2382.6396484375 964.5621337890625 2383.217529296875 963.3262939453125 2383.217529296875 C 962.3069458007813 2383.217529296875 961.2581176757813 2382.826171875 960.1199340820313 2382.02099609375 C 956.7001953125 2379.601318359375 953.484619140625 2376.893310546875 950.5625 2373.972412109375 C 947.642333984375 2371.0537109375 944.9326782226563 2367.839599609375 942.5089111328125 2364.419677734375 C 940.7301025390625 2361.90966796875 940.89794921875 2359.73876953125 943.0372314453125 2357.588134765625 C 943.6426391601563 2356.979248046875 944.2608642578125 2356.364013671875 944.8587036132813 2355.768798828125 C 945.6484985351563 2354.98291015625 946.4652099609375 2354.169921875 947.2605590820313 2353.364013671875 C 947.6481323242188 2352.970947265625 947.8396606445313 2352.659912109375 947.8460083007813 2352.4130859375 C 947.8499755859375 2352.260986328125 947.7996826171875 2352.00244140625 947.3199462890625 2351.51806640625 C 944.9241333007813 2349.09814453125 942.5370483398438 2346.711669921875 940.2247924804688 2344.424560546875 C 939.8676147460938 2344.0712890625 939.5836181640625 2343.899658203125 939.356689453125 2343.899658203125 Z"/><path class="f" d="M 968.623291015625 2396.3642578125 C 970.8546142578125 2396.326904296875 973.4976806640625 2395.847412109375 975.6534423828125 2394.27783203125 C 978.0159912109375 2392.556884765625 980.154296875 2390.510009765625 982.283203125 2388.491943359375 C 984.53759765625 2386.35498046875 984.5030517578125 2384.040283203125 982.322265625 2381.832275390625 C 979.99951171875 2379.48095703125 977.657958984375 2377.148193359375 975.31298828125 2374.818603515625 C 974.3331298828125 2373.844970703125 973.22802734375 2373.357666015625 972.1218872070313 2373.357666015625 C 971.03076171875 2373.357666015625 969.9385375976563 2373.83203125 968.965087890625 2374.782470703125 C 967.5120849609375 2376.200927734375 966.0650634765625 2377.627685546875 964.658447265625 2379.092041015625 C 964.19384765625 2379.575927734375 963.7476196289063 2379.827880859375 963.2662963867188 2379.827880859375 C 962.8905029296875 2379.827880859375 962.4932861328125 2379.67431640625 962.0494384765625 2379.35791015625 C 955.46923828125 2374.670654296875 949.8380126953125 2369.046630859375 945.1527099609375 2362.464111328125 C 944.4317626953125 2361.450927734375 944.5576171875 2360.68798828125 945.424072265625 2359.85888671875 C 946.94873046875 2358.400390625 948.44384765625 2356.90869140625 949.9031982421875 2355.384521484375 C 951.598388671875 2353.61474609375 951.63720703125 2351.23583984375 949.9454345703125 2349.4912109375 C 947.45068359375 2346.91796875 944.917724609375 2344.380859375 942.341796875 2341.88916015625 C 941.4531860351563 2341.02978515625 940.414306640625 2340.607666015625 939.371337890625 2340.607666015625 C 938.2806396484375 2340.607666015625 937.185546875 2341.0693359375 936.2532958984375 2341.975341796875 C 935.025634765625 2343.168701171875 933.8154296875 2344.381103515625 932.6240234375 2345.611083984375 C 927.7530517578125 2350.638916015625 926.7662353515625 2357.724853515625 930.1287841796875 2363.8837890625 C 937.11865234375 2376.6875 947.0589599609375 2386.5908203125 959.7049560546875 2393.807373046875 C 962.32666015625 2395.30322265625 965.102294921875 2396.3408203125 968.623291015625 2396.3642578125 M 939.356689453125 2343.399658203125 C 939.7415161132813 2343.399658203125 940.124755859375 2343.62255859375 940.576416015625 2344.069091796875 C 942.955322265625 2346.422119140625 945.3209228515625 2348.788330078125 947.6751708984375 2351.166259765625 C 948.5911865234375 2352.091064453125 948.5672607421875 2352.751220703125 947.616455078125 2353.715087890625 C 946.2174072265625 2355.133056640625 944.79638671875 2356.528076171875 943.3917236328125 2357.940673828125 C 941.417236328125 2359.92578125 941.28515625 2361.828125 942.9168701171875 2364.130615234375 C 947.7529296875 2370.9541015625 953.5811767578125 2376.78173828125 960.40869140625 2381.61279296875 C 961.4459838867188 2382.3466796875 962.402587890625 2382.717529296875 963.3262329101563 2382.717529296875 C 964.4364013671875 2382.717529296875 965.4989624023438 2382.181640625 966.5965576171875 2381.095703125 C 968.0125732421875 2379.6953125 969.4036865234375 2378.26904296875 970.8253173828125 2376.87451171875 C 971.2987060546875 2376.409912109375 971.7077026367188 2376.17724609375 972.1153564453125 2376.17724609375 C 972.5194091796875 2376.17724609375 972.9220581054688 2376.406005859375 973.3843994140625 2376.863525390625 C 975.7340087890625 2379.18994140625 978.072998046875 2381.52587890625 980.399658203125 2383.874755859375 C 981.3624267578125 2384.84716796875 981.370849609375 2385.44970703125 980.420654296875 2386.41455078125 C 979.0792236328125 2387.776123046875 977.7403564453125 2389.14501953125 976.327880859375 2390.430908203125 C 974.058349609375 2392.497314453125 971.3321533203125 2393.47802734375 968.5997314453125 2393.556884765625 C 965.6956787109375 2393.555908203125 963.361328125 2392.685546875 961.1641845703125 2391.423095703125 C 948.9730224609375 2384.416259765625 939.299072265625 2374.906982421875 932.5687255859375 2362.5048828125 C 929.8787841796875 2357.5478515625 930.5987548828125 2351.9365234375 934.4139404296875 2347.799072265625 C 935.6011962890625 2346.51171875 936.866455078125 2345.294921875 938.1221923828125 2344.072265625 C 938.58251953125 2343.6240234375 938.9703979492188 2343.399658203125 939.356689453125 2343.399658203125 M 968.6166381835938 2397.3642578125 C 965.3308715820313 2397.34228515625 962.4295654296875 2396.51318359375 959.2094116210938 2394.676025390625 C 952.793701171875 2391.014892578125 947.0325927734375 2386.630615234375 942.0859375 2381.64501953125 C 937.0698852539063 2376.589599609375 932.7515869140625 2370.775146484375 929.2510375976563 2364.363037109375 C 927.4998168945313 2361.1552734375 926.8245239257813 2357.63671875 927.2981567382813 2354.187255859375 C 927.7708129882813 2350.7451171875 929.3640747070313 2347.538818359375 931.9058227539063 2344.915283203125 C 933.0994262695313 2343.68310546875 934.32763671875 2342.45263671875 935.5562744140625 2341.25830078125 C 936.6515502929688 2340.19384765625 938.00634765625 2339.607666015625 939.3712768554688 2339.607666015625 C 940.7123413085938 2339.607666015625 941.9798583984375 2340.14794921875 943.0369873046875 2341.17041015625 C 945.5352172851563 2343.5869140625 948.1011352539063 2346.152099609375 950.6633911132813 2348.795166015625 C 952.7178955078125 2350.913818359375 952.7022705078125 2353.907958984375 950.6253662109375 2356.076171875 C 949.1826782226563 2357.5830078125 947.6652221679688 2359.098876953125 946.1153564453125 2360.58154296875 C 945.8535766601563 2360.83203125 945.7051391601563 2361.04931640625 945.6862182617188 2361.20947265625 C 945.662841796875 2361.40771484375 945.8262939453125 2361.685791015625 945.9674682617188 2361.88427734375 C 950.5567626953125 2368.33203125 956.1627197265625 2373.936767578125 962.629638671875 2378.54345703125 C 962.8907470703125 2378.7294921875 963.1107788085938 2378.827880859375 963.2662963867188 2378.827880859375 C 963.4385375976563 2378.827880859375 963.6642456054688 2378.683837890625 963.93701171875 2378.399658203125 C 965.3749389648438 2376.902587890625 966.86767578125 2375.4326171875 968.2665405273438 2374.06689453125 C 969.4119262695313 2372.94873046875 970.7451171875 2372.357666015625 972.1218872070313 2372.357666015625 C 973.5172729492188 2372.357666015625 974.8644409179688 2372.96337890625 976.017822265625 2374.109130859375 C 978.2730102539063 2376.349609375 980.683837890625 2378.750732421875 983.03369140625 2381.12939453125 C 984.3388061523438 2382.450927734375 984.9887084960938 2383.840576171875 984.96533203125 2385.259521484375 C 984.9423828125 2386.6533203125 984.2714233398438 2387.985107421875 982.9711303710938 2389.2177734375 L 982.7435302734375 2389.43359375 C 980.693115234375 2391.3779296875 978.5728759765625 2393.388427734375 976.2422485351563 2395.086181640625 C 973.7432250976563 2396.905517578125 970.7288208007813 2397.3291015625 968.6400146484375 2397.364013671875 L 968.6166381835938 2397.3642578125 Z M 939.356689453125 2344.399658203125 C 939.3522338867188 2344.39990234375 939.2001342773438 2344.41845703125 938.8197631835938 2344.788818359375 L 938.4668579101563 2345.132080078125 C 937.3557739257813 2346.212646484375 936.2068481445313 2347.330078125 935.1490478515625 2348.47705078125 C 931.6329956054688 2352.2900390625 930.9810791015625 2357.482421875 933.4476318359375 2362.02783203125 C 939.890625 2373.900390625 949.3834838867188 2383.498779296875 961.6624755859375 2390.55615234375 C 964.0643920898438 2391.936279296875 966.2001953125 2392.5537109375 968.5855712890625 2392.556884765625 C 971.2393188476563 2392.476806640625 973.6834106445313 2391.486328125 975.6546630859375 2389.69140625 C 976.9635009765625 2388.5 978.2378540039063 2387.205810546875 979.4702758789063 2385.954345703125 L 979.7083129882813 2385.712646484375 C 980.0804443359375 2385.3349609375 980.1228637695313 2385.178955078125 980.1272583007813 2385.156494140625 C 980.1228637695313 2385.1337890625 980.0794677734375 2384.97265625 979.6890258789063 2384.578369140625 C 977.4628295898438 2382.330810546875 975.1048583984375 2379.974365234375 972.6807861328125 2377.57421875 C 972.2844848632813 2377.181884765625 972.1221313476563 2377.17724609375 972.1153564453125 2377.17724609375 C 972.1083984375 2377.17724609375 971.9396362304688 2377.181884765625 971.5257568359375 2377.588134765625 C 970.7469482421875 2378.352294921875 969.96240234375 2379.140625 969.2037353515625 2379.9033203125 C 968.581787109375 2380.5283203125 967.938720703125 2381.1748046875 967.2997436523438 2381.806640625 C 966.0001831054688 2383.092529296875 964.700439453125 2383.717529296875 963.3262939453125 2383.717529296875 C 962.199951171875 2383.717529296875 961.0567016601563 2383.296142578125 959.8311767578125 2382.42919921875 C 952.947998046875 2377.558837890625 946.9827270507813 2371.5966796875 942.1010131835938 2364.708740234375 C 940.1828002929688 2362.002197265625 940.373046875 2359.5576171875 942.6827392578125 2357.2353515625 C 943.2890014648438 2356.625732421875 943.90771484375 2356.010009765625 944.5059814453125 2355.41455078125 C 945.2950439453125 2354.629150390625 946.1109008789063 2353.817138671875 946.9046020507813 2353.0126953125 C 947.3368530273438 2352.574462890625 947.3460083007813 2352.4072265625 947.34619140625 2352.400390625 C 947.3462524414063 2352.39892578125 947.33935546875 2352.248291015625 946.9646606445313 2351.869873046875 C 944.570068359375 2349.451171875 942.1842041015625 2347.06591796875 939.8731689453125 2344.780029296875 C 939.5087890625 2344.419677734375 939.36083984375 2344.39990234375 939.356689453125 2344.399658203125 Z"/></g></g></g></svg>