<svg xmlns="http://www.w3.org/2000/svg" width="66.943" height="58.144" viewBox="0 0 66.943 58.144"><defs><style>.a{fill:none;}.a,.c{stroke:#344154;stroke-linecap:round;stroke-linejoin:round;stroke-width:2px;}.b{fill:#35b4cf;}.c{fill:#fff;}</style></defs><g transform="translate(-1744.15 -1495.132)"><path class="a" d="M1745.15,1544.2v16.567a3.466,3.466,0,0,0,3.466,3.466h11.56" transform="translate(0 -23.349)"/><circle class="a" cx="4.627" cy="4.627" r="4.627" transform="matrix(0.23, -0.973, 0.973, 0.23, 1749.147, 1516.704)"/><path class="a" d="M1764.081,1554.551v5.461h-5.655a5.272,5.272,0,0,1-5.272-5.272V1546.8a2.6,2.6,0,0,1,2.595-2.595h5.926a2.406,2.406,0,0,1,2.406,2.406v3.409" transform="translate(-3.904 -23.349)"/><path class="a" d="M1763.82,1547.768v4.2a2.057,2.057,0,0,0,2.056,2.057h7.836" transform="translate(-9.107 -25.089)"/><path class="a" d="M1774.487,1575.069h2.6a1.828,1.828,0,0,1,1.828,1.828v9.016" transform="translate(-14.31 -38.407)"/><path class="a" d="M1758.045,1583.313v7.457l-3.52,3.52" transform="translate(-4.573 -42.428)"/><line class="a" x2="3.339" y2="3.339" transform="translate(1753.472 1548.342)"/><path class="a" d="M1857.633,1544.2v16.567a3.466,3.466,0,0,1-3.466,3.466h-11.56" transform="translate(-47.54 -23.349)"/><circle class="a" cx="4.627" cy="4.627" r="4.627" transform="matrix(0.973, -0.23, 0.23, 0.973, 1794.965, 1509.825)"/><path class="a" d="M1842.607,1554.551v5.461h5.654a5.272,5.272,0,0,0,5.272-5.272V1546.8a2.6,2.6,0,0,0-2.595-2.595h-5.926a2.406,2.406,0,0,0-2.406,2.406v3.409" transform="translate(-47.54 -23.349)"/><path class="a" d="M1843.852,1547.768v4.2a2.057,2.057,0,0,1-2.056,2.057h-7.836" transform="translate(-43.322 -25.089)"/><path class="a" d="M1838.389,1575.069h-2.6a1.828,1.828,0,0,0-1.829,1.828v9.016" transform="translate(-43.322 -38.407)"/><path class="a" d="M1855.7,1583.313v7.457l3.52,3.52" transform="translate(-53.924 -42.428)"/><line class="a" x1="3.339" y2="3.339" transform="translate(1798.432 1548.342)"/><path class="b" d="M1808.467,1560.479h-13.151a1.721,1.721,0,0,1-1.721-1.721h0a1.721,1.721,0,0,1,1.721-1.72h13.151a1.72,1.72,0,0,1,1.721,1.72h0A1.721,1.721,0,0,1,1808.467,1560.479Z" transform="translate(-23.631 -29.611)"/><path class="c" d="M1806.19,1567.16v15.73l-3.783,3.52" transform="translate(-27.93 -34.549)"/><line class="c" x2="3.345" y2="3.52" transform="translate(1778.26 1548.342)"/><g transform="translate(1769.427 1496.335)"><line class="a" y2="9.259" transform="translate(13.023 18.622)"/><circle class="a" cx="4.391" cy="4.391" r="4.391" transform="translate(3.076 8.546) rotate(-76.718)"/><path class="a" d="M1792.548,1534.485v-11.092a2.856,2.856,0,0,1,2.856-2.855h11a2.855,2.855,0,0,1,2.855,2.855v10.021" transform="translate(-1792.548 -1508.141)"/><line class="a" y1="9.259" transform="translate(3.693 18.622)"/><line class="a" y2="5.089" transform="translate(8.358 12.396)"/></g><line class="a" y2="11.415" transform="translate(1774.002 1534.109)"/><line class="a" y2="11.415" transform="translate(1782.176 1534.109)"/></g></svg>