<svg xmlns="http://www.w3.org/2000/svg" width="238.927" height="42.44" viewBox="0 0 238.927 42.44"><defs><style>.a{fill:#0060af;}.b{fill:#433c3c;font-size:13px;font-family:Poppins-Regular, Poppins;}</style></defs><g transform="translate(-44.735 -977.069)"><g transform="translate(44.735 977.069)"><g transform="translate(0 0)"><path class="a" d="M300.856,524.208V523.3l-1.777,1.28,1.777,1.289v-.7a19.8,19.8,0,1,1-20,19.8h-.973a20.77,20.77,0,1,0,20.975-20.77" transform="translate(-279.881 -523.3)"/><path class="a" d="M299.263,561.306v.887l1.781-1.295-1.781-1.277v.716a17.122,17.122,0,1,1,17.194-17.115h.973a18.091,18.091,0,1,0-18.168,18.084" transform="translate(-278.565 -521.547)"/><path class="a" d="M293.786,545.3a.314.314,0,0,1,.095.081v-.016a27.54,27.54,0,0,0,4.244,3.8c4.191,2.8,7.4,2.019,9.308.969a10.053,10.053,0,0,0,4.716-8.649,14.551,14.551,0,1,0-14.54,14.551.905.905,0,1,0,0-1.811,12.743,12.743,0,1,1,12.743-12.743,8.219,8.219,0,0,1-3.8,7.072,5.289,5.289,0,0,1-2.64.677,4.14,4.14,0,0,0,1.427-1.354,2.145,2.145,0,0,0,.208-.323,14.89,14.89,0,0,0,.5-2.239c.218-.948-4.164-2.8-4.525-1.607a12.25,12.25,0,0,1-.632,2.179c-.249.336-.842.175-1.228-.149-.988-.842-2.1-2.093-3.078-3.071-.024-.034-.061-.061-.072-.085a.392.392,0,0,1-.088-.081c-.983-.979-2.239-2.08-3.087-3.082-.32-.391-.463-.979-.139-1.233a11.184,11.184,0,0,1,2.185-.622c1.183-.373-.67-4.752-1.617-4.518a14.528,14.528,0,0,0-2.239.481,1.727,1.727,0,0,0-.33.221c-2.487,1.571-2.81,5.409-.373,8.276.938,1.1,1.9,2.153,2.892,3.18v.014a.659.659,0,0,1,.071.082" transform="translate(-276.831 -519.806)"/></g><g transform="translate(50.895 20.533)"><path class="a" d="M321.436,542.945c0,5.737-3.455,9.184-7.813,9.184s-7.8-3.448-7.8-9.184,3.458-9.179,7.8-9.179S321.436,537.2,321.436,542.945Zm-11.346,0c0,3.445,1.546,5.256,3.533,5.256s3.546-1.811,3.546-5.256-1.545-5.252-3.546-5.252-3.533,1.811-3.533,5.252Z" transform="translate(-305.822 -533.766)"/><path class="a" d="M328.555,538.881a4.211,4.211,0,0,1-2.673,3.98,4.353,4.353,0,0,1,3.116,4.13c0,3.234-3.2,5.143-7.1,5.143s-7.1-1.915-7.1-5.143a4.346,4.346,0,0,1,3.1-4.13,4.2,4.2,0,0,1-2.659-3.98c0-3.2,2.985-5.115,6.661-5.115S328.555,535.674,328.555,538.881Zm-9.3,7.65c0,1.328,1.216,2.025,2.635,2.025s2.622-.7,2.622-2.025-1.2-2.092-2.622-2.092-2.635.747-2.635,2.091Zm.354-7.257c0,1.244,1.015,1.925,2.28,1.925a2,2,0,0,0,2.266-1.925c0-1.216-1.012-1.873-2.266-1.873s-2.28.655-2.28,1.872Z" transform="translate(-297.195 -533.766)"/><path class="a" d="M341.56,542.945c0,5.737-3.459,9.184-7.813,9.184s-7.8-3.448-7.8-9.184,3.459-9.179,7.8-9.179S341.56,537.2,341.56,542.945Zm-11.346,0c0,3.445,1.545,5.256,3.533,5.256s3.543-1.811,3.543-5.256-1.543-5.252-3.543-5.252-3.528,1.811-3.528,5.252Z" transform="translate(-286.462 -533.766)"/><path class="a" d="M350.616,542.945c0,5.737-3.459,9.184-7.813,9.184s-7.8-3.448-7.8-9.184,3.459-9.179,7.8-9.179S350.616,537.2,350.616,542.945Zm-11.346,0c0,3.445,1.545,5.256,3.533,5.256s3.543-1.811,3.543-5.256-1.543-5.252-3.543-5.252S339.27,539.5,339.27,542.945Z" transform="translate(-277.753 -533.766)"/><path class="a" d="M359.667,542.945c0,5.737-3.459,9.184-7.814,9.184s-7.8-3.448-7.8-9.184,3.458-9.179,7.8-9.179S359.667,537.2,359.667,542.945Zm-11.346,0c0,3.445,1.545,5.256,3.532,5.256s3.546-1.811,3.546-5.256-1.545-5.252-3.546-5.252-3.531,1.811-3.531,5.252Z" transform="translate(-269.046 -533.766)"/><path class="a" d="M368.718,542.945c0,5.737-3.458,9.184-7.813,9.184s-7.8-3.448-7.8-9.184,3.459-9.179,7.8-9.179S368.718,537.2,368.718,542.945Zm-11.346,0c0,3.445,1.545,5.256,3.533,5.256s3.545-1.811,3.545-5.256-1.543-5.252-3.545-5.252-3.532,1.811-3.532,5.252Z" transform="translate(-260.338 -533.766)"/><path class="a" d="M372.852,551.793h-4.1V539.447l-3.964,1.507v-4.041l8.065-3.129Z" transform="translate(-249.1 -533.749)"/><path class="a" d="M377.266,539.906a2.071,2.071,0,0,1,.29-.014c3.965,0,6.343,2.621,6.343,5.9,0,3.571-2.979,6.18-6.916,6.18-3.913,0-6.889-2.56-6.889-6.066a8.83,8.83,0,0,1,1.774-4.939l4.709-7.042h4.94Zm-2.861,5.925a2.6,2.6,0,1,0,2.582-2.47,2.441,2.441,0,0,0-2.582,2.473Z" transform="translate(-243.991 -533.611)"/><path class="a" d="M384.986,539.906a2.061,2.061,0,0,1,.29-.014c3.965,0,6.343,2.621,6.343,5.9,0,3.571-2.976,6.18-6.914,6.18-3.913,0-6.89-2.56-6.89-6.066a8.816,8.816,0,0,1,1.776-4.939l4.709-7.042h4.939Zm-2.861,5.925a2.6,2.6,0,1,0,2.582-2.47,2.44,2.44,0,0,0-2.582,2.473Z" transform="translate(-236.565 -533.611)"/><path class="a" d="M401.374,542.945c0,5.737-3.459,9.184-7.814,9.184s-7.8-3.448-7.8-9.184,3.458-9.179,7.8-9.179S401.374,537.2,401.374,542.945Zm-11.346,0c0,3.445,1.543,5.256,3.531,5.256s3.546-1.811,3.546-5.256-1.543-5.252-3.546-5.252-3.53,1.811-3.53,5.252Z" transform="translate(-228.924 -533.766)"/><path class="a" d="M401.246,545.846h-.279c-3.964,0-6.343-2.622-6.343-5.9,0-3.568,2.963-6.179,6.9-6.179,3.913,0,6.9,2.556,6.9,6.064a8.864,8.864,0,0,1-1.786,4.94l-4.711,7.039H397Zm2.861-5.939a2.593,2.593,0,1,0-2.582,2.467,2.441,2.441,0,0,0,2.584-2.472Z" transform="translate(-220.395 -533.766)"/></g><text class="b" transform="translate(48.77 14.162)"><tspan x="0" y="0">Toll Free Hotline</tspan></text></g></g></svg>