<svg xmlns="http://www.w3.org/2000/svg" xmlns:xlink="http://www.w3.org/1999/xlink" width="146" height="587" viewBox="0 0 146 587"><defs><style>.a{fill:#fff;}.b{clip-path:url(#a);}.c{fill:#56bbff;}</style><clipPath id="a"><rect class="a" width="587" height="146" transform="translate(773.897 3829.4)"/></clipPath></defs><g class="b" transform="translate(-3829.4 1360.897) rotate(-90)"><g transform="translate(806.389 3849.673)"><g transform="translate(0 0)"><g transform="translate(0 1.059)"><g transform="translate(9.473 0)"><rect class="c" width="2.118" height="89.108"/></g><g transform="translate(4.72 88.582)"><path class="c" d="M11.63,5.8A5.815,5.815,0,1,1,5.8,0,5.817,5.817,0,0,1,11.63,5.8ZM2.1,5.8A3.71,3.71,0,1,0,5.8,2.1,3.7,3.7,0,0,0,2.1,5.8Z" transform="translate(0 0)"/></g><g transform="translate(0 227.934)"><path class="c" d="M11.588,5.8A5.794,5.794,0,1,1,5.783,0,5.8,5.8,0,0,1,11.588,5.8ZM2.1,5.8A3.689,3.689,0,1,0,5.783,2.1,3.7,3.7,0,0,0,2.1,5.8Z" transform="translate(0 0)"/></g><g transform="translate(23.622 134.508)"><path class="c" d="M11.63,5.783A5.815,5.815,0,1,1,5.826,0,5.83,5.83,0,0,1,11.63,5.783Zm-9.525,0a3.693,3.693,0,0,0,3.721,3.7A3.644,3.644,0,0,0,9.5,5.783a3.7,3.7,0,0,0-7.4,0Z" transform="translate(0 0)"/></g><g transform="translate(0 179.499)"><path class="c" d="M11.588,5.8A5.794,5.794,0,1,1,5.783,0,5.8,5.8,0,0,1,11.588,5.8ZM2.1,5.8A3.689,3.689,0,1,0,5.783,2.1,3.7,3.7,0,0,0,2.1,5.8Z" transform="translate(0 0)"/></g><g transform="translate(0 198.337)"><path class="c" d="M11.588,5.826A5.794,5.794,0,1,1,5.783,0,5.8,5.8,0,0,1,11.588,5.826Zm-9.483,0a3.689,3.689,0,1,0,3.678-3.7A3.7,3.7,0,0,0,2.1,5.826Z" transform="translate(0 0)"/></g><g transform="translate(47.287 198.337)"><path class="c" d="M11.609,5.826A5.8,5.8,0,1,1,5.8,0,5.8,5.8,0,0,1,11.609,5.826Zm-9.5,0a3.7,3.7,0,1,0,3.7-3.7A3.7,3.7,0,0,0,2.1,5.826Z" transform="translate(0 0)"/></g><g transform="translate(122.937 73.061)"><path class="c" d="M11.567,5.8A5.783,5.783,0,1,1,5.8,0,5.776,5.776,0,0,1,11.567,5.8ZM2.1,5.8a3.678,3.678,0,1,0,7.357,0A3.678,3.678,0,1,0,2.1,5.8Z" transform="translate(0 0)"/></g><g transform="translate(118.175 43.017)"><path class="c" d="M11.63,5.783A5.815,5.815,0,1,1,5.8,0,5.835,5.835,0,0,1,11.63,5.783Zm-9.525,0a3.662,3.662,0,0,0,3.7,3.7,3.72,3.72,0,0,0,3.721-3.7,3.71,3.71,0,0,0-7.42,0Z" transform="translate(0 0)"/></g><g transform="translate(118.175 98.086)"><path class="c" d="M11.63,5.8A5.815,5.815,0,1,1,5.8,0,5.812,5.812,0,0,1,11.63,5.8ZM2.1,5.8A3.627,3.627,0,0,0,5.8,9.462,3.7,3.7,0,0,0,9.525,5.8,3.72,3.72,0,0,0,5.8,2.1,3.649,3.649,0,0,0,2.1,5.8Z" transform="translate(0 0)"/></g><g transform="translate(99.273 97.299)"><path class="c" d="M11.588,5.783A5.794,5.794,0,1,1,5.826,0,5.789,5.789,0,0,1,11.588,5.783Zm-9.483,0A3.678,3.678,0,1,0,5.826,2.1,3.649,3.649,0,0,0,2.1,5.783Z" transform="translate(0 0)"/></g><g transform="translate(99.273 184.24)"><path class="c" d="M11.588,5.826A5.794,5.794,0,1,1,5.826,0,5.785,5.785,0,0,1,11.588,5.826Zm-9.483,0A3.679,3.679,0,1,0,5.826,2.1,3.7,3.7,0,0,0,2.1,5.826Z" transform="translate(0 0)"/></g><g transform="translate(122.937 160.958)"><path class="c" d="M11.567,5.826A5.783,5.783,0,1,1,5.8,0,5.789,5.789,0,0,1,11.567,5.826Zm-9.462,0A3.679,3.679,0,1,0,5.8,2.1,3.684,3.684,0,0,0,2.1,5.826Z" transform="translate(0 0)"/></g><g transform="translate(75.608 160.958)"><path class="c" d="M11.63,5.826A5.815,5.815,0,1,1,5.826,0,5.812,5.812,0,0,1,11.63,5.826Zm-9.5,0A3.7,3.7,0,1,0,5.826,2.1,3.684,3.684,0,0,0,2.126,5.826Z" transform="translate(0 0)"/></g><g transform="translate(80.371 315.151)"><path class="c" d="M11.588,5.826A5.794,5.794,0,1,1,5.783,0,5.812,5.812,0,0,1,11.588,5.826Zm-9.483,0a3.689,3.689,0,0,0,7.378,0,3.689,3.689,0,1,0-7.378,0Z" transform="translate(0 0)"/></g><g transform="translate(80.371 145.203)"><path class="c" d="M11.588,5.8A5.794,5.794,0,1,1,5.8,0,5.776,5.776,0,0,1,11.588,5.8ZM2.1,5.8A3.689,3.689,0,1,0,5.8,2.1,3.684,3.684,0,0,0,2.1,5.8Z" transform="translate(0 0)"/></g><g transform="translate(61.469 274.243)"><path class="c" d="M11.588,5.826A5.794,5.794,0,1,1,5.762,0,5.83,5.83,0,0,1,11.588,5.826Zm-9.483,0a3.68,3.68,0,0,0,3.657,3.7,3.7,3.7,0,1,0,0-7.4A3.666,3.666,0,0,0,2.1,5.826Z" transform="translate(0 0)"/></g><g transform="translate(61.469 305.562)"><path class="c" d="M11.588,5.8A5.794,5.794,0,1,1,5.762,0,5.835,5.835,0,0,1,11.588,5.8ZM2.1,5.8A3.666,3.666,0,0,0,5.762,9.5a3.689,3.689,0,1,0,0-7.378A3.661,3.661,0,0,0,2.1,5.8Z" transform="translate(0 0)"/></g><g transform="translate(99.273 436.387)"><path class="c" d="M11.588,5.826A5.794,5.794,0,1,1,5.826,0,5.8,5.8,0,0,1,11.588,5.826Zm-9.483,0a3.72,3.72,0,0,0,3.721,3.7,3.662,3.662,0,0,0,3.636-3.7,3.648,3.648,0,0,0-3.636-3.7A3.707,3.707,0,0,0,2.1,5.826Z" transform="translate(0 0)"/></g><g transform="translate(118.175 279.005)"><path class="c" d="M11.63,5.8A5.815,5.815,0,1,1,5.8,0,5.821,5.821,0,0,1,11.63,5.8ZM2.1,5.8A3.71,3.71,0,1,0,5.8,2.126,3.689,3.689,0,0,0,2.1,5.8Z" transform="translate(0 0)"/></g><g transform="translate(80.371 397.116)"><path class="c" d="M11.588,5.783A5.794,5.794,0,1,1,5.8,0,5.794,5.794,0,0,1,11.588,5.783Zm-9.483,0a3.689,3.689,0,1,0,3.7-3.7A3.721,3.721,0,0,0,2.1,5.783Z" transform="translate(0 0)"/></g><g transform="translate(80.371 470.598)"><path class="c" d="M11.588,5.8A5.794,5.794,0,1,1,5.8,0,5.794,5.794,0,0,1,11.588,5.8ZM2.1,5.8A3.689,3.689,0,1,0,5.8,2.1,3.721,3.721,0,0,0,2.1,5.8Z" transform="translate(0 0)"/></g><g transform="translate(23.622 258.913)"><path class="c" d="M11.63,5.8A5.815,5.815,0,1,1,5.826,0,5.812,5.812,0,0,1,11.63,5.8ZM2.1,5.8A3.7,3.7,0,1,0,5.826,2.1,3.707,3.707,0,0,0,2.1,5.8Z" transform="translate(0 0)"/></g><g transform="translate(47.287 331.693)"><path class="c" d="M11.609,5.826A5.8,5.8,0,1,1,5.8,0,5.812,5.812,0,0,1,11.609,5.826Zm-9.5,0a3.7,3.7,0,1,0,3.7-3.7A3.689,3.689,0,0,0,2.1,5.826Z" transform="translate(0 0)"/></g><g transform="translate(23.665 348.128)"><path class="c" d="M11.588,5.8A5.794,5.794,0,1,1,5.783,0,5.83,5.83,0,0,1,11.588,5.8ZM2.1,5.8A3.678,3.678,0,1,0,5.783,2.1,3.684,3.684,0,0,0,2.1,5.8Z" transform="translate(0 0)"/></g><g transform="translate(42.567 421.249)"><path class="c" d="M11.588,5.826A5.794,5.794,0,1,1,5.762,0,5.83,5.83,0,0,1,11.588,5.826Zm-9.483,0a3.693,3.693,0,0,0,3.657,3.7,3.7,3.7,0,1,0,0-7.4A3.666,3.666,0,0,0,2.1,5.826Z" transform="translate(0 0)"/></g><g transform="translate(23.665 451.356)"><path class="c" d="M11.588,5.826A5.794,5.794,0,1,1,5.783,0,5.826,5.826,0,0,1,11.588,5.826Zm-9.483,0a3.678,3.678,0,1,0,3.678-3.7A3.684,3.684,0,0,0,2.1,5.826Z" transform="translate(0 0)"/></g><g transform="translate(61.469 518.863)"><path class="c" d="M11.588,5.826A5.794,5.794,0,1,1,5.762,0,5.83,5.83,0,0,1,11.588,5.826Zm-9.483,0a3.689,3.689,0,0,0,7.378,0,3.721,3.721,0,0,0-3.721-3.7A3.68,3.68,0,0,0,2.1,5.826Z" transform="translate(0 0)"/></g><g transform="translate(4.72 341.197)"><path class="c" d="M11.63,5.8A5.815,5.815,0,1,1,5.8,0,5.821,5.821,0,0,1,11.63,5.8ZM2.1,5.8A3.71,3.71,0,1,0,5.8,2.1,3.689,3.689,0,0,0,2.1,5.8Z" transform="translate(0 0)"/></g><g transform="translate(4.72 497.941)"><path class="c" d="M11.63,5.8A5.815,5.815,0,1,1,5.8,0,5.821,5.821,0,0,1,11.63,5.8ZM2.1,5.8A3.71,3.71,0,1,0,5.8,2.1,3.7,3.7,0,0,0,2.1,5.8Z" transform="translate(0 0)"/></g><g transform="translate(23.665 321.466)"><path class="c" d="M11.588,5.8A5.794,5.794,0,1,1,5.783,0,5.83,5.83,0,0,1,11.588,5.8ZM2.1,5.8A3.678,3.678,0,1,0,5.783,2.126,3.671,3.671,0,0,0,2.1,5.8Z" transform="translate(0 0)"/></g><g transform="translate(42.567 256.786)"><path class="c" d="M11.588,5.826A5.794,5.794,0,1,1,5.762,0,5.817,5.817,0,0,1,11.588,5.826Zm-9.483,0a3.68,3.68,0,0,0,3.657,3.7,3.7,3.7,0,1,0,0-7.4A3.68,3.68,0,0,0,2.1,5.826Z" transform="translate(0 0)"/></g><g transform="translate(42.567 64.471)"><path class="c" d="M11.588,5.8A5.794,5.794,0,1,1,5.762,0,5.812,5.812,0,0,1,11.588,5.8ZM2.1,5.8A3.675,3.675,0,0,0,5.762,9.483,3.716,3.716,0,0,0,9.483,5.8,3.689,3.689,0,1,0,2.1,5.8Z" transform="translate(0 0)"/></g><g transform="translate(28.379 0)"><rect class="c" width="2.107" height="136.325" transform="translate(0 0)"/></g><g transform="translate(47.284 0)"><rect class="c" width="2.107" height="65.51"/></g><g transform="translate(10.532 0)"><path class="c" d="M57.765,0V110.432H38.859v75.923H0v-2.108H36.752V108.325H55.657V0Z" transform="translate(0 0)"/></g><g transform="translate(10.532 0)"><path class="c" d="M76.712,0V142.014H57.765v77.428H38.859v34.417H17.847V234.787H0V232.68H19.954v19.07h16.8V217.335H55.657V139.906H74.594V0Z" transform="translate(0 0)"/></g><g transform="translate(104.031 0)"><path class="c" d="M19.954,77.823V79.93H0V0H2.107V77.823Z"/></g><g transform="translate(104.031 107.203)"><rect class="c" width="2.107" height="78.092"/></g><g transform="translate(66.19 155.313)"><path class="c" d="M21.054,0V84.239H2.108v35.754H0V82.121H18.936V0Z" transform="translate(0 0)"/></g><g transform="translate(9.473 269.348)"><path class="c" d="M38.859,67.107v2.118H0V33.367H18.905V0h2.108V35.463H2.118V67.107Z" transform="translate(0 0)"/></g><g transform="translate(28.379 267.364)"><path class="c" d="M21.013,0V46.521H2.108V55.16H0V44.4H18.905V0Z" transform="translate(0 0)"/></g><g transform="translate(66.19 316.129)"><path class="c" d="M39.949,36v85.318H37.842v-83.2H21.054V62.145H0V0H2.108V60.048H18.936V36Z" transform="translate(0 0)"/></g><g transform="translate(66.19 407.675)"><path class="c" d="M21.054,0V24.439H2.108V40.864H21.013v23.11H18.895V42.96H0V22.321H18.936V0Z" transform="translate(0 0)"/></g><g transform="translate(9.473 352.07)"><path class="c" d="M21.013,49.792V91.2H2.118v55.73H0V89.078H18.905V51.888H0V0H2.118V49.792Z"/></g><g transform="translate(28.379 358.694)"><path class="c" d="M21.013,31.147V63.973H18.905V33.265H0V0H2.108V31.147Z" transform="translate(0 0)"/></g><g transform="translate(28.379 461.932)"><path class="c" d="M39.918,14.161V56.746H37.811V16.278h-16.8V31.5H0V0H2.108V29.4h16.8V14.161Z"/></g><g transform="translate(122.937 0)"><rect class="c" width="2.107" height="44.071"/></g><g transform="translate(85.085 108.532)"><path class="c" d="M58.865,45.275V86.658H39.96v38.819H21.054v43.687H2.118V207.6H0V167.044H18.947V123.367H37.852V84.54H56.758V47.383H37.852V0H39.96V45.275Z" transform="translate(0 0)"/></g><g transform="translate(10.532 203.111)"><rect class="c" width="37.8" height="2.107"/></g><g transform="translate(86.143 165.716)"><rect class="c" width="37.842" height="2.107"/></g><g transform="translate(104.031 289.738)"><path class="c" d="M39.918,46.447v61.088H21.013v59.051H2.107v73.941H0V164.49H18.905V105.4H37.811V48.565H18.905V0h2.107V46.447Z" transform="translate(0 0)"/></g><g transform="translate(122.937 350.969)"><rect class="c" width="2.107" height="29.818"/></g></g><g transform="translate(438.869 1.059)"><g transform="translate(9.379 444.765)"><path class="c" d="M11.63,5.783A5.815,5.815,0,1,1,5.826,0,5.817,5.817,0,0,1,11.63,5.783Zm-9.5,0A3.7,3.7,0,1,0,5.826,2.1,3.693,3.693,0,0,0,2.126,5.783Z" transform="translate(0 0)"/></g><g transform="translate(14.141 474.829)"><path class="c" d="M11.63,5.8A5.815,5.815,0,1,1,5.8,0,5.8,5.8,0,0,1,11.63,5.8Zm-9.5,0A3.689,3.689,0,1,0,5.8,2.084,3.68,3.68,0,0,0,2.126,5.8Z" transform="translate(0 0)"/></g><g transform="translate(14.141 419.76)"><path class="c" d="M11.63,5.8A5.815,5.815,0,1,1,5.8,0,5.8,5.8,0,0,1,11.63,5.8Zm-9.5,0A3.622,3.622,0,0,0,5.8,9.462a3.668,3.668,0,1,0,0-7.335A3.639,3.639,0,0,0,2.126,5.8Z" transform="translate(0 0)"/></g><g transform="translate(33.043 420.547)"><path class="c" d="M11.609,5.8A5.8,5.8,0,1,1,5.8,0,5.794,5.794,0,0,1,11.609,5.8Zm-9.5,0A3.68,3.68,0,0,0,5.8,9.462a3.668,3.668,0,1,0,0-7.335A3.684,3.684,0,0,0,2.1,5.8Z" transform="translate(0 0)"/></g><g transform="translate(33.043 333.585)"><path class="c" d="M11.609,5.8A5.8,5.8,0,1,1,5.8,0,5.812,5.812,0,0,1,11.609,5.8Zm-9.5,0A3.71,3.71,0,1,0,5.8,2.1,3.7,3.7,0,0,0,2.1,5.8Z" transform="translate(0 0)"/></g><g transform="translate(9.379 356.846)"><path class="c" d="M11.63,5.8A5.815,5.815,0,1,1,5.826,0,5.817,5.817,0,0,1,11.63,5.8Zm-9.5,0a3.7,3.7,0,1,0,3.7-3.678A3.675,3.675,0,0,0,2.126,5.8Z" transform="translate(0 0)"/></g><g transform="translate(56.708 356.846)"><path class="c" d="M11.63,5.8A5.815,5.815,0,1,1,5.8,0,5.821,5.821,0,0,1,11.63,5.8ZM2.1,5.8A3.7,3.7,0,1,0,5.8,2.126,3.689,3.689,0,0,0,2.1,5.8Z" transform="translate(0 0)"/></g><g transform="translate(51.988 202.653)"><path class="c" d="M11.588,5.8A5.794,5.794,0,1,1,5.783,0,5.812,5.812,0,0,1,11.588,5.8ZM2.1,5.8A3.689,3.689,0,1,0,5.783,2.1,3.684,3.684,0,0,0,2.1,5.8Z" transform="translate(0 0)"/></g><g transform="translate(51.945 372.622)"><path class="c" d="M11.63,5.8A5.815,5.815,0,1,1,5.826,0,5.812,5.812,0,0,1,11.63,5.8ZM2.1,5.8A3.71,3.71,0,1,0,5.826,2.126,3.707,3.707,0,0,0,2.1,5.8Z" transform="translate(0 0)"/></g><g transform="translate(70.89 243.561)"><path class="c" d="M11.588,5.8A5.794,5.794,0,1,1,5.762,0,5.835,5.835,0,0,1,11.588,5.8Zm-9.462,0A3.668,3.668,0,1,0,5.762,2.1,3.676,3.676,0,0,0,2.126,5.8Z" transform="translate(0 0)"/></g><g transform="translate(70.89 212.242)"><path class="c" d="M11.588,5.826A5.794,5.794,0,1,1,5.762,0,5.817,5.817,0,0,1,11.588,5.826Zm-9.462,0A3.668,3.668,0,1,0,5.762,2.1,3.68,3.68,0,0,0,2.126,5.826Z" transform="translate(0 0)"/></g><g transform="translate(33.043 81.417)"><path class="c" d="M11.609,5.8A5.8,5.8,0,1,1,5.8,0,5.817,5.817,0,0,1,11.609,5.8Zm-9.5,0A3.71,3.71,0,1,0,5.8,2.126,3.707,3.707,0,0,0,2.1,5.8Z" transform="translate(0 0)"/></g><g transform="translate(14.141 238.799)"><path class="c" d="M11.63,5.826A5.815,5.815,0,1,1,5.8,0,5.83,5.83,0,0,1,11.63,5.826Zm-9.5,0A3.689,3.689,0,1,0,5.8,2.1,3.684,3.684,0,0,0,2.126,5.826Z" transform="translate(0 0)"/></g><g transform="translate(51.945 120.709)"><path class="c" d="M11.63,5.8A5.815,5.815,0,1,1,5.826,0,5.83,5.83,0,0,1,11.63,5.8ZM2.1,5.8A3.71,3.71,0,1,0,5.826,2.1,3.711,3.711,0,0,0,2.1,5.8Z" transform="translate(0 0)"/></g><g transform="translate(51.945 47.206)"><path class="c" d="M11.63,5.8A5.815,5.815,0,1,1,5.826,0,5.83,5.83,0,0,1,11.63,5.8ZM2.1,5.8A3.71,3.71,0,1,0,5.826,2.126,3.711,3.711,0,0,0,2.1,5.8Z" transform="translate(0 0)"/></g><g transform="translate(19.952 449.515)"><path class="c" d="M19.954,0V79.92h-2.1V2.1H0V0Z" transform="translate(0 0)"/></g><g transform="translate(37.81 344.14)"><rect class="c" width="2.096" height="78.091"/></g><g transform="translate(56.706 254.129)"><path class="c" d="M21.011,0V37.872H2.118v82.121H0V35.754H18.894V0Z" transform="translate(0 0)"/></g><g transform="translate(37.81 91.984)"><path class="c" d="M39.907,59.177v62.145H37.789V61.284H21.013V85.318H0V0H2.1V83.2H18.9V59.177Z"/></g><g transform="translate(56.706 57.775)"><path class="c" d="M21.011,21.013V41.652H2.118V63.994H0V39.545H18.894V23.131H0V0H2.118V21.013Z" transform="translate(0 0)"/></g><g transform="translate(18.894 485.373)"><rect class="c" width="2.118" height="44.061"/></g><g transform="translate(0 213.305)"><path class="c" d="M58.824,0V40.553H39.907V84.238h-18.9v38.808H2.1v37.168H21.011V207.6H18.894V162.332H0V120.949H18.894V82.121H37.81V38.444h18.9V0Z" transform="translate(0 0)"/></g><g transform="translate(19.952 361.6)"><rect class="c" width="37.813" height="2.12"/></g><g transform="translate(0 0)"><path class="c" d="M39.907,0V75.8h-18.9v58.855H2.1V191.3H21.011v48.4H18.894V193.4H0V132.545H18.894V73.68H37.81V0Z" transform="translate(0 0)"/></g><g transform="translate(18.894 148.658)"><rect class="c" width="2.118" height="29.796"/></g></g><g transform="translate(422.61 441.376)"><rect class="c" width="2.118" height="89.118"/></g><g transform="translate(417.864 430.281)"><path class="c" d="M11.63,5.826A5.815,5.815,0,1,1,5.8,0,5.83,5.83,0,0,1,11.63,5.826Zm-9.547,0A3.71,3.71,0,1,0,5.8,2.126,3.707,3.707,0,0,0,2.084,5.826Z" transform="translate(0 0)"/></g><g transform="translate(422.605 290.951)"><path class="c" d="M11.588,5.8A5.794,5.794,0,1,1,5.826,0,5.785,5.785,0,0,1,11.588,5.8Zm-9.462,0a3.631,3.631,0,0,0,3.7,3.678A3.689,3.689,0,1,0,2.126,5.8Z" transform="translate(0 0)"/></g><g transform="translate(398.941 384.376)"><path class="c" d="M11.63,5.826A5.815,5.815,0,1,1,5.8,0,5.785,5.785,0,0,1,11.63,5.826Zm-9.5,0A3.7,3.7,0,1,0,5.8,2.126,3.675,3.675,0,0,0,2.126,5.826Z" transform="translate(0 0)"/></g><g transform="translate(422.605 339.386)"><path class="c" d="M11.588,5.8A5.794,5.794,0,1,1,5.826,0,5.808,5.808,0,0,1,11.588,5.8Zm-9.462,0a3.668,3.668,0,1,0,7.335,0A3.708,3.708,0,0,0,5.826,2.084,3.707,3.707,0,0,0,2.126,5.8Z" transform="translate(0 0)"/></g><g transform="translate(299.689 445.824)"><path class="c" d="M11.567,5.783A5.783,5.783,0,1,1,5.741,0,5.808,5.808,0,0,1,11.567,5.783Zm-9.462,0A3.678,3.678,0,1,0,5.741,2.1,3.694,3.694,0,0,0,2.1,5.783Z" transform="translate(0 0)"/></g><g transform="translate(304.409 475.888)"><path class="c" d="M11.609,5.783A5.8,5.8,0,1,1,5.783,0,5.817,5.817,0,0,1,11.609,5.783Zm-9.525,0a3.71,3.71,0,1,0,3.7-3.7A3.7,3.7,0,0,0,2.084,5.783Z" transform="translate(0 0)"/></g><g transform="translate(304.409 420.798)"><path class="c" d="M11.609,5.826A5.8,5.8,0,1,1,5.783,0,5.8,5.8,0,0,1,11.609,5.826Zm-9.525,0a3.68,3.68,0,0,0,3.7,3.657A3.645,3.645,0,0,0,9.5,5.826a3.71,3.71,0,0,0-7.42,0Z" transform="translate(0 0)"/></g><g transform="translate(323.333 421.585)"><path class="c" d="M11.588,5.826A5.794,5.794,0,1,1,5.783,0,5.808,5.808,0,0,1,11.588,5.826Zm-9.462,0a3.678,3.678,0,1,0,3.657-3.7A3.657,3.657,0,0,0,2.126,5.826Z" transform="translate(0 0)"/></g><g transform="translate(323.333 334.644)"><path class="c" d="M11.588,5.8A5.794,5.794,0,1,1,0,5.8a5.794,5.794,0,1,1,11.588,0Zm-9.462,0A3.678,3.678,0,1,0,5.783,2.1,3.675,3.675,0,0,0,2.126,5.8Z" transform="translate(0 0)"/></g><g transform="translate(299.689 357.905)"><path class="c" d="M11.567,5.8A5.783,5.783,0,1,1,5.741,0,5.79,5.79,0,0,1,11.567,5.8ZM2.1,5.8A3.678,3.678,0,1,0,5.741,2.126,3.671,3.671,0,0,0,2.1,5.8Z" transform="translate(0 0)"/></g><g transform="translate(346.955 357.905)"><path class="c" d="M11.609,5.8A5.8,5.8,0,1,1,5.8,0,5.785,5.785,0,0,1,11.609,5.8Zm-9.5,0A3.684,3.684,0,0,0,5.8,9.483,3.649,3.649,0,0,0,9.525,5.8a3.71,3.71,0,0,0-7.42,0Z" transform="translate(0 0)"/></g><g transform="translate(342.235 203.712)"><path class="c" d="M11.588,5.8A5.794,5.794,0,1,1,5.8,0,5.78,5.78,0,0,1,11.588,5.8ZM2.1,5.8A3.689,3.689,0,1,0,5.8,2.1,3.7,3.7,0,0,0,2.1,5.8Z" transform="translate(0 0)"/></g><g transform="translate(342.235 373.681)"><path class="c" d="M11.588,5.8A5.794,5.794,0,1,1,5.762,0,5.8,5.8,0,0,1,11.588,5.8ZM2.1,5.8a3.689,3.689,0,1,0,7.378,0A3.662,3.662,0,0,0,5.762,2.126,3.7,3.7,0,0,0,2.1,5.8Z" transform="translate(0 0)"/></g><g transform="translate(361.158 244.62)"><path class="c" d="M11.567,5.8A5.783,5.783,0,1,1,5.8,0,5.808,5.808,0,0,1,11.567,5.8Zm-9.483,0A3.689,3.689,0,1,0,5.8,2.1,3.707,3.707,0,0,0,2.084,5.8Z" transform="translate(0 0)"/></g><g transform="translate(361.158 213.301)"><path class="c" d="M11.567,5.826A5.783,5.783,0,1,1,5.8,0,5.789,5.789,0,0,1,11.567,5.826Zm-9.483,0A3.689,3.689,0,1,0,5.8,2.1,3.707,3.707,0,0,0,2.084,5.826Z" transform="translate(0 0)"/></g><g transform="translate(323.333 82.476)"><path class="c" d="M11.588,5.8A5.794,5.794,0,1,1,5.783,0,5.83,5.83,0,0,1,11.588,5.8Zm-9.462,0A3.678,3.678,0,1,0,5.783,2.126,3.685,3.685,0,0,0,2.126,5.8Z" transform="translate(0 0)"/></g><g transform="translate(304.409 239.858)"><path class="c" d="M11.609,5.826A5.8,5.8,0,1,1,5.783,0,5.83,5.83,0,0,1,11.609,5.826Zm-9.525,0A3.71,3.71,0,1,0,5.783,2.1,3.7,3.7,0,0,0,2.084,5.826Z" transform="translate(0 0)"/></g><g transform="translate(342.235 121.768)"><path class="c" d="M11.588,5.8A5.794,5.794,0,1,1,5.762,0,5.821,5.821,0,0,1,11.588,5.8ZM2.1,5.8A3.689,3.689,0,1,0,5.762,2.1,3.712,3.712,0,0,0,2.1,5.8Z" transform="translate(0 0)"/></g><g transform="translate(342.235 48.265)"><path class="c" d="M11.588,5.8A5.794,5.794,0,1,1,5.762,0,5.821,5.821,0,0,1,11.588,5.8ZM2.1,5.8A3.689,3.689,0,1,0,5.762,2.126,3.712,3.712,0,0,0,2.1,5.8Z" transform="translate(0 0)"/></g><g transform="translate(398.941 259.972)"><path class="c" d="M11.63,5.8A5.815,5.815,0,1,1,5.8,0,5.8,5.8,0,0,1,11.63,5.8Zm-9.5,0A3.7,3.7,0,1,0,5.8,2.1,3.7,3.7,0,0,0,2.126,5.8Z" transform="translate(0 0)"/></g><g transform="translate(375.297 187.17)"><path class="c" d="M11.63,5.8A5.815,5.815,0,1,1,5.8,0,5.835,5.835,0,0,1,11.63,5.8ZM2.1,5.8A3.7,3.7,0,1,0,5.8,2.1,3.689,3.689,0,0,0,2.1,5.8Z" transform="translate(0 0)"/></g><g transform="translate(398.941 170.735)"><path class="c" d="M11.588,5.826A5.794,5.794,0,1,1,5.8,0,5.78,5.78,0,0,1,11.588,5.826Zm-9.462,0A3.678,3.678,0,1,0,5.8,2.126,3.7,3.7,0,0,0,2.126,5.826Z" transform="translate(0 0)"/></g><g transform="translate(380.039 97.614)"><path class="c" d="M11.588,5.8A5.794,5.794,0,1,1,5.826,0,5.808,5.808,0,0,1,11.588,5.8Zm-9.462,0a3.678,3.678,0,1,0,3.7-3.7A3.693,3.693,0,0,0,2.126,5.8Z" transform="translate(0 0)"/></g><g transform="translate(398.941 67.507)"><path class="c" d="M11.588,5.8A5.794,5.794,0,1,1,5.8,0,5.8,5.8,0,0,1,11.588,5.8Zm-9.462,0A3.678,3.678,0,1,0,5.8,2.1,3.7,3.7,0,0,0,2.126,5.8Z" transform="translate(0 0)"/></g><g transform="translate(361.158 0)"><path class="c" d="M11.567,5.8A5.783,5.783,0,1,1,5.8,0,5.808,5.808,0,0,1,11.567,5.8Zm-9.483,0A3.689,3.689,0,1,0,5.8,2.1,3.693,3.693,0,0,0,2.084,5.8Z" transform="translate(0 0)"/></g><g transform="translate(417.864 177.666)"><path class="c" d="M11.63,5.826A5.815,5.815,0,1,1,5.8,0,5.848,5.848,0,0,1,11.63,5.826Zm-9.547,0A3.71,3.71,0,1,0,5.8,2.126,3.707,3.707,0,0,0,2.084,5.826Z" transform="translate(0 0)"/></g><g transform="translate(417.864 20.922)"><path class="c" d="M11.63,5.826A5.815,5.815,0,1,1,5.8,0,5.83,5.83,0,0,1,11.63,5.826Zm-9.547,0A3.71,3.71,0,1,0,5.8,2.1,3.707,3.707,0,0,0,2.084,5.826Z" transform="translate(0 0)"/></g><g transform="translate(398.941 197.397)"><path class="c" d="M11.588,5.826A5.794,5.794,0,1,1,5.8,0,5.794,5.794,0,0,1,11.588,5.826Zm-9.462,0A3.679,3.679,0,1,0,5.8,2.1,3.7,3.7,0,0,0,2.126,5.826Z" transform="translate(0 0)"/></g><g transform="translate(380.039 262.077)"><path class="c" d="M11.588,5.8A5.794,5.794,0,1,1,5.826,0,5.808,5.808,0,0,1,11.588,5.8Zm-9.462,0a3.678,3.678,0,1,0,3.7-3.7A3.689,3.689,0,0,0,2.126,5.8Z" transform="translate(0 0)"/></g><g transform="translate(380.039 454.435)"><path class="c" d="M11.588,5.8A5.794,5.794,0,1,1,5.826,0,5.8,5.8,0,0,1,11.588,5.8Zm-9.462,0a3.678,3.678,0,1,0,3.7-3.7A3.684,3.684,0,0,0,2.126,5.8Z" transform="translate(0 0)"/></g><g transform="translate(403.714 394.159)"><rect class="c" width="2.099" height="136.335"/></g><g transform="translate(384.799 464.983)"><rect class="c" width="2.118" height="65.511"/></g><g transform="translate(365.904 344.138)"><path class="c" d="M57.765,0V2.12H21.013V78.032H2.1V186.356H0V75.914H18.9V0Z" transform="translate(0 0)"/></g><g transform="translate(346.946 276.635)"><path class="c" d="M76.722,19.061v2.118H56.768V2.12h-16.8v34.4H21.056v77.428H2.118V253.859H0V111.834H18.957V34.406h18.9V0H58.866V19.061Z" transform="translate(0 0)"/></g><g transform="translate(310.195 450.574)"><path class="c" d="M19.976,0V79.92h-2.12V2.1H0V0Z" transform="translate(0 0)"/></g><g transform="translate(328.051 345.199)"><rect class="c" width="2.12" height="78.091"/></g><g transform="translate(346.946 255.188)"><path class="c" d="M21.056,0V37.872H2.118v82.121H0V35.754H18.957V0Z" transform="translate(0 0)"/></g><g transform="translate(385.858 191.92)"><path class="c" d="M38.869,0V35.87H19.954V69.226h-2.1V33.752h18.9V2.118H0V0Z" transform="translate(0 0)"/></g><g transform="translate(384.799 207.97)"><path class="c" d="M21.013,0V10.755H2.118v44.4H0V8.648H18.915V0Z" transform="translate(0 0)"/></g><g transform="translate(328.051 93.043)"><path class="c" d="M39.951,59.177v62.145h-2.1V61.284H21.013V85.318H0V0H2.12V83.2H18.9V59.177Z"/></g><g transform="translate(346.946 58.834)"><path class="c" d="M21.056,21.013V41.652H2.118V63.994H0V39.545H18.957V23.131H.043V0H2.16V21.013Z" transform="translate(0 0)"/></g><g transform="translate(403.714 31.499)"><path class="c" d="M21.013,0V57.848H2.1V95.025H21.013v51.9H18.9V97.143H0V55.74H18.9V0Z" transform="translate(0 0)"/></g><g transform="translate(384.799 107.837)"><path class="c" d="M21.013,30.709V63.963h-2.1V32.817H0V0H2.118V30.709Z"/></g><g transform="translate(365.904 11.804)"><path class="c" d="M39.909,25.259v31.5h-2.1V27.367h-16.8v15.22H0V0H2.1V40.479H18.9V25.259Z"/></g><g transform="translate(309.157 486.432)"><rect class="c" width="2.096" height="44.061"/></g><g transform="translate(290.24 214.364)"><path class="c" d="M58.866,0V40.553H39.93V84.238H21.013v38.808H2.118v37.168h18.9V207.6h-2.1V162.332H0V120.949H18.917V82.121H37.81V38.444H56.749V0Z" transform="translate(0 0)"/></g><g transform="translate(375.297 320.505)"><g transform="translate(0 0)"><g transform="translate(47.308 0)"><path class="c" d="M11.588,5.826A5.794,5.794,0,1,1,5.826,0,5.771,5.771,0,0,1,11.588,5.826Zm-9.462,0a3.662,3.662,0,0,0,3.7,3.7,3.7,3.7,0,1,0-3.7-3.7Z" transform="translate(0 0)"/></g><g transform="translate(0 0)"><path class="c" d="M11.63,5.826A5.815,5.815,0,1,1,5.8,0,5.8,5.8,0,0,1,11.63,5.826Zm-9.525,0a3.662,3.662,0,0,0,3.7,3.7,3.7,3.7,0,1,0-3.7-3.7Z" transform="translate(0 0)"/></g></g><g transform="translate(10.561 4.78)"><rect class="c" width="37.81" height="2.099"/></g></g><g transform="translate(112.391 462.153)"><g transform="translate(0 0)"><g transform="translate(47.308 0)"><path class="c" d="M11.588,5.826A5.794,5.794,0,0,1,0,5.826a5.794,5.794,0,1,1,11.588,0Zm-9.462,0A3.644,3.644,0,0,0,5.826,9.5a3.689,3.689,0,1,0-3.7-3.678Z" transform="translate(0 0)"/></g><g transform="translate(0 0)"><path class="c" d="M11.609,5.826A5.8,5.8,0,1,1,5.8,0,5.78,5.78,0,0,1,11.609,5.826Zm-9.5,0a3.7,3.7,0,1,0,3.7-3.7A3.7,3.7,0,0,0,2.1,5.826Z"/></g></g><g transform="translate(10.566 4.763)"><rect class="c" width="37.8" height="2.118"/></g></g><g transform="translate(136.056 470.722)"><g transform="translate(0 0)"><g transform="translate(0 0)"><path class="c" d="M5.8,0A5.783,5.783,0,1,1,0,5.762,5.758,5.758,0,0,1,5.8,0Zm0,9.462a3.689,3.689,0,1,0-3.7-3.7A3.657,3.657,0,0,0,5.8,9.462Z" transform="translate(0 0)"/></g><g transform="translate(0 47.266)"><path class="c" d="M5.8,0A5.8,5.8,0,1,1,0,5.8,5.78,5.78,0,0,1,5.8,0Zm0,9.525A3.71,3.71,0,1,0,2.1,5.8,3.675,3.675,0,0,0,5.8,9.525Z" transform="translate(0 0)"/></g></g><g transform="translate(4.748 10.52)"><rect class="c" width="2.108" height="37.789"/></g></g><g transform="translate(136.056 205.349)"><g transform="translate(0 0)"><g transform="translate(0)"><path class="c" d="M5.8,0a5.794,5.794,0,0,1,0,11.588A5.794,5.794,0,1,1,5.8,0Zm0,9.483A3.689,3.689,0,1,0,2.1,5.762,3.675,3.675,0,0,0,5.8,9.483Z" transform="translate(0)"/></g><g transform="translate(0 47.266)"><path class="c" d="M5.8,0A5.815,5.815,0,1,1,0,5.826,5.8,5.8,0,0,1,5.8,0Zm0,9.525a3.657,3.657,0,0,0,3.678-3.7A3.689,3.689,0,1,0,5.8,9.525Z" transform="translate(0 0)"/></g></g><g transform="translate(4.748 10.52)"><rect class="c" width="2.108" height="37.813"/></g></g><g transform="translate(433.066 220.977)"><g transform="translate(0 0)"><g transform="translate(0 0)"><path class="c" d="M5.826,0A5.794,5.794,0,1,1,0,5.783,5.789,5.789,0,0,1,5.826,0Zm0,9.483a3.689,3.689,0,1,0-3.7-3.7A3.671,3.671,0,0,0,5.826,9.483Z" transform="translate(0)"/></g><g transform="translate(0 47.287)"><path class="c" d="M5.826,0A5.8,5.8,0,1,1,0,5.8,5.794,5.794,0,0,1,5.826,0Zm0,9.525A3.71,3.71,0,1,0,2.126,5.8,3.689,3.689,0,0,0,5.826,9.525Z" transform="translate(0 0)"/></g></g><g transform="translate(4.763 10.529)"><rect class="c" width="2.118" height="37.81"/></g></g><g transform="translate(491.899 453.627)"><g transform="translate(0 0)"><g transform="translate(0)"><path class="c" d="M5.8,0a5.794,5.794,0,0,1,0,11.588A5.794,5.794,0,1,1,5.8,0Zm0,9.462a3.668,3.668,0,1,0-3.7-3.7A3.7,3.7,0,0,0,5.8,9.462Z" transform="translate(0)"/></g><g transform="translate(0 47.287)"><path class="c" d="M5.8,0A5.8,5.8,0,1,1,0,5.8,5.78,5.78,0,0,1,5.8,0Zm0,9.5A3.657,3.657,0,0,0,9.483,5.8,3.689,3.689,0,1,0,5.8,9.5Z" transform="translate(0 0)"/></g></g><g transform="translate(4.754 10.527)"><rect class="c" width="2.099" height="37.81"/></g></g><g transform="translate(290.249 10.737)"><g transform="translate(0 0)"><g transform="translate(0 0)"><path class="c" d="M5.8,0A5.783,5.783,0,1,1,0,5.762,5.758,5.758,0,0,1,5.8,0Zm0,9.462a3.649,3.649,0,0,0,3.7-3.7,3.7,3.7,0,1,0-3.7,3.7Z" transform="translate(0)"/></g><g transform="translate(0 47.287)"><path class="c" d="M5.8,0A5.8,5.8,0,1,1,0,5.8,5.78,5.78,0,0,1,5.8,0Zm0,9.5A3.7,3.7,0,1,0,2.1,5.8,3.7,3.7,0,0,0,5.8,9.5Z" transform="translate(0 0)"/></g></g><g transform="translate(4.748 10.525)"><rect class="c" width="2.118" height="37.8"/></g></g><g transform="translate(442.337 10.737)"><g transform="translate(0 0)"><path class="c" d="M5.8,0A5.783,5.783,0,1,1,0,5.762,5.776,5.776,0,0,1,5.8,0Zm0,9.462a3.631,3.631,0,0,0,3.678-3.7A3.678,3.678,0,1,0,5.8,9.462Z" transform="translate(0)"/><g transform="translate(0 47.287)"><path class="c" d="M5.8,0A5.8,5.8,0,1,1,0,5.8,5.8,5.8,0,0,1,5.8,0Zm0,9.5A3.644,3.644,0,0,0,9.483,5.8,3.678,3.678,0,1,0,5.8,9.5Z" transform="translate(0 0)"/></g></g><g transform="translate(4.754 10.525)"><rect class="c" width="2.118" height="37.8"/></g></g><g transform="translate(507.207 10.716)"><g transform="translate(0 0)"><g transform="translate(0 0)"><path class="c" d="M5.8,0A5.783,5.783,0,1,1,0,5.762,5.758,5.758,0,0,1,5.8,0Zm0,9.462a3.644,3.644,0,0,0,3.678-3.7A3.7,3.7,0,1,0,5.8,9.462Z" transform="translate(0 0)"/></g><g transform="translate(0 47.287)"><path class="c" d="M5.8,0A5.8,5.8,0,1,1,0,5.8,5.78,5.78,0,0,1,5.8,0Zm0,9.5a3.7,3.7,0,0,0,0-7.4,3.7,3.7,0,1,0,0,7.4Z" transform="translate(0 0)"/></g></g><g transform="translate(4.75 10.525)"><rect class="c" width="2.096" height="37.801"/></g></g><g transform="translate(507.207 387.608)"><g transform="translate(0 0)"><g transform="translate(0 0)"><path class="c" d="M5.8,0A5.783,5.783,0,1,1,0,5.783,5.776,5.776,0,0,1,5.8,0Zm0,9.483A3.689,3.689,0,0,0,5.8,2.1,3.716,3.716,0,0,0,2.084,5.783,3.721,3.721,0,0,0,5.8,9.483Z" transform="translate(0)"/></g><g transform="translate(0 47.287)"><path class="c" d="M5.8,0A5.8,5.8,0,1,1,0,5.8,5.78,5.78,0,0,1,5.8,0Zm0,9.5A3.657,3.657,0,0,0,9.483,5.8,3.7,3.7,0,1,0,5.8,9.5Z" transform="translate(0 0)"/></g></g><g transform="translate(4.75 10.537)"><rect class="c" width="2.096" height="37.789"/></g></g><g transform="translate(284.444 251.658)"><g transform="translate(0 0)"><g transform="translate(0)"><path class="c" d="M5.826,0A5.794,5.794,0,1,1,0,5.783,5.776,5.776,0,0,1,5.826,0Zm0,9.483a3.678,3.678,0,1,0-3.7-3.7A3.7,3.7,0,0,0,5.826,9.483Z"/></g><g transform="translate(0 47.287)"><path class="c" d="M5.826,0A5.8,5.8,0,1,1,0,5.826,5.8,5.8,0,0,1,5.826,0Zm0,9.525A3.657,3.657,0,0,0,9.5,5.826a3.689,3.689,0,1,0-3.678,3.7Z" transform="translate(0 0)"/></g></g><g transform="translate(4.78 10.535)"><rect class="c" width="2.096" height="37.802"/></g></g><g transform="translate(422.605 360.754)"><g transform="translate(0 0)"><g transform="translate(0 0)"><path class="c" d="M5.826,0A5.794,5.794,0,1,1,0,5.762,5.771,5.771,0,0,1,5.826,0Zm0,9.462A3.671,3.671,0,0,0,9.5,5.762a3.689,3.689,0,1,0-3.678,3.7Z" transform="translate(0 0)"/></g><g transform="translate(0 47.266)"><path class="c" d="M5.826,0A5.8,5.8,0,1,1,0,5.826,5.812,5.812,0,0,1,5.826,0Zm0,9.525a3.71,3.71,0,1,0-3.7-3.7A3.684,3.684,0,0,0,5.826,9.525Z" transform="translate(0 0)"/></g></g><g transform="translate(4.758 10.523)"><rect class="c" width="2.12" height="37.81"/></g></g><g transform="translate(310.195 362.659)"><rect class="c" width="37.853" height="2.12"/></g><g transform="translate(290.24 1.059)"><path class="c" d="M39.93,0V75.8H21.013v58.855H2.118V191.3h18.9v48.4h-2.1V193.4H0V132.545H18.917V73.68H37.81V0Z" transform="translate(0 0)"/></g><g transform="translate(309.157 149.717)"><rect class="c" width="2.096" height="29.796"/></g><g transform="translate(141.842 1.059)"><g transform="translate(132.347 0)"><rect class="c" width="2.12" height="89.108"/></g><g transform="translate(127.612 88.603)"><path class="c" d="M11.609,5.783A5.8,5.8,0,1,1,5.783,0,5.8,5.8,0,0,1,11.609,5.783Zm-9.5,0A3.689,3.689,0,1,0,5.783,2.1,3.653,3.653,0,0,0,2.1,5.783Z" transform="translate(0 0)"/></g><g transform="translate(132.354 227.934)"><path class="c" d="M11.588,5.8A5.794,5.794,0,1,1,5.8,0,5.78,5.78,0,0,1,11.588,5.8ZM2.1,5.8A3.689,3.689,0,1,0,5.8,2.126,3.671,3.671,0,0,0,2.1,5.8Z" transform="translate(0 0)"/></g><g transform="translate(108.689 134.508)"><path class="c" d="M11.63,5.8A5.815,5.815,0,1,1,5.826,0,5.812,5.812,0,0,1,11.63,5.8Zm-9.5,0a3.618,3.618,0,0,0,3.7,3.678A3.689,3.689,0,1,0,2.126,5.8Z" transform="translate(0 0)"/></g><g transform="translate(132.354 179.52)"><path class="c" d="M11.588,5.783A5.794,5.794,0,1,1,5.8,0,5.78,5.78,0,0,1,11.588,5.783Zm-9.483,0A3.689,3.689,0,1,0,5.8,2.1,3.657,3.657,0,0,0,2.1,5.783Z" transform="translate(0 0)"/></g><g transform="translate(132.354 198.358)"><path class="c" d="M11.588,5.8A5.794,5.794,0,1,1,5.8,0,5.78,5.78,0,0,1,11.588,5.8ZM2.1,5.8A3.689,3.689,0,1,0,5.8,2.126,3.671,3.671,0,0,0,2.1,5.8Z" transform="translate(0 0)"/></g><g transform="translate(85.046 198.337)"><path class="c" d="M11.63,5.826A5.815,5.815,0,1,1,5.8,0,5.817,5.817,0,0,1,11.63,5.826Zm-9.525,0a3.7,3.7,0,1,0,3.7-3.7A3.7,3.7,0,0,0,2.1,5.826Z" transform="translate(0 0)"/></g><g transform="translate(9.416 73.061)"><path class="c" d="M11.588,5.8A5.794,5.794,0,1,1,5.783,0,5.8,5.8,0,0,1,11.588,5.8Zm-9.462,0A3.678,3.678,0,1,0,5.783,2.1,3.68,3.68,0,0,0,2.126,5.8Z" transform="translate(0 0)"/></g><g transform="translate(14.137 43.017)"><path class="c" d="M11.63,5.783A5.815,5.815,0,1,1,5.826,0,5.83,5.83,0,0,1,11.63,5.783Zm-9.525,0A3.71,3.71,0,1,0,5.826,2.1,3.707,3.707,0,0,0,2.1,5.783Z" transform="translate(0 0)"/></g><g transform="translate(14.137 98.086)"><path class="c" d="M11.63,5.8A5.815,5.815,0,1,1,5.826,0,5.808,5.808,0,0,1,11.63,5.8ZM2.1,5.8a3.71,3.71,0,0,0,7.42,0,3.662,3.662,0,0,0-3.7-3.7A3.707,3.707,0,0,0,2.1,5.8Z" transform="translate(0 0)"/></g><g transform="translate(33.081 97.299)"><path class="c" d="M11.588,5.783A5.794,5.794,0,1,1,5.783,0,5.83,5.83,0,0,1,11.588,5.783Zm-9.483,0A3.689,3.689,0,1,0,5.783,2.1,3.689,3.689,0,0,0,2.1,5.783Z" transform="translate(0 0)"/></g><g transform="translate(33.081 184.24)"><path class="c" d="M11.588,5.826A5.794,5.794,0,1,1,5.783,0,5.808,5.808,0,0,1,11.588,5.826Zm-9.483,0A3.689,3.689,0,1,0,5.783,2.1,3.68,3.68,0,0,0,2.1,5.826Z" transform="translate(0 0)"/></g><g transform="translate(9.416 160.958)"><path class="c" d="M11.588,5.826A5.794,5.794,0,1,1,5.783,0,5.812,5.812,0,0,1,11.588,5.826Zm-9.462,0a3.678,3.678,0,1,0,7.357,0,3.679,3.679,0,1,0-7.357,0Z" transform="translate(0 0)"/></g><g transform="translate(56.703 160.979)"><path class="c" d="M11.609,5.8A5.8,5.8,0,1,1,5.826,0,5.808,5.808,0,0,1,11.609,5.8Zm-9.5,0a3.7,3.7,0,0,0,7.4,0A3.644,3.644,0,0,0,5.826,2.1,3.707,3.707,0,0,0,2.1,5.8Z" transform="translate(0 0)"/></g><g transform="translate(51.983 315.151)"><path class="c" d="M11.588,5.826A5.794,5.794,0,1,1,5.8,0,5.794,5.794,0,0,1,11.588,5.826Zm-9.462,0A3.678,3.678,0,1,0,5.8,2.126,3.68,3.68,0,0,0,2.126,5.826Z" transform="translate(0 0)"/></g><g transform="translate(51.983 145.203)"><path class="c" d="M11.588,5.8A5.794,5.794,0,1,1,5.762,0,5.8,5.8,0,0,1,11.588,5.8Zm-9.462,0A3.644,3.644,0,0,0,5.762,9.483,3.649,3.649,0,0,0,9.483,5.8,3.721,3.721,0,0,0,5.762,2.1,3.662,3.662,0,0,0,2.126,5.8Z" transform="translate(0 0)"/></g><g transform="translate(70.885 274.243)"><path class="c" d="M11.588,5.826A5.794,5.794,0,1,1,5.826,0,5.8,5.8,0,0,1,11.588,5.826Zm-9.462,0a3.678,3.678,0,1,0,3.7-3.7A3.7,3.7,0,0,0,2.126,5.826Z" transform="translate(0 0)"/></g><g transform="translate(70.885 305.562)"><path class="c" d="M11.588,5.8A5.794,5.794,0,1,1,5.826,0,5.808,5.808,0,0,1,11.588,5.8Zm-9.462,0a3.678,3.678,0,1,0,3.7-3.678A3.689,3.689,0,0,0,2.126,5.8Z" transform="translate(0 0)"/></g><g transform="translate(33.081 436.387)"><path class="c" d="M11.588,5.826A5.794,5.794,0,1,1,5.783,0,5.826,5.826,0,0,1,11.588,5.826Zm-9.483,0a3.689,3.689,0,1,0,3.678-3.7A3.684,3.684,0,0,0,2.1,5.826Z" transform="translate(0 0)"/></g><g transform="translate(14.137 279.005)"><path class="c" d="M11.63,5.8A5.815,5.815,0,1,1,5.826,0,5.817,5.817,0,0,1,11.63,5.8ZM2.1,5.8A3.71,3.71,0,1,0,5.826,2.126,3.693,3.693,0,0,0,2.1,5.8Z" transform="translate(0 0)"/></g><g transform="translate(51.983 397.116)"><path class="c" d="M11.588,5.783A5.794,5.794,0,1,1,5.762,0,5.817,5.817,0,0,1,11.588,5.783Zm-9.462,0A3.667,3.667,0,0,0,5.762,9.5a3.71,3.71,0,1,0,0-7.42A3.662,3.662,0,0,0,2.126,5.783Z" transform="translate(0 0)"/></g><g transform="translate(51.983 470.598)"><path class="c" d="M11.588,5.8A5.794,5.794,0,1,1,5.762,0,5.817,5.817,0,0,1,11.588,5.8Zm-9.462,0A3.667,3.667,0,0,0,5.762,9.525a3.71,3.71,0,1,0,0-7.421A3.662,3.662,0,0,0,2.126,5.8Z" transform="translate(0 0)"/></g><g transform="translate(108.689 258.913)"><path class="c" d="M11.63,5.8A5.815,5.815,0,1,1,5.826,0,5.812,5.812,0,0,1,11.63,5.8Zm-9.5,0a3.7,3.7,0,1,0,3.7-3.7A3.7,3.7,0,0,0,2.126,5.8Z" transform="translate(0 0)"/></g><g transform="translate(85.046 331.693)"><path class="c" d="M11.63,5.826A5.815,5.815,0,1,1,5.8,0,5.83,5.83,0,0,1,11.63,5.826Zm-9.525,0a3.7,3.7,0,1,0,3.7-3.7A3.7,3.7,0,0,0,2.1,5.826Z" transform="translate(0 0)"/></g><g transform="translate(108.689 348.128)"><path class="c" d="M11.588,5.8A5.794,5.794,0,1,1,5.826,0,5.808,5.808,0,0,1,11.588,5.8Zm-9.462,0a3.678,3.678,0,1,0,3.7-3.7A3.7,3.7,0,0,0,2.126,5.8Z" transform="translate(0 0)"/></g><g transform="translate(89.787 421.249)"><path class="c" d="M11.588,5.826A5.794,5.794,0,1,1,5.826,0,5.781,5.781,0,0,1,11.588,5.826Zm-9.483,0a3.748,3.748,0,0,0,3.721,3.7A3.7,3.7,0,1,0,2.1,5.826Z" transform="translate(0 0)"/></g><g transform="translate(108.689 451.356)"><path class="c" d="M11.588,5.826A5.794,5.794,0,1,1,5.826,0,5.8,5.8,0,0,1,11.588,5.826Zm-9.462,0a3.678,3.678,0,1,0,3.7-3.7A3.7,3.7,0,0,0,2.126,5.826Z" transform="translate(0 0)"/></g><g transform="translate(70.885 518.863)"><path class="c" d="M11.588,5.826A5.794,5.794,0,1,1,5.826,0,5.8,5.8,0,0,1,11.588,5.826Zm-9.462,0a3.678,3.678,0,1,0,3.7-3.7A3.7,3.7,0,0,0,2.126,5.826Z" transform="translate(0 0)"/></g><g transform="translate(127.612 341.197)"><path class="c" d="M11.609,5.8A5.8,5.8,0,1,1,5.783,0,5.808,5.808,0,0,1,11.609,5.8Zm-9.5,0A3.689,3.689,0,1,0,5.783,2.1,3.684,3.684,0,0,0,2.1,5.8Z" transform="translate(0 0)"/></g><g transform="translate(127.612 497.941)"><path class="c" d="M11.609,5.8A5.8,5.8,0,1,1,5.783,0,5.808,5.808,0,0,1,11.609,5.8Zm-9.5,0A3.689,3.689,0,1,0,5.783,2.1,3.684,3.684,0,0,0,2.1,5.8Z" transform="translate(0 0)"/></g><g transform="translate(108.689 321.466)"><path class="c" d="M11.588,5.8A5.794,5.794,0,1,1,5.826,0,5.808,5.808,0,0,1,11.588,5.8Zm-9.462,0a3.678,3.678,0,1,0,3.7-3.678A3.689,3.689,0,0,0,2.126,5.8Z" transform="translate(0 0)"/></g><g transform="translate(89.787 256.786)"><path class="c" d="M11.588,5.826A5.794,5.794,0,1,1,0,5.826a5.794,5.794,0,1,1,11.588,0Zm-9.483,0a3.734,3.734,0,0,0,3.721,3.7,3.7,3.7,0,0,0,0-7.4A3.734,3.734,0,0,0,2.1,5.826Z" transform="translate(0 0)"/></g><g transform="translate(89.787 64.471)"><path class="c" d="M11.588,5.8A5.794,5.794,0,1,1,5.826,0,5.771,5.771,0,0,1,11.588,5.8ZM2.1,5.8A3.689,3.689,0,1,0,5.826,2.1,3.662,3.662,0,0,0,2.1,5.8Z" transform="translate(0 0)"/></g><g transform="translate(113.454 0)"><rect class="c" width="2.107" height="136.325"/></g><g transform="translate(94.548 0)"><rect class="c" width="2.118" height="65.51"/></g><g transform="translate(75.652 0)"><path class="c" d="M57.754,184.247v2.108H18.9V110.432H0V0H2.109V108.325h18.9v75.923Z"/></g><g transform="translate(56.706 0)"><path class="c" d="M76.7,232.68v2.107H58.855v19.072H37.842V219.442h-18.9V142.014H0V0H2.108V139.906H21.055v77.428h18.9v34.415H56.748V232.68Z"/></g><g transform="translate(19.954 0)"><path class="c" d="M19.954,0V79.93H0V77.823H17.846V0Z" transform="translate(0 0)"/></g><g transform="translate(37.8 107.203)"><rect class="c" width="2.108" height="78.092"/></g><g transform="translate(56.706 155.313)"><path class="c" d="M21.055,82.121v37.872H18.946V84.239H0V0H2.108V82.121Z" transform="translate(0 0)"/></g><g transform="translate(95.606 269.348)"><path class="c" d="M38.861,33.367V69.225H0V67.107H36.741V35.463H17.847V0h2.107V33.367Z" transform="translate(0 0)"/></g><g transform="translate(94.548 267.364)"><path class="c" d="M21.013,44.4V55.16H18.906V46.521H0V0H2.118V44.4Z" transform="translate(0 0)"/></g><g transform="translate(37.8 316.129)"><path class="c" d="M39.961,0V62.145H18.906V38.121H2.108v83.2H0V36H21.013V60.048H37.852V0Z" transform="translate(0 0)"/></g><g transform="translate(56.706 407.675)"><path class="c" d="M21.055,22.321V42.96H2.149V63.973H.041V40.864h18.9V24.439H0V0H2.108V22.321Z" transform="translate(0 0)"/></g><g transform="translate(113.454 352.07)"><path class="c" d="M21.013,0V51.888H2.107v37.19H21.013v57.848h-2.12V91.2H0v-41.4H18.894V0Z" transform="translate(0 0)"/></g><g transform="translate(94.548 358.694)"><path class="c" d="M21.013,0V33.265H2.118V63.973H0V31.147H18.906V0Z" transform="translate(0 0)"/></g><g transform="translate(75.652 461.932)"><path class="c" d="M39.909,0V31.5H18.9V16.278H2.109V56.746H0V14.161H21.013V29.4H37.8V0Z" transform="translate(0 0)"/></g><g transform="translate(18.895 0)"><rect class="c" width="2.118" height="44.071"/></g><g transform="translate(0 108.532)"><path class="c" d="M58.855,167.044V207.6H56.747V169.163H37.8V125.476H18.895V86.658H0V45.275H18.895V0h2.118V47.383H2.108V84.54H21.013v38.827h18.9v43.677Z" transform="translate(0 0)"/></g><g transform="translate(95.606 203.111)"><rect class="c" width="37.8" height="2.107"/></g><g transform="translate(19.954 165.716)"><rect class="c" width="37.842" height="2.107"/></g><g transform="translate(0 289.738)"><path class="c" d="M39.908,164.26v75.933H37.8V166.359H18.895v-58.97H0v-61H18.895V0h2.118V48.482H2.108v56.77H21.013V164.26Z" transform="translate(0 0)"/></g><g transform="translate(18.895 350.969)"><rect class="c" width="2.118" height="29.818"/></g></g><g transform="translate(118.196 381.846)"><path class="c" d="M11.588,5.8A5.794,5.794,0,1,1,5.8,0,5.794,5.794,0,0,1,11.588,5.8ZM2.1,5.8A3.689,3.689,0,1,0,5.8,2.1,3.716,3.716,0,0,0,2.1,5.8Z" transform="translate(0 0)"/></g><g transform="translate(156 381.846)"><path class="c" d="M11.588,5.8A5.794,5.794,0,1,1,5.826,0,5.789,5.789,0,0,1,11.588,5.8ZM2.1,5.8A3.689,3.689,0,1,0,5.826,2.1,3.72,3.72,0,0,0,2.1,5.8Z" transform="translate(0 0)"/></g><g transform="translate(156 340.47)"><path class="c" d="M11.588,5.8A5.794,5.794,0,1,1,5.826,0,5.785,5.785,0,0,1,11.588,5.8ZM2.1,5.8A3.689,3.689,0,1,0,5.826,2.084,3.739,3.739,0,0,0,2.1,5.8Z" transform="translate(0 0)"/></g><g transform="translate(304.388 178.432)"><path class="c" d="M11.567,5.8A5.783,5.783,0,1,1,5.8,0,5.771,5.771,0,0,1,11.567,5.8Zm-9.483,0A3.689,3.689,0,1,0,5.8,2.1,3.72,3.72,0,0,0,2.084,5.8Z" transform="translate(0 0)"/></g><g transform="translate(304.388 138.119)"><path class="c" d="M11.567,5.8A5.783,5.783,0,1,1,5.8,0,5.776,5.776,0,0,1,11.567,5.8Zm-9.483,0A3.689,3.689,0,1,0,5.8,2.1,3.734,3.734,0,0,0,2.084,5.8Z" transform="translate(0 0)"/></g><g transform="translate(453.031 138.119)"><path class="c" d="M11.588,5.8A5.794,5.794,0,1,1,5.826,0,5.776,5.776,0,0,1,11.588,5.8Zm-9.462,0a3.668,3.668,0,1,0,7.335,0A3.648,3.648,0,0,0,5.826,2.1,3.716,3.716,0,0,0,2.126,5.8Z" transform="translate(0 0)"/></g><g transform="translate(453.031 178.41)"><path class="c" d="M11.588,5.8A5.794,5.794,0,1,1,5.826,0,5.771,5.771,0,0,1,11.588,5.8Zm-9.462,0a3.668,3.668,0,1,0,7.335,0A3.635,3.635,0,0,0,5.826,2.1,3.7,3.7,0,0,0,2.126,5.8Z" transform="translate(0 0)"/></g><g transform="translate(118.196 340.47)"><path class="c" d="M11.588,5.8A5.794,5.794,0,1,1,5.8,0,5.789,5.789,0,0,1,11.588,5.8ZM2.1,5.8a3.689,3.689,0,0,0,7.378,0A3.7,3.7,0,0,0,5.8,2.084,3.734,3.734,0,0,0,2.1,5.8Z" transform="translate(0 0)"/></g></g></g></g></svg>