<svg xmlns="http://www.w3.org/2000/svg" xmlns:xlink="http://www.w3.org/1999/xlink" width="166.549" height="94.885" viewBox="0 0 166.549 94.885"><defs><style>.a{fill:#c4122e;}.b{clip-path:url(#a);}.c{fill:#15495d;}</style><clipPath id="a"><path d="M873.1-7736.194h166.549v-94.885H873.1Z" transform="translate(-873.097 7831.079)"/></clipPath></defs><g transform="translate(-11.752 -12.761)"><path class="a" d="M245.179,316.517h-6.814v-27h6.814Z" transform="translate(-179.297 -218.967)"/><g transform="translate(11.752 12.761)"><g class="b"><path class="a" d="M1047.938-7548.433a11.928,11.928,0,0,0-5.733-1.441,7.069,7.069,0,0,0-7.462,7.2,7.071,7.071,0,0,0,7.462,7.21,12.065,12.065,0,0,0,5.733-1.434v7.248a21.89,21.89,0,0,1-6.21.96c-7.664,0-14.392-5.283-14.392-13.986,0-8.062,6.087-13.976,14.392-13.976a20.723,20.723,0,0,1,6.21.969Zm-71.126,0a11.848,11.848,0,0,0-5.724-1.441c-4.414,0-7.468,3.064-7.468,7.2a7.074,7.074,0,0,0,7.468,7.21,11.983,11.983,0,0,0,5.724-1.434v7.248a21.763,21.763,0,0,1-6.216.96c-7.658,0-14.377-5.283-14.377-13.986,0-8.062,6.087-13.976,14.379-13.976a20.641,20.641,0,0,1,6.214.969Zm92.561-1.34a6.979,6.979,0,0,0-7.045,7.1,6.98,6.98,0,0,0,7.045,7.108,6.986,6.986,0,0,0,7.049-7.108,6.986,6.986,0,0,0-7.049-7.1m14.269,7.1a13.864,13.864,0,0,1-14.267,13.984,13.858,13.858,0,0,1-14.263-13.986,13.86,13.86,0,0,1,14.261-13.976,13.867,13.867,0,0,1,14.269,13.979m-64.808-7.36a23.308,23.308,0,0,0-5.327-.825c-2.73,0-4.215.915-4.215,2.213,0,1.645,2,2.219,3.123,2.573l1.88.6c4.425,1.407,6.439,4.436,6.439,7.725,0,6.784-5.966,9.063-11.181,9.063a40.857,40.857,0,0,1-7.354-.738v-6.216a25.516,25.516,0,0,0,6.434,1.006c3.391,0,4.949-.993,4.949-2.521,0-1.369-1.349-2.159-3.039-2.689-.41-.139-1.032-.333-1.455-.471-3.794-1.2-6.959-3.432-6.959-7.9,0-5.05,3.782-8.44,10.063-8.44a29.205,29.205,0,0,1,6.641.858v5.763Z" transform="translate(-938.863 7613.955)"/><path class="c" d="M895.969-7789.584a3.379,3.379,0,0,0-3.382-3.369,3.381,3.381,0,0,0-3.384,3.367v7.091a3.384,3.384,0,0,0,3.383,3.3,3.384,3.384,0,0,0,3.383-3.3Zm18.582-9.3a3.383,3.383,0,0,0-3.383-3.383,3.383,3.383,0,0,0-3.383,3.383v16.392a3.383,3.383,0,0,0,3.383,3.383,3.383,3.383,0,0,0,3.383-3.383v-16.394Zm18.584-12.729a3.381,3.381,0,0,0-3.382-3.372,3.382,3.382,0,0,0-3.384,3.372v35.857a3.385,3.385,0,0,0,3.383,3.3,3.385,3.385,0,0,0,3.383-3.3Zm18.582,12.729a3.383,3.383,0,0,0-3.383-3.383,3.383,3.383,0,0,0-3.383,3.383v16.392a3.383,3.383,0,0,0,3.383,3.383,3.383,3.383,0,0,0,3.383-3.383v-16.394Zm18.562,9.3a3.368,3.368,0,0,0-3.363-3.369,3.38,3.38,0,0,0-3.382,3.367v7.091a3.372,3.372,0,0,0,3.372,3.372,3.372,3.372,0,0,0,3.372-3.372Zm18.59-9.3a3.373,3.373,0,0,0-3.372-3.287,3.373,3.373,0,0,0-3.372,3.287v16.392a3.372,3.372,0,0,0,3.372,3.372,3.372,3.372,0,0,0,3.372-3.372v-16.394Zm18.595-12.729a3.373,3.373,0,0,0-3.372-3.373,3.372,3.372,0,0,0-3.372,3.373v35.857a3.376,3.376,0,0,0,1.642,3.046,3.374,3.374,0,0,0,3.461,0,3.376,3.376,0,0,0,1.642-3.046Zm18.59,12.729a3.383,3.383,0,0,0-3.415-3.375,3.373,3.373,0,0,0-3.371,3.373v16.394a3.374,3.374,0,0,0,3.371,3.38,3.382,3.382,0,0,0,3.415-3.38v-16.394Zm18.556,9.3a3.376,3.376,0,0,0-3.376-3.376,3.376,3.376,0,0,0-3.376,3.376v7.089a3.378,3.378,0,0,0,3.376,3.382,3.377,3.377,0,0,0,3.374-3.382v-7.089Z" transform="translate(-885.84 7818.349)"/><path class="a" d="M1603.793-7442.037v.423h-1.2v3.132h-.5v-3.13h-1.209v-.425Zm.253,0h.775l1.064,2.917h.017l1.03-2.914h.76v3.553h-.507v-2.914h-.017l-1.079,2.914h-.468l-1.053-2.914h-.024v2.914h-.5Z" transform="translate(-1448.923 7523.268)"/></g></g></g></svg>