<svg xmlns="http://www.w3.org/2000/svg" width="295.752" height="46.333" viewBox="0 0 295.752 46.333"><defs><style>.a{fill:#ea4335;}.b{fill:#4285f4;}.c{fill:#34a853;}.d{fill:#fbbc05;}.e{fill:#5f6368;}</style></defs><g transform="translate(-1.045 -0.144)"><path class="a" d="M33.175,12.294h1.672l4.765-4.765L39.846,5.5A21.42,21.42,0,0,0,5,15.955a2.592,2.592,0,0,1,1.672-.1L16.2,14.283s.485-.8.736-.752a11.889,11.889,0,0,1,16.269-1.237Z" transform="translate(2.658 0)"/><path class="b" d="M38.558,13.794A21.47,21.47,0,0,0,32.087,3.36L25.4,10.048a11.889,11.889,0,0,1,4.364,9.431v1.187a5.953,5.953,0,0,1,0,11.905H17.857l-1.187,1.2v7.14L17.857,42.1H29.763a15.484,15.484,0,0,0,8.8-28.309Z" transform="translate(10.502 2.162)"/><path class="c" d="M14.007,30.536H25.912V21H14.007a5.918,5.918,0,0,1-2.457-.535l-1.673.518-4.8,4.765L4.66,27.426a15.4,15.4,0,0,0,9.347,3.11Z" transform="translate(2.43 13.661)"/><path class="d" d="M16.437,8A15.484,15.484,0,0,0,7.09,35.757L14,28.851a5.953,5.953,0,1,1,7.876-7.876l6.906-6.906A15.467,15.467,0,0,0,16.437,8Z" transform="translate(0 5.28)"/><path class="e" d="M59.088,34.951A15.233,15.233,0,0,1,48.052,30.42a14.714,14.714,0,0,1-4.632-10.9,14.731,14.731,0,0,1,4.632-10.9A15.233,15.233,0,0,1,59.088,4,14.781,14.781,0,0,1,69.672,8.264L66.7,11.291a10.718,10.718,0,0,0-7.608-3.01,10.6,10.6,0,0,0-7.859,3.344A10.919,10.919,0,0,0,48,19.568a10.919,10.919,0,0,0,3.227,7.842,11.22,11.22,0,0,0,15.651.184,8.9,8.9,0,0,0,2.291-5.2H59.138V18.113h14.2a13.578,13.578,0,0,1,.167,2.608,13.377,13.377,0,0,1-3.662,9.865,14.229,14.229,0,0,1-10.752,4.364ZM92.1,32.108a10.233,10.233,0,0,1-14.163,0A9.531,9.531,0,0,1,75.04,25,9.548,9.548,0,0,1,77.932,17.9a10.25,10.25,0,0,1,14.163,0A9.548,9.548,0,0,1,94.988,25a9.531,9.531,0,0,1-2.909,7.106ZM81.059,29.316a5.418,5.418,0,0,0,7.909,0A5.953,5.953,0,0,0,90.64,25a5.969,5.969,0,0,0-1.672-4.331,5.5,5.5,0,0,0-7.942,0A5.969,5.969,0,0,0,79.354,25a5.953,5.953,0,0,0,1.689,4.314Zm32.806,2.792a10.233,10.233,0,0,1-14.163,0A9.531,9.531,0,0,1,96.81,25,9.548,9.548,0,0,1,99.7,17.9a10.233,10.233,0,0,1,14.163,0A9.548,9.548,0,0,1,116.759,25a9.531,9.531,0,0,1-2.893,7.106ZM102.83,29.316a5.418,5.418,0,0,0,7.909,0A5.953,5.953,0,0,0,112.411,25a5.969,5.969,0,0,0-1.672-4.331,5.5,5.5,0,0,0-7.942,0A5.969,5.969,0,0,0,101.124,25a5.953,5.953,0,0,0,1.689,4.314ZM128.179,43.88a8.762,8.762,0,0,1-5.568-1.772,10.25,10.25,0,0,1-3.244-4.113l3.812-1.588a6.421,6.421,0,0,0,1.889,2.491,4.765,4.765,0,0,0,3.127,1.053,5.016,5.016,0,0,0,3.9-1.5,6.1,6.1,0,0,0,1.388-4.347V32.66h-.15a6.371,6.371,0,0,1-5.234,2.257,9.08,9.08,0,0,1-6.688-2.909A9.615,9.615,0,0,1,118.548,25a9.715,9.715,0,0,1,2.859-7.056A9.063,9.063,0,0,1,128.1,15.02a7.19,7.19,0,0,1,3.077.686,6.187,6.187,0,0,1,2.174,1.588h.15V15.705h4.147V33.513a10.384,10.384,0,0,1-2.659,7.775,9.364,9.364,0,0,1-6.805,2.592Zm.3-12.842a4.866,4.866,0,0,0,3.779-1.672,6.187,6.187,0,0,0,1.522-4.281,6.32,6.32,0,0,0-1.522-4.364,4.849,4.849,0,0,0-3.779-1.672,5.167,5.167,0,0,0-3.913,1.672,6.1,6.1,0,0,0-1.672,4.331,5.986,5.986,0,0,0,1.672,4.281,5.184,5.184,0,0,0,3.913,1.706ZM145.017,5.121V34.349h-4.364V5.121Zm11.972,29.83a9.5,9.5,0,0,1-7.04-2.859A9.681,9.681,0,0,1,147.124,25a9.8,9.8,0,0,1,2.726-7.157,8.962,8.962,0,0,1,6.688-2.792,8.444,8.444,0,0,1,3.344.652,7.875,7.875,0,0,1,2.558,1.672,11.7,11.7,0,0,1,1.672,2.023,11.956,11.956,0,0,1,.987,1.956l.451,1.137L152.173,28A5.016,5.016,0,0,0,156.989,31a5.7,5.7,0,0,0,4.9-2.759l3.344,2.257a11.019,11.019,0,0,1-3.21,3.043A9.1,9.1,0,0,1,156.989,34.951ZM151.4,24.7l8.9-3.7a3.077,3.077,0,0,0-1.388-1.522,4.531,4.531,0,0,0-2.291-.585,5.167,5.167,0,0,0-3.6,1.588A5.3,5.3,0,0,0,151.4,24.7Z" transform="translate(28.48 2.591)"/><path class="e" d="M135.764,33.844a13.778,13.778,0,0,1-14.012-14.1,13.778,13.778,0,0,1,14.012-14.1,12.474,12.474,0,0,1,9.916,4.414l-2.408,2.341A9.1,9.1,0,0,0,135.78,8.98a10.217,10.217,0,0,0-7.441,2.976,10.434,10.434,0,0,0-3.026,7.792,10.434,10.434,0,0,0,3.026,7.792,10.216,10.216,0,0,0,7.441,2.976,10.634,10.634,0,0,0,8.36-3.913l2.408,2.408a13.142,13.142,0,0,1-4.632,3.528,14.179,14.179,0,0,1-6.153,1.3Z" transform="translate(81.124 3.698)"/><path class="e" d="M141.841,33H138.38V6h3.461Z" transform="translate(92.302 3.936)"/><path class="e" d="M144.907,13.56a9.681,9.681,0,0,1,13.644,0,9.782,9.782,0,0,1,2.675,7.023,9.782,9.782,0,0,1-2.675,7.023,9.681,9.681,0,0,1-13.644,0,9.782,9.782,0,0,1-2.675-7.023,9.782,9.782,0,0,1,2.675-7.023Zm2.575,11.872a5.836,5.836,0,0,0,8.478,0,6.688,6.688,0,0,0,1.789-4.849,6.688,6.688,0,0,0-1.789-4.849,5.836,5.836,0,0,0-8.478,0,6.688,6.688,0,0,0-1.789,4.849,6.688,6.688,0,0,0,1.806,4.832Z" transform="translate(94.888 7.127)"/><path class="e" d="M171.638,29.57h-3.344V27.012h-.1a6.438,6.438,0,0,1-2.441,2.307,6.822,6.822,0,0,1-3.428.92,6.5,6.5,0,0,1-5.25-2.107,8.361,8.361,0,0,1-1.789-5.652V11.11h3.461V21.845q0,5.167,4.565,5.167a4.247,4.247,0,0,0,3.511-1.672,6.3,6.3,0,0,0,1.354-4V11.11h3.461Z" transform="translate(103.655 7.37)"/><path class="e" d="M175.62,33.606a8.126,8.126,0,0,1-6.187-2.826,10.033,10.033,0,0,1-2.592-7.006,10.033,10.033,0,0,1,2.592-7.006,8.126,8.126,0,0,1,6.187-2.826,7.842,7.842,0,0,1,3.779.9,6.4,6.4,0,0,1,2.508,2.257h.15l-.15-2.558V6h3.461V33h-3.344V30.446h-.15a6.4,6.4,0,0,1-2.508,2.257,7.842,7.842,0,0,1-3.745.9Zm.569-3.16a5.518,5.518,0,0,0,4.164-1.806,6.772,6.772,0,0,0,1.672-4.866,6.772,6.772,0,0,0-1.672-4.866,5.652,5.652,0,0,0-8.36,0,6.688,6.688,0,0,0-1.672,4.849,6.688,6.688,0,0,0,1.672,4.849A5.518,5.518,0,0,0,176.188,30.446Z" transform="translate(111.429 3.936)"/></g></svg>