<svg xmlns="http://www.w3.org/2000/svg" xmlns:xlink="http://www.w3.org/1999/xlink" width="150" height="150" viewBox="0 0 150 150"><defs><style>.a{fill:url(#a);}.b{fill:#fff;}</style><linearGradient id="a" x1="0.5" x2="0.664" y2="0.953" gradientUnits="objectBoundingBox"><stop offset="0" stop-color="#3bedb2"/><stop offset="1" stop-color="#40e2c9"/></linearGradient></defs><g transform="translate(-376 -726)"><path class="a" d="M75,0A75,75,0,1,1,0,75,75,75,0,0,1,75,0Z" transform="translate(376 726)"/><g transform="translate(406.643 768.3)"><path class="b" d="M42.665,30.223a18.946,18.946,0,0,0,.554-4.08l8.227-2.166-2.619-9.722L40.6,16.421a17.237,17.237,0,0,0-5.742-5.692l2.166-8.11L27.3,0,25.136,8.11a17.719,17.719,0,0,0-7.858,2.065L11.583,4.456l-7.1,7.1,5.694,5.718a16.962,16.962,0,0,0-1.562,3.828,18.488,18.488,0,0,0-.554,4.03L0,27.3l2.619,9.722,8.059-2.166A17.384,17.384,0,0,0,16.421,40.6l-2.166,8.227,9.722,2.619,2.166-8.278A16.755,16.755,0,0,0,34,41.1L39.894,47l7.1-7.1L41.1,34A16.613,16.613,0,0,0,42.665,30.223ZM32.943,27.6A7.563,7.563,0,1,1,27.6,18.335,7.577,7.577,0,0,1,32.943,27.6Z" transform="matrix(0.391, -0.921, 0.921, 0.391, 27.859, 53.528)"/><path class="b" d="M35.16,24.907a15.613,15.613,0,0,0,.457-3.362l6.78-1.785-2.159-8.012-6.78,1.785a14.205,14.205,0,0,0-4.732-4.69l1.785-6.683L22.5,0,20.714,6.683a14.6,14.6,0,0,0-6.476,1.7L8.126,2.7,2.657,8.132l5.728,6.106A13.979,13.979,0,0,0,7.1,17.393a15.236,15.236,0,0,0-.457,3.321L0,22.5l2.159,8.012L8.8,28.726a14.326,14.326,0,0,0,4.732,4.732l-1.785,6.78L19.759,42.4l1.785-6.822a13.808,13.808,0,0,0,6.476-1.7l4.857,4.857,5.853-5.853L33.873,28.02A13.691,13.691,0,0,0,35.16,24.907Zm-8.012-2.159a6.233,6.233,0,1,1-4.4-7.638A6.244,6.244,0,0,1,27.148,22.748Z" transform="matrix(0.998, -0.07, 0.07, 0.998, 0, 2.957)"/></g></g></svg>