<svg xmlns="http://www.w3.org/2000/svg" width="150" height="150" viewBox="0 0 150 150"><defs><style>.a{fill:#4789ff;}.b{fill:#67859d;}.c{fill:#fefefe;}</style></defs><path class="a" d="M74.76,0A75,75,0,1,1,0,75,74.88,74.88,0,0,1,74.76,0Z" transform="translate(0 0)"/><path class="b" d="M332.268,185.136Z" transform="translate(-182.771 -112.717)"/><g transform="translate(38.112 38.485)"><path class="c" d="M190.216,108.926,158.844,140.34l-2.134,2.134V129.157l-26.477,22.579-2.817-3.244,31.428-26.8,2.134-1.835v12.292l26.249-26.207Z" transform="translate(-122.28 -105.298)"/><path class="c" d="M287.956,108.926,256.585,140.34V121.688l2.134-1.835v12.292l26.25-26.207Z" transform="translate(-220.021 -105.298)"/><path class="c" d="M339.323,226.1v8.536l-4.268,4.268h-12.8l-4.268-4.268V226.1Z" transform="translate(-266.479 -196.225)"/><path class="c" d="M372.508,226.1v8.536l-4.268,4.268h-6.4V226.1Z" transform="translate(-299.664 -196.225)"/><path class="c" d="M339.323,261.186v8.536l-4.268,4.268h-12.8l-4.268-4.268v-8.536Z" transform="translate(-266.479 -222.772)"/><path class="c" d="M372.508,261.186v8.536l-4.268,4.268h-6.4v-12.8Z" transform="translate(-299.664 -222.772)"/><path class="c" d="M234.071,296.27v8.537l-4.268,4.41H217l-4.268-4.41V296.27Z" transform="translate(-186.836 -249.32)"/><path class="c" d="M267.255,296.27v8.537l-4.268,4.41h-6.4V296.27Z" transform="translate(-220.021 -249.32)"/><path class="c" d="M127.933,331.355v8.678l-4.268,4.268H110.718l-4.41-4.268v-8.678Z" transform="translate(-106.308 -275.868)"/><path class="c" d="M161.561,331.355v8.678l-4.268,4.268h-6.544V331.355Z" transform="translate(-139.935 -275.868)"/><rect class="c" width="21.626" height="8.679" transform="translate(0 64.165)"/><path class="c" d="M335.055,120.381h-4.268v-12.8h-12.8v-4.268h17.073Z" transform="translate(-266.479 -103.308)"/><path class="c" d="M130.837,103.308a6.4,6.4,0,1,0,0,12.8,6.4,6.4,0,1,0,0-12.8Z" transform="translate(-120.024 -103.308)"/><path class="c" d="M117.121,155.934a10.8,10.8,0,0,0-10.813,10.67v6.4h21.626v-6.4A10.8,10.8,0,0,0,117.121,155.934Z" transform="translate(-106.308 -143.129)"/><path class="c" d="M150.748,116.113v-12.8a6.4,6.4,0,1,1,0,12.8Z" transform="translate(-139.935 -103.308)"/><path class="c" d="M161.56,166.6v6.4H150.747V155.934A10.8,10.8,0,0,1,161.56,166.6Z" transform="translate(-139.934 -143.129)"/><rect class="c" width="10.813" height="8.679" transform="translate(10.813 64.165)"/><path class="c" d="M234.071,331.355v8.678L229.8,344.3H217l-4.268-4.268v-8.678Z" transform="translate(-186.836 -275.868)"/><path class="c" d="M267.255,331.355v8.678l-4.268,4.268h-6.4V331.355Z" transform="translate(-220.021 -275.868)"/><rect class="c" width="21.341" height="8.679" transform="translate(25.894 64.165)"/><rect class="c" width="10.67" height="8.679" transform="translate(36.564 64.165)"/><path class="c" d="M339.323,296.27v8.537l-4.268,4.41h-12.8l-4.268-4.41V296.27Z" transform="translate(-266.479 -249.32)"/><path class="c" d="M372.508,296.27v8.537l-4.268,4.41h-6.4V296.27Z" transform="translate(-299.664 -249.32)"/><path class="c" d="M339.323,331.355v8.678l-4.268,4.268h-12.8l-4.268-4.268v-8.678Z" transform="translate(-266.479 -275.868)"/><path class="c" d="M372.508,331.355v8.678l-4.268,4.268h-6.4V331.355Z" transform="translate(-299.664 -275.868)"/><rect class="c" width="21.341" height="8.679" transform="translate(51.503 64.165)"/><rect class="c" width="10.67" height="8.679" transform="translate(62.173 64.165)"/></g></svg>