<svg xmlns="http://www.w3.org/2000/svg" width="150" height="150" viewBox="0 0 150 150"><defs><style>.a{fill:#f9ba48;}.b{fill:#67859d;}.c{fill:#fff;}.d{fill:#f9feff;}</style></defs><g transform="translate(-0.253)"><circle class="a" cx="75" cy="75" r="75" transform="translate(0.253)"/><g transform="translate(69.427 69.977)"><path class="b" d="M443.985,212.479a80.658,80.658,0,0,0,.958-12.408Z" transform="translate(-364.269 -200.071)"/><path class="b" d="M182.07,427.756a80.638,80.638,0,0,0,12.235-.93S178.006,427.756,182.07,427.756Z" transform="translate(-181.419 -347.732)"/></g><g transform="translate(34.409 43.744)"><path class="c" d="M40.894,43.131C19.572,43.131,3.155,25.2,1.353,23.16l-.012-.013L0,21.565l1.342-1.582.013-.014C3.157,17.926,19.581,0,40.894,0c1.139,0,2.3.052,3.442.154A45.121,45.121,0,0,1,58.4,3.882a61.718,61.718,0,0,1,11.269,6.51,72.379,72.379,0,0,1,7.63,6.345c1.6,1.532,2.656,2.684,3.141,3.234l.011.013,1.342,1.582-1.342,1.581-.011.013C78.693,25.136,62.82,42.484,42.052,43.113,41.669,43.125,41.28,43.131,40.894,43.131Zm.071-31A9.275,9.275,0,1,0,50.241,21.4,9.285,9.285,0,0,0,40.965,12.128Z" transform="translate(0 9.585)"/><path class="c" d="M95.377,144.377H90.585V130h14.537v4.792H95.377Z" transform="translate(-90.585 -130)"/><path class="d" d="M105.122,338.223H90.585V323.846h4.792v9.585h9.745Z" transform="translate(-90.585 -275.923)"/><path class="c" d="M377.152,144.377h-4.792v-9.585h-9.745V130h14.537Z" transform="translate(-295.363 -130)"/><path class="c" d="M377.152,338.223H362.615v-4.792h9.745v-9.585h4.792Z" transform="translate(-295.363 -275.923)"/></g></g></svg>