<svg xmlns="http://www.w3.org/2000/svg" width="93.339" height="93.339" viewBox="0 0 93.339 93.339"><defs><style>.a,.b{fill:#66cecd;}.a{opacity:0.2;}.b{stroke:#66cecd;stroke-width:0.5px;}</style></defs><g transform="translate(-635.301 -2965.072)"><path class="a" d="M46.67,0A46.67,46.67,0,1,1,0,46.67,46.67,46.67,0,0,1,46.67,0Z" transform="translate(635.301 2965.072)"/><g transform="translate(660.71 2989.408)"><path class="b" d="M42.55,33.839a.633.633,0,0,0,.633-.633v-.969A4.034,4.034,0,0,0,40.405,28.4l-3.954-1.3V25.728a4.724,4.724,0,0,0,2.3-4.052V18.95a4.72,4.72,0,0,0-8.484-2.85,4.018,4.018,0,0,0-2.3-1.929l-3.953-1.3V11.5a4.724,4.724,0,0,0,2.3-4.052V4.722a4.722,4.722,0,1,0-9.444,0V7.448a4.724,4.724,0,0,0,2.3,4.052v1.369l-3.953,1.3a4.019,4.019,0,0,0-2.3,1.929A4.72,4.72,0,0,0,4.43,18.95v2.726a4.724,4.724,0,0,0,2.3,4.052V27.1L2.777,28.4A4.034,4.034,0,0,0,0,32.237v.969a.633.633,0,0,0,1.265,0v-.969A2.771,2.771,0,0,1,3.172,29.6l3.7-1.219a2.422,2.422,0,0,0,4.553,0l3.7,1.218a2.768,2.768,0,0,1,1.732,1.665l-1.647.542a4.033,4.033,0,0,0-2.777,3.838v.735h-7.6V34.8a.633.633,0,0,0-1.265,0v1.583H1.265v-.218a.633.633,0,1,0-1.265,0v.851a.633.633,0,0,0,.633.633H12.439V42.55a.633.633,0,0,0,.633.633h17.04a.633.633,0,0,0,.633-.633V41.7a.633.633,0,0,0-1.265,0v.213H27.165V38.2a.633.633,0,0,0-1.265,0v3.712H17.282V38.2a.633.633,0,0,0-1.265,0v3.712H13.7V35.644a2.77,2.77,0,0,1,1.908-2.636l3.7-1.219a2.422,2.422,0,0,0,4.553,0l3.7,1.219a2.77,2.77,0,0,1,1.908,2.636v3.107a.633.633,0,1,0,1.265,0V37.645H42.55a.633.633,0,0,0,.633-.633v-.851a.633.633,0,1,0-1.265,0v.218H39.6V34.8a.633.633,0,1,0-1.265,0v1.583h-7.6v-.735a4.033,4.033,0,0,0-2.777-3.838l-1.647-.542A2.768,2.768,0,0,1,28.05,29.6l3.7-1.219a2.422,2.422,0,0,0,4.553,0l3.7,1.219a2.771,2.771,0,0,1,1.908,2.637v.969a.633.633,0,0,0,.633.633ZM34.03,15.493a3.461,3.461,0,0,1,3.457,3.457v2.726a3.457,3.457,0,1,1-6.914,0V18.95a3.461,3.461,0,0,1,3.457-3.457Zm-15.9-8.045V4.722a3.457,3.457,0,1,1,6.914,0V7.448a3.457,3.457,0,1,1-6.914,0Zm3.457,4.722a4.714,4.714,0,0,0,1.157-.144V13.31c0,.006,0,.012,0,.018a1.157,1.157,0,0,1-2.313,0c0-.006,0-.012,0-.018V12.027a4.715,4.715,0,0,0,1.156.144Zm-5.979,3.2,3.7-1.219a2.422,2.422,0,0,0,4.553,0l3.7,1.219a2.755,2.755,0,0,1,1.893,2.374,4.71,4.71,0,0,0-.156,1.2v2.726a4.75,4.75,0,0,0,.024.475H26.308a4.721,4.721,0,0,0-9.434,0H13.85a4.75,4.75,0,0,0,.024-.475V18.95a4.711,4.711,0,0,0-.156-1.2,2.756,2.756,0,0,1,1.894-2.374Zm5.979,13.169a3.461,3.461,0,0,1-3.457-3.457V22.358a3.457,3.457,0,1,1,6.914,0v2.726A3.461,3.461,0,0,1,21.591,28.541ZM5.7,21.676V18.95a3.457,3.457,0,1,1,6.914,0v2.726a3.457,3.457,0,1,1-6.914,0Zm4.614,5.879a1.157,1.157,0,0,1-2.313,0v-1.3a4.723,4.723,0,0,0,2.313,0Zm5.219.843-3.953-1.3V25.728a4.749,4.749,0,0,0,1.967-2.312h3.328v1.668a4.724,4.724,0,0,0,2.3,4.052v1.369l-1.1.364A4.028,4.028,0,0,0,15.527,28.4Zm6.064,3.722a1.158,1.158,0,0,1-1.157-1.157v-1.3a4.724,4.724,0,0,0,2.313,0v1.3a1.158,1.158,0,0,1-1.157,1.157ZM27.655,28.4a4.028,4.028,0,0,0-2.537,2.471l-1.1-.364V29.136a4.724,4.724,0,0,0,2.3-4.052V23.416h3.328a4.748,4.748,0,0,0,1.967,2.312V27.1Zm6.375.314a1.158,1.158,0,0,1-1.157-1.157v-1.3a4.723,4.723,0,0,0,2.313,0v1.3A1.158,1.158,0,0,1,34.03,28.712Z"/></g></g></svg>