<svg xmlns="http://www.w3.org/2000/svg" width="93.339" height="93.339" viewBox="0 0 93.339 93.339"><defs><style>.a,.b{fill:#ff8080;}.a{opacity:0.2;}</style></defs><g transform="translate(-635.301 -2965.072)"><path class="a" d="M46.67,0A46.67,46.67,0,1,1,0,46.67,46.67,46.67,0,0,1,46.67,0Z" transform="translate(635.301 2965.072)"/><g transform="translate(606.452 2992.273)"><g transform="translate(60.68 0)"><path class="b" d="M90.812,32.688c-.088-5.367-5.576-6.953-9.583-8.111-.468-.135-.917-.265-1.338-.395V21.968a7.89,7.89,0,0,0,2.116-1.945h2.441a2.169,2.169,0,0,0,2.166-2.166V15.234a2.781,2.781,0,0,0,.225-1.1V13.32a2.778,2.778,0,0,0-.225-1.1V10.869a10.867,10.867,0,1,0-21.735,0v1.314c0,.01,0,.02,0,.031a2.777,2.777,0,0,0-.229,1.106v.816a2.8,2.8,0,0,0,2.794,2.8h.637A7.85,7.85,0,0,0,71.6,21.968v2.215c-.421.13-.871.26-1.338.395-4.007,1.158-9.495,2.744-9.583,8.111,0,0,0,.008,0,.013v6.022a.771.771,0,0,0,.771.771h2.287a.771.771,0,1,0,0-1.543H62.223V32.707A5.054,5.054,0,0,1,64.93,28.29a17.678,17.678,0,0,1,4.1-1.739L70.9,30.182a.779.779,0,0,0,1.118.287l.831-.561.713,2.681-1.222,5.361H70.665a.771.771,0,0,0,0,1.543H90.041a.771.771,0,0,0,.771-.771V32.7s0-.008,0-.013ZM80.8,26.059l.154.045-1.333,2.6-2.5-1.683L79.241,25.6c.491.155,1.014.306,1.561.464Zm-5.055,1.893L77.294,29l-.748,2.81h-1.6L74.2,29Zm0-1.861-2.6-1.755V22.712a7.817,7.817,0,0,0,5.2,0v1.623ZM82.03,11.01,82,10.99c-1.583-1.008-2.95-1.878-5.092-1.265l-.059.019c-.454.171-.867.33-1.266.483-2.439.939-3.771,1.452-6.12,1.386V11A6.284,6.284,0,1,1,82.03,11v.014Zm3.041,6.847a.624.624,0,0,1-.624.624H82.911a7.762,7.762,0,0,0,.5-1.549h.637a2.775,2.775,0,0,0,1.026-.2v1.122Zm.225-3.721a1.254,1.254,0,0,1-1.251,1.253h-.473c0-.019,0-3.32,0-3.32h.473A1.253,1.253,0,0,1,85.3,13.32v.816ZM67.446,15.389A1.254,1.254,0,0,1,66.2,14.135V13.32a1.252,1.252,0,0,1,1.251-1.251h.473s0,3.3,0,3.32Zm.487-4.863h-.487a2.777,2.777,0,0,0-1.022.194,9.324,9.324,0,0,1,18.645,0,2.777,2.777,0,0,0-1.024-.2h-.487a7.827,7.827,0,0,0-15.625,0Zm1.575,5.556v0a6.32,6.32,0,0,1-.046-.748V13.156a15.38,15.38,0,0,0,6.674-1.489c.388-.149.788-.3,1.224-.467,1.457-.407,2.3.127,3.81,1.091.263.167.551.351.86.539v2.5a6.244,6.244,0,0,1-.849,3.149H75.746a.771.771,0,1,0,0,1.543h4.175a6.278,6.278,0,0,1-10.413-3.941ZM71.873,28.7l-1.335-2.6.153-.044c.547-.158,1.07-.309,1.561-.464l2.115,1.426Zm2.046,9.247,1.05-4.6h1.555l1.051,4.6Zm15.351,0H79.158L77.933,32.59l.714-2.683.833.562a.779.779,0,0,0,1.118-.288l1.862-3.631a17.679,17.679,0,0,1,4.1,1.738,5.054,5.054,0,0,1,2.707,4.418v5.244Z" transform="translate(-60.68 0)"/><path class="b" d="M336.09,441.995H332.2a.771.771,0,1,0,0,1.543h3.887a.771.771,0,0,0,0-1.543Z" transform="translate(-310.546 -407.901)"/><path class="b" d="M136,492a.771.771,0,1,0,0,1.543h0A.771.771,0,0,0,136,492Z" transform="translate(-129.477 -454.047)"/></g></g></g></svg>