<svg xmlns="http://www.w3.org/2000/svg" width="93.339" height="93.339" viewBox="0 0 93.339 93.339"><defs><style>.a,.b{fill:#f9d17f;}.a{opacity:0.2;}</style></defs><g transform="translate(-635.301 -2965.072)"><path class="a" d="M46.67,0A46.67,46.67,0,1,1,0,46.67,46.67,46.67,0,0,1,46.67,0Z" transform="translate(635.301 2965.072)"/><g transform="translate(660.266 2989.966)"><path class="b" d="M17.435,18.85l-7.376,5.02,2.26-8.928L5.5,9.119l8.773-.5L17.435,0,20.6,8.621l8.773.5-6.82,5.824,2.26,8.928Z" transform="translate(4.599 0)"/><path class="b" d="M4.591,14.249,1.754,16.181l.87-3.434L0,10.507l3.375-.191L4.591,7l1.216,3.316,3.375.191-2.624,2.24.87,3.434Z" transform="translate(0 5.853)"/><path class="b" d="M13.672,22.345a3.672,3.672,0,1,1,3.672-3.672A3.676,3.676,0,0,1,13.672,22.345Z" transform="translate(8.362 12.543)"/><path class="b" d="M21.312,27.345H9.377A1.378,1.378,0,0,1,8,25.968v-1.53A4.627,4.627,0,0,1,12.787,20H17.9a4.627,4.627,0,0,1,4.787,4.438v1.53A1.378,1.378,0,0,1,21.312,27.345Z" transform="translate(6.69 16.724)"/><path class="b" d="M23.591,14.249l-2.837,1.932.87-3.434L19,10.507l3.375-.191L23.591,7l1.216,3.316,3.375.191-2.624,2.24.87,3.434Z" transform="translate(15.888 5.853)"/></g></g></svg>