<svg xmlns="http://www.w3.org/2000/svg" xmlns:xlink="http://www.w3.org/1999/xlink" width="420.602" height="408.043" viewBox="0 0 420.602 408.043"><defs><style>.a{fill:#91c0ee;}.b{fill:#0a86ff;}.c{fill:url(#a);}.d{fill:#88c5ff;}.e{fill:#0a81f6;}.f{fill:#ded4ce;}.g{fill:#646464;}.h{fill:#e66947;}.i{fill:#494f5c;}.j{fill:#f9f9f9;opacity:0.3;}</style><linearGradient id="a" x1="0.71" y1="0.876" x2="0.151" y2="-0.124" gradientUnits="objectBoundingBox"><stop offset="0" stop-color="#7dbdff"/><stop offset="1" stop-color="#0783ff"/></linearGradient></defs><g transform="translate(-125.031 -20.849)"><g transform="translate(85.832 20.849)"><path class="a" d="M1200.346,443.284h-175c-44.886,2.987-44.688,52.433-44.688,52.433h0V732h175.22V495.717S1156.707,446.1,1200.346,443.284Z" transform="translate(-818.685 -352.119)"/><g transform="translate(149.762 146.585)"><rect class="b" width="2.022" height="181.857"/></g><g transform="translate(244.894 4.229)"><path class="b" d="M1415.7,158.456H1308.809V99.245H1415.7Zm-104.866-2.022h102.845V101.267H1310.831Z" transform="translate(-1308.809 -99.245)"/></g><g transform="translate(44.896 50.719)"><path class="b" d="M624.225,357.7H517.337V283.222H624.225Zm-104.866-2.022H622.2V285.244H519.359Z" transform="translate(-517.337 -283.222)"/></g><g transform="translate(347.769 184.512)"><path class="b" d="M1822.814,872.127H1715.926V812.694h106.888ZM1717.948,870.1h102.845v-55.39H1717.948Z" transform="translate(-1715.926 -812.694)"/></g><path class="c" d="M1172.658,430.589c-43.639,2.821-44.469,52.433-44.469,52.433V719.3H952.97V483.022s-.2-49.446,44.688-52.433Z" transform="translate(-797.993 -342.632)"/><rect class="d" width="120.353" height="10.619" transform="translate(177.985 149.682)"/><rect class="d" width="102.765" height="7.522" transform="translate(177.985 174.239)"/><rect class="d" width="51.659" height="11.172" transform="translate(177.985 194.096)"/><rect class="d" width="53.429" height="11.172" transform="translate(244.909 194.096)"/><rect class="d" width="82.3" height="7.965" transform="translate(177.985 215.611)"/><rect class="d" width="92.726" height="4.425" transform="translate(177.985 235.522)"/><rect class="d" width="111.504" height="4.425" transform="translate(177.985 255.434)"/><g transform="translate(177.606 274.966)"><path class="d" d="M1094.941,1195.75h-52.417v-25.094h52.417Zm-51.659-.758h50.9v-23.578h-50.9Z" transform="translate(-1042.524 -1170.656)"/></g><rect class="d" width="46.902" height="5.752" transform="translate(242.586 275.345)"/><rect class="d" width="33.244" height="5.752" transform="translate(242.586 287.513)"/><rect class="d" width="100.276" height="4.425" transform="translate(177.985 315.168)"/><rect class="d" width="52.82" height="4.425" transform="translate(177.985 335.079)"/><g transform="translate(360.212 197.027)"><g transform="translate(9.731 13.426)"><path class="e" d="M1809.06,926.051l-5.167-8.461a1.472,1.472,0,1,1,2.512-1.534l3.655,5.983,9.714-5.75a1.472,1.472,0,1,1,1.5,2.533Z" transform="translate(-1803.676 -915.351)"/></g><path class="e" d="M1783.751,899.389a18.584,18.584,0,1,1,18.584-18.584A18.6,18.6,0,0,1,1783.751,899.389Zm0-34.513A15.929,15.929,0,1,0,1799.68,880.8,15.947,15.947,0,0,0,1783.751,864.876Z" transform="translate(-1765.167 -862.221)"/></g><path class="e" d="M1387.154,175.812l.364,7.81,3.1-.144-.61-13.1-13.381.623.144,3.1,8.088-.376-14.258,15.65-14.836-13.516-2.09,2.294,17.13,15.606Z" transform="translate(-1097.444 -148.172)"/><g transform="translate(59.471 64.285)"><path class="e" d="M599.066,350.7a7.022,7.022,0,0,0-1.337-1.092,15.409,15.409,0,0,0-2.044-1.119,16.792,16.792,0,0,0-2.551-.919,14.716,14.716,0,0,0-2.856-.49l-.034,10.469.96.205a44.607,44.607,0,0,1,4.926,1.483,14.052,14.052,0,0,1,3.711,1.985,8.034,8.034,0,0,1,2.342,2.865,9.262,9.262,0,0,1,.821,4.124,10.041,10.041,0,0,1-.976,4.574,8.921,8.921,0,0,1-2.666,3.152,11.9,11.9,0,0,1-3.951,1.884,19.212,19.212,0,0,1-4.832.667l-.017,5.31-2.63-.009.018-5.411a25.467,25.467,0,0,1-6.924-1.464,21.8,21.8,0,0,1-6.007-3.332l2.595-4.847a8.948,8.948,0,0,0,1.614,1.32,18.424,18.424,0,0,0,2.474,1.373,22.858,22.858,0,0,0,3.107,1.173,19.886,19.886,0,0,0,3.512.719l.034-10.469q-.3-.1-.632-.179c-.22-.051-.43-.11-.632-.179a42.808,42.808,0,0,1-4.673-1.507,11.678,11.678,0,0,1-3.307-1.907,7.433,7.433,0,0,1-1.989-2.611,8.652,8.652,0,0,1-.671-3.618,10.665,10.665,0,0,1,.874-4.4,9.639,9.639,0,0,1,2.438-3.3,11.564,11.564,0,0,1,3.674-2.163,17.077,17.077,0,0,1,4.631-.971l.017-5.108,2.63.009-.017,5.108a19.483,19.483,0,0,1,6.065,1.334,21.993,21.993,0,0,1,4.9,2.7Zm-16.694,1.26a3.653,3.653,0,0,0,1.482,3.191,14.394,14.394,0,0,0,4.52,1.886l.032-9.963a7.332,7.332,0,0,0-4.556,1.426A4.381,4.381,0,0,0,582.372,351.961ZM596.933,368.8a3.743,3.743,0,0,0-1.759-3.369,19,19,0,0,0-4.949-2.064l-.033,10.013a9.216,9.216,0,0,0,4.985-1.2A3.818,3.818,0,0,0,596.933,368.8Z" transform="translate(-575.019 -336.908)"/></g><rect class="d" width="41.98" height="5.973" transform="translate(99.557 71.92)"/><rect class="d" width="32.995" height="5.973" transform="translate(99.557 84.97)"/><rect class="d" width="37.023" height="5.973" transform="translate(99.557 98.02)"/><rect class="d" width="29.996" height="5.973" transform="translate(405.085 204.716)"/><rect class="d" width="33.657" height="5.973" transform="translate(405.085 217.766)"/><rect class="d" width="38.164" height="5.973" transform="translate(302.21 17.798)"/><rect class="d" width="29.996" height="5.973" transform="translate(302.21 30.848)"/><rect class="d" width="33.657" height="5.973" transform="translate(302.21 43.898)"/><g transform="translate(343.249 245.257)"><path class="f" d="M1730.465,1091.264h-32.427v-2.022h30.4v-36.157h2.022Z" transform="translate(-1698.038 -1053.085)"/></g><g transform="translate(218.124 66.497)"><path class="f" d="M1204.892,363.581h-2.021V353.062h70.354v-7.4h2.021v9.421h-70.354Z" transform="translate(-1202.871 -345.663)"/></g><g transform="translate(104.63 128.886)"><path class="f" d="M790.635,672.168H753.728V592.56h2.022v77.587h34.885Z" transform="translate(-753.728 -592.56)"/></g><g transform="translate(341.206 98.852)"><path class="b" d="M1692.016,551.029h-2.022V526.97c-.028-.4-2.594-46.55,36.348-53.264l.343,1.992c-37.169,6.409-34.7,50.758-34.672,51.205Z" transform="translate(-1689.951 -473.706)"/></g><g transform="translate(413.99 179.588)"><path class="b" d="M2023.8,836.032h-2.021v-40.8h-43.79v-2.021H2023.8Z" transform="translate(-1977.987 -793.208)"/></g><g transform="translate(39.199 92.093)"><path class="b" d="M536.372,486.132H494.793V446.958h2.022v37.153h39.557Z" transform="translate(-494.793 -446.958)"/></g><g transform="translate(240.065)"><path class="b" d="M1291.719,113.357H1289.7V82.509h51.6V84.53h-49.577Z" transform="translate(-1289.697 -82.509)"/></g><g transform="translate(306.413 327.417)"><path class="b" d="M1590.11,1437.645h-37.847v-2.022h35.825v-57.4h2.021Z" transform="translate(-1552.264 -1378.228)"/></g><g transform="translate(282.331 313.785)"><path class="d" d="M1489.917,1357.236h-32.955V1324.28h32.955Zm-29.923-3.032h26.891v-26.891h-26.891Z" transform="translate(-1456.962 -1324.28)"/></g><g transform="translate(287.755 315.427)"><path class="d" d="M1490,1352.455l-11.574-10.911,3.466-3.678,8.337,7.86,18.192-14.948,3.208,3.9Z" transform="translate(-1478.428 -1330.778)"/></g><g transform="translate(59.472 262.114)"><rect class="g" width="82.394" height="14.008" transform="translate(72.263 93.179) rotate(140.192)"/><rect class="h" width="4.401" height="10.632" transform="translate(74.564 89.065) rotate(140.192)"/><path class="i" d="M740.189,980.2a50.983,50.983,0,1,0,18.485-69.691A50.983,50.983,0,0,0,740.189,980.2Zm7.24-4.2a42.611,42.611,0,1,1,79.437-23.016h0a42.617,42.617,0,0,1-79.437,23.015Z" transform="translate(-676.407 -903.604)"/><path class="j" d="M805.019,991.313s44.378-33.7,83.214,11.238h0a42.616,42.616,0,0,0-83.214-11.237Z" transform="translate(-737.775 -953.177)"/></g></g></g></svg>