<svg xmlns="http://www.w3.org/2000/svg" xmlns:xlink="http://www.w3.org/1999/xlink" width="1160.296" height="1048.581" viewBox="0 0 1160.296 1048.581"><defs><style>.a,.r,.u{fill:none;}.a{stroke:#ababab;stroke-dasharray:5;}.b,.p{fill:#fff;}.c{fill:#e52054;}.d{fill:#ff5a8c;}.e{fill:#2ec1ef;}.f{fill:#00afe6;}.g{fill:#00b3a8;}.h{fill:#00a59b;}.i{fill:#f9c32d;}.j{fill:#f3ab1a;}.k{fill:#4b69bc;}.l{fill:#5e87e2;}.m{fill:#77cc2e;}.n{fill:#67b11f;}.o,.q{fill:#f5faff;font-family:Poppins-Medium, Poppins;}.o{font-size:25px;}.o,.q,.s{font-weight:500;}.p{font-size:46px;font-family:SFProText-Regular, SF Pro Text;letter-spacing:-0.019em;}.q{font-size:24px;}.r{stroke:#707070;stroke-width:5px;}.s{fill:#212529;font-size:40px;font-family:SFProText-Medium, SF Pro Text;letter-spacing:-0.046em;}.t{stroke:none;}.v{filter:url(#a);}</style><filter id="a" x="262.704" y="208.481" width="660" height="660" filterUnits="userSpaceOnUse"><feOffset dy="3" input="SourceAlpha"/><feGaussianBlur stdDeviation="49.5" result="b"/><feFlood flood-color="gray" flood-opacity="0.161"/><feComposite operator="in" in2="b"/><feComposite in="SourceGraphic"/></filter></defs><g transform="translate(-345.796 -2388.019)"><g class="a" transform="translate(571.796 2548.019)"><circle class="t" cx="375" cy="375" r="375"/><circle class="u" cx="375" cy="375" r="374.5"/></g><g transform="translate(345.796 2749.176)"><path class="b" d="M353.042,361.87h96.371V340.7H353.458a152.029,152.029,0,1,0-.415,21.173Z" transform="translate(-27.417 -174.098)"/><circle class="c" cx="123.355" cy="123.355" r="123.355" transform="translate(0 174.45) rotate(-45)"/><path class="d" d="M60.073,330.108A123.355,123.355,0,1,0,183.428,206.753,123.356,123.356,0,0,0,60.073,330.108Zm233.94,0A110.585,110.585,0,1,1,183.428,219.523,110.586,110.586,0,0,1,294.013,330.108Z" transform="translate(-8.978 -155.658)"/></g><g transform="translate(1106.756 2771.833)"><path class="b" d="M405.573,340.7H309.618V361.87h96.371a151.563,151.563,0,1,0-.415-21.173Z" transform="translate(-309.618 -196.756)"/><g transform="translate(98.742 2.989)"><circle class="e" cx="123.355" cy="123.355" r="123.355" transform="translate(0 239.854) rotate(-76.462)"/><path class="f" d="M353.276,330.108A123.355,123.355,0,1,0,476.631,206.753,123.356,123.356,0,0,0,353.276,330.108Zm233.94,0A110.585,110.585,0,1,1,476.631,219.523,110.586,110.586,0,0,1,587.216,330.108Z" transform="translate(-327.827 -181.304)"/></g></g><g transform="translate(576.943 3063.742)"><path class="b" d="M357.78,393.058l47.978-83.1-18.337-10.585-48.185,83.459a151.557,151.557,0,1,0,18.544,10.227Z" transform="translate(-123.368 -299.373)"/><g transform="translate(11.712 80.936)"><circle class="g" cx="123.355" cy="123.355" r="123.355" transform="translate(0 36.166) rotate(-8.43)"/><path class="h" d="M195.065,563.91A123.355,123.355,0,1,0,149.912,395.4,123.356,123.356,0,0,0,195.065,563.91Zm116.969-202.6a110.585,110.585,0,1,1-151.062,40.476A110.583,110.583,0,0,1,312.034,361.312Z" transform="translate(-116.637 -316.976)"/></g></g><g transform="translate(576.943 2416.742)"><path class="b" d="M357.78,578.545l47.978,83.1L387.421,672.23l-48.185-83.459a151.557,151.557,0,1,1,18.544-10.227Z" transform="translate(-123.368 -299.373)"/><g transform="translate(11.712 11.712)"><ellipse class="i" cx="123.355" cy="123.355" rx="123.355" ry="123.355" transform="translate(36.166 0) rotate(8.43)"/><path class="j" d="M195.065,350.252A123.355,123.355,0,1,1,149.912,518.76,123.356,123.356,0,0,1,195.065,350.252Zm116.969,202.6a110.585,110.585,0,1,0-151.062-40.476A110.583,110.583,0,0,0,312.034,552.85Z" transform="translate(-116.637 -316.977)"/></g></g><g transform="translate(971.338 2388.019)"><path class="b" d="M334.658,345.862l-48.185,83.462,18.336,10.585,47.975-83.1a152.057,152.057,0,1,0-18.126-10.949Z" transform="translate(-247.331 -47.153)"/><circle class="k" cx="123.355" cy="123.355" r="123.355" transform="translate(0 174.45) rotate(-45)"/><path class="l" d="M341.666,309.99a123.355,123.355,0,1,0-45.15-168.508A123.355,123.355,0,0,0,341.666,309.99Zm116.971-202.6a110.586,110.586,0,1,1-151.065,40.479A110.59,110.59,0,0,1,458.637,107.389Z" transform="translate(-228.893 -28.71)"/></g><g transform="translate(993.979 3066.476)"><path class="b" d="M334.658,394.381l-48.185-83.459,18.336-10.588,47.975,83.1a152.039,152.039,0,1,1-18.126,10.946Z" transform="translate(-269.973 -300.334)"/><g transform="translate(25.254 91.753)"><circle class="m" cx="123.355" cy="123.355" r="123.355" transform="translate(0 246.624) rotate(-88.494)"/><path class="n" d="M341.666,350.253a123.355,123.355,0,1,1-45.15,168.5A123.354,123.354,0,0,1,341.666,350.253Zm116.971,202.6a110.585,110.585,0,1,0-151.065-40.476A110.586,110.586,0,0,0,458.637,552.851Z" transform="translate(-276.789 -330.528)"/></g></g><g transform="translate(613 2491.444)"><text class="o" transform="translate(0 61)"><tspan x="68.512" y="26">Racked</tspan><tspan x="65.862" y="54">Storage​</tspan></text><text class="p" transform="translate(115 44)"><tspan x="-24.719" y="0">01</tspan></text></g><g transform="translate(613 3220.444)"><text class="q" transform="translate(0 61)"><tspan x="27.948" y="25">Scanning and ​</tspan><tspan x="14.532" y="53">Capture Support​</tspan></text><text class="p" transform="translate(115 44)"><tspan x="-28.268" y="0">05</tspan></text></g><g transform="translate(1029 2491.444)"><text class="o" transform="translate(0 61)"><tspan x="49.588" y="26">Document</tspan><tspan x="64.912" y="54">Archive ​</tspan></text><text class="p" transform="translate(115 44)"><tspan x="-27.931" y="0">02</tspan></text></g><g transform="translate(1066 3220.444)"><text class="o" transform="translate(0 61)"><tspan x="2.575" y="26">Archive Box ​</tspan><tspan x="16.1" y="54">Storage &amp; </tspan><tspan x="23.863" y="82">Tracking​</tspan></text><text class="p" transform="translate(78 44)"><tspan x="-28.852" y="0">04</tspan></text></g><g transform="translate(1237 2859.444)"><text class="o" transform="translate(0 61)"><tspan x="50.488" y="26">Shredding </tspan><tspan x="63.05" y="54">Services​</tspan></text><text class="p" transform="translate(115 44)"><tspan x="-28.47" y="0">03</tspan></text></g><g transform="translate(404 2859.444)"><text class="o" transform="translate(0 61)"><tspan x="20.45" y="26">Collection and ​</tspan><tspan x="65.337" y="54">Delivery</tspan></text><text class="p" transform="translate(115 44)"><tspan x="-28.695" y="0">06</tspan></text></g><line class="r" x2="58" y2="96" transform="translate(786.5 2675.5)"/><path class="r" d="M0,0H228.552" transform="translate(644.5 2926.5)"/><line class="r" x2="352" transform="translate(879.5 2926.5)"/><line class="r" y1="96" x2="58" transform="translate(786.5 3081.5)"/><line class="r" x2="58" y2="96" transform="translate(1022.5 3081.5)"/><line class="r" y1="96" x2="58" transform="translate(1022.5 2675.5)"/><g class="v" transform="matrix(1, 0, 0, 1, 345.8, 2388.02)"><circle class="b" cx="181.5" cy="181.5" r="181.5" transform="translate(411.2 353.98)"/></g><text class="s" transform="translate(943 2938)"><tspan x="-113.851" y="0">Our Facilities​</tspan></text></g></svg>