<svg xmlns="http://www.w3.org/2000/svg" width="188" height="188" viewBox="0 0 188 188"><defs><style>.a,.c{fill:#febb80;}.a{opacity:0.1;}.b{fill:#101010;font-size:14px;font-family:SFProText-Medium, SF Pro Text;font-weight:500;letter-spacing:-0.054em;}</style></defs><g transform="translate(0.001)"><rect class="a" width="188" height="188" transform="translate(-0.001)"/><text class="b" transform="translate(94 150)"><tspan x="-70.73" y="0">Secure data encryption</tspan></text><g transform="translate(66.582 50.594)"><path class="c" d="M25.754,42.093A1.15,1.15,0,0,1,25.309,42C24.764,41.772,12,36.257,12,24.983V15.4a1.147,1.147,0,0,1,.779-1.087L25.387,10.06a1.148,1.148,0,0,1,.734,0l12.608,4.257a1.145,1.145,0,0,1,.779,1.087v9.58C39.508,36.257,26.744,41.772,26.2,42a1.15,1.15,0,0,1-.445.089ZM14.292,16.229v8.754c0,8.674,9.3,13.658,11.462,14.7,2.164-1.045,11.462-6.049,11.462-14.7V16.229L25.754,12.357Z" transform="translate(15.508 11.631)"/><path class="c" d="M20.73,24.816a.539.539,0,0,1-.062,0,1.138,1.138,0,0,1-.832-.429l-4.585-5.731a1.146,1.146,0,0,1,1.79-1.433l3.782,4.729,7.118-7.115a1.146,1.146,0,1,1,1.621,1.621l-8.023,8.023A1.142,1.142,0,0,1,20.73,24.816Z" transform="translate(19.385 17.446)"/><path class="c" d="M42.408,17.046H8.023A8.023,8.023,0,0,1,8.023,1H42.408a8.023,8.023,0,0,1,0,16.046ZM8.023,3.292a5.731,5.731,0,1,0,0,11.462H42.408a5.731,5.731,0,1,0,0-11.462Z" transform="translate(0 0)"/><path class="c" d="M6.438,9.877A3.438,3.438,0,1,1,9.877,6.438,3.443,3.443,0,0,1,6.438,9.877Zm0-4.585A1.146,1.146,0,1,0,7.585,6.438,1.15,1.15,0,0,0,6.438,5.292Z" transform="translate(3.877 2.585)"/><path class="c" d="M11.438,9.877a3.438,3.438,0,1,1,3.438-3.438A3.443,3.443,0,0,1,11.438,9.877Zm0-4.585a1.146,1.146,0,1,0,1.146,1.146A1.15,1.15,0,0,0,11.438,5.292Z" transform="translate(10.339 2.585)"/><path class="c" d="M21.777,23.046H8.023A8.023,8.023,0,0,1,8.023,7H42.408a7.86,7.86,0,0,1,4.878,1.664,1.147,1.147,0,1,1-1.41,1.809,5.582,5.582,0,0,0-3.468-1.181H8.023a5.731,5.731,0,0,0,0,11.462H21.777a1.146,1.146,0,1,1,0,2.292Z" transform="translate(0 7.754)"/><path class="c" d="M6.438,15.877a3.438,3.438,0,1,1,3.438-3.438A3.443,3.443,0,0,1,6.438,15.877Zm0-4.585a1.146,1.146,0,1,0,1.146,1.146A1.15,1.15,0,0,0,6.438,11.292Z" transform="translate(3.877 10.339)"/><path class="c" d="M11.438,15.877a3.438,3.438,0,1,1,3.438-3.438A3.443,3.443,0,0,1,11.438,15.877Zm0-4.585a1.146,1.146,0,1,0,1.146,1.146A1.15,1.15,0,0,0,11.438,11.292Z" transform="translate(10.339 10.339)"/><path class="c" d="M21.777,29.046H8.023A8.023,8.023,0,0,1,8.023,13H21.777a1.146,1.146,0,1,1,0,2.292H8.023a5.731,5.731,0,1,0,0,11.462H21.777a1.146,1.146,0,0,1,0,2.292Z" transform="translate(0 15.508)"/><path class="c" d="M6.438,21.877a3.438,3.438,0,1,1,3.438-3.438A3.443,3.443,0,0,1,6.438,21.877Zm0-4.585a1.146,1.146,0,1,0,1.146,1.146A1.15,1.15,0,0,0,6.438,17.292Z" transform="translate(3.877 18.092)"/><path class="c" d="M11.438,21.877a3.438,3.438,0,1,1,3.438-3.438A3.443,3.443,0,0,1,11.438,21.877Zm0-4.585a1.146,1.146,0,1,0,1.146,1.146A1.15,1.15,0,0,0,11.438,17.292Z" transform="translate(10.339 18.092)"/></g></g></svg>