<svg xmlns="http://www.w3.org/2000/svg" width="188" height="188" viewBox="0 0 188 188"><defs><style>.a,.c{fill:#84d7ff;}.a{opacity:0.1;}.b{fill:#101010;font-size:14px;font-family:SFProText-Medium, SF Pro Text;font-weight:500;letter-spacing:-0.054em;}</style></defs><g transform="translate(0.216)"><rect class="a" width="188" height="188" transform="translate(-0.216)"/><text class="b" transform="translate(92.784 150)"><tspan x="-49.905" y="0">Tracking system</tspan></text><g transform="translate(63.787 50.061)"><g transform="translate(0.03)"><path class="c" d="M12.906,31.087l-9.1-9.1a12.876,12.876,0,1,1,21.981-9.105,12.792,12.792,0,0,1-3.771,9.105Zm0-27.575A9.365,9.365,0,0,0,6.285,19.5l6.622,6.622L19.528,19.5A9.365,9.365,0,0,0,12.906,3.512Z" transform="translate(-0.03 0)"/></g><g transform="translate(7.054 7.024)"><path class="c" d="M65.885,71.71a5.853,5.853,0,1,1,5.853-5.853A5.86,5.86,0,0,1,65.885,71.71Zm0-8.194a2.341,2.341,0,1,0,2.341,2.341A2.344,2.344,0,0,0,65.885,63.516Z" transform="translate(-60.032 -60.004)"/></g><g transform="translate(41.232 37.33)"><path class="c" d="M361.387,341.523l-6.622-6.622a9.365,9.365,0,1,1,13.244,0Zm-4.139-9.105,4.139,4.139,4.139-4.139a5.853,5.853,0,1,0-8.278,0Z" transform="translate(-352.022 -318.914)"/></g><g transform="translate(11.151 26.848)"><path class="c" d="M125.937,262.445h-19.6a11.3,11.3,0,0,1,0-22.6h6.516a3.485,3.485,0,1,0,0-6.971h-6.813v-3.512h6.813a7,7,0,1,1,0,13.994h-6.516a7.789,7.789,0,0,0,0,15.578h19.6v3.512Z" transform="translate(-95.035 -229.361)"/></g></g></g></svg>