<svg xmlns="http://www.w3.org/2000/svg" width="188" height="188" viewBox="0 0 188 188"><defs><style>.a,.c{fill:#00b3a8;}.a{opacity:0.1;}.b{fill:#101010;font-size:14px;font-family:SFProText-Medium, SF Pro Text;font-weight:500;letter-spacing:-0.054em;}</style></defs><g transform="translate(0.002)"><rect class="a" width="188" height="188" transform="translate(-0.002)"/><text class="b" transform="translate(92.999 150)"><tspan x="-57.778" y="0">Data Management </tspan><tspan x="-38.924" y="18">And Support</tspan></text><g transform="translate(66.999 53)"><g transform="translate(0)"><path class="c" d="M53.583,47.99l-.77-.77a.791.791,0,0,0-1.119,1.118l.658.659L49,52.352l-5.705-5.705,3.356-3.356,2.662,2.662a.791.791,0,0,0,1.119-1.119l-3.22-3.219v0l-2.237-2.237,0,0L42.993,37.4a1.424,1.424,0,0,0-2.014,0l-.112.112-2.83-2.831a21.288,21.288,0,0,0,4.193-8.8H47.8a.791.791,0,0,0,0-1.582H42.511q.1-.755.156-1.525h8.908a.791.791,0,0,0,0-1.582H42.713q-.006-.768-.064-1.525H47.8a.791.791,0,0,0,0-1.582H42.469a21.1,21.1,0,0,0-4.356-9.976.791.791,0,0,0-1.241.982,19.569,19.569,0,0,1,4.261,12.264A19.775,19.775,0,1,1,34.654,6.719a.791.791,0,1,0,1.064-1.171,21.358,21.358,0,1,0-18.4,36.782v5.337a.791.791,0,0,0,1.582,0V42.573q.755.087,1.525.12v8.694a.791.791,0,0,0,1.582,0V42.7q.77-.023,1.525-.1v5.063a.791.791,0,0,0,1.582,0V42.383a21.274,21.274,0,0,0,9.561-4.346l2.831,2.831-.112.112a1.424,1.424,0,0,0,0,2.014l1.975,1.975h0l2.237,2.237h0l6.375,6.375a1.424,1.424,0,0,0,2.014,0L53.583,50a1.424,1.424,0,0,0,0-2.014ZM37,35.881l2.748,2.749L38.63,39.748,35.881,37Q36.461,36.462,37,35.881Zm5.172,9.647L41.054,44.41l3.356-3.356,1.119,1.119Zm-.186-6.9,1.305,1.305-3.356,3.356L38.63,41.986Z" transform="translate(0)"/><path class="c" d="M37.169,62.673a18.555,18.555,0,0,0,11.016,3.713,18.193,18.193,0,0,0,0-36.387,17.979,17.979,0,0,0-12.822,5.336,18.381,18.381,0,0,0-5.372,12.849,17.781,17.781,0,0,0,4.577,12.108.791.791,0,1,0,1.176-1.058A16.2,16.2,0,0,1,31.573,48.2a16.806,16.806,0,0,1,4.911-11.75,16.407,16.407,0,0,1,11.7-4.87A16.611,16.611,0,0,1,48.194,64.8a16.978,16.978,0,0,1-10.074-3.4.791.791,0,0,0-.95,1.265Z" transform="translate(-26.827 -26.836)"/><path class="c" d="M104.837,68.5H99.353a1.214,1.214,0,0,0-1.213,1.213v2.795H93.025a1.214,1.214,0,0,0-1.213,1.213v8.49H90.753a.791.791,0,0,0,0,1.582h22.684a.791.791,0,1,0,0-1.582h-1.059V77.729a1.214,1.214,0,0,0-1.213-1.213H106.05v-6.8A1.214,1.214,0,0,0,104.837,68.5ZM93.394,74.09H98.14v8.121H93.394Zm6.328-4.008h4.746V82.211H99.722ZM110.8,78.1v4.113H106.05V78.1Z" transform="translate(-80.474 -61.275)"/><path class="c" d="M133.659,236.109h-3.724l-1.692-4.325a.791.791,0,0,0-1.478.013l-2.312,6.234-1.616-4.58a.791.791,0,0,0-1.437-.123l-1.552,2.779h-3.714a.791.791,0,0,0,0,1.582h4.178a.791.791,0,0,0,.691-.405l.924-1.655,1.76,4.99a.791.791,0,0,0,.74.528h.006a.791.791,0,0,0,.742-.516l2.35-6.337,1.132,2.894a.791.791,0,0,0,.737.5h4.264a.791.791,0,0,0,0-1.582Z" transform="translate(-103.179 -206.889)"/></g></g></g></svg>