<svg xmlns="http://www.w3.org/2000/svg" width="188" height="188" viewBox="0 0 188 188"><defs><style>.a{fill:#0a81f6;opacity:0.1;}.b{fill:#101010;font-size:14px;font-family:SFProText-Medium, SF Pro Text;font-weight:500;letter-spacing:-0.054em;}.c{fill:#0a85fd;}</style></defs><g transform="translate(0.001)"><rect class="a" width="188" height="188" transform="translate(-0.001)"/><text class="b" transform="translate(94 150)"><tspan x="-84.353" y="0">Better customer experience</tspan></text><g transform="translate(53 46)"><path class="c" d="M60,45H54.5a.5.5,0,0,1-.4-.8A14.583,14.583,0,0,0,57,35.5V35a5.006,5.006,0,0,0-5-5,2,2,0,0,0-2,2v1.725a9.317,9.317,0,0,1-4.7,8.092L39.734,45H37V43H18.981A9.983,9.983,0,1,0,15,46.159V63H37V61h2.808l5,2H60a2.987,2.987,0,0,0,2.22-5,2.954,2.954,0,0,0,0-4,2.954,2.954,0,0,0,0-4A2.987,2.987,0,0,0,60,45ZM3,37a8,8,0,1,1,14.232,5A8,8,0,0,0,14.3,39.726a5,5,0,1,0-6.6,0A8.018,8.018,0,0,0,4.768,42,7.954,7.954,0,0,1,3,37Zm5-1a3,3,0,1,1,3,3A3,3,0,0,1,8,36ZM6.208,43.391a6,6,0,0,1,9.584,0,7.94,7.94,0,0,1-9.584,0ZM17,45H31V61H17ZM35,61H33V45h2Zm25,0H45.192l-5-2H37V47h3.266l6.03-3.446A11.321,11.321,0,0,0,52,33.725V32a3,3,0,0,1,3,3v.5A12.577,12.577,0,0,1,52.5,43a2.5,2.5,0,0,0,2,4H60a1,1,0,0,1,0,2H55v2h5a1,1,0,0,1,0,2H55v2h5a1,1,0,0,1,0,2H55v2h5a1,1,0,0,1,0,2Z"/><path class="c" d="M53,28A10,10,0,1,0,43,18,10.011,10.011,0,0,0,53,28Zm-4.792-3.609a6,6,0,0,1,9.584,0,7.94,7.94,0,0,1-9.584,0ZM50,17a3,3,0,1,1,3,3A3,3,0,0,1,50,17Zm3-7a7.991,7.991,0,0,1,6.232,13A8,8,0,0,0,56.3,20.726a5,5,0,1,0-6.6,0A8.018,8.018,0,0,0,46.768,23,7.991,7.991,0,0,1,53,10Z"/><path class="c" d="M27,29A14,14,0,1,0,13,15,14.015,14.015,0,0,0,27,29Zm0-2a11.961,11.961,0,0,1-8.6-3.647,8.946,8.946,0,0,1,2.427-3.914L22.4,25.7,27,22.25,31.6,25.7l1.566-6.264A8.964,8.964,0,0,1,35.6,23.354,11.964,11.964,0,0,1,27,27ZM23,11a4,4,0,1,1,4,4A4,4,0,0,1,23,11Zm4,8.438L25.135,17.2a8.8,8.8,0,0,1,3.73,0Zm3.9-1.551c.181.086.359.176.533.274L30.4,22.3l-1.953-1.465Zm-7.792,0,2.454,2.945L23.605,22.3l-1.034-4.136C22.745,18.062,22.923,17.973,23.1,17.887ZM27,3A11.983,11.983,0,0,1,37.053,21.531a10.948,10.948,0,0,0-6.286-5.868,6,6,0,1,0-7.535,0,10.945,10.945,0,0,0-6.286,5.868A11.984,11.984,0,0,1,27,3Z"/><path class="c" d="M23,31h2v2H23Z"/><path class="c" d="M27,31H43v2H27Z"/><path class="c" d="M23,35H43v2H23Z"/><path class="c" d="M23,39H41v2H23Z"/><path class="c" d="M19,57h2v2H19Z"/><path class="c" d="M23,57h2v2H23Z"/><path class="c" d="M27,57h2v2H27Z"/></g></g></svg>