<svg xmlns="http://www.w3.org/2000/svg" width="52.753" height="77.25" viewBox="0 0 52.753 77.25"><defs><style>.a{fill:#0079e2;}.b,.c{fill:#3ec0f0;}.c{opacity:0.3;}</style></defs><g transform="translate(0 -0.614)"><path class="a" d="M5.584,5.532c3.624,0,7.211-.037,7.734-1.233l2.69-6.538H35.1L37.751,4.3c.486,1.2,4.072,1.233,7.7,1.233,3.213,0,6.463-.075,6.463-1.42a1.022,1.022,0,0,0-.149-.523L27.738-46.623c-.374-.747-1.27-.747-2.2-.747s-1.868,0-2.242.747L-.693,3.552a1.255,1.255,0,0,0-.149.56C-.842,5.532,2.371,5.532,5.584,5.532ZM25.609-24.281l5.006,11.656H20.6Z" transform="translate(0.842 72.332)"/><g transform="matrix(0.998, 0.07, -0.07, 0.998, 5.042, 0)"><path class="b" d="M2.672,0,0,14.294l7.574,3.548,3.781-12.8S6.9.776,2.672,0Z" transform="translate(8.805 0)"/><path class="b" d="M1.8,0,0,56.554,11.178,3.682S6.132.133,1.8,0Z" transform="translate(0 15.724)"/><path class="c" d="M8.7,0,0,39.773,13.4,3.314A6.085,6.085,0,0,0,11.6.829,5.778,5.778,0,0,0,8.7,0Z" transform="translate(3.489 23.092)"/></g></g></svg>