<svg xmlns="http://www.w3.org/2000/svg" width="92.46" height="166.451" viewBox="0 0 92.46 166.451"><defs><style>.a{fill:#232856;}.b{fill:#3ec0f0;}</style></defs><path class="a" d="M62.23,93.29a15.49,15.49,0,1,1,.41-5.59H78.77A31.92,31.92,0,0,0,47,59H44.54l12.2-28.16A25.17,25.17,0,0,0,56.52,10C54.44,5.66,51.17,2.08,47,.62L45.22,0,18.57,76.38A31.93,31.93,0,1,0,78.85,93.29Z"/><path class="b" d="M29.6,6.36,27.22,19.25l6.83,3.2,3.42-11.54S33.45,7.06,29.6,6.36Z"/><path class="b" d="M20.91,20.54l-1.62,51L29.37,23.86S24.82,20.66,20.91,20.54Z"/><path class="a" d="M36,136.7a9,9,0,0,0-3.19-1.48,18.4,18.4,0,0,0-4.68-.51H17.37L13.5,166.06H25.2a15,15,0,0,0,5.1-.81,11.58,11.58,0,0,0,3.82-2.2,9.47,9.47,0,0,0,2.4-3.28,10.14,10.14,0,0,0,.83-4.06A5.55,5.55,0,0,0,36.13,152a7.16,7.16,0,0,0-3.76-2.14,10.52,10.52,0,0,0,2.76-1.39,8.32,8.32,0,0,0,1.87-1.8,7,7,0,0,0,1-2.2,9.12,9.12,0,0,0,.34-2.49,7.6,7.6,0,0,0-.57-3A5.67,5.67,0,0,0,36,136.7Zm-5.83,21.08a4.22,4.22,0,0,1-.8,1.58,3.65,3.65,0,0,1-1.43,1,5.55,5.55,0,0,1-2.17.38H21.16l1-8.11h4.52a6,6,0,0,1,1.78.22,3.06,3.06,0,0,1,1.16.63,2.13,2.13,0,0,1,.62,1,4.4,4.4,0,0,1,.19,1.3A7.85,7.85,0,0,1,30.17,157.78Zm1.06-14.66a6.71,6.71,0,0,1-.36,2.35A3.79,3.79,0,0,1,29.82,147a3.93,3.93,0,0,1-1.62.81,8.488,8.488,0,0,1-2.13.24H22.71l1-8.09h3.78a4.48,4.48,0,0,1,2.83.72,2.92,2.92,0,0,1,.91,2.44Z"/><path class="a" d="M88.94,150.05a7.36,7.36,0,0,0-1.83-1.4,19.8,19.8,0,0,0-2.08-1c-.71-.28-1.41-.55-2.08-.79a14.819,14.819,0,0,1-1.82-.81,4.41,4.41,0,0,1-1.29-1,2.16,2.16,0,0,1-.48-1.44,4.09,4.09,0,0,1,.24-1.47,3.26,3.26,0,0,1,.75-1.16,3.53,3.53,0,0,1,1.23-.78,5.16,5.16,0,0,1,1.74-.28,5.22,5.22,0,0,1,1.87.32,9.361,9.361,0,0,1,1.41.72c.41.25.78.49,1.11.71a1.82,1.82,0,0,0,1,.32,1.58,1.58,0,0,0,.9-.24,2.78,2.78,0,0,0,.74-.75l2.11-2.88a8.19,8.19,0,0,0-1.53-1.47,10.61,10.61,0,0,0-2-1.18,12.289,12.289,0,0,0-2.36-.77,11.29,11.29,0,0,0-2.59-.28,11.75,11.75,0,0,0-4.69.88,10.91,10.91,0,0,0-3.56,2.36,10.67,10.67,0,0,0-3,7.43,8.46,8.46,0,0,0,.48,3,6.59,6.59,0,0,0,1.27,2.09,6.7,6.7,0,0,0,1.8,1.38,19.16,19.16,0,0,0,2.07.92l2.06.72a10.559,10.559,0,0,1,1.8.76,4,4,0,0,1,1.27,1.06,2.45,2.45,0,0,1,.48,1.59,4.27,4.27,0,0,1-1.06,3.15,4.1,4.1,0,0,1-3,1.07,5.39,5.39,0,0,1-2.25-.42,9.9,9.9,0,0,1-1.61-.93l-1.26-.92a1.84,1.84,0,0,0-1.17-.42,1.91,1.91,0,0,0-.9.23,2.14,2.14,0,0,0-.73.6l-2.5,3.28A8.86,8.86,0,0,0,71.24,164a13.6,13.6,0,0,0,2.33,1.3,14.411,14.411,0,0,0,2.63.85,12.46,12.46,0,0,0,2.72.3,12.72,12.72,0,0,0,4.92-.92A11.19,11.19,0,0,0,87.55,163a10.8,10.8,0,0,0,2.35-3.64,12.12,12.12,0,0,0,.82-4.46,7.46,7.46,0,0,0-.49-2.84,6.22,6.22,0,0,0-1.29-2.01Z"/><path class="a" d="M70.14,148.37a15.79,15.79,0,0,0-.92-5.49,13.09,13.09,0,0,0-2.62-4.45,12.2,12.2,0,0,0-4.18-3,13.65,13.65,0,0,0-5.54-1.08,17.181,17.181,0,0,0-4.73.63,16.8,16.8,0,0,0-4.15,1.8,16.41,16.41,0,0,0-3.47,2.79,16.93,16.93,0,0,0-2.64,3.64,18.69,18.69,0,0,0-1.68,4.33,20.06,20.06,0,0,0-.59,4.88,16.37,16.37,0,0,0,.92,5.5,13.12,13.12,0,0,0,2.63,4.43,12.51,12.51,0,0,0,4.19,3,13.46,13.46,0,0,0,5.57,1.08A17,17,0,0,0,61.79,164a16.25,16.25,0,0,0,3.46-2.78,17.71,17.71,0,0,0,2.62-3.64,18.69,18.69,0,0,0,1.68-4.33A19.42,19.42,0,0,0,70.14,148.37Zm-7.83,5.18a11.85,11.85,0,0,1-1.84,3.88,8.38,8.38,0,0,1-2.9,2.49,8.27,8.27,0,0,1-3.87.89,6.72,6.72,0,0,1-3-.62,5.94,5.94,0,0,1-2.16-1.73,7.68,7.68,0,0,1-1.32-2.69,12.21,12.21,0,0,1-.45-3.51,18.53,18.53,0,0,1,.63-5,12,12,0,0,1,1.83-3.89,8.48,8.48,0,0,1,2.89-2.5A8.2,8.2,0,0,1,56,140a6.89,6.89,0,0,1,2.93.62,6.17,6.17,0,0,1,2.19,1.74A7.93,7.93,0,0,1,62.49,145a12.34,12.34,0,0,1,.46,3.52,18,18,0,0,1-.64,5.03Z"/><path class="b" d="M0,165.95H6.58l2.67-22.32H2.67Z"/><path class="b" d="M9.29,134.75A4.09,4.09,0,0,0,8,133.91a3.8,3.8,0,0,0-1.48-.3,3.47,3.47,0,0,0-1.45.31,4.17,4.17,0,0,0-1.23.85A4,4,0,0,0,3,136a3.76,3.76,0,0,0-.32,1.51A3.67,3.67,0,0,0,3,139a4.32,4.32,0,0,0,.85,1.22,4,4,0,0,0,1.22.84,3.39,3.39,0,0,0,1.44.31A3.53,3.53,0,0,0,8,141.08a4.24,4.24,0,0,0,1.28-.84,4.19,4.19,0,0,0,.91-1.22,3.39,3.39,0,0,0,.34-1.5A3.44,3.44,0,0,0,10.2,136,4.41,4.41,0,0,0,9.29,134.75Z"/></svg>