<svg xmlns="http://www.w3.org/2000/svg" xmlns:xlink="http://www.w3.org/1999/xlink" width="156" height="156" viewBox="0 0 156 156"><defs><style>.a{fill:#fff;}.b{fill:#344154;}.c{fill:#ecb69a;}.d{fill:#f9ba48;}.e{fill:#4789ff;}.f{filter:url(#a);}</style><filter id="a" x="0" y="0" width="156" height="156" filterUnits="userSpaceOnUse"><feOffset dy="18" input="SourceAlpha"/><feGaussianBlur stdDeviation="14.5" result="b"/><feFlood flood-color="#959595" flood-opacity="0.161"/><feComposite operator="in" in2="b"/><feComposite in="SourceGraphic"/></filter></defs><g transform="translate(-25.5 -260.5)"><g class="f" transform="matrix(1, 0, 0, 1, 25.5, 260.5)"><circle class="a" cx="34.5" cy="34.5" r="34.5" transform="translate(43.5 25.5)"/></g><g transform="translate(-2222.998 -817.83)"><g transform="translate(2320.794 1141.735)"><path class="b" d="M2346.9,1195.924a.561.561,0,0,1-.4-.957l5.3-5.3a.561.561,0,0,1,.793.793l-5.3,5.3A.558.558,0,0,1,2346.9,1195.924Z" transform="translate(-2346.342 -1189.5)"/></g><g transform="translate(2326.095 1135.886)"><path class="b" d="M2366.311,1186.053a.558.558,0,0,1-.4-.164l-5.228-5.228a.562.562,0,0,1-.165-.4v-5.85a.561.561,0,0,1,1.122,0v5.618l5.064,5.064a.561.561,0,0,1-.4.957Z" transform="translate(-2360.522 -1173.854)"/></g><g transform="translate(2329.57 1126.421)"><path class="b" d="M2370.378,1155.412a.561.561,0,0,1-.561-.561V1149.1a.561.561,0,1,1,1.122,0v5.751A.561.561,0,0,1,2370.378,1155.412Z" transform="translate(-2369.817 -1148.539)"/></g><g transform="translate(2322.526 1126.421)"><path class="b" d="M2358.579,1155.412h-7.044a.561.561,0,0,1-.561-.561V1149.1a.561.561,0,0,1,1.122,0v5.191h6.484a.561.561,0,1,1,0,1.122Z" transform="translate(-2350.974 -1148.539)"/></g><g transform="translate(2322.825 1113.215)"><path class="b" d="M2355.607,1120.877a3.831,3.831,0,1,1,3.831-3.831A3.836,3.836,0,0,1,2355.607,1120.877Zm0-6.541a2.709,2.709,0,1,0,2.71,2.709A2.713,2.713,0,0,0,2355.607,1114.336Z" transform="translate(-2351.776 -1113.215)"/></g><g transform="translate(2319.871 1121.784)"><path class="b" d="M2344.432,1147.646a.561.561,0,0,1-.561-.561v-8.261a2.691,2.691,0,0,1,2.688-2.688h8.2a2.691,2.691,0,0,1,2.688,2.688v7.463a.561.561,0,0,1-1.122,0v-7.463a1.568,1.568,0,0,0-1.566-1.566h-8.2a1.568,1.568,0,0,0-1.567,1.566v8.261A.561.561,0,0,1,2344.432,1147.646Z" transform="translate(-2343.872 -1136.136)"/></g><g transform="translate(2315.239 1153.382)"><path class="b" d="M2332.044,1227.526a.561.561,0,0,1-.561-.561v-5.752a.561.561,0,0,1,1.122,0v5.752A.561.561,0,0,1,2332.044,1227.526Z" transform="translate(-2331.484 -1220.652)"/></g><g transform="translate(2308.194 1153.382)"><path class="b" d="M2320.246,1227.526H2313.2a.561.561,0,0,1-.561-.561v-5.752a.561.561,0,0,1,1.122,0v5.191h6.484a.561.561,0,1,1,0,1.122Z" transform="translate(-2312.641 -1220.652)"/></g><g transform="translate(2308.494 1140.176)"><path class="b" d="M2317.273,1192.991a3.831,3.831,0,1,1,3.831-3.831A3.835,3.835,0,0,1,2317.273,1192.991Zm0-6.541a2.709,2.709,0,1,0,2.709,2.709A2.712,2.712,0,0,0,2317.273,1186.45Z" transform="translate(-2313.442 -1185.329)"/></g><g transform="translate(2305.539 1148.745)"><path class="b" d="M2306.1,1219.76a.561.561,0,0,1-.561-.561v-8.262a2.691,2.691,0,0,1,2.688-2.688h8.2a2.691,2.691,0,0,1,2.688,2.688v7.463a.561.561,0,1,1-1.122,0v-7.463a1.568,1.568,0,0,0-1.566-1.566h-8.2a1.568,1.568,0,0,0-1.567,1.566v8.262A.561.561,0,0,1,2306.1,1219.76Z" transform="translate(-2305.539 -1208.25)"/></g><g transform="translate(2344.117 1153.382)"><path class="b" d="M2409.286,1227.526a.561.561,0,0,1-.561-.561v-5.752a.561.561,0,0,1,1.122,0v5.752A.561.561,0,0,1,2409.286,1227.526Z" transform="translate(-2408.725 -1220.652)"/></g><g transform="translate(2337.072 1153.382)"><path class="b" d="M2397.487,1227.526h-7.045a.561.561,0,0,1-.561-.561v-5.752a.561.561,0,0,1,1.122,0v5.191h6.484a.561.561,0,0,1,0,1.122Z" transform="translate(-2389.881 -1220.652)"/></g><g transform="translate(2337.371 1140.176)"><path class="b" d="M2394.514,1192.991a3.831,3.831,0,1,1,3.831-3.831A3.835,3.835,0,0,1,2394.514,1192.991Zm0-6.541a2.709,2.709,0,1,0,2.709,2.709A2.713,2.713,0,0,0,2394.514,1186.45Z" transform="translate(-2390.683 -1185.329)"/></g><g transform="translate(2334.416 1148.745)"><path class="b" d="M2383.34,1219.76a.561.561,0,0,1-.561-.561v-8.262a2.691,2.691,0,0,1,2.688-2.688h8.2a2.691,2.691,0,0,1,2.688,2.688v7.463a.561.561,0,1,1-1.122,0v-7.463a1.568,1.568,0,0,0-1.566-1.566h-8.2a1.568,1.568,0,0,0-1.566,1.566v8.262A.561.561,0,0,1,2383.34,1219.76Z" transform="translate(-2382.779 -1208.25)"/></g><g transform="translate(2310.083 1149.941)"><path class="c" d="M2321.768,1221.435l2.241-1.907-1.3-5.182h-1.881l-1.3,5.182,2.242,1.907Z" transform="translate(-2319.526 -1214.346)"/></g><g transform="translate(2324.042 1122.28)"><path class="d" d="M2360.474,1150.2l2.614-2.224-1.517-6.043h-2.194l-1.518,6.043,2.615,2.224Z" transform="translate(-2357.859 -1141.935)"/></g><g transform="translate(2339.027 1149.942)"><path class="e" d="M2398.94,1220.942l2.175-1.85-1.262-5.027h-1.825l-1.262,5.027,2.174,1.85Z" transform="translate(-2396.766 -1214.065)"/></g></g></g></svg>