<svg xmlns="http://www.w3.org/2000/svg" xmlns:xlink="http://www.w3.org/1999/xlink" width="156" height="156" viewBox="0 0 156 156"><defs><style>.a{fill:#fff;}.b{fill:#344154;}.c{fill:#73c5fb;}.d{filter:url(#a);}</style><filter id="a" x="0" y="0" width="156" height="156" filterUnits="userSpaceOnUse"><feOffset dy="18" input="SourceAlpha"/><feGaussianBlur stdDeviation="14.5" result="b"/><feFlood flood-color="#959595" flood-opacity="0.161"/><feComposite operator="in" in2="b"/><feComposite in="SourceGraphic"/></filter></defs><g transform="translate(-372.5 -260.5)"><g class="d" transform="matrix(1, 0, 0, 1, 372.5, 260.5)"><circle class="a" cx="34.5" cy="34.5" r="34.5" transform="translate(43.5 25.5)"/></g><g transform="translate(-2425.637 -258.929)"><g transform="translate(2862.127 564.787)"><path class="b" d="M2899.616,609.574H2866.3a.466.466,0,0,1-.466-.466v-32.5a.466.466,0,0,1,.933,0v32.029h32.852a.466.466,0,0,1,0,.933Z" transform="translate(-2865.831 -576.146)"/></g><g transform="translate(2884.708 587.096)"><path class="b" d="M2947.218,648.846h-8.276a.466.466,0,1,1,0-.933h8.276a.466.466,0,1,1,0,.933Z" transform="translate(-2938.475 -647.913)"/></g><g transform="translate(2884.708 590.466)"><path class="b" d="M2947.218,659.688h-8.276a.466.466,0,1,1,0-.933h8.276a.466.466,0,1,1,0,.933Z" transform="translate(-2938.475 -658.755)"/></g><g transform="translate(2884.708 593.836)"><path class="b" d="M2947.218,670.529h-8.276a.466.466,0,1,1,0-.933h8.276a.466.466,0,1,1,0,.933Z" transform="translate(-2938.475 -669.596)"/></g><g transform="translate(2883.828 559.664)"><g transform="translate(3.665)"><path class="b" d="M2950.106,565a2.668,2.668,0,1,1,2.667-2.668A2.671,2.671,0,0,1,2950.106,565Zm0-4.4a1.735,1.735,0,1,0,1.735,1.735A1.737,1.737,0,0,0,2950.106,560.6Z" transform="translate(-2947.438 -559.664)"/></g><g transform="translate(4.292 14.455)"><path class="b" d="M2949.92,614.744a.466.466,0,0,1-.466-.466v-7.644a.466.466,0,0,1,.933,0v7.644A.466.466,0,0,1,2949.92,614.744Z" transform="translate(-2949.454 -606.167)"/></g><g transform="translate(7.442 14.455)"><path class="b" d="M2960.053,614.613a.467.467,0,0,1-.466-.466v-7.514a.466.466,0,0,1,.933,0v7.514A.467.467,0,0,1,2960.053,614.613Z" transform="translate(-2959.587 -606.167)"/></g><g transform="translate(0 7.975)"><path class="b" d="M2940.354,588.8h-4.241a.466.466,0,1,1,0-.932h4.241a1.161,1.161,0,0,0,1.159-1.159v-.918a.466.466,0,0,1,.933,0v.918A2.094,2.094,0,0,1,2940.354,588.8Z" transform="translate(-2935.646 -585.319)"/></g><g transform="translate(2.922 21.969)"><path class="b" d="M2950.033,633.364a.466.466,0,0,1-.466-.466v-1.626h-1.961a1.628,1.628,0,0,0-1.626,1.626.466.466,0,1,1-.932,0,2.562,2.562,0,0,1,2.559-2.559h2.427a.466.466,0,0,1,.466.466V632.9A.466.466,0,0,1,2950.033,633.364Z" transform="translate(-2945.047 -630.339)"/></g><g transform="translate(3.316 5.714)"><path class="b" d="M2950.907,587.72h-3.15a.467.467,0,0,1-.412-.247,8.743,8.743,0,0,1-.929-2.8.466.466,0,1,1,.921-.141,7.829,7.829,0,0,0,.7,2.253h2.579a7.868,7.868,0,0,0,.795-3.439v-2.286a2.084,2.084,0,0,0-4.169,0v1.058a.466.466,0,0,1-.933,0v-1.058a3.017,3.017,0,0,1,6.034,0v2.286a8.8,8.8,0,0,1-1.031,4.124A.467.467,0,0,1,2950.907,587.72Z" transform="translate(-2946.315 -578.047)"/></g></g><g transform="translate(2884.708 583.725)"><path class="b" d="M2947.218,651.561a.466.466,0,0,1-.466-.466V638h-7.344v13.091a.466.466,0,0,1-.933,0V637.537a.466.466,0,0,1,.466-.466h8.276a.467.467,0,0,1,.466.466v13.557A.466.466,0,0,1,2947.218,651.561Z" transform="translate(-2938.475 -637.071)"/></g><g transform="translate(2860.456 562.391)"><path class="b" d="M2860.923,571.066a.466.466,0,0,1-.33-.8l1.7-1.7a.468.468,0,0,1,.33-.137h0a.468.468,0,0,1,.33.137l1.645,1.651a.466.466,0,1,1-.66.658l-1.315-1.32-1.366,1.366A.465.465,0,0,1,2860.923,571.066Z" transform="translate(-2860.457 -568.437)"/></g><g transform="translate(2877.875 568.325)"><path class="b" d="M2920.279,590.316a.466.466,0,0,1-.372-.185l-1.125-1.485-1.538,1.17a.466.466,0,0,1-.565-.742l1.91-1.453a.466.466,0,0,1,.654.09l1.407,1.858a.466.466,0,0,1-.371.748Z" transform="translate(-2916.495 -587.526)"/></g><g transform="translate(2860.456 567.624)"><path class="b" d="M2864.264,586.2h-3.342a.466.466,0,1,1,0-.932h3.342a.466.466,0,1,1,0,.932Z" transform="translate(-2860.456 -585.271)"/></g><g transform="translate(2860.456 572.636)"><path class="b" d="M2864.264,602.328h-3.342a.466.466,0,1,1,0-.932h3.342a.466.466,0,1,1,0,.932Z" transform="translate(-2860.456 -601.396)"/></g><g transform="translate(2860.456 577.648)"><path class="b" d="M2864.264,618.453h-3.342a.466.466,0,1,1,0-.932h3.342a.466.466,0,1,1,0,.932Z" transform="translate(-2860.456 -617.521)"/></g><g transform="translate(2860.456 582.661)"><path class="b" d="M2864.264,634.578h-3.342a.466.466,0,1,1,0-.932h3.342a.466.466,0,1,1,0,.932Z" transform="translate(-2860.456 -633.646)"/></g><g transform="translate(2860.456 587.673)"><path class="b" d="M2864.264,650.7h-3.342a.466.466,0,1,1,0-.933h3.342a.466.466,0,1,1,0,.933Z" transform="translate(-2860.456 -649.771)"/></g><g transform="translate(2860.456 592.685)"><path class="b" d="M2864.264,666.828h-3.342a.466.466,0,1,1,0-.932h3.342a.466.466,0,1,1,0,.932Z" transform="translate(-2860.456 -665.896)"/></g><g transform="translate(2866.323 570.592)"><path class="b" d="M2879.8,617.846a.467.467,0,0,1-.443-.613l1.632-4.944a.467.467,0,0,1,.443-.32h3.129l2.324-9.736a.466.466,0,0,1,.454-.358h3.737l1.394-6.685a.466.466,0,0,1,.913.19l-1.471,7.056a.467.467,0,0,1-.457.371H2887.7l-2.324,9.735a.466.466,0,0,1-.453.358h-3.16l-1.526,4.623A.467.467,0,0,1,2879.8,617.846Z" transform="translate(-2879.33 -594.82)"/></g><g transform="translate(2865.493 577.648)"><g transform="translate(6.323 0)"><path class="b" d="M2897.466,618.453a.468.468,0,0,1-.093-.009c-.028-.006-.059-.016-.087-.025a.62.62,0,0,1-.078-.044.469.469,0,0,1-.208-.388.414.414,0,0,1,.009-.09.407.407,0,0,1,.024-.087.7.7,0,0,1,.044-.081.457.457,0,0,1,.059-.071.471.471,0,0,1,.072-.059.367.367,0,0,1,.078-.04.462.462,0,0,1,.087-.028.471.471,0,0,1,.423.127.325.325,0,0,1,.056.071.287.287,0,0,1,.043.081.4.4,0,0,1,.028.087.432.432,0,0,1,0,.18.4.4,0,0,1-.028.087.25.25,0,0,1-.043.081.326.326,0,0,1-.056.071A.471.471,0,0,1,2897.466,618.453Z" transform="translate(-2897 -617.521)"/></g><g transform="translate(2.108 0)"><path class="b" d="M2886.019,618.453h0a.466.466,0,1,1,.468-.466A.466.466,0,0,1,2886.015,618.453Zm-2.107,0h0a.466.466,0,1,1,.468-.466A.467.467,0,0,1,2883.908,618.453Z" transform="translate(-2883.442 -617.521)"/></g><path class="b" d="M2877.126,618.453a.465.465,0,0,1-.09-.009c-.028-.006-.059-.016-.087-.025a.666.666,0,0,1-.081-.044.647.647,0,0,1-.071-.059.47.47,0,0,1-.137-.329.465.465,0,0,1,.009-.09.444.444,0,0,1,.028-.087.388.388,0,0,1,.043-.081.409.409,0,0,1,.056-.071.654.654,0,0,1,.071-.059.392.392,0,0,1,.081-.04.442.442,0,0,1,.27-.028.472.472,0,0,1,.087.028.392.392,0,0,1,.081.04.608.608,0,0,1,.071.059.387.387,0,0,1,.056.071.4.4,0,0,1,.044.081.407.407,0,0,1,.025.087.446.446,0,0,1,.009.09.474.474,0,0,1-.134.329.6.6,0,0,1-.071.059.666.666,0,0,1-.081.044c-.028.009-.059.019-.087.025A.476.476,0,0,1,2877.126,618.453Z" transform="translate(-2876.66 -617.52)"/></g><g transform="translate(2865.493 567.623)"><g transform="translate(11.05 0)"><path class="b" d="M2912.676,586.2a.472.472,0,0,1-.093-.009.893.893,0,0,1-.087-.025.669.669,0,0,1-.081-.044.442.442,0,0,1-.069-.059.467.467,0,0,1-.136-.329.473.473,0,0,1,.136-.33.448.448,0,0,1,.069-.059.4.4,0,0,1,.081-.04.456.456,0,0,1,.087-.028.466.466,0,1,1,.093.923Z" transform="translate(-2912.21 -585.271)"/></g><g transform="translate(1.859)"><path class="b" d="M2889.991,585.736a.466.466,0,0,1,.466-.466h0a.466.466,0,0,1,.466.466h0a.466.466,0,0,1-.466.466h0A.466.466,0,0,1,2889.991,585.736Zm-1.837,0a.466.466,0,0,1,.466-.466h0a.465.465,0,0,1,.466.466h0a.465.465,0,0,1-.466.466h0A.466.466,0,0,1,2888.154,585.736Zm-1.837,0a.465.465,0,0,1,.463-.466h0a.465.465,0,0,1,.466.466h0a.465.465,0,0,1-.466.466h0A.465.465,0,0,1,2886.317,585.736Zm-1.84,0a.466.466,0,0,1,.466-.466h0a.466.466,0,0,1,.466.466h0a.466.466,0,0,1-.466.466h0A.466.466,0,0,1,2884.477,585.736Zm-1.837,0a.466.466,0,0,1,.466-.466h0a.466.466,0,0,1,.466.466h0a.466.466,0,0,1-.466.466h0A.466.466,0,0,1,2882.64,585.736Z" transform="translate(-2882.64 -585.27)"/></g><path class="b" d="M2877.126,586.2a.465.465,0,0,1-.09-.009.891.891,0,0,1-.087-.025.666.666,0,0,1-.081-.044.647.647,0,0,1-.071-.059.323.323,0,0,1-.056-.072.388.388,0,0,1-.043-.081.446.446,0,0,1-.028-.087.465.465,0,0,1-.009-.09.47.47,0,0,1,.137-.33.653.653,0,0,1,.071-.059.4.4,0,0,1,.081-.04.469.469,0,0,1,.087-.028.457.457,0,0,1,.183,0,.481.481,0,0,1,.087.028.4.4,0,0,1,.081.04.607.607,0,0,1,.071.059.472.472,0,0,1,0,.659.6.6,0,0,1-.071.059.666.666,0,0,1-.081.044c-.028.009-.059.019-.087.025A.476.476,0,0,1,2877.126,586.2Z" transform="translate(-2876.66 -585.27)"/></g><g transform="translate(2869.218 573.102)"><path class="c" d="M2900.82,602.9l-1.125,5.393-.31,1.484h-4.16l-2.067,8.661-.342,1.432H2889.2l-.552,1.671h5.812l2.409-10.243h3.626l1.826-8.4Z" transform="translate(-2888.644 -602.896)"/></g></g></g></svg>