<svg xmlns="http://www.w3.org/2000/svg" xmlns:xlink="http://www.w3.org/1999/xlink" width="156" height="156" viewBox="0 0 156 156"><defs><style>.a{fill:#fff;}.b{fill:#344154;}.c{fill:#f9ba48;}.d{filter:url(#a);}</style><filter id="a" x="0" y="0" width="156" height="156" filterUnits="userSpaceOnUse"><feOffset dy="18" input="SourceAlpha"/><feGaussianBlur stdDeviation="14.5" result="b"/><feFlood flood-color="#959595" flood-opacity="0.161"/><feComposite operator="in" in2="b"/><feComposite in="SourceGraphic"/></filter></defs><g transform="translate(-25.5 -387.5)"><g class="d" transform="matrix(1, 0, 0, 1, 25.5, 387.5)"><circle class="a" cx="34.5" cy="34.5" r="34.5" transform="translate(43.5 25.5)"/></g><g transform="translate(-1852.291 -504.81)"><g transform="translate(1956.477 949.875)"><path class="b" d="M2004.438,997.719a.5.5,0,0,1-.358-.148l-8.807-8.807a.506.506,0,0,1,0-.715l.938-.937a.505.505,0,1,1,.715.715l-.58.58,8.092,8.093,5.192-5.192-8.093-8.092-1.519,1.519a.506.506,0,0,1-.715-.715l1.877-1.876a.505.505,0,0,1,.715,0l8.808,8.807a.506.506,0,0,1,0,.715l-5.907,5.907A.5.5,0,0,1,2004.438,997.719Z" transform="translate(-1995.125 -981.995)"/></g><g transform="translate(1964.752 955.875)"><path class="b" d="M2023.431,1004.054a.5.5,0,0,1-.358-.148l-3.245-3.245a.505.505,0,0,1,.715-.715l3.245,3.245a.505.505,0,0,1-.357.863Z" transform="translate(-2019.68 -999.799)"/></g><g transform="translate(1963.614 957.012)"><path class="b" d="M2020.055,1007.43a.5.5,0,0,1-.358-.148l-3.245-3.245a.505.505,0,0,1,.715-.715l3.245,3.245a.505.505,0,0,1-.357.863Z" transform="translate(-2016.304 -1003.174)"/></g><g transform="translate(1962.477 958.15)"><path class="b" d="M2016.68,1010.806a.5.5,0,0,1-.358-.148l-3.245-3.245a.505.505,0,0,1,.715-.715l3.245,3.245a.506.506,0,0,1-.357.863Z" transform="translate(-2012.929 -1006.55)"/></g><g transform="translate(1939.419 945.16)"><path class="b" d="M1962.07,996.937a.5.5,0,0,1-.167-.029l-17.058-5.99a.506.506,0,0,1-.338-.477V968.51a.505.505,0,0,1,1.011,0v21.573l16.72,5.872a.506.506,0,0,1-.167.983Z" transform="translate(-1944.507 -968.004)"/></g><g transform="translate(1939.419 945.16)"><path class="b" d="M1957.467,973.3a.506.506,0,0,1-.165-.028l-12.455-4.284a.506.506,0,0,1,.329-.956l12.455,4.284a.506.506,0,0,1-.164.984Z" transform="translate(-1944.507 -968.005)"/></g><g transform="translate(1956.477 945.16)"><path class="b" d="M1995.63,996.937a.505.505,0,0,1-.505-.505v-13.52a.505.505,0,0,1,1.011,0v12.807l16.047-5.636V968.51a.505.505,0,1,1,1.011,0v21.931a.506.506,0,0,1-.338.477l-17.058,5.99A.5.5,0,0,1,1995.63,996.937Z" transform="translate(-1995.125 -968.004)"/></g><g transform="translate(1956.477 949.972)"><path class="b" d="M1995.63,984.255a.505.505,0,0,1-.162-.984l2.837-.96a.506.506,0,1,1,.324.958l-2.837.96A.513.513,0,0,1,1995.63,984.255Z" transform="translate(-1995.124 -982.283)"/></g><g transform="translate(1964.099 945.16)"><path class="b" d="M2018.249,972.208a.505.505,0,0,1-.162-.984l9.435-3.193a.505.505,0,1,1,.324.958l-9.435,3.193A.5.5,0,0,1,2018.249,972.208Z" transform="translate(-2017.744 -968.003)"/></g><g transform="translate(1939.419 940.794)"><path class="b" d="M1979.128,960.426a.523.523,0,0,1-.126-.016l-16.932-4.334-16.932,4.334a.506.506,0,0,1-.251-.98l17.058-4.366a.5.5,0,0,1,.251,0l17.058,4.366a.506.506,0,0,1-.125,1Z" transform="translate(-1944.507 -955.049)"/></g><g transform="translate(1936.833 933.549)"><path class="b" d="M1939.924,946.172a.506.506,0,0,1-.476-.336l-2.586-7.245a.506.506,0,0,1,.351-.66l17.058-4.366a.507.507,0,0,1,.6.32l2.586,7.245a.506.506,0,0,1-.952.34l-2.431-6.811L1938,938.773l2.4,6.723a.506.506,0,0,1-.306.646A.5.5,0,0,1,1939.924,946.172Z" transform="translate(-1936.833 -933.55)"/></g><g transform="translate(1957.709 933.549)"><path class="b" d="M2015.113,946.171a.506.506,0,0,1-.476-.676l2.4-6.723-16.074-4.114-1.2,3.358a.506.506,0,0,1-.952-.34l1.353-3.792a.506.506,0,0,1,.6-.32l17.058,4.366a.506.506,0,0,1,.351.659l-2.586,7.245A.506.506,0,0,1,2015.113,946.171Z" transform="translate(-1998.783 -933.549)"/></g><g transform="translate(1954.185 947.588)"><path class="b" d="M1993,981.89a5.964,5.964,0,0,1-.975-.078,4.736,4.736,0,0,1-2.659-1.355,3.662,3.662,0,0,1-1.017-2.878,2.634,2.634,0,0,1,1.063-1.828,2.785,2.785,0,0,1,2.133-.5,4.014,4.014,0,0,1,1.3.425,3.163,3.163,0,0,1,1.62,2.067.506.506,0,0,1-.992.2,2.165,2.165,0,0,0-1.126-1.383,3.1,3.1,0,0,0-.983-.31,1.77,1.77,0,0,0-1.356.319,1.615,1.615,0,0,0-.657,1.106,2.649,2.649,0,0,0,.743,2.09,3.725,3.725,0,0,0,2.092,1.054,5.91,5.91,0,0,0,2.473-.165.506.506,0,0,1,.257.978A7.565,7.565,0,0,1,1993,981.89Z" transform="translate(-1988.325 -975.208)"/></g><g transform="translate(1940.069 947.807)"><path class="c" d="M1967.816,1010.53a18.687,18.687,0,0,0-4.738-6.08c-1.779-1.485-3.9-2.725-4.958-4.787s-.82-4.523-1.2-6.81a12.57,12.57,0,0,0-4.909-7.957v20.083Z" transform="translate(-1952.007 -984.895)"/></g></g></g></svg>