<svg xmlns="http://www.w3.org/2000/svg" xmlns:xlink="http://www.w3.org/1999/xlink" width="156" height="156" viewBox="0 0 156 156"><defs><style>.a{fill:#fff;}.b{fill:#344154;}.c{fill:#4789ff;}.d{filter:url(#a);}</style><filter id="a" x="0" y="0" width="156" height="156" filterUnits="userSpaceOnUse"><feOffset dy="18" input="SourceAlpha"/><feGaussianBlur stdDeviation="14.5" result="b"/><feFlood flood-color="#959595" flood-opacity="0.161"/><feComposite operator="in" in2="b"/><feComposite in="SourceGraphic"/></filter></defs><g transform="translate(-372.5 -387.5)"><g class="d" transform="matrix(1, 0, 0, 1, 372.5, 387.5)"><circle class="a" cx="34.5" cy="34.5" r="34.5" transform="translate(43.5 25.5)"/></g><g transform="translate(-2976.447 -495.573)"><g transform="translate(3403.956 921.191)"><path class="b" d="M3417.055,956.817a.494.494,0,0,1-.142-.021,18.176,18.176,0,1,1,23.252-15.011.5.5,0,1,1-.982-.13,17.448,17.448,0,0,0,.15-2.28,17.193,17.193,0,1,0-22.136,16.472.5.5,0,0,1-.142.97Z" transform="translate(-3403.956 -921.191)"/></g><g transform="translate(3413.399 930.634)"><path class="b" d="M3436.2,965.513a.492.492,0,0,1-.305-.106,8.741,8.741,0,1,1,14.137-6.876,8.817,8.817,0,0,1-.178,1.761.5.5,0,1,1-.97-.2,7.751,7.751,0,1,0-15.343-1.562,7.711,7.711,0,0,0,2.965,6.1.5.5,0,0,1-.306.885Z" transform="translate(-3432.555 -949.79)"/></g><g transform="translate(3442.4 957.431)"><path class="b" d="M3524.9,1031.935h-4.021a.5.5,0,1,1,0-.991h4.021a.5.5,0,1,1,0,.991Z" transform="translate(-3520.385 -1030.944)"/></g><g transform="translate(3428.208 960.506)"><path class="b" d="M3479.9,1045.251a2.5,2.5,0,1,1,2.5-2.5A2.5,2.5,0,0,1,3479.9,1045.251Zm0-4a1.505,1.505,0,1,0,1.506,1.505A1.507,1.507,0,0,0,3479.9,1041.25Z" transform="translate(-3477.402 -1040.259)"/></g><g transform="translate(3424.009 960.506)"><path class="b" d="M3467.184,1045.251a2.5,2.5,0,1,1,1.733-4.29.5.5,0,1,1-.688.713,1.505,1.505,0,1,0,0,2.164.5.5,0,0,1,.688.713A2.483,2.483,0,0,1,3467.184,1045.251Z" transform="translate(-3464.688 -1040.259)"/></g><g transform="translate(3418.537 950.07)"><path class="b" d="M3476.619,1021.117h-2.382a.5.5,0,0,1,0-.991h1.887v-.941a25.072,25.072,0,0,0-1.3-7.967,2.531,2.531,0,0,0-2.352-1.577h-1.915v5.936a2.006,2.006,0,0,1-2,2h-19.45v1.624a.922.922,0,0,0,.921.921h2.391a.5.5,0,0,1,0,.991h-2.391a1.914,1.914,0,0,1-1.912-1.912v-2.12a.5.5,0,0,1,.5-.5h19.945a1.014,1.014,0,0,0,1.013-1.013v-6.431a.5.5,0,0,1,.5-.5h2.41a3.5,3.5,0,0,1,3.285,2.235,26.091,26.091,0,0,1,1.357,8.3v1.436A.5.5,0,0,1,3476.619,1021.117Z" transform="translate(-3448.115 -1008.651)"/></g><g transform="translate(3440.409 960.506)"><path class="b" d="M3516.851,1045.251a2.5,2.5,0,1,1,2.5-2.5A2.5,2.5,0,0,1,3516.851,1045.251Zm0-4a1.505,1.505,0,1,0,1.506,1.505A1.507,1.507,0,0,0,3516.851,1041.25Z" transform="translate(-3514.355 -1040.259)"/></g><g transform="translate(3433.663 961.545)"><path class="b" d="M3499.683,1044.395h-5.263a.5.5,0,1,1,0-.99h5.263a.5.5,0,1,1,0,.99Z" transform="translate(-3493.925 -1043.404)"/></g><g transform="translate(3439.99 947.99)"><path class="b" d="M3513.581,1005.423a.5.5,0,0,1-.5-.5v-2.08a.5.5,0,0,1,.991,0v2.08A.5.5,0,0,1,3513.581,1005.423Z" transform="translate(-3513.086 -1002.353)"/></g><g transform="translate(3418.537 942.656)"><path class="b" d="M3467.689,1000.667h-18.552a1.024,1.024,0,0,1-1.022-1.023V987.219a1.023,1.023,0,0,1,1.022-1.022h18.552a1.023,1.023,0,0,1,1.022,1.022v12.425A1.024,1.024,0,0,1,3467.689,1000.667Zm-18.552-13.479a.032.032,0,0,0-.032.032v12.425a.032.032,0,0,0,.032.032h18.552a.032.032,0,0,0,.031-.032V987.219a.032.032,0,0,0-.031-.032Z" transform="translate(-3448.115 -986.197)"/></g><g transform="translate(3421.645 921.191)"><path class="b" d="M3458.021,925.9a.5.5,0,0,1-.5-.5v-3.72a.5.5,0,1,1,.99,0v3.72A.5.5,0,0,1,3458.021,925.9Z" transform="translate(-3457.526 -921.191)"/></g><g transform="translate(3403.956 938.879)"><path class="b" d="M3408.171,975.752h-3.72a.5.5,0,1,1,0-.991h3.72a.5.5,0,1,1,0,.991Z" transform="translate(-3403.956 -974.761)"/></g><g transform="translate(3435.613 938.879)"><path class="b" d="M3504.046,975.752h-3.72a.5.5,0,1,1,0-.991h3.72a.5.5,0,1,1,0,.991Z" transform="translate(-3499.831 -974.761)"/></g><g transform="translate(3421.645 921.191)"><path class="b" d="M3458.021,925.9a.5.5,0,0,1-.5-.5v-3.72a.5.5,0,1,1,.99,0v3.72A.5.5,0,0,1,3458.021,925.9Z" transform="translate(-3457.526 -921.191)"/></g><g transform="translate(3423.227 938.879)"><path class="b" d="M3466.129,975.752h-3.316a.5.5,0,0,1,0-.991h3.316a.5.5,0,1,1,0,.991Z" transform="translate(-3462.318 -974.761)"/></g><g transform="translate(3421.645 933.083)"><path class="b" d="M3458.021,962.581a.5.5,0,0,1-.5-.5V957.7a.5.5,0,1,1,.99,0v4.383A.5.5,0,0,1,3458.021,962.581Z" transform="translate(-3457.526 -957.207)"/></g><g transform="translate(3420.232 937.467)"><path class="b" d="M3455.156,974.3a1.908,1.908,0,1,1,1.908-1.908A1.91,1.91,0,0,1,3455.156,974.3Zm0-2.825a.917.917,0,1,0,.918.917A.918.918,0,0,0,3455.156,971.474Z" transform="translate(-3453.248 -970.483)"/></g><g transform="translate(3418.729 943.548)"><path class="c" d="M3459.814,1000.6c.5-1.176.917-2.508,2-3.188a5.939,5.939,0,0,1,2.994-.57,22.392,22.392,0,0,0,4.877-.721,7.377,7.377,0,0,0,3.48-1.749,3.651,3.651,0,0,0,.511-.669h-18.061v12.53A15.1,15.1,0,0,0,3459.814,1000.6Z" transform="translate(-3455.614 -993.698)"/></g></g></g></svg>