<svg xmlns="http://www.w3.org/2000/svg" width="90.118" height="44.253" viewBox="0 0 90.118 44.253"><defs><style>.a{fill:#5f68da;}.b,.c{fill:#3ec0f0;}.c{opacity:0.5;}</style></defs><g transform="translate(-112.724 -225.558)"><path class="a" d="M-297.6-231.751a.984.984,0,0,1-.727-.283.984.984,0,0,1-.283-.727V-236.4a.984.984,0,0,1,.283-.727.984.984,0,0,1,.727-.283h4.847a.984.984,0,0,1,.727.283.984.984,0,0,1,.283.727v3.635a.984.984,0,0,1-.283.727.984.984,0,0,1-.727.283Zm.04,24.031a.984.984,0,0,1-.727-.283.984.984,0,0,1-.283-.727v-18.982a.984.984,0,0,1,.283-.727.984.984,0,0,1,.727-.283h4.766a.984.984,0,0,1,.727.283.984.984,0,0,1,.283.727v18.982a1,1,0,0,1-.283.707.95.95,0,0,1-.727.3Zm12,0a.969.969,0,0,1-.707-.3.969.969,0,0,1-.3-.707v-26.252a.95.95,0,0,1,.3-.727,1,1,0,0,1,.707-.283h5.412a1.054,1.054,0,0,1,.747.283.95.95,0,0,1,.3.727v26.252a.95.95,0,0,1-.3.727,1.054,1.054,0,0,1-.747.283Zm13.086,0a.969.969,0,0,1-.707-.3.969.969,0,0,1-.3-.707v-26.252a.95.95,0,0,1,.3-.727,1,1,0,0,1,.707-.283h18.861a.984.984,0,0,1,.727.283.984.984,0,0,1,.283.727v3.8a1,1,0,0,1-.283.707.95.95,0,0,1-.727.3h-12.884v5.452h12a.95.95,0,0,1,.727.3,1.054,1.054,0,0,1,.283.747v3.514a1,1,0,0,1-.283.707.95.95,0,0,1-.727.3h-12v5.614H-253.3a.984.984,0,0,1,.727.283.984.984,0,0,1,.283.727v3.8a1,1,0,0,1-.283.707.95.95,0,0,1-.727.3Zm23.183,0a.811.811,0,0,1-.586-.263.811.811,0,0,1-.263-.586,1.226,1.226,0,0,1,.04-.363l9.491-25.929a1.468,1.468,0,0,1,.525-.808,1.63,1.63,0,0,1,1.05-.323h5.977a1.63,1.63,0,0,1,1.05.323,1.468,1.468,0,0,1,.525.808l9.451,25.929.081.363a.811.811,0,0,1-.263.586.855.855,0,0,1-.626.263h-4.968a1.256,1.256,0,0,1-1.292-.848l-1.575-4.12h-10.784l-1.535,4.12a1.285,1.285,0,0,1-1.333.848Zm17-10.784-3.756-10.662-3.756,10.662Z" transform="translate(424.799 477.531)"/><g transform="translate(112.724 225.196)"><g transform="translate(0 0)"><g transform="matrix(0.998, 0.07, -0.07, 0.998, 2.398, 0)"><path class="b" d="M1.488,0,0,7.96,4.218,9.937,6.324,2.81S3.841.432,1.488,0Z" transform="translate(5.183 0)"/><path class="b" d="M1.28,0S-.656,8.633.234,15.139a17.712,17.712,0,0,0,5.857,10.48s-3.3-6.189-2.88-12.183A32.2,32.2,0,0,1,6.5,2.05S3.695.074,1.28,0Z" transform="translate(0 8.757)"/><path class="c" d="M2.674,0S.2,6.143.012,11.172a19.293,19.293,0,0,0,1.906,8.941,20.583,20.583,0,0,1-.631-9.03,28.966,28.966,0,0,1,4-9.237,3.389,3.389,0,0,0-1-1.384A3.218,3.218,0,0,0,2.674,0Z" transform="translate(4.395 12.86)"/></g></g></g></g></svg>