<svg xmlns="http://www.w3.org/2000/svg" xmlns:xlink="http://www.w3.org/1999/xlink" width="1920" height="771" viewBox="0 0 1920 771"><defs><style>.a{fill:#fff;}.b{fill:#085daf;}.c{clip-path:url(#a);}.d{fill:#56bbff;}</style><clipPath id="a"><rect class="a" width="453" height="113" transform="translate(774 3829)"/></clipPath></defs><g transform="translate(0 -3658)"><rect class="b" width="1920" height="771" transform="translate(0 3658)"/><g class="c" transform="translate(0 487)"><g transform="translate(799 3844.956)"><g transform="translate(0 0)"><g transform="translate(0 0.817)"><g transform="translate(7.312 0)"><rect class="d" width="1.635" height="68.778"/></g><g transform="translate(3.643 68.373)"><path class="d" d="M8.977,4.48A4.488,4.488,0,1,1,4.48,0,4.49,4.49,0,0,1,8.977,4.48Zm-7.352,0A2.864,2.864,0,1,0,4.48,1.625,2.858,2.858,0,0,0,1.625,4.48Z" transform="translate(0 0)"/></g><g transform="translate(0 175.932)"><path class="d" d="M8.944,4.48A4.472,4.472,0,1,1,4.464,0,4.476,4.476,0,0,1,8.944,4.48Zm-7.319,0A2.847,2.847,0,1,0,4.464,1.625,2.854,2.854,0,0,0,1.625,4.48Z" transform="translate(0 0)"/></g><g transform="translate(18.233 103.821)"><path class="d" d="M8.977,4.464A4.489,4.489,0,1,1,4.5,0,4.5,4.5,0,0,1,8.977,4.464Zm-7.352,0A2.851,2.851,0,0,0,4.5,7.319,2.813,2.813,0,0,0,7.336,4.464a2.856,2.856,0,0,0-5.711,0Z" transform="translate(0 0)"/></g><g transform="translate(0 138.547)"><path class="d" d="M8.944,4.48A4.472,4.472,0,1,1,4.464,0,4.476,4.476,0,0,1,8.944,4.48Zm-7.319,0A2.847,2.847,0,1,0,4.464,1.625,2.854,2.854,0,0,0,1.625,4.48Z" transform="translate(0 0)"/></g><g transform="translate(0 153.088)"><path class="d" d="M8.944,4.5A4.472,4.472,0,1,1,4.464,0,4.476,4.476,0,0,1,8.944,4.5Zm-7.319,0A2.847,2.847,0,1,0,4.464,1.641,2.854,2.854,0,0,0,1.625,4.5Z" transform="translate(0 0)"/></g><g transform="translate(36.499 153.088)"><path class="d" d="M8.961,4.5A4.48,4.48,0,1,1,4.48,0,4.476,4.476,0,0,1,8.961,4.5Zm-7.336,0A2.856,2.856,0,1,0,4.48,1.641,2.858,2.858,0,0,0,1.625,4.5Z" transform="translate(0 0)"/></g><g transform="translate(94.89 56.392)"><path class="d" d="M8.928,4.48A4.464,4.464,0,1,1,4.48,0,4.458,4.458,0,0,1,8.928,4.48Zm-7.3,0a2.839,2.839,0,1,0,5.678,0,2.839,2.839,0,1,0-5.678,0Z" transform="translate(0 0)"/></g><g transform="translate(91.214 33.203)"><path class="d" d="M8.977,4.464A4.489,4.489,0,1,1,4.48,0,4.5,4.5,0,0,1,8.977,4.464Zm-7.352,0A2.827,2.827,0,0,0,4.48,7.319,2.872,2.872,0,0,0,7.352,4.464a2.864,2.864,0,0,0-5.728,0Z" transform="translate(0 0)"/></g><g transform="translate(91.214 75.708)"><path class="d" d="M8.977,4.48A4.488,4.488,0,1,1,4.48,0,4.486,4.486,0,0,1,8.977,4.48Zm-7.352,0A2.8,2.8,0,0,0,4.48,7.3,2.854,2.854,0,0,0,7.352,4.48,2.872,2.872,0,0,0,4.48,1.625,2.817,2.817,0,0,0,1.625,4.48Z" transform="translate(0 0)"/></g><g transform="translate(76.624 75.101)"><path class="d" d="M8.944,4.464A4.472,4.472,0,1,1,4.5,0,4.469,4.469,0,0,1,8.944,4.464Zm-7.319,0A2.839,2.839,0,1,0,4.5,1.625,2.817,2.817,0,0,0,1.625,4.464Z" transform="translate(0 0)"/></g><g transform="translate(76.624 142.207)"><path class="d" d="M8.944,4.5A4.472,4.472,0,1,1,4.5,0,4.465,4.465,0,0,1,8.944,4.5Zm-7.319,0A2.839,2.839,0,1,0,4.5,1.625,2.858,2.858,0,0,0,1.625,4.5Z" transform="translate(0 0)"/></g><g transform="translate(94.89 124.237)"><path class="d" d="M8.928,4.5A4.464,4.464,0,1,1,4.48,0,4.469,4.469,0,0,1,8.928,4.5Zm-7.3,0A2.839,2.839,0,1,0,4.48,1.625,2.844,2.844,0,0,0,1.625,4.5Z" transform="translate(0 0)"/></g><g transform="translate(58.359 124.237)"><path class="d" d="M8.977,4.5A4.488,4.488,0,1,1,4.5,0,4.486,4.486,0,0,1,8.977,4.5Zm-7.336,0A2.856,2.856,0,1,0,4.5,1.625,2.844,2.844,0,0,0,1.641,4.5Z" transform="translate(0 0)"/></g><g transform="translate(62.035 243.251)"><path class="d" d="M8.944,4.5A4.472,4.472,0,1,1,4.464,0,4.486,4.486,0,0,1,8.944,4.5Zm-7.319,0a2.847,2.847,0,0,0,5.695,0,2.847,2.847,0,1,0-5.695,0Z" transform="translate(0 0)"/></g><g transform="translate(62.035 112.076)"><path class="d" d="M8.944,4.48A4.472,4.472,0,1,1,4.48,0,4.458,4.458,0,0,1,8.944,4.48Zm-7.319,0A2.847,2.847,0,1,0,4.48,1.625,2.844,2.844,0,0,0,1.625,4.48Z" transform="translate(0 0)"/></g><g transform="translate(47.445 211.676)"><path class="d" d="M8.944,4.5A4.472,4.472,0,1,1,4.447,0,4.5,4.5,0,0,1,8.944,4.5Zm-7.319,0A2.84,2.84,0,0,0,4.447,7.352a2.856,2.856,0,1,0,0-5.711A2.83,2.83,0,0,0,1.625,4.5Z" transform="translate(0 0)"/></g><g transform="translate(47.445 235.85)"><path class="d" d="M8.944,4.48A4.472,4.472,0,1,1,4.447,0,4.5,4.5,0,0,1,8.944,4.48Zm-7.319,0A2.83,2.83,0,0,0,4.447,7.336a2.847,2.847,0,1,0,0-5.695A2.826,2.826,0,0,0,1.625,4.48Z" transform="translate(0 0)"/></g><g transform="translate(76.624 336.828)"><path class="d" d="M8.944,4.5A4.472,4.472,0,1,1,4.5,0,4.479,4.479,0,0,1,8.944,4.5Zm-7.319,0A2.872,2.872,0,0,0,4.5,7.352,2.826,2.826,0,0,0,7.3,4.5,2.816,2.816,0,0,0,4.5,1.641,2.861,2.861,0,0,0,1.625,4.5Z" transform="translate(0 0)"/></g><g transform="translate(91.214 215.352)"><path class="d" d="M8.977,4.48A4.488,4.488,0,1,1,4.48,0,4.493,4.493,0,0,1,8.977,4.48Zm-7.352,0A2.864,2.864,0,1,0,4.48,1.641,2.847,2.847,0,0,0,1.625,4.48Z" transform="translate(0 0)"/></g><g transform="translate(62.035 306.517)"><path class="d" d="M8.944,4.464A4.472,4.472,0,1,1,4.48,0,4.472,4.472,0,0,1,8.944,4.464Zm-7.319,0A2.847,2.847,0,1,0,4.48,1.608,2.872,2.872,0,0,0,1.625,4.464Z" transform="translate(0 0)"/></g><g transform="translate(62.035 363.234)"><path class="d" d="M8.944,4.48A4.472,4.472,0,1,1,4.48,0,4.472,4.472,0,0,1,8.944,4.48Zm-7.319,0A2.847,2.847,0,1,0,4.48,1.625,2.872,2.872,0,0,0,1.625,4.48Z" transform="translate(0 0)"/></g><g transform="translate(18.233 199.843)"><path class="d" d="M8.977,4.48A4.488,4.488,0,1,1,4.5,0,4.486,4.486,0,0,1,8.977,4.48Zm-7.352,0A2.856,2.856,0,1,0,4.5,1.625,2.861,2.861,0,0,0,1.625,4.48Z" transform="translate(0 0)"/></g><g transform="translate(36.499 256.019)"><path class="d" d="M8.961,4.5A4.48,4.48,0,1,1,4.48,0,4.486,4.486,0,0,1,8.961,4.5Zm-7.336,0A2.856,2.856,0,1,0,4.48,1.641,2.847,2.847,0,0,0,1.625,4.5Z" transform="translate(0 0)"/></g><g transform="translate(18.266 268.705)"><path class="d" d="M8.944,4.48A4.472,4.472,0,1,1,4.464,0,4.5,4.5,0,0,1,8.944,4.48Zm-7.319,0A2.839,2.839,0,1,0,4.464,1.625,2.844,2.844,0,0,0,1.625,4.48Z" transform="translate(0 0)"/></g><g transform="translate(32.855 325.143)"><path class="d" d="M8.944,4.5A4.472,4.472,0,1,1,4.447,0,4.5,4.5,0,0,1,8.944,4.5Zm-7.319,0A2.851,2.851,0,0,0,4.447,7.352a2.856,2.856,0,1,0,0-5.711A2.83,2.83,0,0,0,1.625,4.5Z" transform="translate(0 0)"/></g><g transform="translate(18.266 348.382)"><path class="d" d="M8.944,4.5A4.472,4.472,0,1,1,4.464,0,4.5,4.5,0,0,1,8.944,4.5Zm-7.319,0A2.839,2.839,0,1,0,4.464,1.641,2.844,2.844,0,0,0,1.625,4.5Z" transform="translate(0 0)"/></g><g transform="translate(47.445 400.488)"><path class="d" d="M8.944,4.5A4.472,4.472,0,1,1,4.447,0,4.5,4.5,0,0,1,8.944,4.5Zm-7.319,0a2.847,2.847,0,0,0,5.695,0A2.872,2.872,0,0,0,4.447,1.641,2.84,2.84,0,0,0,1.625,4.5Z" transform="translate(0 0)"/></g><g transform="translate(3.643 263.355)"><path class="d" d="M8.977,4.48A4.488,4.488,0,1,1,4.48,0,4.493,4.493,0,0,1,8.977,4.48Zm-7.352,0A2.864,2.864,0,1,0,4.48,1.625,2.847,2.847,0,0,0,1.625,4.48Z" transform="translate(0 0)"/></g><g transform="translate(3.643 384.339)"><path class="d" d="M8.977,4.48A4.488,4.488,0,1,1,4.48,0,4.493,4.493,0,0,1,8.977,4.48Zm-7.352,0A2.864,2.864,0,1,0,4.48,1.625,2.858,2.858,0,0,0,1.625,4.48Z" transform="translate(0 0)"/></g><g transform="translate(18.266 248.125)"><path class="d" d="M8.944,4.48A4.472,4.472,0,1,1,4.464,0,4.5,4.5,0,0,1,8.944,4.48Zm-7.319,0A2.839,2.839,0,1,0,4.464,1.641,2.833,2.833,0,0,0,1.625,4.48Z" transform="translate(0 0)"/></g><g transform="translate(32.855 198.202)"><path class="d" d="M8.944,4.5A4.472,4.472,0,1,1,4.447,0,4.49,4.49,0,0,1,8.944,4.5Zm-7.319,0A2.84,2.84,0,0,0,4.447,7.352a2.856,2.856,0,1,0,0-5.711A2.84,2.84,0,0,0,1.625,4.5Z" transform="translate(0 0)"/></g><g transform="translate(32.855 49.762)"><path class="d" d="M8.944,4.48A4.472,4.472,0,1,1,4.447,0,4.486,4.486,0,0,1,8.944,4.48Zm-7.319,0A2.837,2.837,0,0,0,4.447,7.319,2.868,2.868,0,0,0,7.319,4.48a2.847,2.847,0,1,0-5.695,0Z" transform="translate(0 0)"/></g><g transform="translate(21.904 0)"><rect class="d" width="1.627" height="105.223" transform="translate(0 0)"/></g><g transform="translate(36.497 0)"><rect class="d" width="1.627" height="50.564"/></g><g transform="translate(8.129 0)"><path class="d" d="M44.586,0V85.238H29.994v58.6H0v-1.627H28.367v-58.6H42.959V0Z" transform="translate(0 0)"/></g><g transform="translate(8.129 0)"><path class="d" d="M59.21,0V109.614H44.586v59.763H29.994v26.565H13.775V181.221H0V179.6H15.4v14.719H28.367V167.751H42.959V107.987H57.576V0Z" transform="translate(0 0)"/></g><g transform="translate(80.297 0)"><path class="d" d="M15.4,60.068v1.627H0V0H1.627V60.068Z"/></g><g transform="translate(80.297 82.746)"><rect class="d" width="1.627" height="60.276"/></g><g transform="translate(51.089 119.879)"><path class="d" d="M16.251,0V65.02H1.627v27.6H0V63.385H14.616V0Z" transform="translate(0 0)"/></g><g transform="translate(7.312 207.898)"><path class="d" d="M29.994,51.8v1.635H0V25.754H14.592V0h1.627V27.372H1.635V51.8Z" transform="translate(0 0)"/></g><g transform="translate(21.904 206.367)"><path class="d" d="M16.219,0V35.908H1.627v6.668H0v-8.3H14.592V0Z" transform="translate(0 0)"/></g><g transform="translate(51.089 244.006)"><path class="d" d="M30.835,27.789V93.643H29.208V29.424H16.251V47.967H0V0H1.627V46.349h12.99V27.789Z" transform="translate(0 0)"/></g><g transform="translate(51.089 314.667)"><path class="d" d="M16.251,0V18.863H1.627V31.541H16.219V49.378H14.584V33.159H0V17.229H14.616V0Z" transform="translate(0 0)"/></g><g transform="translate(7.312 271.748)"><path class="d" d="M16.219,38.432V70.39H1.635v43.016H0V68.755H14.592V40.05H0V0H1.635V38.432Z"/></g><g transform="translate(21.904 276.86)"><path class="d" d="M16.219,24.041V49.378H14.592v-23.7H0V0H1.627V24.041Z" transform="translate(0 0)"/></g><g transform="translate(21.904 356.545)"><path class="d" d="M30.811,10.93V43.8H29.185V12.564H16.219V24.312H0V0H1.627V22.694H14.592V10.93Z"/></g><g transform="translate(94.89 0)"><rect class="d" width="1.627" height="34.017"/></g><g transform="translate(65.673 83.771)"><path class="d" d="M45.435,34.946V66.887H30.843V96.85H16.251v33.72H1.635v29.665H0v-31.3H14.624V95.222H29.216V65.252H43.809V36.573H29.216V0h1.627V34.946Z" transform="translate(0 0)"/></g><g transform="translate(8.129 156.773)"><rect class="d" width="29.176" height="1.627"/></g><g transform="translate(66.49 127.909)"><rect class="d" width="29.209" height="1.627"/></g><g transform="translate(80.297 223.636)"><path class="d" d="M30.811,35.85V83H16.219v45.579H1.627v57.072H0v-58.69H14.592V81.351H29.185V37.485H14.592V0h1.627V35.85Z" transform="translate(0 0)"/></g><g transform="translate(94.89 270.898)"><rect class="d" width="1.627" height="23.015"/></g></g><g transform="translate(338.744 0.817)"><g transform="translate(7.239 343.294)"><path class="d" d="M8.977,4.464A4.489,4.489,0,1,1,4.5,0,4.49,4.49,0,0,1,8.977,4.464Zm-7.336,0A2.856,2.856,0,1,0,4.5,1.625,2.851,2.851,0,0,0,1.641,4.464Z" transform="translate(0 0)"/></g><g transform="translate(10.915 366.5)"><path class="d" d="M8.977,4.48A4.488,4.488,0,1,1,4.48,0,4.476,4.476,0,0,1,8.977,4.48Zm-7.336,0A2.847,2.847,0,1,0,4.48,1.608,2.84,2.84,0,0,0,1.641,4.48Z" transform="translate(0 0)"/></g><g transform="translate(10.915 323.995)"><path class="d" d="M8.977,4.48A4.488,4.488,0,1,1,4.48,0,4.476,4.476,0,0,1,8.977,4.48Zm-7.336,0A2.8,2.8,0,0,0,4.48,7.3a2.831,2.831,0,1,0,0-5.662A2.809,2.809,0,0,0,1.641,4.48Z" transform="translate(0 0)"/></g><g transform="translate(25.505 324.602)"><path class="d" d="M8.961,4.48A4.48,4.48,0,1,1,4.48,0,4.472,4.472,0,0,1,8.961,4.48Zm-7.336,0A2.84,2.84,0,0,0,4.48,7.3a2.831,2.831,0,1,0,0-5.662A2.844,2.844,0,0,0,1.625,4.48Z" transform="translate(0 0)"/></g><g transform="translate(25.505 257.48)"><path class="d" d="M8.961,4.48A4.48,4.48,0,1,1,4.48,0,4.486,4.486,0,0,1,8.961,4.48Zm-7.336,0A2.864,2.864,0,1,0,4.48,1.625,2.854,2.854,0,0,0,1.625,4.48Z" transform="translate(0 0)"/></g><g transform="translate(7.239 275.434)"><path class="d" d="M8.977,4.48A4.488,4.488,0,1,1,4.5,0,4.49,4.49,0,0,1,8.977,4.48Zm-7.336,0A2.856,2.856,0,1,0,4.5,1.641,2.837,2.837,0,0,0,1.641,4.48Z" transform="translate(0 0)"/></g><g transform="translate(43.771 275.434)"><path class="d" d="M8.977,4.48A4.488,4.488,0,1,1,4.48,0,4.493,4.493,0,0,1,8.977,4.48Zm-7.352,0A2.856,2.856,0,1,0,4.48,1.641,2.847,2.847,0,0,0,1.625,4.48Z" transform="translate(0 0)"/></g><g transform="translate(40.127 156.419)"><path class="d" d="M8.944,4.48A4.472,4.472,0,1,1,4.464,0,4.486,4.486,0,0,1,8.944,4.48Zm-7.319,0A2.847,2.847,0,1,0,4.464,1.625,2.844,2.844,0,0,0,1.625,4.48Z" transform="translate(0 0)"/></g><g transform="translate(40.094 287.611)"><path class="d" d="M8.977,4.48A4.488,4.488,0,1,1,4.5,0,4.486,4.486,0,0,1,8.977,4.48Zm-7.352,0A2.864,2.864,0,1,0,4.5,1.641,2.861,2.861,0,0,0,1.625,4.48Z" transform="translate(0 0)"/></g><g transform="translate(54.717 187.994)"><path class="d" d="M8.944,4.48A4.472,4.472,0,1,1,4.447,0,4.5,4.5,0,0,1,8.944,4.48Zm-7.3,0A2.831,2.831,0,1,0,4.447,1.625,2.837,2.837,0,0,0,1.641,4.48Z" transform="translate(0 0)"/></g><g transform="translate(54.717 163.821)"><path class="d" d="M8.944,4.5A4.472,4.472,0,1,1,4.447,0,4.49,4.49,0,0,1,8.944,4.5Zm-7.3,0A2.831,2.831,0,1,0,4.447,1.625,2.841,2.841,0,0,0,1.641,4.5Z" transform="translate(0 0)"/></g><g transform="translate(25.505 62.842)"><path class="d" d="M8.961,4.48A4.48,4.48,0,1,1,4.48,0,4.49,4.49,0,0,1,8.961,4.48Zm-7.336,0A2.864,2.864,0,1,0,4.48,1.641,2.861,2.861,0,0,0,1.625,4.48Z" transform="translate(0 0)"/></g><g transform="translate(10.915 184.318)"><path class="d" d="M8.977,4.5A4.488,4.488,0,1,1,4.48,0,4.5,4.5,0,0,1,8.977,4.5Zm-7.336,0A2.847,2.847,0,1,0,4.48,1.625,2.844,2.844,0,0,0,1.641,4.5Z" transform="translate(0 0)"/></g><g transform="translate(40.094 93.17)"><path class="d" d="M8.977,4.48A4.488,4.488,0,1,1,4.5,0,4.5,4.5,0,0,1,8.977,4.48Zm-7.352,0A2.864,2.864,0,1,0,4.5,1.625,2.865,2.865,0,0,0,1.625,4.48Z" transform="translate(0 0)"/></g><g transform="translate(40.094 36.436)"><path class="d" d="M8.977,4.48A4.488,4.488,0,1,1,4.5,0,4.5,4.5,0,0,1,8.977,4.48Zm-7.352,0A2.864,2.864,0,1,0,4.5,1.641,2.865,2.865,0,0,0,1.625,4.48Z" transform="translate(0 0)"/></g><g transform="translate(15.4 346.961)"><path class="d" d="M15.4,0V61.687H13.784V1.618H0V0Z" transform="translate(0 0)"/></g><g transform="translate(29.184 265.626)"><rect class="d" width="1.618" height="60.275"/></g><g transform="translate(43.769 196.151)"><path class="d" d="M16.218,0V29.232H1.635V92.617H0V27.6H14.583V0Z" transform="translate(0 0)"/></g><g transform="translate(29.184 70.998)"><path class="d" d="M30.8,45.676V93.643H29.168V47.3H16.219V65.853H0V0H1.618V64.219H14.585V45.676Z"/></g><g transform="translate(43.769 44.594)"><path class="d" d="M16.218,16.219v15.93H1.635V49.394H0V30.523H14.583V17.854H0V0H1.635V16.219Z" transform="translate(0 0)"/></g><g transform="translate(14.583 374.638)"><rect class="d" width="1.635" height="34.009"/></g><g transform="translate(0 164.641)"><path class="d" d="M45.4,0V31.3H30.8V65.02H16.218V94.974H1.618v28.689h14.6v36.573H14.583V125.3H0V93.356H14.583V63.385h14.6V29.673H43.769V0Z" transform="translate(0 0)"/></g><g transform="translate(15.4 279.103)"><rect class="d" width="29.186" height="1.636"/></g><g transform="translate(0 0)"><path class="d" d="M30.8,0V58.505H16.218v45.427H1.618v43.721h14.6v37.357H14.583V149.28H0V102.306H14.583V56.871h14.6V0Z" transform="translate(0 0)"/></g><g transform="translate(14.583 114.743)"><rect class="d" width="1.635" height="22.998"/></g></g><g transform="translate(326.194 340.678)"><rect class="d" width="1.635" height="68.786"/></g><g transform="translate(322.531 332.115)"><path class="d" d="M8.977,4.5A4.488,4.488,0,1,1,4.48,0,4.5,4.5,0,0,1,8.977,4.5Zm-7.369,0A2.864,2.864,0,1,0,4.48,1.641,2.861,2.861,0,0,0,1.608,4.5Z" transform="translate(0 0)"/></g><g transform="translate(326.191 224.572)"><path class="d" d="M8.944,4.48A4.472,4.472,0,1,1,4.5,0,4.465,4.465,0,0,1,8.944,4.48Zm-7.3,0A2.8,2.8,0,0,0,4.5,7.319,2.847,2.847,0,1,0,1.641,4.48Z" transform="translate(0 0)"/></g><g transform="translate(307.925 296.683)"><path class="d" d="M8.977,4.5A4.488,4.488,0,1,1,4.48,0,4.465,4.465,0,0,1,8.977,4.5Zm-7.336,0A2.856,2.856,0,1,0,4.48,1.641,2.837,2.837,0,0,0,1.641,4.5Z" transform="translate(0 0)"/></g><g transform="translate(326.191 261.957)"><path class="d" d="M8.944,4.48A4.472,4.472,0,1,1,4.5,0,4.483,4.483,0,0,1,8.944,4.48Zm-7.3,0a2.831,2.831,0,1,0,5.662,0A2.862,2.862,0,0,0,4.5,1.608,2.861,2.861,0,0,0,1.641,4.48Z" transform="translate(0 0)"/></g><g transform="translate(231.317 344.112)"><path class="d" d="M8.928,4.464A4.464,4.464,0,1,1,4.431,0,4.483,4.483,0,0,1,8.928,4.464Zm-7.3,0A2.839,2.839,0,1,0,4.431,1.625,2.851,2.851,0,0,0,1.625,4.464Z" transform="translate(0 0)"/></g><g transform="translate(234.96 367.317)"><path class="d" d="M8.961,4.464A4.48,4.48,0,1,1,4.464,0,4.49,4.49,0,0,1,8.961,4.464Zm-7.352,0A2.864,2.864,0,1,0,4.464,1.608,2.858,2.858,0,0,0,1.608,4.464Z" transform="translate(0 0)"/></g><g transform="translate(234.96 324.796)"><path class="d" d="M8.961,4.5A4.48,4.48,0,1,1,4.464,0,4.476,4.476,0,0,1,8.961,4.5Zm-7.352,0A2.84,2.84,0,0,0,4.464,7.319,2.813,2.813,0,0,0,7.336,4.5a2.864,2.864,0,0,0-5.728,0Z" transform="translate(0 0)"/></g><g transform="translate(249.566 325.403)"><path class="d" d="M8.944,4.5A4.472,4.472,0,1,1,4.464,0,4.483,4.483,0,0,1,8.944,4.5Zm-7.3,0A2.839,2.839,0,1,0,4.464,1.641,2.823,2.823,0,0,0,1.641,4.5Z" transform="translate(0 0)"/></g><g transform="translate(249.566 258.297)"><path class="d" d="M8.944,4.48A4.472,4.472,0,1,1,0,4.48a4.472,4.472,0,1,1,8.944,0Zm-7.3,0A2.839,2.839,0,1,0,4.464,1.625,2.837,2.837,0,0,0,1.641,4.48Z" transform="translate(0 0)"/></g><g transform="translate(231.317 276.251)"><path class="d" d="M8.928,4.48A4.464,4.464,0,1,1,4.431,0,4.469,4.469,0,0,1,8.928,4.48Zm-7.3,0A2.839,2.839,0,1,0,4.431,1.641,2.833,2.833,0,0,0,1.625,4.48Z" transform="translate(0 0)"/></g><g transform="translate(267.799 276.251)"><path class="d" d="M8.961,4.48A4.48,4.48,0,1,1,4.48,0,4.465,4.465,0,0,1,8.961,4.48Zm-7.336,0A2.844,2.844,0,0,0,4.48,7.319,2.817,2.817,0,0,0,7.352,4.48a2.864,2.864,0,0,0-5.728,0Z" transform="translate(0 0)"/></g><g transform="translate(264.156 157.236)"><path class="d" d="M8.944,4.48A4.472,4.472,0,1,1,4.48,0,4.462,4.462,0,0,1,8.944,4.48Zm-7.319,0A2.847,2.847,0,1,0,4.48,1.625,2.858,2.858,0,0,0,1.625,4.48Z" transform="translate(0 0)"/></g><g transform="translate(264.156 288.428)"><path class="d" d="M8.944,4.48A4.472,4.472,0,1,1,4.447,0,4.479,4.479,0,0,1,8.944,4.48Zm-7.319,0a2.847,2.847,0,1,0,5.695,0A2.827,2.827,0,0,0,4.447,1.641,2.858,2.858,0,0,0,1.625,4.48Z" transform="translate(0 0)"/></g><g transform="translate(278.762 188.812)"><path class="d" d="M8.928,4.48A4.464,4.464,0,1,1,4.48,0,4.483,4.483,0,0,1,8.928,4.48Zm-7.319,0A2.847,2.847,0,1,0,4.48,1.625,2.861,2.861,0,0,0,1.608,4.48Z" transform="translate(0 0)"/></g><g transform="translate(278.762 164.638)"><path class="d" d="M8.928,4.5A4.464,4.464,0,1,1,4.48,0,4.469,4.469,0,0,1,8.928,4.5Zm-7.319,0A2.847,2.847,0,1,0,4.48,1.625,2.861,2.861,0,0,0,1.608,4.5Z" transform="translate(0 0)"/></g><g transform="translate(249.566 63.659)"><path class="d" d="M8.944,4.48A4.472,4.472,0,1,1,4.464,0,4.5,4.5,0,0,1,8.944,4.48Zm-7.3,0A2.839,2.839,0,1,0,4.464,1.641,2.844,2.844,0,0,0,1.641,4.48Z" transform="translate(0 0)"/></g><g transform="translate(234.96 185.136)"><path class="d" d="M8.961,4.5A4.48,4.48,0,1,1,4.464,0,4.5,4.5,0,0,1,8.961,4.5Zm-7.352,0A2.864,2.864,0,1,0,4.464,1.625,2.858,2.858,0,0,0,1.608,4.5Z" transform="translate(0 0)"/></g><g transform="translate(264.156 93.987)"><path class="d" d="M8.944,4.48A4.472,4.472,0,1,1,4.447,0,4.493,4.493,0,0,1,8.944,4.48Zm-7.319,0A2.847,2.847,0,1,0,4.447,1.625,2.865,2.865,0,0,0,1.625,4.48Z" transform="translate(0 0)"/></g><g transform="translate(264.156 37.254)"><path class="d" d="M8.944,4.48A4.472,4.472,0,1,1,4.447,0,4.493,4.493,0,0,1,8.944,4.48Zm-7.319,0A2.847,2.847,0,1,0,4.447,1.641,2.865,2.865,0,0,0,1.625,4.48Z" transform="translate(0 0)"/></g><g transform="translate(307.925 200.661)"><path class="d" d="M8.977,4.48A4.488,4.488,0,1,1,4.48,0,4.479,4.479,0,0,1,8.977,4.48Zm-7.336,0A2.856,2.856,0,1,0,4.48,1.625,2.854,2.854,0,0,0,1.641,4.48Z" transform="translate(0 0)"/></g><g transform="translate(289.676 144.469)"><path class="d" d="M8.977,4.48A4.488,4.488,0,1,1,4.48,0,4.5,4.5,0,0,1,8.977,4.48Zm-7.352,0A2.856,2.856,0,1,0,4.48,1.625,2.847,2.847,0,0,0,1.625,4.48Z" transform="translate(0 0)"/></g><g transform="translate(307.925 131.783)"><path class="d" d="M8.944,4.5A4.472,4.472,0,1,1,4.48,0,4.462,4.462,0,0,1,8.944,4.5Zm-7.3,0A2.839,2.839,0,1,0,4.48,1.641,2.854,2.854,0,0,0,1.641,4.5Z" transform="translate(0 0)"/></g><g transform="translate(293.335 75.344)"><path class="d" d="M8.944,4.48A4.472,4.472,0,1,1,4.5,0,4.483,4.483,0,0,1,8.944,4.48Zm-7.3,0A2.839,2.839,0,1,0,4.5,1.625,2.851,2.851,0,0,0,1.641,4.48Z" transform="translate(0 0)"/></g><g transform="translate(307.925 52.106)"><path class="d" d="M8.944,4.48A4.472,4.472,0,1,1,4.48,0,4.476,4.476,0,0,1,8.944,4.48Zm-7.3,0A2.839,2.839,0,1,0,4.48,1.625,2.854,2.854,0,0,0,1.641,4.48Z" transform="translate(0 0)"/></g><g transform="translate(278.762 0)"><path class="d" d="M8.928,4.48A4.464,4.464,0,1,1,4.48,0,4.483,4.483,0,0,1,8.928,4.48Zm-7.319,0A2.847,2.847,0,1,0,4.48,1.625,2.851,2.851,0,0,0,1.608,4.48Z" transform="translate(0 0)"/></g><g transform="translate(322.531 137.133)"><path class="d" d="M8.977,4.5A4.488,4.488,0,1,1,4.48,0,4.514,4.514,0,0,1,8.977,4.5Zm-7.369,0A2.864,2.864,0,1,0,4.48,1.641,2.861,2.861,0,0,0,1.608,4.5Z" transform="translate(0 0)"/></g><g transform="translate(322.531 16.149)"><path class="d" d="M8.977,4.5A4.488,4.488,0,1,1,4.48,0,4.5,4.5,0,0,1,8.977,4.5Zm-7.369,0A2.864,2.864,0,1,0,4.48,1.625,2.861,2.861,0,0,0,1.608,4.5Z" transform="translate(0 0)"/></g><g transform="translate(307.925 152.362)"><path class="d" d="M8.944,4.5A4.472,4.472,0,1,1,4.48,0,4.472,4.472,0,0,1,8.944,4.5Zm-7.3,0A2.839,2.839,0,1,0,4.48,1.625,2.854,2.854,0,0,0,1.641,4.5Z" transform="translate(0 0)"/></g><g transform="translate(293.335 202.285)"><path class="d" d="M8.944,4.48A4.472,4.472,0,1,1,4.5,0,4.483,4.483,0,0,1,8.944,4.48Zm-7.3,0A2.839,2.839,0,1,0,4.5,1.625,2.847,2.847,0,0,0,1.641,4.48Z" transform="translate(0 0)"/></g><g transform="translate(293.335 350.758)"><path class="d" d="M8.944,4.48A4.472,4.472,0,1,1,4.5,0,4.479,4.479,0,0,1,8.944,4.48Zm-7.3,0A2.839,2.839,0,1,0,4.5,1.625,2.844,2.844,0,0,0,1.641,4.48Z" transform="translate(0 0)"/></g><g transform="translate(311.609 304.234)"><rect class="d" width="1.62" height="105.231"/></g><g transform="translate(297.01 358.9)"><rect class="d" width="1.635" height="50.565"/></g><g transform="translate(282.425 265.625)"><path class="d" d="M44.586,0V1.636H16.219V60.229H1.62V143.84H0V58.595H14.585V0Z" transform="translate(0 0)"/></g><g transform="translate(267.793 213.522)"><path class="d" d="M59.218,14.713v1.635h-15.4V1.636H30.852V28.191h-14.6V87.955H1.635V195.942H0V86.32H14.632V26.557H29.217V0H45.436V14.713Z" transform="translate(0 0)"/></g><g transform="translate(239.426 347.778)"><path class="d" d="M15.418,0V61.687H13.782V1.618H0V0Z" transform="translate(0 0)"/></g><g transform="translate(253.208 266.444)"><rect class="d" width="1.636" height="60.275"/></g><g transform="translate(267.793 196.968)"><path class="d" d="M16.252,0V29.232H1.635V92.617H0V27.6H14.632V0Z" transform="translate(0 0)"/></g><g transform="translate(297.827 148.134)"><path class="d" d="M30,0V27.686H15.4V53.432h-1.62V26.052H28.367V1.635H0V0Z" transform="translate(0 0)"/></g><g transform="translate(297.01 160.523)"><path class="d" d="M16.219,0V8.3H1.635V42.575H0V6.675H14.6V0Z" transform="translate(0 0)"/></g><g transform="translate(253.208 71.815)"><path class="d" d="M30.837,45.676V93.643h-1.62V47.3h-13V65.853H0V0H1.636V64.219H14.585V45.676Z"/></g><g transform="translate(267.793 45.411)"><path class="d" d="M16.252,16.219v15.93H1.635V49.394H0V30.523H14.632V17.854H.033V0H1.667V16.219Z" transform="translate(0 0)"/></g><g transform="translate(311.609 24.312)"><path class="d" d="M16.219,0V44.65H1.62v28.7h14.6V113.4H14.585V74.98H0V43.023H14.585V0Z" transform="translate(0 0)"/></g><g transform="translate(297.01 83.234)"><path class="d" d="M16.219,23.7V49.37H14.6V25.33H0V0H1.635V23.7Z"/></g><g transform="translate(282.425 9.111)"><path class="d" d="M30.8,19.5V43.809h-1.62V21.123H16.219V32.871H0V0H1.62V31.244H14.585V19.5Z"/></g><g transform="translate(238.625 375.456)"><rect class="d" width="1.618" height="34.009"/></g><g transform="translate(224.024 165.458)"><path class="d" d="M45.436,0V31.3H30.82V65.02h-14.6V94.974H1.635v28.689H16.219v36.573H14.6V125.3H0V93.356H14.6V63.385H29.184V29.673H43.8V0Z" transform="translate(0 0)"/></g><g transform="translate(289.676 247.384)"><g transform="translate(0 0)"><g transform="translate(36.515 0)"><path class="d" d="M8.944,4.5A4.472,4.472,0,1,1,4.5,0,4.455,4.455,0,0,1,8.944,4.5Zm-7.3,0A2.827,2.827,0,0,0,4.5,7.352,2.856,2.856,0,1,0,1.641,4.5Z" transform="translate(0)"/></g><g transform="translate(0 0)"><path class="d" d="M8.977,4.5A4.488,4.488,0,1,1,4.48,0,4.476,4.476,0,0,1,8.977,4.5Zm-7.352,0A2.827,2.827,0,0,0,4.48,7.352,2.856,2.856,0,1,0,1.625,4.5Z" transform="translate(0)"/></g></g><g transform="translate(8.151 3.689)"><rect class="d" width="29.184" height="1.62"/></g></g><g transform="translate(86.75 356.716)"><g transform="translate(0 0)"><g transform="translate(36.515 0)"><path class="d" d="M8.944,4.5A4.472,4.472,0,0,1,0,4.5a4.472,4.472,0,1,1,8.944,0Zm-7.3,0A2.813,2.813,0,0,0,4.5,7.336,2.847,2.847,0,1,0,1.641,4.5Z" transform="translate(0 0)"/></g><g transform="translate(0 0)"><path class="d" d="M8.961,4.5A4.48,4.48,0,1,1,4.48,0,4.462,4.462,0,0,1,8.961,4.5Zm-7.336,0A2.856,2.856,0,1,0,4.48,1.641,2.858,2.858,0,0,0,1.625,4.5Z"/></g></g><g transform="translate(8.156 3.676)"><rect class="d" width="29.176" height="1.635"/></g></g><g transform="translate(105.016 363.329)"><g transform="translate(0 0)"><g transform="translate(0 0)"><path class="d" d="M4.48,0A4.464,4.464,0,1,1,0,4.447,4.444,4.444,0,0,1,4.48,0Zm0,7.3A2.847,2.847,0,1,0,1.625,4.447,2.823,2.823,0,0,0,4.48,7.3Z" transform="translate(0 0)"/></g><g transform="translate(0 36.482)"><path class="d" d="M4.48,0A4.48,4.48,0,1,1,0,4.48,4.462,4.462,0,0,1,4.48,0Zm0,7.352A2.864,2.864,0,1,0,1.625,4.48,2.837,2.837,0,0,0,4.48,7.352Z" transform="translate(0 0)"/></g></g><g transform="translate(3.665 8.12)"><rect class="d" width="1.627" height="29.168"/></g></g><g transform="translate(105.016 158.5)"><g transform="translate(0 0)"><g transform="translate(0)"><path class="d" d="M4.48,0a4.472,4.472,0,0,1,0,8.944A4.472,4.472,0,1,1,4.48,0Zm0,7.319A2.847,2.847,0,1,0,1.625,4.447,2.837,2.837,0,0,0,4.48,7.319Z" transform="translate(0)"/></g><g transform="translate(0 36.482)"><path class="d" d="M4.48,0A4.488,4.488,0,1,1,0,4.5,4.476,4.476,0,0,1,4.48,0Zm0,7.352A2.823,2.823,0,0,0,7.319,4.5,2.847,2.847,0,1,0,4.48,7.352Z" transform="translate(0 0)"/></g></g><g transform="translate(3.665 8.12)"><rect class="d" width="1.627" height="29.186"/></g></g><g transform="translate(334.265 170.562)"><g transform="translate(0 0)"><g transform="translate(0 0)"><path class="d" d="M4.5,0A4.472,4.472,0,1,1,0,4.464,4.469,4.469,0,0,1,4.5,0Zm0,7.319A2.847,2.847,0,1,0,1.641,4.464,2.833,2.833,0,0,0,4.5,7.319Z" transform="translate(0 0)"/></g><g transform="translate(0 36.499)"><path class="d" d="M4.5,0A4.48,4.48,0,1,1,0,4.48,4.472,4.472,0,0,1,4.5,0Zm0,7.352A2.864,2.864,0,1,0,1.641,4.48,2.847,2.847,0,0,0,4.5,7.352Z" transform="translate(0 0)"/></g></g><g transform="translate(3.676 8.127)"><rect class="d" width="1.635" height="29.184"/></g></g><g transform="translate(379.675 350.135)"><g transform="translate(0 0)"><g transform="translate(0)"><path class="d" d="M4.48,0a4.472,4.472,0,0,1,0,8.944A4.472,4.472,0,1,1,4.48,0Zm0,7.3A2.831,2.831,0,1,0,1.625,4.447,2.858,2.858,0,0,0,4.48,7.3Z" transform="translate(0)"/></g><g transform="translate(0 36.499)"><path class="d" d="M4.48,0A4.48,4.48,0,1,1,0,4.48,4.462,4.462,0,0,1,4.48,0Zm0,7.336A2.823,2.823,0,0,0,7.319,4.48,2.847,2.847,0,1,0,4.48,7.336Z" transform="translate(0 0)"/></g></g><g transform="translate(3.67 8.125)"><rect class="d" width="1.62" height="29.184"/></g></g><g transform="translate(224.03 8.288)"><g transform="translate(0 0)"><g transform="translate(0 0)"><path class="d" d="M4.48,0A4.464,4.464,0,1,1,0,4.447,4.444,4.444,0,0,1,4.48,0Zm0,7.3A2.817,2.817,0,0,0,7.336,4.447,2.856,2.856,0,1,0,4.48,7.3Z" transform="translate(0)"/></g><g transform="translate(0 36.499)"><path class="d" d="M4.48,0A4.48,4.48,0,1,1,0,4.48,4.462,4.462,0,0,1,4.48,0Zm0,7.336A2.856,2.856,0,1,0,1.625,4.48,2.858,2.858,0,0,0,4.48,7.336Z" transform="translate(0 0)"/></g></g><g transform="translate(3.665 8.124)"><rect class="d" width="1.635" height="29.176"/></g></g><g transform="translate(341.42 8.288)"><g transform="translate(0 0)"><path class="d" d="M4.48,0A4.464,4.464,0,1,1,0,4.447,4.458,4.458,0,0,1,4.48,0Zm0,7.3A2.8,2.8,0,0,0,7.319,4.447,2.839,2.839,0,1,0,4.48,7.3Z" transform="translate(0)"/><g transform="translate(0 36.499)"><path class="d" d="M4.48,0A4.48,4.48,0,1,1,0,4.48,4.476,4.476,0,0,1,4.48,0Zm0,7.336A2.813,2.813,0,0,0,7.319,4.48,2.839,2.839,0,1,0,4.48,7.336Z" transform="translate(0 0)"/></g></g><g transform="translate(3.67 8.124)"><rect class="d" width="1.635" height="29.176"/></g></g><g transform="translate(391.491 8.271)"><g transform="translate(0 0)"><g transform="translate(0 0)"><path class="d" d="M4.48,0A4.464,4.464,0,1,1,0,4.447,4.444,4.444,0,0,1,4.48,0Zm0,7.3A2.813,2.813,0,0,0,7.319,4.447,2.856,2.856,0,1,0,4.48,7.3Z" transform="translate(0 0)"/></g><g transform="translate(0 36.499)"><path class="d" d="M4.48,0A4.48,4.48,0,1,1,0,4.48,4.462,4.462,0,0,1,4.48,0Zm0,7.336a2.856,2.856,0,0,0,0-5.711,2.856,2.856,0,1,0,0,5.711Z" transform="translate(0 0)"/></g></g><g transform="translate(3.666 8.124)"><rect class="d" width="1.618" height="29.177"/></g></g><g transform="translate(391.491 299.178)"><g transform="translate(0 0)"><g transform="translate(0 0)"><path class="d" d="M4.48,0A4.464,4.464,0,1,1,0,4.464,4.458,4.458,0,0,1,4.48,0Zm0,7.319a2.847,2.847,0,0,0,0-5.695A2.868,2.868,0,0,0,1.608,4.464,2.872,2.872,0,0,0,4.48,7.319Z" transform="translate(0)"/></g><g transform="translate(0 36.499)"><path class="d" d="M4.48,0A4.48,4.48,0,1,1,0,4.48,4.462,4.462,0,0,1,4.48,0Zm0,7.336A2.823,2.823,0,0,0,7.319,4.48,2.856,2.856,0,1,0,4.48,7.336Z" transform="translate(0 0)"/></g></g><g transform="translate(3.666 8.133)"><rect class="d" width="1.618" height="29.168"/></g></g><g transform="translate(219.55 194.244)"><g transform="translate(0 0)"><g transform="translate(0)"><path class="d" d="M4.5,0A4.472,4.472,0,1,1,0,4.464,4.458,4.458,0,0,1,4.5,0Zm0,7.319A2.839,2.839,0,1,0,1.641,4.464,2.858,2.858,0,0,0,4.5,7.319Z"/></g><g transform="translate(0 36.499)"><path class="d" d="M4.5,0A4.48,4.48,0,1,1,0,4.5,4.476,4.476,0,0,1,4.5,0Zm0,7.352A2.823,2.823,0,0,0,7.336,4.5,2.847,2.847,0,1,0,4.5,7.352Z" transform="translate(0 0)"/></g></g><g transform="translate(3.689 8.132)"><rect class="d" width="1.618" height="29.178"/></g></g><g transform="translate(326.191 278.45)"><g transform="translate(0 0)"><g transform="translate(0 0)"><path class="d" d="M4.5,0A4.472,4.472,0,1,1,0,4.448,4.455,4.455,0,0,1,4.5,0Zm0,7.3A2.833,2.833,0,0,0,7.336,4.448,2.847,2.847,0,1,0,4.5,7.3Z" transform="translate(0 0)"/></g><g transform="translate(0 36.482)"><path class="d" d="M4.5,0A4.48,4.48,0,1,1,0,4.5,4.486,4.486,0,0,1,4.5,0Zm0,7.352A2.864,2.864,0,1,0,1.641,4.5,2.844,2.844,0,0,0,4.5,7.352Z" transform="translate(0 0)"/></g></g><g transform="translate(3.673 8.122)"><rect class="d" width="1.636" height="29.184"/></g></g><g transform="translate(239.426 279.921)"><rect class="d" width="29.217" height="1.636"/></g><g transform="translate(224.024 0.817)"><path class="d" d="M30.82,0V58.505h-14.6v45.427H1.635v43.721H16.219v37.357H14.6V149.28H0V102.306H14.6V56.871H29.184V0Z" transform="translate(0 0)"/></g><g transform="translate(238.625 115.56)"><rect class="d" width="1.618" height="22.998"/></g><g transform="translate(109.482 0.817)"><g transform="translate(102.153 0)"><rect class="d" width="1.636" height="68.778"/></g><g transform="translate(98.498 68.389)"><path class="d" d="M8.961,4.464A4.48,4.48,0,1,1,4.464,0,4.479,4.479,0,0,1,8.961,4.464Zm-7.336,0A2.847,2.847,0,1,0,4.464,1.625,2.819,2.819,0,0,0,1.625,4.464Z" transform="translate(0 0)"/></g><g transform="translate(102.158 175.932)"><path class="d" d="M8.944,4.48A4.472,4.472,0,1,1,4.48,0,4.462,4.462,0,0,1,8.944,4.48Zm-7.319,0A2.847,2.847,0,1,0,4.48,1.641,2.833,2.833,0,0,0,1.625,4.48Z" transform="translate(0 0)"/></g><g transform="translate(83.892 103.821)"><path class="d" d="M8.977,4.48A4.488,4.488,0,1,1,4.5,0,4.486,4.486,0,0,1,8.977,4.48Zm-7.336,0A2.793,2.793,0,0,0,4.5,7.319,2.847,2.847,0,1,0,1.641,4.48Z" transform="translate(0 0)"/></g><g transform="translate(102.158 138.564)"><path class="d" d="M8.944,4.464A4.472,4.472,0,1,1,4.48,0,4.462,4.462,0,0,1,8.944,4.464Zm-7.319,0A2.847,2.847,0,1,0,4.48,1.625,2.823,2.823,0,0,0,1.625,4.464Z" transform="translate(0 0)"/></g><g transform="translate(102.158 153.104)"><path class="d" d="M8.944,4.48A4.472,4.472,0,1,1,4.48,0,4.462,4.462,0,0,1,8.944,4.48Zm-7.319,0A2.847,2.847,0,1,0,4.48,1.641,2.833,2.833,0,0,0,1.625,4.48Z" transform="translate(0 0)"/></g><g transform="translate(65.643 153.088)"><path class="d" d="M8.977,4.5A4.488,4.488,0,1,1,4.48,0,4.49,4.49,0,0,1,8.977,4.5Zm-7.352,0A2.856,2.856,0,1,0,4.48,1.641,2.858,2.858,0,0,0,1.625,4.5Z" transform="translate(0 0)"/></g><g transform="translate(7.268 56.392)"><path class="d" d="M8.944,4.48A4.472,4.472,0,1,1,4.464,0,4.476,4.476,0,0,1,8.944,4.48Zm-7.3,0A2.839,2.839,0,1,0,4.464,1.625,2.84,2.84,0,0,0,1.641,4.48Z" transform="translate(0 0)"/></g><g transform="translate(10.911 33.203)"><path class="d" d="M8.977,4.464A4.489,4.489,0,1,1,4.5,0,4.5,4.5,0,0,1,8.977,4.464Zm-7.352,0A2.864,2.864,0,1,0,4.5,1.625,2.861,2.861,0,0,0,1.625,4.464Z" transform="translate(0 0)"/></g><g transform="translate(10.911 75.708)"><path class="d" d="M8.977,4.48A4.488,4.488,0,1,1,4.5,0,4.483,4.483,0,0,1,8.977,4.48Zm-7.352,0a2.864,2.864,0,0,0,5.728,0A2.827,2.827,0,0,0,4.5,1.625,2.861,2.861,0,0,0,1.625,4.48Z" transform="translate(0 0)"/></g><g transform="translate(25.534 75.101)"><path class="d" d="M8.944,4.464A4.472,4.472,0,1,1,4.464,0,4.5,4.5,0,0,1,8.944,4.464Zm-7.319,0A2.847,2.847,0,1,0,4.464,1.625,2.847,2.847,0,0,0,1.625,4.464Z" transform="translate(0 0)"/></g><g transform="translate(25.534 142.207)"><path class="d" d="M8.944,4.5A4.472,4.472,0,1,1,4.464,0,4.483,4.483,0,0,1,8.944,4.5Zm-7.319,0A2.847,2.847,0,1,0,4.464,1.625,2.84,2.84,0,0,0,1.625,4.5Z" transform="translate(0 0)"/></g><g transform="translate(7.268 124.237)"><path class="d" d="M8.944,4.5A4.472,4.472,0,1,1,4.464,0,4.486,4.486,0,0,1,8.944,4.5Zm-7.3,0a2.839,2.839,0,1,0,5.678,0,2.839,2.839,0,1,0-5.678,0Z" transform="translate(0 0)"/></g><g transform="translate(43.767 124.253)"><path class="d" d="M8.961,4.48A4.48,4.48,0,1,1,4.5,0,4.483,4.483,0,0,1,8.961,4.48Zm-7.336,0a2.856,2.856,0,0,0,5.711,0A2.813,2.813,0,0,0,4.5,1.625,2.861,2.861,0,0,0,1.625,4.48Z" transform="translate(0 0)"/></g><g transform="translate(40.123 243.251)"><path class="d" d="M8.944,4.5A4.472,4.472,0,1,1,4.48,0,4.472,4.472,0,0,1,8.944,4.5Zm-7.3,0A2.839,2.839,0,1,0,4.48,1.641,2.84,2.84,0,0,0,1.641,4.5Z" transform="translate(0 0)"/></g><g transform="translate(40.123 112.076)"><path class="d" d="M8.944,4.48A4.472,4.472,0,1,1,4.447,0,4.476,4.476,0,0,1,8.944,4.48Zm-7.3,0A2.812,2.812,0,0,0,4.447,7.319,2.817,2.817,0,0,0,7.319,4.48,2.872,2.872,0,0,0,4.447,1.625,2.826,2.826,0,0,0,1.641,4.48Z" transform="translate(0 0)"/></g><g transform="translate(54.713 211.676)"><path class="d" d="M8.944,4.5A4.472,4.472,0,1,1,4.5,0,4.479,4.479,0,0,1,8.944,4.5Zm-7.3,0A2.839,2.839,0,1,0,4.5,1.641,2.858,2.858,0,0,0,1.641,4.5Z" transform="translate(0 0)"/></g><g transform="translate(54.713 235.85)"><path class="d" d="M8.944,4.48A4.472,4.472,0,1,1,4.5,0,4.483,4.483,0,0,1,8.944,4.48Zm-7.3,0A2.839,2.839,0,1,0,4.5,1.641,2.847,2.847,0,0,0,1.641,4.48Z" transform="translate(0 0)"/></g><g transform="translate(25.534 336.828)"><path class="d" d="M8.944,4.5A4.472,4.472,0,1,1,4.464,0,4.5,4.5,0,0,1,8.944,4.5Zm-7.319,0A2.847,2.847,0,1,0,4.464,1.641,2.844,2.844,0,0,0,1.625,4.5Z" transform="translate(0 0)"/></g><g transform="translate(10.911 215.352)"><path class="d" d="M8.977,4.48A4.488,4.488,0,1,1,4.5,0,4.49,4.49,0,0,1,8.977,4.48Zm-7.352,0A2.864,2.864,0,1,0,4.5,1.641,2.851,2.851,0,0,0,1.625,4.48Z" transform="translate(0 0)"/></g><g transform="translate(40.123 306.517)"><path class="d" d="M8.944,4.464A4.472,4.472,0,1,1,4.447,0,4.49,4.49,0,0,1,8.944,4.464Zm-7.3,0A2.83,2.83,0,0,0,4.447,7.336a2.864,2.864,0,1,0,0-5.728A2.826,2.826,0,0,0,1.641,4.464Z" transform="translate(0 0)"/></g><g transform="translate(40.123 363.234)"><path class="d" d="M8.944,4.48A4.472,4.472,0,1,1,4.447,0,4.49,4.49,0,0,1,8.944,4.48Zm-7.3,0A2.83,2.83,0,0,0,4.447,7.352a2.864,2.864,0,1,0,0-5.728A2.826,2.826,0,0,0,1.641,4.48Z" transform="translate(0 0)"/></g><g transform="translate(83.892 199.843)"><path class="d" d="M8.977,4.48A4.488,4.488,0,1,1,4.5,0,4.486,4.486,0,0,1,8.977,4.48Zm-7.336,0A2.856,2.856,0,1,0,4.5,1.625,2.858,2.858,0,0,0,1.641,4.48Z" transform="translate(0 0)"/></g><g transform="translate(65.643 256.019)"><path class="d" d="M8.977,4.5A4.488,4.488,0,1,1,4.48,0,4.5,4.5,0,0,1,8.977,4.5Zm-7.352,0A2.856,2.856,0,1,0,4.48,1.641,2.858,2.858,0,0,0,1.625,4.5Z" transform="translate(0 0)"/></g><g transform="translate(83.892 268.705)"><path class="d" d="M8.944,4.48A4.472,4.472,0,1,1,4.5,0,4.483,4.483,0,0,1,8.944,4.48Zm-7.3,0A2.839,2.839,0,1,0,4.5,1.625,2.858,2.858,0,0,0,1.641,4.48Z" transform="translate(0 0)"/></g><g transform="translate(69.303 325.143)"><path class="d" d="M8.944,4.5A4.472,4.472,0,1,1,4.5,0,4.462,4.462,0,0,1,8.944,4.5Zm-7.319,0A2.893,2.893,0,0,0,4.5,7.352,2.856,2.856,0,1,0,1.625,4.5Z" transform="translate(0 0)"/></g><g transform="translate(83.892 348.382)"><path class="d" d="M8.944,4.5A4.472,4.472,0,1,1,4.5,0,4.479,4.479,0,0,1,8.944,4.5Zm-7.3,0A2.839,2.839,0,1,0,4.5,1.641,2.858,2.858,0,0,0,1.641,4.5Z" transform="translate(0 0)"/></g><g transform="translate(54.713 400.488)"><path class="d" d="M8.944,4.5A4.472,4.472,0,1,1,4.5,0,4.479,4.479,0,0,1,8.944,4.5Zm-7.3,0A2.839,2.839,0,1,0,4.5,1.641,2.858,2.858,0,0,0,1.641,4.5Z" transform="translate(0 0)"/></g><g transform="translate(98.498 263.355)"><path class="d" d="M8.961,4.48A4.48,4.48,0,1,1,4.464,0,4.483,4.483,0,0,1,8.961,4.48Zm-7.336,0A2.847,2.847,0,1,0,4.464,1.625,2.844,2.844,0,0,0,1.625,4.48Z" transform="translate(0 0)"/></g><g transform="translate(98.498 384.339)"><path class="d" d="M8.961,4.48A4.48,4.48,0,1,1,4.464,0,4.483,4.483,0,0,1,8.961,4.48Zm-7.336,0A2.847,2.847,0,1,0,4.464,1.625,2.844,2.844,0,0,0,1.625,4.48Z" transform="translate(0 0)"/></g><g transform="translate(83.892 248.125)"><path class="d" d="M8.944,4.48A4.472,4.472,0,1,1,4.5,0,4.483,4.483,0,0,1,8.944,4.48Zm-7.3,0A2.839,2.839,0,1,0,4.5,1.641,2.847,2.847,0,0,0,1.641,4.48Z" transform="translate(0 0)"/></g><g transform="translate(69.303 198.202)"><path class="d" d="M8.944,4.5A4.472,4.472,0,1,1,0,4.5a4.472,4.472,0,1,1,8.944,0Zm-7.319,0A2.882,2.882,0,0,0,4.5,7.352a2.856,2.856,0,0,0,0-5.711A2.882,2.882,0,0,0,1.625,4.5Z" transform="translate(0 0)"/></g><g transform="translate(69.303 49.762)"><path class="d" d="M8.944,4.48A4.472,4.472,0,1,1,4.5,0,4.455,4.455,0,0,1,8.944,4.48Zm-7.319,0A2.847,2.847,0,1,0,4.5,1.625,2.827,2.827,0,0,0,1.625,4.48Z" transform="translate(0 0)"/></g><g transform="translate(87.57 0)"><rect class="d" width="1.626" height="105.223"/></g><g transform="translate(72.977 0)"><rect class="d" width="1.635" height="50.564"/></g><g transform="translate(58.392 0)"><path class="d" d="M44.578,142.212v1.627H14.585v-58.6H0V0H1.628V83.611H16.219v58.6Z"/></g><g transform="translate(43.769 0)"><path class="d" d="M59.2,179.6v1.626H45.428v14.721H29.208V169.377H14.624V109.614H0V0H1.627V107.987H16.252v59.764H30.843v26.563H43.8V179.6Z"/></g><g transform="translate(15.402 0)"><path class="d" d="M15.4,0V61.695H0V60.068H13.775V0Z" transform="translate(0 0)"/></g><g transform="translate(29.176 82.746)"><rect class="d" width="1.627" height="60.276"/></g><g transform="translate(43.769 119.879)"><path class="d" d="M16.252,63.385V92.617H14.624V65.02H0V0H1.627V63.385Z" transform="translate(0 0)"/></g><g transform="translate(73.794 207.898)"><path class="d" d="M29.995,25.754V53.432H0V51.8H28.359V27.372H13.776V0H15.4V25.754Z" transform="translate(0 0)"/></g><g transform="translate(72.977 206.367)"><path class="d" d="M16.219,34.273v8.3H14.593V35.908H0V0H1.635V34.273Z" transform="translate(0 0)"/></g><g transform="translate(29.176 244.006)"><path class="d" d="M30.844,0V47.967H14.592V29.424H1.627V93.643H0V27.789H16.219v18.56h13V0Z" transform="translate(0 0)"/></g><g transform="translate(43.769 314.667)"><path class="d" d="M16.252,17.229v15.93H1.659V49.378H.032V31.541H14.624V18.863H0V0H1.627V17.229Z" transform="translate(0 0)"/></g><g transform="translate(87.57 271.748)"><path class="d" d="M16.219,0V40.05H1.626v28.7H16.219v44.65H14.583V70.39H0V38.432H14.583V0Z" transform="translate(0 0)"/></g><g transform="translate(72.977 276.86)"><path class="d" d="M16.219,0V25.675H1.635v23.7H0V24.041H14.593V0Z" transform="translate(0 0)"/></g><g transform="translate(58.392 356.545)"><path class="d" d="M30.8,0V24.312H14.585V12.564H1.628V43.8H0V10.93H16.219V22.694H29.178V0Z" transform="translate(0 0)"/></g><g transform="translate(14.584 0)"><rect class="d" width="1.635" height="34.017"/></g><g transform="translate(0 83.771)"><path class="d" d="M45.428,128.934v31.3H43.8V130.57H29.176V96.85H14.584V66.887H0V34.946H14.584V0h1.635V36.573H1.627v28.68H16.219V95.222H30.8v33.712Z" transform="translate(0 0)"/></g><g transform="translate(73.794 156.773)"><rect class="d" width="29.176" height="1.627"/></g><g transform="translate(15.402 127.909)"><rect class="d" width="29.208" height="1.627"/></g><g transform="translate(0 223.636)"><path class="d" d="M30.8,126.785v58.61H29.176v-56.99H14.584V82.888H0V35.8H14.584V0h1.635V37.421H1.627V81.239H16.219v45.546Z" transform="translate(0 0)"/></g><g transform="translate(14.584 270.898)"><rect class="d" width="1.635" height="23.015"/></g></g><g transform="translate(91.23 294.73)"><path class="d" d="M8.944,4.48A4.472,4.472,0,1,1,4.48,0,4.472,4.472,0,0,1,8.944,4.48Zm-7.319,0A2.847,2.847,0,1,0,4.48,1.625,2.868,2.868,0,0,0,1.625,4.48Z" transform="translate(0 0)"/></g><g transform="translate(120.41 294.73)"><path class="d" d="M8.944,4.48A4.472,4.472,0,1,1,4.5,0,4.469,4.469,0,0,1,8.944,4.48Zm-7.319,0A2.847,2.847,0,1,0,4.5,1.625,2.872,2.872,0,0,0,1.625,4.48Z" transform="translate(0 0)"/></g><g transform="translate(120.41 262.794)"><path class="d" d="M8.944,4.48A4.472,4.472,0,1,1,4.5,0,4.465,4.465,0,0,1,8.944,4.48Zm-7.319,0A2.847,2.847,0,1,0,4.5,1.608,2.886,2.886,0,0,0,1.625,4.48Z" transform="translate(0 0)"/></g><g transform="translate(234.944 137.723)"><path class="d" d="M8.928,4.48A4.464,4.464,0,1,1,4.48,0,4.455,4.455,0,0,1,8.928,4.48Zm-7.319,0A2.847,2.847,0,1,0,4.48,1.625,2.872,2.872,0,0,0,1.608,4.48Z" transform="translate(0 0)"/></g><g transform="translate(234.944 106.608)"><path class="d" d="M8.928,4.48A4.464,4.464,0,1,1,4.48,0,4.458,4.458,0,0,1,8.928,4.48Zm-7.319,0A2.847,2.847,0,1,0,4.48,1.625,2.882,2.882,0,0,0,1.608,4.48Z" transform="translate(0 0)"/></g><g transform="translate(349.675 106.608)"><path class="d" d="M8.944,4.48A4.472,4.472,0,1,1,4.5,0,4.458,4.458,0,0,1,8.944,4.48Zm-7.3,0a2.831,2.831,0,1,0,5.662,0A2.816,2.816,0,0,0,4.5,1.625,2.868,2.868,0,0,0,1.641,4.48Z" transform="translate(0 0)"/></g><g transform="translate(349.675 137.707)"><path class="d" d="M8.944,4.48A4.472,4.472,0,1,1,4.5,0,4.455,4.455,0,0,1,8.944,4.48Zm-7.3,0a2.831,2.831,0,1,0,5.662,0A2.806,2.806,0,0,0,4.5,1.625,2.858,2.858,0,0,0,1.641,4.48Z" transform="translate(0 0)"/></g><g transform="translate(91.23 262.794)"><path class="d" d="M8.944,4.48A4.472,4.472,0,1,1,4.48,0,4.469,4.469,0,0,1,8.944,4.48Zm-7.319,0a2.847,2.847,0,0,0,5.695,0A2.858,2.858,0,0,0,4.48,1.608,2.882,2.882,0,0,0,1.625,4.48Z" transform="translate(0 0)"/></g></g></g></g></g></svg>