<svg xmlns="http://www.w3.org/2000/svg" width="126.625" height="46.373" viewBox="0 0 126.625 46.373"><defs><style>.a{fill:#1a3f72;}.b,.c{fill:#3ec0f0;}.c{opacity:0.5;}</style></defs><g transform="translate(-166.353 -328.074)"><path class="a" d="M-353.552-145.722c1.92,0,3.82,0,4.026-.743l2.89-13.42,7.061,13.647c.227.392.661.392,1.115.392.434,0,.867,0,1.074-.392l7.1-13.647,2.89,13.42c.186.743,2.085.743,4.005.743,1.817,0,3.613,0,3.613-.826a.454.454,0,0,0-.021-.165l-6.586-27.728c-.124-.5-.619-.516-1.156-.516-.516,0-1.032,0-1.259.372l-9.662,17.074-9.662-17.074c-.248-.372-.743-.372-1.28-.372-.516,0-1.032,0-1.156.516l-6.586,27.728a.455.455,0,0,0-.021.165C-357.165-145.722-355.369-145.722-353.552-145.722Zm39.282.268a6.364,6.364,0,0,0,5.7-2.87v1.817c0,.826,1.61.826,3.221.826,1.59,0,3.18,0,3.18-.826v-12.78c0-5.822-3.221-8.052-8.444-8.052a16.3,16.3,0,0,0-8.114,2.209.852.852,0,0,0-.434.826,6.624,6.624,0,0,0,.64,2.147c.5,1.2,1.094,2.312,1.693,2.312a.55.55,0,0,0,.248-.062,11.869,11.869,0,0,1,5.616-1.548c1.3,0,1.9.681,1.9,1.631v1.032l-3.014.578c-4.687.908-8.011,3.18-8.011,7.04C-320.092-147.291-317.511-145.453-314.27-145.453Zm2.663-5.74a1.387,1.387,0,0,1-1.548-1.342,1.78,1.78,0,0,1,1.672-1.672l2.416-.5v1.3A2.352,2.352,0,0,1-311.606-151.193Zm16.221,5.513c1.755,0,3.489,0,3.489-.846v-10.158c0-2.147.888-3.861,2.849-3.861a3.39,3.39,0,0,1,1.8.516.666.666,0,0,0,.372.124c.723,0,1.342-1.363,1.776-2.684a9.221,9.221,0,0,0,.6-2.539,1.235,1.235,0,0,0-.289-.908,4.239,4.239,0,0,0-2.932-1.3c-1.817,0-3.324.95-4.583,2.973v-1.817c0-.908-1.631-.908-3.262-.908s-3.262,0-3.262.908v19.655C-298.834-145.68-297.12-145.68-295.386-145.68Zm15.126-23.392c2.828,0,4.15-1.445,4.15-3.84,0-2.416-1.321-3.861-4.15-3.861s-4.15,1.445-4.15,3.861C-284.41-170.518-283.088-169.072-280.26-169.072Zm0,23.392c1.734,0,3.448,0,3.448-.846v-19.738c0-.846-1.714-.846-3.427-.846-1.755,0-3.489,0-3.489.846v19.738C-283.728-145.68-281.994-145.68-280.26-145.68Zm10.563,0c1.734,0,3.469,0,3.469-.846v-11.025a3.024,3.024,0,0,1,3.056-3.262,2.426,2.426,0,0,1,2.478,2.684v11.6c0,.846,1.755.846,3.469.846,1.755,0,3.469,0,3.469-.846v-12.057c0-5.471-2.89-8.754-7.205-8.754-2.581,0-4.315,1.445-5.657,3.3v-2.23c0-.826-1.631-.826-3.262-.826s-3.262,0-3.262.826v19.738C-273.144-145.68-271.43-145.68-269.7-145.68Zm27.493.227a15.332,15.332,0,0,0,8.135-2.127c.248-.124.33-.392.33-.743a7.732,7.732,0,0,0-.661-2.436c-.413-1.115-.867-2.106-1.466-2.106a.583.583,0,0,0-.31.083,9.679,9.679,0,0,1-5.223,1.445,3.967,3.967,0,0,1-4.15-3.2h12.161c.619,0,.64-.929.64-1.858,0-6.091-2.911-10.942-9.373-10.942-6.153,0-10.3,4.687-10.3,10.839C-252.423-150.264-248.5-145.453-242.2-145.453Zm2.849-12.986h-6.276a3.517,3.517,0,0,1,3.51-3.179C-240.014-161.619-239.4-160.091-239.354-158.44Z" transform="translate(525.725 519.901)"/><g transform="translate(165.961 328.578) rotate(-3)"><path class="b" d="M1.274,0,0,6.816,3.612,8.508l1.8-6.1A10.192,10.192,0,0,0,1.274,0Z" transform="translate(4.199 0)"/><path class="b" d="M.857,0,0,26.968,5.33,1.756A10.192,10.192,0,0,0,.857,0Z" transform="translate(0 7.498)"/><path class="c" d="M4.149,0,0,18.966,6.388,1.581A2.9,2.9,0,0,0,5.532.4,2.755,2.755,0,0,0,4.149,0Z" transform="translate(1.664 11.011)"/></g></g></svg>