<svg xmlns="http://www.w3.org/2000/svg" width="188" height="188" viewBox="0 0 188 188"><defs><style>.a,.c{fill:#84d7ff;}.a{opacity:0.1;}.b{fill:#101010;font-size:14px;font-family:SFProText-Medium, SF Pro Text;font-weight:500;letter-spacing:-0.054em;}</style></defs><g transform="translate(0.001)"><rect class="a" width="188" height="188" transform="translate(-0.001)"/><text class="b" transform="translate(94 150)"><tspan x="-53.086" y="0">Stock projections</tspan></text><g transform="translate(70.286 57.286)"><path class="c" d="M25.774,19.762H7.988A.988.988,0,0,1,7,18.774V.988A.988.988,0,0,1,7.988,0H25.774a.988.988,0,0,1,.988.988V18.774A.988.988,0,0,1,25.774,19.762Zm-16.8-1.976h15.81V1.976H8.976Z" transform="translate(6.833)"/><path class="c" d="M16.917,7.9H10.988A.988.988,0,0,1,10,6.917V.988A.988.988,0,0,1,10.988,0h5.929A.988.988,0,0,1,17.9.988V6.917A.988.988,0,0,1,16.917,7.9Zm-4.94-1.976h3.952V1.976H11.976Z" transform="translate(9.762)"/><path class="c" d="M21.762,28.762H2.988A.988.988,0,0,1,2,27.774V9.988A.988.988,0,0,1,2.988,9H21.762a.988.988,0,0,1,.988.988V27.774A.988.988,0,0,1,21.762,28.762ZM3.976,26.786h16.8V10.976H3.976Z" transform="translate(1.952 8.786)"/><path class="c" d="M11.917,16.9H5.988A.988.988,0,0,1,5,15.917V9.988A.988.988,0,0,1,5.988,9h5.929a.988.988,0,0,1,.988.988v5.929A.988.988,0,0,1,11.917,16.9Zm-4.94-1.976h3.952V10.976H6.976Z" transform="translate(4.881 8.786)"/><path class="c" d="M31.262,28.762H12.488a.988.988,0,0,1-.988-.988V9.988A.988.988,0,0,1,12.488,9H31.262a.988.988,0,0,1,.988.988V27.774A.988.988,0,0,1,31.262,28.762ZM13.476,26.786h16.8V10.976h-16.8Z" transform="translate(11.226 8.786)"/><path class="c" d="M21.917,16.9H15.988A.988.988,0,0,1,15,15.917V9.988A.988.988,0,0,1,15.988,9h5.929a.988.988,0,0,1,.988.988v5.929A.988.988,0,0,1,21.917,16.9Zm-4.94-1.976h3.952V10.976H16.976Z" transform="translate(14.643 8.786)"/><path class="c" d="M46.441,29.857h-7.9a.988.988,0,0,1-.988-.988V25.9h-7.9v2.964a.988.988,0,0,1-.988.988H18.774a.988.988,0,0,1-.988-.988V25.9h-7.9v2.964a.988.988,0,0,1-.988.988H.988A.988.988,0,0,1,0,28.869V18.988A.988.988,0,0,1,.988,18H46.441a.988.988,0,0,1,.988.988v9.881A.988.988,0,0,1,46.441,29.857Zm-6.917-1.976h5.929v-7.9H1.976v7.9H7.9V24.917a.988.988,0,0,1,.988-.988h9.881a.988.988,0,0,1,.988.988v2.964h7.9V24.917a.988.988,0,0,1,.988-.988h9.881a.988.988,0,0,1,.988.988Z" transform="translate(0 17.572)"/></g></g></svg>