<svg xmlns="http://www.w3.org/2000/svg" width="188" height="188" viewBox="0 0 188 188"><defs><style>.a{fill:#ffb62a;opacity:0.1;}.b{fill:#101010;font-size:14px;font-family:SFProText-Medium, SF Pro Text;font-weight:500;letter-spacing:-0.054em;}.c{fill:#f9ba48;}</style></defs><g transform="translate(0.216)"><rect class="a" width="188" height="188" transform="translate(-0.216)"/><text class="b" transform="translate(92.784 150)"><tspan x="-62.678" y="0">Improve productivity</tspan></text><g transform="translate(68.543 47.261)"><path class="c" d="M181.952,255.063a2.732,2.732,0,0,0-2.729,2.729v2.05h-4.1a2.729,2.729,0,1,0,0,5.457h6.826a2.732,2.732,0,0,0,2.729-2.729v-4.779A2.732,2.732,0,0,0,181.952,255.063Zm-7.841,7.508a1.016,1.016,0,0,1,1.015-1.014h4.1v1.014a2.714,2.714,0,0,0,.2,1.014h-4.294A1.016,1.016,0,0,1,174.111,262.571Zm8.855,0a1.015,1.015,0,0,1-2.029,0v-4.779a1.015,1.015,0,1,1,2.029,0Z" transform="translate(-152.697 -225.683)"/><path class="c" d="M57.911,41.575,50.668,29.031a4.376,4.376,0,0,0-3.829-2.21h0c-.069,0-.137,0-.2.007q-.4-.692-.852-1.345V15.764h.727a3.356,3.356,0,0,0,2.905-5.033L47.285,7.045A.857.857,0,1,0,45.8,7.9l2.129,3.686a1.641,1.641,0,0,1-1.421,2.461H44.925a.857.857,0,0,0-.857.857v8.424A20.08,20.08,0,0,0,38.8,19.22V14.907a.857.857,0,0,0-.857-.857H36.356a1.641,1.641,0,0,1-1.421-2.461L40.012,2.8a1.64,1.64,0,0,1,2.841,0l1.234,2.136a.857.857,0,0,0,1.484-.858L44.337,1.94a3.354,3.354,0,0,0-5.81,0L33.45,10.731a3.355,3.355,0,0,0,2.905,5.033h.727V18.4a20.07,20.07,0,0,0-17.021.644L15.5,11.14a4.377,4.377,0,0,0-3.829-2.21h0a4.375,4.375,0,0,0-3.827,2.21L.6,23.684a4.421,4.421,0,0,0,3.829,6.633h1.4v25.3a3.1,3.1,0,0,0,3.1,3.1h5.481a3.1,3.1,0,0,0,3.1-3.1V53.177a20.085,20.085,0,0,0,23.487,0v2.44a3.1,3.1,0,0,0,3.1,3.1h5.481a3.1,3.1,0,0,0,3.1-3.1V48.207h1.4a4.421,4.421,0,0,0,3.829-6.632ZM29.255,55.252A18.318,18.318,0,0,1,15.1,48.587a.857.857,0,0,0-1.321,1.093,20.271,20.271,0,0,0,2.02,2.11v3.824A1.388,1.388,0,0,1,14.412,57H8.931a1.388,1.388,0,0,1-1.386-1.386V29.46a.857.857,0,0,0-.857-.857H4.428a2.707,2.707,0,0,1-2.344-4.061L9.327,12a2.679,2.679,0,0,1,2.343-1.353h0A2.681,2.681,0,0,1,14.016,12l4.558,7.895a20.077,20.077,0,0,0-6.823,26.841.857.857,0,1,0,1.493-.842A18.367,18.367,0,0,1,44.9,27.263a4.4,4.4,0,0,0-1.887,1.768l-.169.292a15.552,15.552,0,1,0-2.929,18.884H41v2.8a18.355,18.355,0,0,1-11.744,4.246ZM35.766,46a4.39,4.39,0,0,0,1.983,1.812q-.413.323-.846.612l-.49-.848a.857.857,0,0,0-1.484.857l.491.851A13.738,13.738,0,0,1,30.112,50.7V48.471a.857.857,0,1,0-1.714,0V50.7a13.731,13.731,0,0,1-5.3-1.423l.487-.844a.857.857,0,0,0-1.484-.857l-.486.842a13.949,13.949,0,0,1-3.882-3.882l.841-.486a.857.857,0,1,0-.857-1.484l-.844.487a13.732,13.732,0,0,1-1.423-5.3H17.67a.857.857,0,1,0,0-1.714H15.447a13.733,13.733,0,0,1,1.423-5.3l.844.487a.857.857,0,1,0,.857-1.484l-.841-.486a13.946,13.946,0,0,1,3.882-3.882l.486.842a.857.857,0,1,0,1.484-.857l-.487-.844a13.735,13.735,0,0,1,5.3-1.423V25.3a.857.857,0,1,0,1.714,0V23.081A13.814,13.814,0,0,1,35.418,24.5l-.489.848a.857.857,0,1,0,1.484.857l.491-.85a13.812,13.812,0,0,1,3.884,3.886l-.848.49a.857.857,0,1,0,.857,1.484l.846-.489c.061.122.12.244.177.368L35.766,41.575a4.376,4.376,0,0,0,0,4.421Zm20.661-.857a2.679,2.679,0,0,1-2.344,1.354h-2.26a.857.857,0,0,0-.857.857v8.263A1.387,1.387,0,0,1,49.579,57H44.1a1.387,1.387,0,0,1-1.386-1.386V47.35a.857.857,0,0,0-.857-.857H39.595a2.707,2.707,0,0,1-2.344-4.061l7.244-12.544a2.707,2.707,0,0,1,4.689,0l7.243,12.544a2.679,2.679,0,0,1,0,2.707Z"/></g></g></svg>