<svg xmlns="http://www.w3.org/2000/svg" width="188" height="188" viewBox="0 0 188 188"><defs><style>.a,.c{fill:#26cc2c;}.a{opacity:0.1;}.b{fill:#101010;font-size:14px;font-family:SFProText-Medium, SF Pro Text;font-weight:500;letter-spacing:-0.054em;}</style></defs><g transform="translate(-0.175)"><rect class="a" width="188" height="188" transform="translate(0.175)"/><text class="b" transform="translate(93.175 150)"><tspan x="-57.577" y="0">Reduce waste cost</tspan></text><g transform="translate(67.679 47.921)"><path class="c" d="M4.221,32.686a1.043,1.043,0,0,0,1.475,0L21.485,16.9l9.559,9.559a1.043,1.043,0,0,0,1.475,0l5.544-5.545a1.043,1.043,0,0,0-1.475-1.475l-4.807,4.807-9.559-9.559a1.043,1.043,0,0,0-1.475,0L4.958,30.474l-2.44-2.44L21.485,9.068l9.559,9.559a1.043,1.043,0,0,0,1.475,0l12.6-12.6a1.043,1.043,0,0,0,0-1.475l-.384-.385,6.158-1.65L49.24,8.677l-.209-.209a1.043,1.043,0,0,0-1.475,0l-5.067,5.067a1.043,1.043,0,1,0,1.475,1.475l4.33-4.33.749.749a1.043,1.043,0,0,0,1.745-.467l2.585-9.649A1.043,1.043,0,0,0,52.1.036L42.447,2.621a1.043,1.043,0,0,0-.468,1.745l.925.925L31.781,16.414,22.222,6.855a1.043,1.043,0,0,0-1.475,0L.306,27.3a1.043,1.043,0,0,0,0,1.475Zm0,0" transform="translate(0 0)"/><path class="c" d="M52.366,212.249H51.322V180.711a1.043,1.043,0,0,0-1.043-1.043H44.438a1.043,1.043,0,0,0-1.043,1.043v31.537H41V193.159a1.043,1.043,0,0,0-1.043-1.043H34.111a1.043,1.043,0,0,0-1.043,1.043v19.089h-2.4V198.688a1.043,1.043,0,0,0-1.043-1.043H23.784a1.043,1.043,0,0,0-1.043,1.043v13.561h-2.4V193.159a1.043,1.043,0,0,0-1.043-1.043H13.456a1.043,1.043,0,0,0-1.043,1.043v19.089h-2.4v-9.562a1.043,1.043,0,0,0-1.043-1.043H3.129a1.043,1.043,0,0,0-1.043,1.043v9.562H1.043a1.043,1.043,0,1,0,0,2.086H52.366a1.043,1.043,0,1,0,0-2.086Zm-48.193,0v-8.519H7.928v8.519Zm10.327,0V194.2h3.755v18.046Zm10.327,0V199.731h3.755v12.518Zm10.327,0V194.2h3.755v18.046Zm10.327,0V181.754h3.755v30.494Zm0,0" transform="translate(0 -160.926)"/><path class="c" d="M376.407,155.415a1.043,1.043,0,1,0,.738-.306A1.051,1.051,0,0,0,376.407,155.415Zm0,0" transform="translate(-336.869 -138.929)"/></g></g></svg>