<svg xmlns="http://www.w3.org/2000/svg" width="188" height="188" viewBox="0 0 188 188"><defs><style>.a,.c{fill:#ed1a3b;}.a{opacity:0.1;}.b{fill:#101010;font-size:14px;font-family:SFProText-Medium, SF Pro Text;font-weight:500;letter-spacing:-0.054em;}</style></defs><g transform="translate(0.002)"><rect class="a" width="188" height="188" transform="translate(-0.002)"/><text class="b" transform="translate(92.999 150)"><tspan x="-66.196" y="0">Reorder point formula</tspan></text><g transform="translate(57.849 35.361)"><path class="c" d="M83.485,134.722a1.367,1.367,0,0,0,.68-.181l5.784-3.3a1.373,1.373,0,1,0-1.362-2.385l-5.784,3.3a1.373,1.373,0,0,0,.682,2.566Z" transform="translate(-70.837 -101.516)"/><path class="c" d="M82.864,59.641l5.78,3.31a1.373,1.373,0,1,0,1.365-2.383l-5.78-3.31a1.373,1.373,0,0,0-1.365,2.383Z" transform="translate(-70.89 -39.75)"/><circle class="c" cx="1.373" cy="1.373" r="1.373" transform="translate(56.333 56.073)"/><circle class="c" cx="1.373" cy="1.373" r="1.373" transform="translate(56.318 36.77)"/><circle class="c" cx="1.373" cy="1.373" r="1.373" transform="translate(45.036 16.561)"/><path class="c" d="M69.609,56.242,59.056,50.2l0-5.875a1.374,1.374,0,0,0-1.373-1.374,1.374,1.374,0,0,0-1.372,1.373l0,5.844-9.959,5.686-9.821-5.623.007-11.288L47.1,32.912a1.378,1.378,0,0,0,.692-1.193l0-7.608a1.373,1.373,0,0,0-2.746,0l0,6.81-9.863,5.631L25.3,30.893,25.3,18.828a1.373,1.373,0,0,0-.691-1.192l-11.27-6.454a1.372,1.372,0,0,0-1.363,0L.7,17.62a1.373,1.373,0,0,0-.692,1.192L0,31.7A1.373,1.373,0,0,0,.691,32.9L11.243,38.94l-.008,12.066a1.373,1.373,0,0,0,.691,1.192l10.477,6-.008,12.254a1.373,1.373,0,0,0,.691,1.192L34.356,78.1a1.373,1.373,0,0,0,1.363,0L47,71.659a1.373,1.373,0,0,0,.692-1.192L47.7,58.309,57.71,52.592l9.844,5.637V71.551a1.373,1.373,0,1,0,2.746,0V57.433a1.373,1.373,0,0,0-.691-1.191ZM2.754,19.61l9.905-5.655,9.9,5.668-.007,11.238L12.59,36.547,2.747,30.91ZM13.989,38.972l9.959-5.686,9.844,5.637-.007,11.3L23.88,55.878l-9.9-5.668Zm30.955,30.7-9.905,5.655-9.9-5.668.007-11.3L35.053,52.7l9.9,5.668Z" transform="translate(0)"/><path class="c" d="M251.691,411.048l-5.784,3.3a1.373,1.373,0,1,0,1.362,2.385l5.784-3.3a1.373,1.373,0,1,0-1.361-2.385Z" transform="translate(-211.545 -344.964)"/><path class="c" d="M245.457,339.961a1.373,1.373,0,0,0,.509,1.874l5.78,3.31a1.373,1.373,0,1,0,1.365-2.383l-5.78-3.31A1.373,1.373,0,0,0,245.457,339.961Z" transform="translate(-211.598 -283.197)"/><path class="c" d="M204.5,363.325h0a1.373,1.373,0,0,0-1.373,1.372l0,6.521a1.373,1.373,0,0,0,1.372,1.374h0a1.373,1.373,0,0,0,1.373-1.372l0-6.521A1.373,1.373,0,0,0,204.5,363.325Z" transform="translate(-175.228 -303.95)"/><path class="c" d="M451.8,362.052l-.417-.239a1.373,1.373,0,0,0-1.638,2.178l0,8.381a1.374,1.374,0,1,0,2.747,0,0,0,0,0,1,0,0l.005-9.128A1.376,1.376,0,0,0,451.8,362.052Z" transform="translate(-387.629 -302.487)"/></g></g></svg>