<svg xmlns="http://www.w3.org/2000/svg" width="94.575" height="92.094" viewBox="0 0 94.575 92.094"><defs><style>.a{fill:#326de6;}.b{fill:#fff;}</style></defs><g transform="translate(-0.532 -0.165)"><path class="a" d="M33.259,93.08a7.213,7.213,0,0,1-5.687-2.752l-21.4-26.6A7.18,7.18,0,0,1,4.763,57.49l7.644-33.205a7.233,7.233,0,0,1,3.975-4.953l30.942-14.8a7.258,7.258,0,0,1,6.36,0L84.627,19.27A7.234,7.234,0,0,1,88.6,24.224l7.644,33.205a7.377,7.377,0,0,1-1.406,6.238l-21.4,26.6a7.4,7.4,0,0,1-5.687,2.752L33.26,93.08Z" transform="translate(-2.532 -2.288)"/><path class="b" d="M47.91,3.039a5.981,5.981,0,0,1,2.507.55L81.361,18.327A5.938,5.938,0,0,1,84.54,22.3l7.644,33.205a5.718,5.718,0,0,1-1.162,5.014l-21.4,26.6a5.827,5.827,0,0,1-4.586,2.2H30.727a5.826,5.826,0,0,1-4.586-2.2l-21.4-26.6a6.12,6.12,0,0,1-1.162-5.014L11.22,22.3a5.839,5.839,0,0,1,3.18-3.975l30.943-14.8a7.363,7.363,0,0,1,2.568-.489Zm0-2.874a9.257,9.257,0,0,0-3.791.856L13.177,15.82a8.66,8.66,0,0,0-4.77,5.931L.763,54.957a8.671,8.671,0,0,0,1.712,7.461l21.4,26.6a8.639,8.639,0,0,0,6.788,3.241H64.972a8.639,8.639,0,0,0,6.788-3.241l21.4-26.6a8.626,8.626,0,0,0,1.712-7.461L87.231,21.751a8.66,8.66,0,0,0-4.77-5.931L51.641,1.021A8.773,8.773,0,0,0,47.91.165Z"/><path class="b" d="M104.427,76.9h-.061c-.061,0-.122,0-.122-.061-.122,0-.244-.061-.367-.061a8.362,8.362,0,0,0-1.162-.122,2.283,2.283,0,0,1-.612-.061h-.061a16.133,16.133,0,0,1-3.3-.55,1.193,1.193,0,0,1-.673-.673c0-.061-.061-.061-.061-.122l-.795-.244a24.189,24.189,0,0,0-.428-8.623,25.2,25.2,0,0,0-3.424-8.011l.612-.55V57.7a1.383,1.383,0,0,1,.305-.917,17.841,17.841,0,0,1,2.752-1.9c.183-.122.367-.183.55-.306a9.157,9.157,0,0,0,1.04-.611c.061-.061.183-.122.306-.244.061-.061.122-.061.122-.123a2.043,2.043,0,0,0,.428-2.752,1.739,1.739,0,0,0-1.407-.672,2.272,2.272,0,0,0-1.345.489l-.122.122c-.122.061-.184.184-.306.245a10.1,10.1,0,0,0-.795.856,2.81,2.81,0,0,1-.428.428,15.544,15.544,0,0,1-2.446,2.2.986.986,0,0,1-.55.184.772.772,0,0,1-.367-.061h-.122l-.734.489a29.722,29.722,0,0,0-2.507-2.324,24.421,24.421,0,0,0-12.781-5.076L75.5,46.94l-.122-.122a1.279,1.279,0,0,1-.489-.795,21.482,21.482,0,0,1,.184-3.3V42.66a2.175,2.175,0,0,1,.122-.612c.061-.367.122-.734.184-1.162v-.55a1.866,1.866,0,0,0-3.241-1.407,1.938,1.938,0,0,0-.55,1.407v.489a3.564,3.564,0,0,0,.183,1.162c.061.184.061.367.122.612v.061a15.814,15.814,0,0,1,.184,3.3,1.279,1.279,0,0,1-.489.795l-.122.122-.061.795a30.665,30.665,0,0,0-3.3.489A23.576,23.576,0,0,0,56,55.012l-.612-.428h-.122c-.122,0-.245.061-.367.061a.988.988,0,0,1-.551-.183A16.213,16.213,0,0,1,51.9,52.2a2.81,2.81,0,0,0-.428-.428,10.114,10.114,0,0,0-.8-.856c-.061-.061-.183-.122-.305-.245-.061-.061-.122-.061-.122-.122a2.137,2.137,0,0,0-1.346-.489,1.74,1.74,0,0,0-1.407.673,2.042,2.042,0,0,0,.428,2.752c.061,0,.061.061.122.061.122.061.184.183.306.244a9.275,9.275,0,0,0,1.04.612,2.468,2.468,0,0,1,.551.306,17.829,17.829,0,0,1,2.752,1.9,1.122,1.122,0,0,1,.306.917v.122l.611.551a2.16,2.16,0,0,0-.306.489A23.817,23.817,0,0,0,49.88,74.825l-.795.244c0,.061-.061.061-.061.122a1.42,1.42,0,0,1-.673.673,15.428,15.428,0,0,1-3.3.551h-.061a2.081,2.081,0,0,0-.611.061,8.363,8.363,0,0,0-1.162.122c-.122,0-.244.061-.367.061a.226.226,0,0,0-.184.061,2,2,0,0,0-1.59,2.262,1.885,1.885,0,0,0,1.957,1.407,1.341,1.341,0,0,0,.489-.061c.061,0,.122,0,.122-.061.122,0,.244-.061.367-.061a5.86,5.86,0,0,0,1.1-.428c.183-.061.367-.184.55-.244h.061a15,15,0,0,1,3.18-.917h.122a1.359,1.359,0,0,1,.795.306c.061,0,.061.061.122.061l.856-.122a24.187,24.187,0,0,0,8.011,11.5,24.8,24.8,0,0,0,2.63,1.774l-.367.795c0,.061.061.061.061.122a1.257,1.257,0,0,1,.122.979,17.2,17.2,0,0,1-1.59,2.874v.061c-.122.184-.244.306-.367.489-.245.306-.428.612-.673.979a1.331,1.331,0,0,0-.183.306.213.213,0,0,1-.061.122,1.934,1.934,0,0,0,.795,2.63,1.629,1.629,0,0,0,.734.184,2.2,2.2,0,0,0,1.835-1.162.213.213,0,0,1,.061-.122,1.347,1.347,0,0,1,.183-.306,11.488,11.488,0,0,0,.367-1.1l.184-.55a14.377,14.377,0,0,1,1.284-3.058,1.572,1.572,0,0,1,.795-.551c.061,0,.061,0,.122-.061l.428-.795a23.889,23.889,0,0,0,8.561,1.59,22.2,22.2,0,0,0,5.321-.611,27.177,27.177,0,0,0,3.18-.917l.367.673c.061,0,.061,0,.123.061a1.134,1.134,0,0,1,.795.551A20.94,20.94,0,0,1,84.8,98.369v.061l.184.55a7.75,7.75,0,0,0,.367,1.1c.061.122.123.184.184.306a.213.213,0,0,0,.061.122,2.077,2.077,0,0,0,1.834,1.162,1.629,1.629,0,0,0,.734-.184,1.822,1.822,0,0,0,.917-1.1,2.214,2.214,0,0,0-.122-1.529c0-.061-.061-.061-.061-.122a1.348,1.348,0,0,0-.183-.306,5.549,5.549,0,0,0-.673-.979c-.122-.183-.244-.305-.367-.489V96.9a13.691,13.691,0,0,1-1.59-2.874,1.7,1.7,0,0,1,.061-.978c0-.061.061-.061.061-.122l-.306-.734A24.256,24.256,0,0,0,96.538,78.8l.734.122c.061,0,.061-.061.122-.061a1.556,1.556,0,0,1,.8-.305h.122a15,15,0,0,1,3.18.917h.061c.183.061.367.183.55.244a5.892,5.892,0,0,0,1.1.428c.122,0,.244.061.367.061a.224.224,0,0,1,.183.061,1.349,1.349,0,0,0,.489.061,2.058,2.058,0,0,0,1.957-1.406,2.353,2.353,0,0,0-1.774-2.018Zm-28.313-3-2.691,1.284-2.691-1.284-.672-2.874,1.834-2.324h3l1.835,2.324-.611,2.874Zm15.961-6.359a19.282,19.282,0,0,1,.428,6.176l-9.356-2.69a1.658,1.658,0,0,1-1.162-1.957,1.458,1.458,0,0,1,.367-.673l7.4-6.666a19.611,19.611,0,0,1,2.324,5.809ZM86.815,58.07,78.8,63.757a1.629,1.629,0,0,1-2.14-.367,1.364,1.364,0,0,1-.306-.673l-.55-9.968A18.561,18.561,0,0,1,86.815,58.07ZM69.081,53.055c.673-.122,1.284-.244,1.957-.367l-.55,9.784a1.674,1.674,0,0,1-1.651,1.59,1.455,1.455,0,0,1-.734-.183L59.97,58.07a18.655,18.655,0,0,1,9.112-5.015ZM57.034,61.738l7.277,6.482a1.628,1.628,0,0,1,.184,2.263,1.22,1.22,0,0,1-.734.489l-9.478,2.752A19.686,19.686,0,0,1,57.034,61.738ZM55.383,78.311l9.724-1.651a1.649,1.649,0,0,1,1.712,1.284,1.749,1.749,0,0,1-.061.979l-3.73,8.989a19.276,19.276,0,0,1-7.644-9.6ZM77.7,90.48a19.97,19.97,0,0,1-4.281.489,20.71,20.71,0,0,1-6.176-.978l4.831-8.745a1.6,1.6,0,0,1,1.957-.428,2.606,2.606,0,0,1,.734.672l4.709,8.5c-.55.183-1.162.306-1.774.489Zm11.924-8.5a19.413,19.413,0,0,1-5.87,5.931l-3.852-9.234a1.646,1.646,0,0,1,.856-1.9,1.953,1.953,0,0,1,.856-.183L91.4,78.249a12.311,12.311,0,0,1-1.774,3.73Z" transform="translate(-25.512 -24.027)"/></g></svg>