<svg xmlns="http://www.w3.org/2000/svg" width="283.031" height="60.333" viewBox="0 0 283.031 60.333"><defs><style>.a{fill:#f25022;}.b{fill:#80ba01;}.c{stroke:rgba(0,0,0,0);stroke-miterlimit:10;}.d{fill:#02a4ef;}.e{fill:#ffb902;}</style></defs><g transform="translate(676 31)"><path class="a" d="M-676-31h28.7q0,14.351,0,28.7H-676V-31Z"/><path class="b" d="M-492.5-31h28.7q0,14.351,0,28.7-14.348,0-28.7,0-.005-14.351,0-28.7Z" transform="translate(-151.866)"/><path class="c" d="M105.132,39.111a11.767,11.767,0,0,1-7.171-4.677,14.972,14.972,0,0,1-2.274-9.69,13.864,13.864,0,0,1,2.865-7.927,12.4,12.4,0,0,1,8.16-4.361,21.573,21.573,0,0,1,2.721-.179A14.792,14.792,0,0,1,115.6,13.5a11.019,11.019,0,0,1,5.421,5.479,16.9,16.9,0,0,1,1.235,8.183,13.686,13.686,0,0,1-2.729,7.553,12.074,12.074,0,0,1-7.126,4.4,17.82,17.82,0,0,1-7.268-.007Zm3.432-21.729a6.484,6.484,0,0,0-4.084,1.612,8.292,8.292,0,0,0-2.4,5.413,11.916,11.916,0,0,0,.943,6.494,6.212,6.212,0,0,0,3.891,3.21,8.86,8.86,0,0,0,2.228.287,7.869,7.869,0,0,0,2.832-.509,5.665,5.665,0,0,0,3.049-3,13.754,13.754,0,0,0,.874-6.34,8.247,8.247,0,0,0-2.142-5.407,6.553,6.553,0,0,0-4.669-1.778C108.914,17.365,108.738,17.37,108.564,17.382Zm43.951,21.105a11.444,11.444,0,0,1-6.306-6.118,17.078,17.078,0,0,1-.976-9.012,12.611,12.611,0,0,1,4.094-7.967,12.758,12.758,0,0,1,6.859-2.943,21.531,21.531,0,0,1,2.652-.17A14.438,14.438,0,0,1,165.4,13.7a11.078,11.078,0,0,1,5.331,6.035,16.488,16.488,0,0,1,.966,6.2,14.2,14.2,0,0,1-2.808,8.836,12.141,12.141,0,0,1-7.631,4.462,19.832,19.832,0,0,1-3.155.26A15.208,15.208,0,0,1,152.515,38.487Zm5.347-21.1a6.314,6.314,0,0,0-4.53,2.173,8.837,8.837,0,0,0-1.881,5.166,12.273,12.273,0,0,0,.736,5.652,6.272,6.272,0,0,0,3.274,3.425,7.615,7.615,0,0,0,3.028.589,9.587,9.587,0,0,0,1.412-.107,5.841,5.841,0,0,0,3.627-1.951,8.069,8.069,0,0,0,1.605-3.808,15.665,15.665,0,0,0-.052-5.543,7.187,7.187,0,0,0-2.246-4.13,6.582,6.582,0,0,0-4.374-1.488C158.263,17.367,158.062,17.374,157.862,17.388ZM131.457,39.469a18.458,18.458,0,0,1-6.311-1.448c.009-2-.012-4,.01-6a13.573,13.573,0,0,0,5.632,2.43,7.251,7.251,0,0,0,4.284-.393,2.479,2.479,0,0,0,.742-3.527,7.46,7.46,0,0,0-2.71-1.773,25.99,25.99,0,0,1-5.357-2.743,6.426,6.426,0,0,1-2.319-3.522,7.917,7.917,0,0,1,.858-6.192,9.241,9.241,0,0,1,6.177-3.794,16.415,16.415,0,0,1,8.591.894c0,1.9,0,3.8,0,5.706a10.939,10.939,0,0,0-6.519-1.925,3.337,3.337,0,0,0-2.965,1.64,2.682,2.682,0,0,0,.9,3.175c1.76,1.177,3.86,1.677,5.684,2.732a8.174,8.174,0,0,1,3.556,3.382,7.571,7.571,0,0,1-1.615,8.734,11.459,11.459,0,0,1-7.932,2.637Q131.809,39.482,131.457,39.469Zm-64.3-.015a12.578,12.578,0,0,1-8.086-3.372A12.93,12.93,0,0,1,55.315,27.4a15.729,15.729,0,0,1,2.455-9.631A12.489,12.489,0,0,1,64.656,12.9a16.992,16.992,0,0,1,9.221.028,7.4,7.4,0,0,1,1.77.738c-.035,1.977,0,3.956-.019,5.935a9.86,9.86,0,0,0-7.085-2.178,7.291,7.291,0,0,0-5.156,2.863,10.017,10.017,0,0,0-1.645,7.187,7.781,7.781,0,0,0,2.508,5.158,7.86,7.86,0,0,0,5.807,1.729,11.829,11.829,0,0,0,5.57-2.286c.017,1.874-.009,3.748.014,5.621a14.36,14.36,0,0,1-7.383,1.784Q67.706,39.481,67.158,39.454Zm131.354-.012a6.905,6.905,0,0,1-4.894-2.244,9.263,9.263,0,0,1-1.753-5.923c-.015-4.448,0-8.9-.007-13.344q-4.544,0-9.085,0-.006,10.469,0,20.939h-6.208q0-10.467,0-20.932c-.711-.014-1.423-.012-2.134-.011-.729,0-1.457,0-2.186-.011.005-1.657.012-3.315,0-4.973,1.433-.033,2.867-.019,4.3-.009.105-2.2-.231-4.47.428-6.616a8.462,8.462,0,0,1,3.5-4.778A11.266,11.266,0,0,1,189.522.478c.026,1.773,0,3.546.012,5.32a5.917,5.917,0,0,0-4.576-.419,3.626,3.626,0,0,0-2.07,2.9,39.2,39.2,0,0,0-.115,4.647q2.969.007,5.937,0h3.144c.022-1.965-.024-3.932.026-5.9,2.058-.586,4.094-1.243,6.142-1.86.018,2.589-.024,5.18.023,7.771,1.313-.019,2.629-.017,3.943-.015.733,0,1.465,0,2.2,0v5.041c-1.4-.058-2.8-.048-4.2-.037-.655.005-1.31.01-1.964.008.009,2.9,0,5.8,0,8.695.032,1.605-.087,3.218.1,4.818a3.123,3.123,0,0,0,1.341,2.475,4.623,4.623,0,0,0,4.72-.443v5.091a11.691,11.691,0,0,1-4.654.905Q199.02,39.478,198.512,39.442ZM6.255,11.507c-.1-.19-.2-.374-.312-.551-.076,3.9-.012,7.805-.032,11.706q0,8.1,0,16.207-1.724,0-3.448,0-1.23,0-2.461,0,0-18.1,0-36.2H9.03q4.214,10.7,8.454,21.4c.719,1.784,1.391,3.589,2.144,5.359C23.243,20.513,26.909,11.62,30.5,2.692c1.906-.031,3.814-.026,5.722-.021.988,0,1.975.006,2.964,0q-.01,18.1,0,36.194c-.729,0-1.457,0-2.185,0-1.36,0-2.72.007-4.079-.012.023-8.9,0-17.807.01-26.712,0-.4-.01-.8-.037-1.2a4.728,4.728,0,0,0-.326.579c-3.587,9.114-7.243,18.2-10.81,27.324-.866.031-1.732.027-2.6.023-.621,0-1.242-.005-1.862.005C13.59,29.762,9.936,20.628,6.255,11.507ZM44.993,38.871q-.008-12.968,0-25.936c2.058-.009,4.118-.029,6.176.01-.024,8.641,0,17.284-.01,25.926Zm35.209,0q-.008-12.964-.005-25.93c2.043-.026,4.085-.016,6.128-.005-.009,1.484,0,2.968-.005,4.454a7.947,7.947,0,0,1,3.208-4.065,7,7,0,0,1,5.761-.487c-.009,2.07,0,4.14-.005,6.211a6.6,6.6,0,0,0-4.2-.986,5.153,5.153,0,0,0-3.883,3.1,11.477,11.477,0,0,0-.884,5.3q0,6.2,0,12.406ZM47.308,8.882a3.509,3.509,0,0,1-2.882-3.458A3.592,3.592,0,0,1,47.574,1.9,3.8,3.8,0,0,1,51.009,3.12a3.539,3.539,0,0,1,.431,4.032A3.79,3.79,0,0,1,48.134,8.97,3.87,3.87,0,0,1,47.308,8.882Z" transform="translate(-597.655 -21.605)"/><path class="d" d="M-676,152.49q14.351.005,28.7,0,0,14.351,0,28.7H-676v-28.7Z" transform="translate(0 -151.86)"/><path class="e" d="M-492.5,152.5q14.348-.005,28.7,0v28.7h-28.7q0-14.351,0-28.7Z" transform="translate(-151.868 -151.866)"/></g></svg>