<svg xmlns="http://www.w3.org/2000/svg" width="188" height="188" viewBox="0 0 188 188"><defs><style>.a{fill:#ffb62a;opacity:0.1;}.b{fill:#101010;font-size:14px;font-family:SFProText-Medium, SF Pro Text;font-weight:500;letter-spacing:-0.054em;}.c{fill:#f9ba48;}</style></defs><g transform="translate(-0.404)"><rect class="a" width="188" height="188" transform="translate(0.404)"/><text class="b" transform="translate(93.403 150)"><tspan x="-66.213" y="0">Utilization of resource</tspan></text><g transform="translate(68.971 51.569)"><path class="c" d="M164.615,177.729l1.532,1.532a1.357,1.357,0,0,0,1.919,0l.959-.959c.154.07.312.136.471.2v1.356a1.359,1.359,0,0,0,1.357,1.357h2.167a1.359,1.359,0,0,0,1.357-1.357V178.5c.159-.059.317-.125.471-.2l.959.959a1.359,1.359,0,0,0,1.919,0l1.532-1.532a1.359,1.359,0,0,0,0-1.92l-.959-.959c.07-.154.136-.312.2-.471h1.356a1.359,1.359,0,0,0,1.357-1.357v-2.167a1.359,1.359,0,0,0-1.357-1.357H178.5c-.059-.159-.125-.317-.2-.471l.959-.959a1.359,1.359,0,0,0,0-1.919l-1.532-1.532a1.359,1.359,0,0,0-1.919,0l-.959.959c-.154-.07-.312-.136-.471-.2v-1.356a1.359,1.359,0,0,0-1.357-1.357h-2.167a1.359,1.359,0,0,0-1.357,1.357v1.356c-.159.059-.317.125-.471.195l-.959-.959a1.356,1.356,0,0,0-1.919,0l-1.532,1.532a1.359,1.359,0,0,0,0,1.92l.959.959c-.07.154-.136.312-.2.471h-1.356a1.359,1.359,0,0,0-1.357,1.357v2.167a1.359,1.359,0,0,0,1.357,1.357h1.356c.059.159.125.317.2.471l-.959.959A1.359,1.359,0,0,0,164.615,177.729Zm.858-4.839h-1.317v-1.9h1.317a1.357,1.357,0,0,0,1.277-.9,5.474,5.474,0,0,1,.212-.512,1.357,1.357,0,0,0-.267-1.538l-.931-.931,1.344-1.344.931.931a1.357,1.357,0,0,0,1.539.267,5.515,5.515,0,0,1,.511-.212,1.357,1.357,0,0,0,.9-1.277v-1.317h1.9v1.317a1.357,1.357,0,0,0,.9,1.277,5.474,5.474,0,0,1,.512.212,1.357,1.357,0,0,0,1.538-.267l.931-.931,1.344,1.344-.931.931a1.357,1.357,0,0,0-.267,1.538,5.505,5.505,0,0,1,.212.511,1.357,1.357,0,0,0,1.277.9h1.317v1.9H178.4a1.357,1.357,0,0,0-1.277.9,5.5,5.5,0,0,1-.212.512,1.358,1.358,0,0,0,.267,1.538l.931.931-1.344,1.344-.931-.931a1.358,1.358,0,0,0-1.539-.267,5.456,5.456,0,0,1-.511.212,1.357,1.357,0,0,0-.9,1.277v1.317h-1.9V178.4a1.357,1.357,0,0,0-.9-1.277,5.508,5.508,0,0,1-.512-.212,1.357,1.357,0,0,0-1.538.267l-.931.931-1.344-1.344.931-.931a1.358,1.358,0,0,0,.267-1.539,5.473,5.473,0,0,1-.212-.511A1.357,1.357,0,0,0,165.473,172.89Z" transform="translate(-146.507 -146.509)"/><path class="c" d="M219.947,223.923a3.976,3.976,0,1,0-3.977-3.977A3.981,3.981,0,0,0,219.947,223.923Zm0-6.463a2.486,2.486,0,1,1-2.486,2.486A2.489,2.489,0,0,1,219.947,217.46Z" transform="translate(-194.516 -194.516)"/><path class="c" d="M9.36,18.719A9.36,9.36,0,1,0,0,9.359a9.366,9.366,0,0,0,9.359,9.36Zm4.987-3.277a7.853,7.853,0,0,1-9.974,0,2.57,2.57,0,0,1,2.569-2.614h4.837a2.57,2.57,0,0,1,2.569,2.614ZM9.36,1.49a7.864,7.864,0,0,1,6.267,12.621,4.065,4.065,0,0,0-3.849-2.774H6.941a4.065,4.065,0,0,0-3.849,2.774A7.864,7.864,0,0,1,9.36,1.49Z"/><path class="c" d="M332.922,323.562a9.36,9.36,0,1,0,9.36,9.36A9.37,9.37,0,0,0,332.922,323.562ZM337.909,339a7.851,7.851,0,0,1-9.974,0,2.57,2.57,0,0,1,2.569-2.614h4.837A2.57,2.57,0,0,1,337.909,339Zm1.28-1.331a4.065,4.065,0,0,0-3.849-2.774H330.5a4.065,4.065,0,0,0-3.849,2.774,7.869,7.869,0,1,1,12.535,0Z" transform="translate(-291.42 -291.42)"/><path class="c" d="M63.761,34.6a3.64,3.64,0,0,0,0-5.151h0a3.642,3.642,0,1,0,0,5.151Zm-4.1-4.1a2.155,2.155,0,0,1,3.044,0h0a2.152,2.152,0,1,1-3.044,0Z" transform="translate(-51.826 -25.558)"/><path class="c" d="M58.633,358.181a3.642,3.642,0,0,0,5.151-5.151h0a3.642,3.642,0,1,0-5.151,5.151Zm1.053-4.1a2.152,2.152,0,1,1,0,3.044A2.155,2.155,0,0,1,59.687,354.083Z" transform="translate(-51.849 -317.001)"/><path class="c" d="M382.2,29.466a3.642,3.642,0,1,0,5.151,0h0a3.647,3.647,0,0,0-5.151,0Zm4.1,4.1a2.152,2.152,0,1,1,0-3.044h0A2.151,2.151,0,0,1,386.294,33.564Z" transform="translate(-343.271 -25.58)"/><path class="c" d="M387.348,353.03a3.642,3.642,0,1,0,0,5.151A3.647,3.647,0,0,0,387.348,353.03Zm-1.053,4.1a2.152,2.152,0,1,1,0-3.044A2.155,2.155,0,0,1,386.295,357.127Z" transform="translate(-343.271 -317.001)"/><path class="c" d="M211.429,88.208a.745.745,0,0,0,0-1.49h-9.376a.745.745,0,1,0,0,1.49Z" transform="translate(-181.31 -78.104)"/><path class="c" d="M202.054,410.281a.745.745,0,1,0,0,1.49h9.376a.745.745,0,0,0,0-1.49Z" transform="translate(-181.311 -369.524)"/><path class="c" d="M88.208,211.429v-9.376a.745.745,0,0,0-1.49,0v9.376a.745.745,0,0,0,1.49,0Z" transform="translate(-78.104 -181.31)"/><path class="c" d="M411.77,211.429v-9.376a.745.745,0,1,0-1.49,0v9.376a.745.745,0,1,0,1.49,0Z" transform="translate(-369.523 -181.31)"/><path class="c" d="M340.644,7.841a.745.745,0,0,0,1.462-.286,9.359,9.359,0,1,0-.034,3.776.745.745,0,0,0-1.457-.313,7.777,7.777,0,0,1-1.427,3.09,4.065,4.065,0,0,0-3.848-2.771H330.5a4.065,4.065,0,0,0-3.849,2.774,7.868,7.868,0,1,1,13.99-6.271ZM330.5,12.828h4.837a2.572,2.572,0,0,1,2.569,2.569v.036a7.838,7.838,0,0,1-9.974.009A2.57,2.57,0,0,1,330.5,12.828Z" transform="translate(-291.42)"/><path class="c" d="M9.36,343.872a9.361,9.361,0,0,0,1.888-18.528.745.745,0,1,0-.3,1.46,7.865,7.865,0,0,1,4.679,12.461,4.065,4.065,0,0,0-3.849-2.774H6.941a4.065,4.065,0,0,0-3.849,2.774A7.865,7.865,0,0,1,7.771,326.8a.745.745,0,1,0-.3-1.46A9.361,9.361,0,0,0,9.36,343.872Zm-2.418-5.891h4.837a2.57,2.57,0,0,1,2.569,2.614,7.853,7.853,0,0,1-9.974,0,2.57,2.57,0,0,1,2.569-2.614Z" transform="translate(0 -293.01)"/></g></g></svg>