<svg xmlns="http://www.w3.org/2000/svg" width="188" height="188" viewBox="0 0 188 188"><defs><style>.a,.c{fill:#26cc2c;}.a{opacity:0.1;}.b{fill:#101010;font-size:14px;font-family:SFProText-Medium, SF Pro Text;font-weight:500;letter-spacing:-0.054em;}</style></defs><g transform="translate(0.064)"><rect class="a" width="188" height="188" transform="translate(-0.064)"/><text class="b" transform="translate(92.936 150)"><tspan x="-56.318" y="0">Production control</tspan></text><g transform="translate(66.304 51.32)"><path class="c" d="M.891,21.114H5.836a13.256,13.256,0,0,0,1.255,3.02l-3.5,3.5a.892.892,0,0,0,0,1.261l3.781,3.782a.892.892,0,0,0,1.26,0l3.5-3.5a13.246,13.246,0,0,0,3.019,1.255v4.945a.891.891,0,0,0,.891.891h5.348a.891.891,0,0,0,.891-.891V30.431A13.247,13.247,0,0,0,25.3,29.175l3.5,3.5a.917.917,0,0,0,1.26,0l3.782-3.782a.892.892,0,0,0,0-1.261l-3.5-3.5a13.255,13.255,0,0,0,1.255-3.02h4.945a.891.891,0,0,0,.891-.891V14.875a.891.891,0,0,0-.891-.891H31.6a13.26,13.26,0,0,0-1.255-3.02l3.5-3.5a.892.892,0,0,0,0-1.261L30.062,2.423a.892.892,0,0,0-1.26,0l-3.5,3.5a13.284,13.284,0,0,0-3.019-1.255V-.277a.891.891,0,0,0-.891-.891H16.043a.891.891,0,0,0-.891.891V4.668a13.285,13.285,0,0,0-3.019,1.255l-3.5-3.5a.917.917,0,0,0-1.26,0L3.591,6.205a.892.892,0,0,0,0,1.261l3.5,3.5a13.259,13.259,0,0,0-1.255,3.02H.891A.891.891,0,0,0,0,14.875v5.348a.891.891,0,0,0,.891.891Zm.891-5.348H6.533a.891.891,0,0,0,.871-.7A11.467,11.467,0,0,1,8.966,11.31a.892.892,0,0,0-.12-1.111L5.481,6.835,8,4.313l3.363,3.364a.892.892,0,0,0,1.112.121,11.485,11.485,0,0,1,3.756-1.562.892.892,0,0,0,.7-.871V.615H20.5V5.365a.892.892,0,0,0,.7.871A11.485,11.485,0,0,1,24.956,7.8a.892.892,0,0,0,1.112-.121l3.363-3.364,2.521,2.522L28.589,10.2a.892.892,0,0,0-.12,1.112,11.464,11.464,0,0,1,1.56,3.757.892.892,0,0,0,.871.7h4.752v3.565H30.9a.892.892,0,0,0-.871.7,11.453,11.453,0,0,1-1.56,3.755.892.892,0,0,0,.12,1.112l3.364,3.363-2.521,2.522-3.363-3.364a.892.892,0,0,0-1.112-.12A11.458,11.458,0,0,1,21.2,28.862a.891.891,0,0,0-.7.871v4.751H16.935V29.733a.891.891,0,0,0-.7-.871A11.459,11.459,0,0,1,12.478,27.3a.892.892,0,0,0-1.112.12L8,30.785,5.482,28.264,8.845,24.9a.892.892,0,0,0,.12-1.112A11.471,11.471,0,0,1,7.4,20.032a.891.891,0,0,0-.871-.7H1.783Zm0,0"/><path class="c" d="M137.13,143.093a7.13,7.13,0,1,0-7.13-7.13A7.13,7.13,0,0,0,137.13,143.093Zm0-12.478a5.348,5.348,0,1,1-5.348,5.348A5.348,5.348,0,0,1,137.13,130.615Zm0,0" transform="translate(-118.413 -118.413)"/><path class="c" d="M109.8,118.441a9.8,9.8,0,1,0-9.8-9.8A9.8,9.8,0,0,0,109.8,118.441Zm0-17.826a8.022,8.022,0,1,1-8.022,8.022A8.022,8.022,0,0,1,109.8,100.615Zm0,0" transform="translate(-91.087 -91.087)"/><path class="c" d="M50.8,294.875v-7.13a.891.891,0,0,0-.891-.891H48.13v-7.13a.891.891,0,0,0-.891-.891H39.217a.891.891,0,0,0-.891.891v7.13H33.869a.891.891,0,0,0-.891.891v7.13H4.456A4.462,4.462,0,0,0,0,299.332v1.783a4.462,4.462,0,0,0,4.456,4.457H50.8a4.462,4.462,0,0,0,4.456-4.457v-1.783A4.462,4.462,0,0,0,50.8,294.875Zm-1.783,0H42.782v-6.239h6.239Zm-8.913-14.261h6.239v6.239H40.108Zm-5.348,8.022H41v6.239H34.761Zm18.717,12.478a2.674,2.674,0,0,1-2.674,2.674H4.456a2.674,2.674,0,0,1-2.674-2.674v-1.783a2.674,2.674,0,0,1,2.674-2.674H50.8a2.674,2.674,0,0,1,2.674,2.674Zm0,0" transform="translate(0 -255.044)"/><path class="c" d="M282.674,488.832a2.674,2.674,0,1,0,2.674,2.674A2.674,2.674,0,0,0,282.674,488.832Zm0,3.565a.891.891,0,1,1,.891-.891A.891.891,0,0,1,282.674,492.4Zm0,0" transform="translate(-255.044 -446.326)"/><path class="c" d="M182.674,488.832a2.674,2.674,0,1,0,2.674,2.674A2.674,2.674,0,0,0,182.674,488.832Zm0,3.565a.891.891,0,1,1,.891-.891A.891.891,0,0,1,182.674,492.4Zm0,0" transform="translate(-163.957 -446.326)"/><path class="c" d="M382.674,488.832a2.674,2.674,0,1,0,2.674,2.674A2.674,2.674,0,0,0,382.674,488.832Zm0,3.565a.891.891,0,1,1,.891-.891A.891.891,0,0,1,382.674,492.4Zm0,0" transform="translate(-346.131 -446.326)"/><path class="c" d="M82.674,488.832a2.674,2.674,0,1,0,2.674,2.674A2.674,2.674,0,0,0,82.674,488.832Zm0,3.565a.891.891,0,1,1,.891-.891A.891.891,0,0,1,82.674,492.4Zm0,0" transform="translate(-72.87 -446.326)"/><path class="c" d="M482.674,488.832a2.674,2.674,0,1,0,2.674,2.674A2.674,2.674,0,0,0,482.674,488.832Zm0,3.565a.891.891,0,1,1,.891-.891A.891.891,0,0,1,482.674,492.4Zm0,0" transform="translate(-437.218 -446.326)"/></g></g></svg>