<svg xmlns="http://www.w3.org/2000/svg" width="188" height="188" viewBox="0 0 188 188"><defs><style>.a,.c{fill:#ed1a3b;}.a{opacity:0.1;}.b{fill:#101010;font-size:14px;font-family:SFProText-Medium, SF Pro Text;font-weight:500;letter-spacing:-0.054em;}</style></defs><g transform="translate(-0.468)"><rect class="a" width="188" height="188" transform="translate(0.468)"/><text class="b" transform="translate(93.469 150)"><tspan x="-70.725" y="0">Execution arrangement</tspan></text><g transform="translate(66.341 48.874)"><path class="c" d="M7.871,29.868A.871.871,0,0,0,7,30.739v2.613H8.742V31.609H27.9v1.742h1.742V31.609H48.8v1.742h1.742V30.739a.871.871,0,0,0-.871-.871H29.643V28.126h8.709a.871.871,0,0,0,.871-.871V25.513a4.359,4.359,0,0,0-4.354-4.354,2.616,2.616,0,0,1-2.613-2.613v-.833a8.636,8.636,0,0,0,3.483-6.919V8.1a6.1,6.1,0,0,0-6.1-6.1H27.9a6.1,6.1,0,0,0-6.1,6.1v2.7a8.636,8.636,0,0,0,3.483,6.919v.833a2.616,2.616,0,0,1-2.613,2.613,4.359,4.359,0,0,0-4.354,4.354v1.742a.871.871,0,0,0,.871.871h1.742V26.384h-.871v-.871A2.616,2.616,0,0,1,22.676,22.9a4.322,4.322,0,0,0,2.519-.815L27.9,23.439v2.945H23.546v1.742H27.9v1.742ZM27.9,3.742h1.742A4.359,4.359,0,0,1,34,8.1V9.774a3.458,3.458,0,0,1-2.442-2.654l-.188-.937a.856.856,0,0,0-.94-.674.891.891,0,0,0-.785.887,3.5,3.5,0,0,1-3.45,3.488l-2.647.03V8.1A4.359,4.359,0,0,1,27.9,3.742ZM23.61,11.655l2.6-.029a5.221,5.221,0,0,0,4.33-2.405,5.179,5.179,0,0,0,3.4,2.334,6.9,6.9,0,0,1-4.14,5.6,2.63,2.63,0,0,1-2.058,0,6.9,6.9,0,0,1-4.132-5.5Zm3.446,7.1a4.379,4.379,0,0,0,3.431,0c.016-.007.03-.017.045-.024a4.324,4.324,0,0,0,.685,2.17L28.8,21.942l-2.388-1.194a4.3,4.3,0,0,0,.6-2.012c.016.006.03.016.045.023Zm2.586,4.716,2.918-1.251a4.314,4.314,0,0,0,2.307.677,2.616,2.616,0,0,1,2.613,2.613v.871H29.643Z" transform="translate(-0.646)"/><path class="c" d="M36.934,46.1a6.1,6.1,0,0,0-6.1-6.1H23.871a.871.871,0,0,0-.871.871,6.1,6.1,0,0,0,6.1,6.1H35.1a4.355,4.355,0,0,1-8.561-.145l-1.718.288a6.065,6.065,0,0,0,2.766,4.146,6.974,6.974,0,0,0-3.72,6.161v.871a.871.871,0,0,0,.871.871H36.934a.871.871,0,0,0,.871-.871v-.871a6.968,6.968,0,0,0-3.731-6.164,6.093,6.093,0,0,0,2.86-5.157Zm-.871,11.321H25.613a5.23,5.23,0,0,1,4.354-5.147v4.276h1.742V52.271A5.23,5.23,0,0,1,36.063,57.417ZM24.83,41.742h6.008A4.361,4.361,0,0,1,35.1,45.225H29.1a4.361,4.361,0,0,1-4.266-3.483Z" transform="translate(-2.712 -4.907)"/><path class="c" d="M13.074,51.253A6.09,6.09,0,0,0,9.838,40H2.871A.871.871,0,0,0,2,40.871a6.1,6.1,0,0,0,6.1,6.1H14.1a4.355,4.355,0,0,1-8.561-.145l-1.718.288a6.065,6.065,0,0,0,2.766,4.146,6.974,6.974,0,0,0-3.72,6.161v.871a.871.871,0,0,0,.871.871H15.934a.871.871,0,0,0,.871-.871v-.871a6.968,6.968,0,0,0-3.731-6.164ZM3.83,41.742H9.838A4.361,4.361,0,0,1,14.1,45.225H8.1A4.361,4.361,0,0,1,3.83,41.742Zm.783,15.676a5.23,5.23,0,0,1,4.354-5.147v4.276h1.742V52.271a5.229,5.229,0,0,1,4.354,5.147Z" transform="translate(0 -4.907)"/><path class="c" d="M56.074,51.253A6.09,6.09,0,0,0,52.838,40H45.871a.871.871,0,0,0-.871.871,6.1,6.1,0,0,0,6.1,6.1H57.1a4.355,4.355,0,0,1-8.561-.145l-1.718.288a6.065,6.065,0,0,0,2.766,4.146,6.974,6.974,0,0,0-3.72,6.161v.871a.871.871,0,0,0,.871.871H58.934a.871.871,0,0,0,.871-.871v-.871a6.968,6.968,0,0,0-3.731-6.164ZM46.83,41.742h6.008A4.361,4.361,0,0,1,57.1,45.225H51.1A4.361,4.361,0,0,1,46.83,41.742Zm.783,15.676a5.23,5.23,0,0,1,4.354-5.147v4.276h1.742V52.271a5.229,5.229,0,0,1,4.354,5.147Z" transform="translate(-5.553 -4.907)"/></g></g></svg>