<svg xmlns="http://www.w3.org/2000/svg" width="188" height="188" viewBox="0 0 188 188"><defs><style>.a,.c{fill:#0a81f6;}.a{opacity:0.1;}.b{fill:#101010;font-size:14px;font-family:SFProText-Medium, SF Pro Text;font-weight:500;letter-spacing:-0.054em;}</style></defs><g transform="translate(0)"><rect class="a" width="188" height="188" transform="translate(0)"/><text class="b" transform="translate(94.001 150)"><tspan x="-71.001" y="0">Entire planning process</tspan></text><g transform="translate(62.306 0.796)"><path class="c" d="M55.786,60.4V57.012a1.489,1.489,0,0,0-1.478-1.477H51.27a1.483,1.483,0,0,0-1.478,1.477V60.4h5.994ZM17.513,76.851a.915.915,0,1,1,1.294-1.294l.834.834,2.315-2.318a.916.916,0,1,1,1.294,1.3l-2.962,2.962a.917.917,0,0,1-1.294,0ZM51.873,66.286a.915.915,0,1,1,1.831,0V85.5a.915.915,0,1,1-1.831,0ZM37.439,97.264h5.634V93.336H37.439Zm6.547,1.831H14.126a.919.919,0,0,1-.917-.917V92.419a.916.916,0,0,1,.917-.913h6.551V86.288a.913.913,0,0,1,.913-.913h7.468a.913.913,0,0,1,.914.913v1.626h6.551a.919.919,0,0,1,.917.917v2.675h6.547a.916.916,0,0,1,.917.913v5.758a.918.918,0,0,1-.917.917ZM29.971,97.264H35.6V89.748H29.971Zm-7.464,0H28.14V87.2H22.507Zm-7.468,0h5.637V93.336H15.039ZM11.177,65.369H47.959V57.012A3.32,3.32,0,0,1,51.27,53.7h3.038a3.32,3.32,0,0,1,3.308,3.308v8.357h3.973a.916.916,0,0,1,.913.917v35.895a.913.913,0,0,1-.913.914H36.241a.915.915,0,0,1,0-1.831H60.673V67.2H57.617v6.62a.915.915,0,1,1-1.831,0V62.227H49.793V89.561h5.994V77.969a.915.915,0,1,1,1.831,0V90.475a.972.972,0,0,1-.156.519l-3.855,7.592a.931.931,0,0,1-.408.408.912.912,0,0,1-1.225-.4L48.1,90.977a.974.974,0,0,1-.145-.5V67.2H11.177v6.928a.915.915,0,1,1-1.831,0V56.275a4.856,4.856,0,0,0-2.6-.74A4.915,4.915,0,0,0,1.83,60.452V91.727c.048-.052.1-.1.145-.152A6.729,6.729,0,0,1,6.748,89.6a6.833,6.833,0,0,1,2.145.35c.152.052.3.111.453.173V78.277a.915.915,0,1,1,1.831,0V91.693a.916.916,0,0,1-1.467.727,4.794,4.794,0,0,0-1.4-.737,4.919,4.919,0,1,0-1.564,9.582H32.1a.915.915,0,0,1,0,1.831H6.748A6.746,6.746,0,0,1,0,96.347v-35.9a6.748,6.748,0,0,1,10.769-5.419.922.922,0,0,1,.408.765v9.572ZM55.212,91.392H50.364l2.426,4.772ZM42.976,70.916a.915.915,0,0,1,0,1.831H30.584a.915.915,0,0,1,0-1.831Zm-5.153,8.741a.915.915,0,1,1,0,1.831H30.584a.915.915,0,0,1,0-1.831Zm5.153-4.371a.915.915,0,0,1,0,1.831H30.584a.915.915,0,0,1,0-1.831ZM15.139,70.041H25.628a.916.916,0,0,1,.913.917V81.446a.916.916,0,0,1-.913.917H15.139a.916.916,0,0,1-.917-.917V70.958a.916.916,0,0,1,.917-.917Zm9.572,1.834H16.053v8.658h8.658Z"/></g></g></svg>