<svg xmlns="http://www.w3.org/2000/svg" width="258.537" height="47.272" viewBox="0 0 258.537 47.272"><defs><style>.a{fill:#1a1818;}.b{fill:#ea3516;}</style></defs><g transform="translate(0.001)"><path class="a" d="M526.025,45.454c-3.339,0-6.808.911-11.1,3.209l2.385,5.9c3.729-2.081,6.808-2.992,9.063-2.992,2.558,0,3.686.954,3.686,2.212v.087c0,.867-.694,1.344-2.385,1.518l-2.949.3c-7.372.78-10.407,3.989-10.407,8.412v.3c0,4.206,3.469,7.5,8.369,7.5a9.243,9.243,0,0,0,7.733-3.767l.55,3.333h6.678V56.338c0-7.155-4.119-10.884-11.622-10.884m-.65,20.685c-2.472,0-3.643-.954-3.643-2.428v-.087c0-1.3.737-2.255,3.426-2.645l1.171-.173a9.207,9.207,0,0,0,3.729-1.139v1.92c0,2.905-1.821,4.553-4.683,4.553" transform="translate(-416.185 -36.781)"/><path class="b" d="M101.3,10.134,92.761,1.591l-8.543,8.543,4.25,4.25L67.046,35.805l8.543,8.543,8.543-8.543-4.25-4.25Z" transform="translate(-54.254 -1.287)"/><rect class="b" width="30.295" height="12.081" transform="matrix(0.707, -0.707, 0.707, 0.707, -0.001, 21.725)"/><rect class="b" width="30.295" height="12.081" transform="translate(29.877 34.518) rotate(-45.001)"/><rect class="a" width="7.589" height="34.691" transform="translate(125.799)"/><path class="a" d="M383.867,45.454a8.906,8.906,0,0,0-7.745,3.917l-.581-3.483h-6.678V80.145h7.589V68.271a8.65,8.65,0,0,0,7.415,3.635c6.071,0,11.014-5.377,11.014-12.793v-.867c0-7.415-4.943-12.793-11.014-12.793M387.076,58.9c0,3.9-2.038,6.721-5.421,6.721s-5.42-2.819-5.42-6.721v-.434c0-3.9,2.038-6.721,5.42-6.721s5.421,2.819,5.421,6.721Z" transform="translate(-298.484 -36.781)"/><path class="a" d="M1179.589,45.454c-7.762,0-13.226,5.377-13.226,12.793v.867c0,7.415,5.464,12.793,13.226,12.793s13.226-5.377,13.226-12.793v-.867c0-7.415-5.464-12.793-13.226-12.793M1185.01,58.9c0,3.9-2.038,6.721-5.421,6.721s-5.421-2.819-5.421-6.721v-.434c0-3.9,2.038-6.721,5.421-6.721s5.421,2.819,5.421,6.721Z" transform="translate(-943.819 -36.781)"/><path class="a" d="M1328.524,47.751v-.13c0-.737-.564-1.258-1.561-1.258h-1.734v3.989h.824V49.008h.916l.688,1.344h.911l-.847-1.579a1.042,1.042,0,0,0,.8-1.023m-2.472-.65h.911c.52,0,.737.173.737.564v.043c0,.347-.217.564-.737.564h-.911Z" transform="translate(-1072.372 -37.517)"/><path class="a" d="M1315.938,35.227a4.12,4.12,0,1,0,4.12,4.12,4.037,4.037,0,0,0-4.12-4.12m0,7.675a3.556,3.556,0,1,1,3.512-3.556,3.4,3.4,0,0,1-3.512,3.556" transform="translate(-1061.521 -28.506)"/><rect class="a" width="7.589" height="34.691" transform="translate(192.623)"/><path class="a" d="M1082.669,42.63c-2.212,0-3.036-1.084-3.036-3.426V28.753h8.933V22.9h-8.933V17.045l-7.589,1.127V39.941c0,5.941,3.036,8.976,9.107,8.976a17.966,17.966,0,0,0,8.456-2.3l-2.168-5.377a12.088,12.088,0,0,1-4.77,1.388" transform="translate(-867.496 -13.793)"/><path class="a" d="M876.253,45.454c-3.339,0-6.808.911-11.1,3.209l2.385,5.9c3.729-2.081,6.808-2.992,9.063-2.992,2.558,0,3.686.954,3.686,2.212v.087c0,.867-.694,1.344-2.385,1.518l-2.949.3c-7.372.78-10.407,3.989-10.407,8.412v.3c0,4.206,3.469,7.5,8.369,7.5a9.244,9.244,0,0,0,7.733-3.766l.55,3.333h6.678V56.338c0-7.155-4.119-10.884-11.622-10.884m-.65,20.685c-2.472,0-3.643-.954-3.643-2.428v-.087c0-1.3.737-2.255,3.426-2.645l1.171-.173a9.208,9.208,0,0,0,3.729-1.139v1.92c0,2.905-1.821,4.553-4.683,4.553" transform="translate(-699.589 -36.781)"/><path class="a" d="M730.044,45.454c-7.762,0-13.226,5.377-13.226,12.793v.867c0,7.415,5.464,12.793,13.226,12.793s13.226-5.377,13.226-12.793v-.867c0-7.415-5.464-12.793-13.226-12.793m5.42,13.443c0,3.9-2.038,6.721-5.42,6.721s-5.42-2.819-5.42-6.721v-.434c0-3.9,2.038-6.721,5.42-6.721s5.42,2.819,5.42,6.721Z" transform="translate(-580.048 -36.781)"/><path class="a" d="M948.935,214.057h1.944l2.684,3.541h.027v-3.541h1.784V220.3h-1.882l-2.747-3.63h-.027v3.63h-1.784Z" transform="translate(-767.877 -173.215)"/><path class="a" d="M995.109,214.057h5.458l.071,1.516h-3.665v.856h2.88v1.382h-2.88v.972h3.772l-.071,1.516h-5.565Z" transform="translate(-805.241 -173.215)"/><path class="a" d="M1035.29,215.663h-2.185l.071-1.605h6.109l.071,1.605h-2.185V220.3h-1.881Z" transform="translate(-835.988 -173.215)"/><path class="a" d="M1073.766,214.057h2l1.017,4.334h.1l1.32-4.334h1.828l1.293,4.334h.1l1-4.334h1.908l-1.641,6.242h-2.452l-1.142-3.763h-.053l-1.159,3.763h-2.461Z" transform="translate(-868.89 -173.215)"/><path class="a" d="M1136.3,216.385c0-2.033,1.382-3.309,3.567-3.309s3.567,1.275,3.567,3.309-1.382,3.309-3.567,3.309-3.567-1.275-3.567-3.309m5.27,0a1.7,1.7,0,1,0-1.712,1.721,1.567,1.567,0,0,0,1.712-1.721" transform="translate(-919.491 -172.421)"/><path class="a" d="M1184.3,214.057h3.639c1.659,0,2.47.785,2.47,2.238a1.945,1.945,0,0,1-1.213,2l1.48,2.006h-2.122l-1.151-1.641h-1.231V220.3H1184.3Zm3.4,3.139a.817.817,0,1,0,0-1.632h-1.525V217.2Z" transform="translate(-958.331 -173.215)"/><path class="a" d="M1229.068,214.057h1.873v2.3h.767l1.828-2.3h2.1l.009.009-2.39,2.987,2.523,3.237-.009.009h-2.185l-1.891-2.4h-.758v2.4h-1.873Z" transform="translate(-994.56 -173.215)"/><path class="a" d="M1271.633,219.171v-1.712h.009a6.675,6.675,0,0,0,2.943.785c.669,0,1.008-.16,1.008-.473s-.223-.392-1.561-.607c-1.462-.232-2.434-.669-2.434-1.926,0-1.168,1.026-2.069,3.032-2.069a6.24,6.24,0,0,1,2.417.5v1.695l-.009.009a5.47,5.47,0,0,0-2.542-.7c-.714,0-1,.17-1,.455,0,.366.437.4,1.534.589,1.463.25,2.434.66,2.434,1.98,0,1.025-.767,2.051-2.969,2.051a7.451,7.451,0,0,1-2.863-.58" transform="translate(-1028.974 -172.497)"/></g></svg>