<svg xmlns="http://www.w3.org/2000/svg" width="188" height="188" viewBox="0 0 188 188"><defs><style>.a,.c{fill:#ed1a3b;}.a{opacity:0.1;}.b{fill:#101010;font-size:14px;font-family:SFProText-Medium, SF Pro Text;font-weight:500;letter-spacing:-0.054em;}</style></defs><g transform="translate(-0.468)"><rect class="a" width="188" height="188" transform="translate(0.468)"/><text class="b" transform="translate(93.469 150)"><tspan x="-54.816" y="0">Risk management</tspan></text><g transform="translate(63.676 48.911)"><path class="c" d="M59.9,74.817,34.693,31.15a5.077,5.077,0,0,0-8.793,0L.688,74.817a5.077,5.077,0,0,0,4.4,7.615H55.507a5.077,5.077,0,0,0,4.4-7.615Zm-1.537,4.189a3.268,3.268,0,0,1-2.86,1.651H5.085A3.3,3.3,0,0,1,2.225,75.7L27.436,32.038a3.3,3.3,0,0,1,5.719,0L58.367,75.7h0A3.268,3.268,0,0,1,58.367,79.007Z" transform="translate(0 -28.612)"/><path class="c" d="M282.225,145.366a.888.888,0,0,0-1.537.888l18.047,31.259H284.3a.888.888,0,1,0,0,1.775h15.968a.888.888,0,0,0,.769-1.331Z" transform="translate(-247.367 -131.158)"/><path class="c" d="M74.316,128.562H59.884l21.072-36.5,1.029,1.783a.888.888,0,0,0,1.537-.888l-1.8-3.114a.887.887,0,0,0-1.537,0l-22.609,39.16a.888.888,0,0,0,.769,1.331H74.316a.888.888,0,1,0,0-1.775Z" transform="translate(-50.659 -82.208)"/><path class="c" d="M228.2,380.243a3.733,3.733,0,1,0,3.733,3.733A3.738,3.738,0,0,0,228.2,380.243Zm0,5.692a1.958,1.958,0,1,1,1.958-1.958A1.961,1.961,0,0,1,228.2,385.935Z" transform="translate(-197.905 -338.632)"/><path class="c" d="M226.737,195.872A1.836,1.836,0,0,0,224.9,197.8l.849,16.126a1.836,1.836,0,0,0,1.834,1.74h1.994a1.836,1.836,0,0,0,1.834-1.74l.849-16.126a1.836,1.836,0,0,0-1.834-1.933Zm3.753,1.839-.849,16.126a.061.061,0,0,1-.061.058h-1.994a.061.061,0,0,1-.061-.058l-.849-16.126a.061.061,0,0,1,.061-.064h3.692a.061.061,0,0,1,.061.064Z" transform="translate(-198.287 -176.079)"/></g></g></svg>