<svg xmlns="http://www.w3.org/2000/svg" width="188" height="188" viewBox="0 0 188 188"><defs><style>.a,.c{fill:#bbc7af;}.a{opacity:0.1;}.b{fill:#101010;font-size:14px;font-family:SFProText-Medium, SF Pro Text;font-weight:500;letter-spacing:-0.054em;}</style></defs><g transform="translate(0.064)"><rect class="a" width="188" height="188" transform="translate(-0.064)"/><text class="b" transform="translate(92.936 150)"><tspan x="-85.018" y="0">Feedbacks for improvement</tspan></text><g transform="translate(70.266 41.205)"><path class="c" d="M53.261,9.35H51.513V5.259a5.245,5.245,0,1,0-10.489,0V6.695a4.106,4.106,0,0,1-2.958,3.933l-1.7.488V11.1A1.751,1.751,0,0,0,34.614,9.35H27.621A1.751,1.751,0,0,0,25.873,11.1v7.83H5.245A5.258,5.258,0,0,0,0,24.192V58.084a1.747,1.747,0,0,0,2.718,1.459l6.552-4.38H42.539A5.258,5.258,0,0,0,47.783,49.9V31.555h5.478a6.426,6.426,0,0,0,6.41-6.428v-9.35A6.426,6.426,0,0,0,53.261,9.35ZM29.369,12.856h3.5V28.049h-3.5ZM44.287,49.9a1.753,1.753,0,0,1-1.748,1.753H8.741a1.744,1.744,0,0,0-.97.295L3.5,54.808V24.192a1.753,1.753,0,0,1,1.748-1.753H25.873V29.8a1.751,1.751,0,0,0,1.748,1.753h6.993A1.75,1.75,0,0,0,36.35,30a9.826,9.826,0,0,0,5.293,1.554h2.644ZM56.175,25.127a2.921,2.921,0,0,1-2.914,2.922H41.643a6.358,6.358,0,0,1-5.281-2.834V14.762L39.026,14a7.626,7.626,0,0,0,5.494-7.3V5.259a1.748,1.748,0,1,1,3.5,0V11.1a1.751,1.751,0,0,0,1.748,1.753h3.5a2.921,2.921,0,0,1,2.914,2.922Z"/><path class="c" d="M61.748,255.506H73.4a1.753,1.753,0,0,0,0-3.506H61.748a1.753,1.753,0,0,0,0,3.506Z" transform="translate(-53.007 -222.549)"/><path class="c" d="M92.05,312h-30.3a1.753,1.753,0,0,0,0,3.506h30.3a1.753,1.753,0,0,0,0-3.506Z" transform="translate(-53.007 -275.537)"/><path class="c" d="M92.05,372h-30.3a1.753,1.753,0,0,0,0,3.506h30.3a1.753,1.753,0,0,0,0-3.506Z" transform="translate(-53.007 -328.525)"/></g></g></svg>