<svg xmlns="http://www.w3.org/2000/svg" width="188" height="188" viewBox="0 0 188 188"><defs><style>.a,.c{fill:#00b3a8;}.a{opacity:0.1;}.b{fill:#101010;font-size:14px;font-family:SFProText-Medium, SF Pro Text;font-weight:500;letter-spacing:-0.054em;}</style></defs><g transform="translate(0)"><rect class="a" width="188" height="188" transform="translate(0)"/><text class="b" transform="translate(94.001 150)"><tspan x="-74.161" y="0">Better employee relation</tspan></text><g transform="translate(71.337 36.515)"><g transform="translate(0 16.224)"><path class="c" d="M50.576,56.893a.752.752,0,0,0-.752.752v5.024a.127.127,0,0,1-.127.127H46.841V51.81a.752.752,0,1,0-1.5,0V62.8H39.816l1.494-1.644a1.2,1.2,0,0,0,.291-.965l0-.022-1.68-9.924.309-.465.081.057a1.177,1.177,0,0,0,1.735-.434h0l1.709-3.426,3.9,1.512a3.742,3.742,0,0,1,2.168,3.393v3.259a.752.752,0,0,0,1.5,0V50.877a5.243,5.243,0,0,0-3.1-4.785l-.014-.006-6.648-2.575V42.142a5.49,5.49,0,0,0,1.985-3.41,2.624,2.624,0,0,0,1.4-.615,2.589,2.589,0,0,0,.315-3.6V32.489a7.195,7.195,0,0,0-11.874-5.471,2.585,2.585,0,0,0-.582-1.565V23.425a7.2,7.2,0,1,0-14.4,0v2.082a2.453,2.453,0,0,0-.581,1.505,7.168,7.168,0,0,0-2.836-1.485.752.752,0,1,0-.383,1.454,5.7,5.7,0,0,1,4.242,5.509v1.124l-.141-.025a.866.866,0,0,0-.18-.508c-.192-.277-.538-.621-1.65-1.816a1.189,1.189,0,0,0-1.523-.186A10.744,10.744,0,0,1,8.986,32.83a1.2,1.2,0,0,0-1.322.77l-.213.043V32.489A5.733,5.733,0,0,1,11.5,27.035a.752.752,0,1,0-.434-1.44A7.258,7.258,0,0,0,7.4,28.156a7.136,7.136,0,0,0-1.45,4.333v2.082a2.45,2.45,0,0,0-.584,1.585,2.6,2.6,0,0,0,2.3,2.577,5.554,5.554,0,0,0,2.1,3.5v1.281L3.117,46.087l-.014.006A5.242,5.242,0,0,0,0,50.877V62.669A1.632,1.632,0,0,0,1.631,64.3H24.785a1.62,1.62,0,0,0,.879-.259,1.619,1.619,0,0,0,.879.259H49.7a1.632,1.632,0,0,0,1.63-1.63V57.645A.752.752,0,0,0,50.576,56.893ZM7.589,37.18a1.085,1.085,0,0,1-.722-1.024,1.111,1.111,0,0,1,.722-.978Zm34.754,8.247-1.476,2.958L39.2,47.2l1.845-2.278Zm-4.225.73-1.945-2.4v-.721a6.064,6.064,0,0,0,1.954.32h0A5.559,5.559,0,0,0,40.059,43v.757ZM39,48.9l-.277.416H37.512l-.277-.416.883-.627ZM25.662,37.092l-1.945-2.4V33.97a6.063,6.063,0,0,0,1.954.32h0a5.558,5.558,0,0,0,1.931-.351V34.7Zm.883,2.747-.277.416H25.056l-.277-.416.883-.627ZM19.741,29.6a2.689,2.689,0,0,0,.377.072,5.554,5.554,0,0,0,2.1,3.5v1.281l-1.534.595a2.577,2.577,0,0,0-.332-.524V32.489A7.183,7.183,0,0,0,19.741,29.6Zm9.917-.8a4.055,4.055,0,0,1-8.108,0V25.278a12.313,12.313,0,0,0,6.857-1.864c.678.727,1.081,1.149,1.251,1.345C29.657,26.632,29.657,27.355,29.657,28.8Zm1.435.868a2.7,2.7,0,0,0,.375-.072,7.157,7.157,0,0,0-.609,2.894v2.082a2.566,2.566,0,0,0-.3.439l-1.454-.563V33.078A5.491,5.491,0,0,0,31.092,29.668Zm-8.365,6.195,1.846,2.278-1.259.894,0,0-.4.284-1.476-2.958Zm4.665,1.482,1.2-1.483,1.293.5L28.412,39.32l-.4-.284h0l-1.261-.9Zm.379,3.365.08.057a1.177,1.177,0,0,0,1.735-.434h0l1.269-2.543a2.639,2.639,0,0,0,1.716.945,5.466,5.466,0,0,0,2.1,3.5v1.281L28.277,45.99l-.815-4.815Zm7.412,4.217,1.846,2.278-1.66,1.179-1.476-2.958Zm6.93-7.062a4.055,4.055,0,0,1-8.108,0V34.343a12.319,12.319,0,0,0,6.857-1.864c.678.727,1.081,1.149,1.251,1.345C42.113,35.7,42.113,36.419,42.113,37.865Zm2.227-1.709a1.086,1.086,0,0,1-.722,1.024V35.134A1.084,1.084,0,0,1,44.34,36.156ZM32.362,32.489a5.7,5.7,0,1,1,11.393,0v1.124l-.141-.025a.866.866,0,0,0-.18-.508c-.2-.284-.539-.622-1.65-1.816a1.189,1.189,0,0,0-1.523-.186,10.764,10.764,0,0,1-6.42,1.749,1.183,1.183,0,0,0-1.266.773l-.213.043V32.489Zm.139,2.688v2a1.083,1.083,0,0,1-.722-1.023A1.11,1.11,0,0,1,32.5,35.177Zm-.617-8.086a1.082,1.082,0,0,1-.376.821,1.113,1.113,0,0,1-.346.2V26.069A1.084,1.084,0,0,1,31.884,27.091ZM25.6,17.728a5.7,5.7,0,0,1,5.7,5.7v1.125l-.141-.025a.911.911,0,0,0-.213-.555c-.2-.272-.572-.647-1.617-1.77a1.189,1.189,0,0,0-1.523-.186,10.74,10.74,0,0,1-6.481,1.746,1.2,1.2,0,0,0-1.206.776l-.213.043V23.425h0A5.7,5.7,0,0,1,25.6,17.728Zm-5.558,8.385v2a1.085,1.085,0,0,1-.722-1.024A1.111,1.111,0,0,1,20.045,26.113Zm-1.34,9.022a1.086,1.086,0,0,1,0,2.044Zm-.07,3.6A2.637,2.637,0,0,0,20.423,37.7l1.315,2.636h0a1.177,1.177,0,0,0,1.735.434l.08-.057.309.465-.815,4.814-6.4-2.477V42.143h0A5.5,5.5,0,0,0,18.636,38.735Zm-5.43,7.421-1.945-2.4v-.721a6.061,6.061,0,0,0,1.954.319h0A5.556,5.556,0,0,0,15.147,43v.757Zm.883,2.747-.277.416H12.6l-.277-.416.883-.627Zm2.049-3.978,1.293.5-1.476,2.958-.4-.284h0l-1.261-.9ZM9.093,37.865V34.343a12.324,12.324,0,0,0,6.857-1.864c.672.72,1.081,1.149,1.251,1.345v4.04a4.055,4.055,0,0,1-8.108,0Zm1.178,7.062,1.846,2.278-1.259.894,0,0-.4.284L8.981,45.427ZM5.991,62.8V51.81a.752.752,0,1,0-1.5,0V62.8H1.631a.127.127,0,0,1-.127-.127V50.877A3.742,3.742,0,0,1,3.67,47.485l3.9-1.513L9.282,49.4h0a1.177,1.177,0,0,0,1.735.434l.081-.057.309.465-1.68,9.924,0,.022a1.2,1.2,0,0,0,.291.965L11.508,62.8H5.991Zm5.244-2.536,1.6-9.436h.748l1.6,9.436-1.971,2.168Zm13.677,2.409a.127.127,0,0,1-.127.127H21.929V51.81a.752.752,0,1,0-1.5,0V62.8H14.9L16.4,61.151a1.2,1.2,0,0,0,.291-.965l0-.022-1.68-9.924.309-.465.081.057a1.177,1.177,0,0,0,1.735-.434h0l1.709-3.426,3.9,1.512a3.734,3.734,0,0,1,2.168,3.393V62.669Zm.752-14.523a5.354,5.354,0,0,0-1.226-1.362l.85-5.023h.748l.851,5.026A5.357,5.357,0,0,0,25.664,48.145ZM30.9,62.8h0V51.81a.752.752,0,0,0-1.5,0V62.8H26.543a.127.127,0,0,1-.127-.127V50.877a3.594,3.594,0,0,1,.877-2.409,4.047,4.047,0,0,1,1.289-.984l3.9-1.513L34.194,49.4h0a1.177,1.177,0,0,0,1.735.434l.081-.057.309.465-1.68,9.924,0,.022a1.2,1.2,0,0,0,.291.965L36.42,62.8H30.9Zm5.244-2.536,1.6-9.436h.748l1.6,9.436-1.971,2.168Z" transform="translate(0 -16.224)"/></g></g></g></svg>