<svg xmlns="http://www.w3.org/2000/svg" width="188" height="188" viewBox="0 0 188 188"><defs><style>.a,.c{fill:#0a85fd;}.a{opacity:0.1;}.b{fill:#101010;font-size:14px;font-family:SFProText-Medium, SF Pro Text;font-weight:500;letter-spacing:-0.054em;}</style></defs><g transform="translate(-0.468)"><rect class="a" width="188" height="188" transform="translate(0.468)"/><text class="b" transform="translate(93.469 150)"><tspan x="-68.977" y="0">An engaged workforce</tspan></text><g transform="translate(64.626 37.976)"><path class="c" d="M13.019,40.056V25.177a.874.874,0,0,1,.872-.876h1.728l-5.088-5.941L5.442,24.3H7.167a.877.877,0,0,1,.876.876V40.059ZM53.575,48l-5.33-1.8-3.516,1.722v1.652a4.423,4.423,0,0,0,8.845,0Zm-8.845-2.022,3.02-1.477a.873.873,0,0,1,.717-.073l5.108,1.731V43.892A2.1,2.1,0,0,0,51.483,41.8H46.821a2.1,2.1,0,0,0-2.092,2.088ZM6.11,44.728h8.842V41.8H8.2A2.1,2.1,0,0,0,6.11,43.9Zm8.842,1.751H6.11v3.089a4.421,4.421,0,0,0,8.842,0Zm19.31-10.4a6.8,6.8,0,0,1-5.716-1.51,5.012,5.012,0,0,1-3.126.73v2.518a4.359,4.359,0,0,0,.3,1.593,4.493,4.493,0,0,0,.463.882,3.786,3.786,0,0,1,1.332-.238h4.662a3.768,3.768,0,0,1,1.328.238,4.4,4.4,0,0,0,.76-2.475V36.081Zm-8.842-2.538a3.231,3.231,0,0,0,2.657-.77.867.867,0,0,1,1.229.089,5.045,5.045,0,0,0,4.956,1.45V32.143a2.1,2.1,0,0,0-2.088-2.088H27.511a2.1,2.1,0,0,0-2.092,2.088v1.4Zm8.842,14.287a6.8,6.8,0,0,1-5.716-1.51,5.032,5.032,0,0,1-3.126.734v2.515a4.421,4.421,0,0,0,8.842,0V47.831Zm-8.842-2.538a3.231,3.231,0,0,0,2.657-.77.872.872,0,0,1,1.229.089,5.048,5.048,0,0,0,4.956,1.454V43.892A2.1,2.1,0,0,0,32.173,41.8H27.511a2.1,2.1,0,0,0-2.092,2.088v1.4ZM6.295,40.565V26.053H5.2A1.634,1.634,0,0,1,4.008,23.3l5.283-6.172a1.618,1.618,0,0,1,1.252-.568,1.637,1.637,0,0,1,1.239.585L17.1,23.353a1.638,1.638,0,0,1-1.239,2.7H14.766v14h1.061a.871.871,0,0,1,.872.872v8.641a6.133,6.133,0,0,1-1.213,3.664,5.854,5.854,0,0,1,3.823,1.692v-7.58A5.891,5.891,0,0,1,24.5,41.517c.073-.089.149-.178.228-.261a6.42,6.42,0,0,1-.638-1.213,6.127,6.127,0,0,1-.42-2.224V32.143A3.824,3.824,0,0,1,24.8,29.433a3.978,3.978,0,0,1,.806-.621V26.053H24.51a1.664,1.664,0,0,1-1.157-.479,1.632,1.632,0,0,1-.479-1.16,1.668,1.668,0,0,1,.472-1.15L28.6,17.125a1.622,1.622,0,0,1,1.252-.568,1.639,1.639,0,0,1,1.242.585l5.316,6.212a1.638,1.638,0,0,1-1.239,2.7H34.079v2.762a3.742,3.742,0,0,1,.8.618,3.81,3.81,0,0,1,1.127,2.709v5.677a6.127,6.127,0,0,1-.42,2.224,6.245,6.245,0,0,1-.634,1.213c.079.083.155.172.228.261a5.892,5.892,0,0,1,5.187,5.828v7.58A5.856,5.856,0,0,1,44.2,53.233a6.122,6.122,0,0,1-1.216-3.664V43.893a3.853,3.853,0,0,1,1.933-3.327V26.053H43.82A1.634,1.634,0,0,1,42.631,23.3l5.28-6.172a1.64,1.64,0,0,1,2.508.03l5.3,6.2a1.638,1.638,0,0,1-1.239,2.7H53.389V40.565a3.854,3.854,0,0,1,1.933,3.327v5.677a6.12,6.12,0,0,1-1.216,3.664,5.881,5.881,0,0,1,5.575,5.862V70.1a2.564,2.564,0,0,1-2.287,2.277H51.133a.874.874,0,1,1,0-1.748h2.756V60.02a.871.871,0,1,1,1.741,0V70.63h1.688a.868.868,0,0,0,.615-.615V59.095a4.134,4.134,0,0,0-4.121-4.12h-1.7a6.143,6.143,0,0,1-5.931,0H44.491a4.134,4.134,0,0,0-4.12,4.12v10.92a.868.868,0,0,0,.615.615h1.685V60.02a.874.874,0,1,1,1.748,0V70.63h2.753a.874.874,0,1,1,0,1.748H40.9a2.568,2.568,0,0,1-1.4-.608,2.479,2.479,0,0,1-1.431.608H31.82a.874.874,0,0,1,0-1.748h2.759V60.02a.871.871,0,1,1,1.741,0V70.63h1.688a.868.868,0,0,0,.615-.615V59.095a4.14,4.14,0,0,0-4.12-4.12h-1.7a6.143,6.143,0,0,1-5.931,0h-1.7a4.134,4.134,0,0,0-4.12,4.12v10.92a.864.864,0,0,0,.611.615h1.688V60.02a.874.874,0,1,1,1.748,0V70.63h2.752a.874.874,0,1,1,0,1.748H21.586a2.548,2.548,0,0,1-1.4-.608,2.518,2.518,0,0,1-1.414.608H12.51a.874.874,0,0,1,0-1.748h2.756V60.02a.871.871,0,1,1,1.741,0V70.63H18.7a.864.864,0,0,0,.611-.615V59.095a4.134,4.134,0,0,0-4.12-4.12h-1.7a6.137,6.137,0,0,1-5.928,0h-1.7a4.14,4.14,0,0,0-4.12,4.12v10.92a.874.874,0,0,0,.615.615H4.047V60.02a.876.876,0,0,1,1.751,0V70.63H8.551a.874.874,0,0,1,0,1.748H2.276A2.566,2.566,0,0,1,0,70.1V59.095a5.892,5.892,0,0,1,5.574-5.862,6.111,6.111,0,0,1-1.213-3.664V43.9a3.817,3.817,0,0,1,1.127-2.713,3.673,3.673,0,0,1,.806-.618Zm40.371-.506h4.976V25.177a.874.874,0,0,1,.872-.876h1.725l-5.085-5.941L44.065,24.3H45.79a.877.877,0,0,1,.876.876ZM27.352,28.307h4.976V25.177A.877.877,0,0,1,33.2,24.3h1.725L29.84,18.361,24.755,24.3H26.48a.874.874,0,0,1,.872.876ZM36.01,49.569A6.11,6.11,0,0,1,34.8,53.233a5.862,5.862,0,0,1,3.826,1.692v-7.58a4.108,4.108,0,0,0-1.117-2.815A4.172,4.172,0,0,0,35.99,43.5a3.864,3.864,0,0,1,.02.39ZM24.884,53.233a6.133,6.133,0,0,1-1.213-3.664V43.892a3.869,3.869,0,0,1,.02-.39,4.161,4.161,0,0,0-1.513,1.028,4.093,4.093,0,0,0-1.117,2.815v7.58A5.855,5.855,0,0,1,24.884,53.233Z"/></g></g></svg>