<svg xmlns="http://www.w3.org/2000/svg" width="268" height="67.874" viewBox="0 0 268 67.874"><defs><style>.a{fill:none;}.b{fill:#53c1de;}.c{font-size:33px;font-family:Quicksand-Bold, Quicksand;font-weight:700;}</style></defs><g transform="translate(-1170 -6703)"><rect class="a" width="249" height="66" transform="translate(1170 6704.73)"/><g transform="translate(1205.095 6703)"><path class="b" d="M40.347,61.448c-.7-.6-1.4-1.237-2.062-1.881-.547.529-1.084,1.022-1.592,1.467-4.953,4.329-10.064,6.811-14.023,6.811a7.2,7.2,0,0,1-3.641-.895c-1.927-1.112-3.272-3.32-3.893-6.388a29.354,29.354,0,0,1,.277-10.975c.174-.911.375-1.827.6-2.723-.7-.2-1.39-.417-2.063-.645a30.431,30.431,0,0,1-10.13-5.477C1.321,38.55,0,36.175,0,33.873c0-2.224,1.241-4.494,3.589-6.564a29.36,29.36,0,0,1,9.646-5.243c.889-.31,1.84-.609,2.823-.888-.21-.838-.4-1.688-.564-2.526a30.452,30.452,0,0,1-.378-11.188c.595-3.136,1.93-5.384,3.858-6.5A7.059,7.059,0,0,1,22.56.075a15.394,15.394,0,0,1,6.746,1.871,35.881,35.881,0,0,1,7.61,5.313c.427.38.852.772,1.264,1.167.625-.6,1.265-1.191,1.9-1.743C45.031,2.373,49.852,0,53.656,0a6.883,6.883,0,0,1,3.485.864c2.017,1.163,3.4,3.534,4.007,6.856a32.011,32.011,0,0,1-.5,11.831c-.118.569-.246,1.132-.379,1.675.82.235,1.646.5,2.455.773A30.454,30.454,0,0,1,72.6,27.277c2.415,2.087,3.692,4.368,3.692,6.6,0,2.328-1.362,4.713-3.938,6.9a32.009,32.009,0,0,1-10.5,5.477c-.458.151-.935.3-1.419.443.175.7.328,1.386.458,2.039a30.448,30.448,0,0,1,.334,11.511c-.644,3.262-2.038,5.594-4.029,6.747a7.018,7.018,0,0,1-3.565.888C49.881,67.875,45.163,65.592,40.347,61.448Zm6.6-12.339a76.362,76.362,0,0,1-6.395,8.12c.644.62,1.29,1.209,1.919,1.749,4.108,3.535,8.272,5.646,11.139,5.646a3.86,3.86,0,0,0,1.95-.456c1.17-.678,2.057-2.359,2.5-4.736a27.542,27.542,0,0,0-.367-10.069c-.114-.58-.254-1.2-.413-1.845A76,76,0,0,1,46.949,49.109ZM18.616,50.195c-1.305,6.876-.485,12.475,2.042,13.932a4.009,4.009,0,0,0,2.014.458,10.218,10.218,0,0,0,3.336-.66,27.552,27.552,0,0,0,8.54-5.346c.5-.435.985-.885,1.453-1.338a79.263,79.263,0,0,1-6.548-8.091,76.773,76.773,0,0,1-10.281-1.488C18.962,48.507,18.775,49.36,18.616,50.195Zm19.655,4.7a69.489,69.489,0,0,0,4.478-5.509c-1.538.068-3.088.1-4.605.1s-3.01-.029-4.463-.086C35.186,51.385,36.73,53.233,38.271,54.9ZM31.2,21.913c-1.3,1.9-2.543,3.884-3.7,5.889s-2.245,4.07-3.244,6.15c1,2.079,2.1,4.147,3.254,6.147s2.417,4,3.729,5.914c2.23.144,4.554.218,6.907.218s4.716-.083,6.986-.245c1.272-1.909,2.5-3.9,3.66-5.9s2.263-4.087,3.278-6.175c-1.029-2.074-2.136-4.134-3.289-6.122s-2.388-3.966-3.676-5.869c-2.287-.175-4.629-.263-6.96-.263C35.833,21.652,33.5,21.74,31.2,21.913ZM20.052,44.519a69.76,69.76,0,0,0,7.031,1.13c-.84-1.3-1.645-2.624-2.395-3.918s-1.472-2.613-2.163-3.947C21.559,40.076,20.726,42.341,20.052,44.519Zm31.561-2.81c-.751,1.3-1.539,2.607-2.343,3.882a68.869,68.869,0,0,0,7.116-1.213,68.938,68.938,0,0,0-2.561-6.71C53.127,39.013,52.383,40.373,51.613,41.709ZM14.308,25.144C7.7,27.448,3.259,30.956,3.259,33.873c0,1.351,1.012,2.962,2.848,4.535A27.549,27.549,0,0,0,15,43.135c.612.208,1.247.406,1.884.59a79.115,79.115,0,0,1,3.764-9.772,78.026,78.026,0,0,1-3.718-9.634C16.052,24.567,15.169,24.845,14.308,25.144Zm41.374,8.745a76.479,76.479,0,0,1,3.864,9.664c.421-.124.852-.259,1.281-.4a30.313,30.313,0,0,0,8.933-4.472c2.108-1.64,3.269-3.347,3.269-4.808,0-1.37-1.078-2.976-3.035-4.523a28.749,28.749,0,0,0-8.33-4.269c-.7-.241-1.463-.482-2.268-.716A76.436,76.436,0,0,1,55.682,33.889ZM51.6,26.151c.754,1.3,1.492,2.638,2.194,3.97a69.332,69.332,0,0,0,2.442-6.569c-2.191-.5-4.532-.91-6.956-1.216C50.073,23.581,50.854,24.864,51.6,26.151ZM20.1,23.518c.664,2.139,1.48,4.361,2.425,6.6.688-1.334,1.413-2.661,2.153-3.945.752-1.3,1.539-2.6,2.339-3.843C24.6,22.631,22.274,23.031,20.1,23.518ZM42.218,9.141c-.6.522-1.188,1.064-1.754,1.609A76.478,76.478,0,0,1,46.913,18.8a77.953,77.953,0,0,1,10.2,1.612c.121-.5.237-1.006.343-1.517a30.3,30.3,0,0,0,.588-9.973c-.367-2.645-1.266-4.5-2.531-5.234a3.722,3.722,0,0,0-1.875-.436C50.725,3.252,46.456,5.453,42.218,9.141ZM20.607,3.785c-1.185.686-2.036,2.424-2.393,4.893a28.745,28.745,0,0,0,.479,9.348c.155.787.331,1.577.524,2.35A79.508,79.508,0,0,1,29.4,18.794a78,78,0,0,1,6.5-8.042c-.379-.363-.764-.719-1.145-1.057a33.614,33.614,0,0,0-6.746-4.753,12.571,12.571,0,0,0-5.423-1.618A3.9,3.9,0,0,0,20.607,3.785ZM42.67,18.5a70.105,70.105,0,0,0-4.489-5.42c-1.528,1.649-3.052,3.471-4.528,5.418,1.5-.07,3.016-.105,4.495-.105C39.65,18.393,41.171,18.429,42.67,18.5ZM31.332,33.873a6.812,6.812,0,1,1,6.812,6.813A6.812,6.812,0,0,1,31.332,33.873Z" transform="translate(0 0)"/></g><text class="c" transform="translate(1368 6750.73)"><tspan x="-69.993" y="0">React JS</tspan></text></g></svg>