<svg xmlns="http://www.w3.org/2000/svg" width="188" height="188" viewBox="0 0 188 188"><defs><style>.a,.c{fill:#0a81f6;}.a{opacity:0.1;}.b{fill:#101010;font-size:14px;font-family:SFProText-Medium, SF Pro Text;font-weight:500;letter-spacing:-0.054em;}</style></defs><g transform="translate(0.001)"><rect class="a" width="188" height="188" transform="translate(-0.001)"/><text class="b" transform="translate(94 150)"><tspan x="-64.967" y="0">Reduces salesperson</tspan><tspan x="-16.819" y="18" xml:space="preserve"> work</tspan></text><g transform="translate(54.644 29.043)"><circle class="c" cx="2.023" cy="2.023" r="2.023" transform="translate(36.321 36.23)"/><circle class="c" cx="2.023" cy="2.023" r="2.023" transform="translate(48.459 36.23)"/><path class="c" d="M62.429,59.569l-9.924-2.86V53.216a15.252,15.252,0,0,0,5.877-8.895h.7a3.544,3.544,0,0,0,3.54-3.54V37.747a3.544,3.544,0,0,0-3.54-3.54h-.506V30.161a14.161,14.161,0,1,0-28.321,0v4.046h-.506a3.544,3.544,0,0,0-3.54,3.54v3.034a3.544,3.544,0,0,0,3.54,3.54h.7a15.252,15.252,0,0,0,5.877,8.895v3.493l-2.395.69A13.149,13.149,0,1,0,18.115,73.3v1.365H13.058a1.011,1.011,0,1,0,0,2.023H69.7a1.011,1.011,0,0,0,1.011-1.011V70.325a11.13,11.13,0,0,0-8.283-10.756ZM58.574,36.23h.506A1.518,1.518,0,0,1,60.6,37.747v3.034A1.518,1.518,0,0,1,59.08,42.3h-.506ZM30.253,42.3h-.506a1.518,1.518,0,0,1-1.517-1.517V37.747a1.518,1.518,0,0,1,1.517-1.517h.506ZM54.286,59.328l-4.171,7.929-4.088-2,5.8-6.633Zm-9.872,4.7L38.345,57.09V54.575a12.658,12.658,0,0,0,6.069,1.884,12.658,12.658,0,0,0,6.069-1.884V57.09ZM32.276,30.161a12.138,12.138,0,1,1,24.275,0v3.453a10.016,10.016,0,0,1-5.222-3.986,1.011,1.011,0,0,0-1.36-.3,39.921,39.921,0,0,1-17.693,4.739Zm0,12.138V36.089A42.034,42.034,0,0,0,50.2,31.512a11.881,11.881,0,0,0,6.35,4.2V42.3c0,1.738-.564,5.159-4.342,8.544-2.435,2.184-5.5,3.593-7.8,3.593s-5.361-1.41-7.8-3.593C32.84,47.457,32.276,44.037,32.276,42.3ZM37,58.621l5.795,6.623-4.012,2.005L34.6,59.31ZM10.023,60.505A11.126,11.126,0,1,1,21.15,71.631,11.126,11.126,0,0,1,10.023,60.505ZM40.65,74.666H20.138V73.616q.5.038,1.011.038A13.17,13.17,0,0,0,34.11,62.723l3.339,6.346A1.014,1.014,0,0,0,38.8,69.5l.713-.358L41.3,72.72Zm2.133,0,.338-1.011h2.616l.379,1.011Zm3.029-3.034h-2.8l-1.7-3.391,3.07-1.535,3.12,1.529Zm22.877,3.034H63.632V71.631a1.011,1.011,0,1,0-2.023,0v3.034H48.275L47.539,72.7l1.788-3.578.78.382a1,1,0,0,0,.444.1,1.013,1.013,0,0,0,.9-.54L56.271,59.9l5.609,1.617.024.006a9.107,9.107,0,0,1,6.786,8.8Z" transform="translate(0)"/><path class="c" d="M10.023,480H9.011a1.011,1.011,0,1,0,0,2.023h1.011a1.011,1.011,0,1,0,0-2.023Z" transform="translate(0 -405.334)"/><path class="c" d="M273.011,266.023h4.046a1.011,1.011,0,1,0,0-2.023h-4.046a1.011,1.011,0,0,0,0,2.023Z" transform="translate(-230.621 -216.644)"/><path class="c" d="M52.23,298.115A10.115,10.115,0,1,0,42.115,308.23,10.115,10.115,0,0,0,52.23,298.115Zm-18.207,0a8.092,8.092,0,1,1,8.092,8.092A8.092,8.092,0,0,1,34.023,298.115Z" transform="translate(-20.966 -237.61)"/><path class="c" d="M85.057,331.126H87.08a1.011,1.011,0,0,0,1.011-1.012v-4.046a1.011,1.011,0,0,0-1.011-1.011H82.023v-2.023H87.08a1.011,1.011,0,1,0,0-2.023H85.057a1.011,1.011,0,1,0-2.023,0H81.011A1.011,1.011,0,0,0,80,322.023v4.046a1.011,1.011,0,0,0,1.011,1.011h5.057V329.1H81.011a1.011,1.011,0,0,0,0,2.023h2.023a1.011,1.011,0,0,0,2.023,0Z" transform="translate(-62.897 -265.564)"/></g></g></svg>