<svg xmlns="http://www.w3.org/2000/svg" width="188" height="188" viewBox="0 0 188 188"><defs><style>.a,.c{fill:#ed1a3b;}.a{opacity:0.1;}.b{fill:#101010;font-size:14px;font-family:SFProText-Medium, SF Pro Text;font-weight:500;letter-spacing:-0.054em;}</style></defs><g transform="translate(0.002)"><rect class="a" width="188" height="188" transform="translate(-0.002)"/><text class="b" transform="translate(92.999 150)"><tspan x="-50.733" y="0">Fully understand</tspan><tspan x="-30.363" y="18">the needs</tspan></text><g transform="translate(27.999 46)"><g transform="translate(52 43)"><path class="c" d="M139,344h-2a1,1,0,0,0,0,2h2a1,1,0,0,0,0-2Z" transform="translate(-136 -344)"/></g><g transform="translate(58 43)"><path class="c" d="M209,344H185a1,1,0,0,0,0,2h24a1,1,0,0,0,0-2Z" transform="translate(-184 -344)"/></g><g transform="translate(52 37)"><path class="c" d="M139,296h-2a1,1,0,0,0,0,2h2a1,1,0,0,0,0-2Z" transform="translate(-136 -296)"/></g><g transform="translate(58 37)"><path class="c" d="M209,296H185a1,1,0,0,0,0,2h24a1,1,0,0,0,0-2Z" transform="translate(-184 -296)"/></g><g transform="translate(52 31)"><path class="c" d="M139,248h-2a1,1,0,0,0,0,2h2a1,1,0,0,0,0-2Z" transform="translate(-136 -248)"/></g><g transform="translate(58 31)"><path class="c" d="M209,248H185a1,1,0,0,0,0,2h24a1,1,0,0,0,0-2Z" transform="translate(-184 -248)"/></g><g transform="translate(52 25)"><path class="c" d="M139,200h-2a1,1,0,0,0,0,2h2a1,1,0,0,0,0-2Z" transform="translate(-136 -200)"/></g><g transform="translate(58 25)"><path class="c" d="M209,200H185a1,1,0,0,0,0,2h24a1,1,0,0,0,0-2Z" transform="translate(-184 -200)"/></g><g transform="translate(52 19)"><path class="c" d="M139,152h-2a1,1,0,0,0,0,2h2a1,1,0,0,0,0-2Z" transform="translate(-136 -152)"/></g><g transform="translate(58 19)"><path class="c" d="M209,152H185a1,1,0,0,0,0,2h24a1,1,0,0,0,0-2Z" transform="translate(-184 -152)"/></g><g transform="translate(40)"><path class="c" d="M89.987,14.937a.945.945,0,0,0-.051-.257c-.011-.032-.019-.063-.033-.094a1,1,0,0,0-.2-.293l-14-14a1,1,0,0,0-.293-.2c-.031-.014-.062-.022-.093-.033a1,1,0,0,0-.259-.052C75.041.011,75.022,0,75,0H47a1,1,0,0,0-1,1V4H41a1,1,0,0,0-1,1V59a1,1,0,0,0,1,1H83a1,1,0,0,0,1-1V54h5a1,1,0,0,0,1-1V15C90,14.978,89.989,14.959,89.987,14.937ZM76,3.414,86.586,14H76ZM82,58H42V6h4V53a1,1,0,0,0,1,1H82Zm6-6H48V2H74V15a1,1,0,0,0,1,1H88Z" transform="translate(-40)"/></g><g transform="translate(52 9)"><path class="c" d="M143,72h-6a1,1,0,0,0-1,1v6a1,1,0,0,0,1,1h6a1,1,0,0,0,1-1V73A1,1,0,0,0,143,72Zm-1,6h-4V74h4Z" transform="translate(-136 -72)"/></g></g></g></svg>