<svg xmlns="http://www.w3.org/2000/svg" width="188" height="188" viewBox="0 0 188 188"><defs><style>.a,.c{fill:#26cc2c;}.a{opacity:0.1;}.b{fill:#101010;font-size:14px;font-family:SFProText-Medium, SF Pro Text;font-weight:500;letter-spacing:-0.054em;}</style></defs><g transform="translate(-0.175)"><rect class="a" width="188" height="188" transform="translate(0.175)"/><text class="b" transform="translate(93.175 150)"><tspan x="-57.345" y="0">Lessen customers&apos;</tspan><tspan x="-14.747" y="18" xml:space="preserve"> pain</tspan></text><g transform="translate(67.191 53.014)"><path class="c" d="M146.138,224.348a6.612,6.612,0,0,0-1.1-.091h-3.512v-2.241a7.522,7.522,0,0,0,3.359-6.262v-4.031a7.509,7.509,0,0,0-1.1-3.924l-1.375.842a5.9,5.9,0,0,1,.866,3.082v.845l-.212-.391a3.682,3.682,0,0,0-3.242-1.932H134.9a3.682,3.682,0,0,0-3.242,1.932l-.211.391v-.845a5.912,5.912,0,0,1,10.079-4.192l1.137-1.143a7.524,7.524,0,0,0-12.829,5.336v4.031a7.522,7.522,0,0,0,3.359,6.262v2.241h-3.513a6.571,6.571,0,0,0-6.564,6.564v6.43h1.612v-6.43a4.957,4.957,0,0,1,4.952-4.952h3.575a4.164,4.164,0,0,0,8.206,0h3.575a4.977,4.977,0,0,1,.83.069Zm-6.222.811a2.553,2.553,0,0,1-5.106,0v-2.328a7.524,7.524,0,0,0,5.106,0Zm-2.553-3.493a5.917,5.917,0,0,1-5.907-5.717l1.625-3a2.071,2.071,0,0,1,1.823-1.087h4.917a2.071,2.071,0,0,1,1.823,1.087l1.625,3a5.918,5.918,0,0,1-5.907,5.717Zm0,0" transform="translate(-109.901 -182.272)"/><path class="c" d="M347.922,397.012l-.7,1.453a4.982,4.982,0,0,1,2.807,4.465v6.43h1.612v-6.43A6.6,6.6,0,0,0,347.922,397.012Zm0,0" transform="translate(-309.938 -354.381)"/><path class="c" d="M328.32,475.965h1.612v3.869H328.32Zm0,0" transform="translate(-293.065 -424.856)"/><path class="c" d="M168.164,475.965h1.612v3.869h-1.612Zm0,0" transform="translate(-150.107 -424.856)"/><path class="c" d="M67.337,39.366,65.473,35.59l-1.864,3.776-4.168.606,3.016,2.94-.712,4.151,3.728-1.96,3.728,1.96-.712-4.151,3.016-2.94Zm-.278,4.749-1.586-.834-1.586.834.3-1.767L62.906,41.1l1.774-.258.793-1.607.793,1.607,1.774.258-1.284,1.251Zm0,0" transform="translate(-53.059 -31.768)"/><path class="c" d="M212.477,39.363l-1.864-3.777-1.864,3.777-4.168.606,3.016,2.94-.712,4.151,3.728-1.96,3.728,1.96-.712-4.151,3.016-2.94Zm-.277,4.749-1.587-.834-1.586.834.3-1.767-1.284-1.251,1.774-.258.793-1.607.793,1.607,1.774.258L211.9,42.345Zm0,0" transform="translate(-182.614 -31.765)"/><path class="c" d="M345.747,35.586l-1.864,3.777-4.168.606,3.016,2.94-.712,4.151,3.728-1.96,3.728,1.96-.712-4.151,3.016-2.94-4.168-.606Zm1.586,8.526-1.586-.834-1.587.834.3-1.767-1.284-1.251,1.774-.258.793-1.607.793,1.607,1.774.258-1.284,1.251Zm0,0" transform="translate(-303.237 -31.765)"/><path class="c" d="M51.969,0h-9.9V1.612h9.9a1.345,1.345,0,0,1,1.343,1.344V16.929a1.345,1.345,0,0,1-1.343,1.344h-36.6v5.7L7.3,18.273H2.956a1.345,1.345,0,0,1-1.344-1.344V9.907H0v7.022a2.959,2.959,0,0,0,2.956,2.956H6.785l10.2,7.2v-7.2H51.969a2.959,2.959,0,0,0,2.956-2.956V2.956A2.959,2.959,0,0,0,51.969,0Zm0,0" transform="translate(0 0)"/><path class="c" d="M1.612,2.956A1.345,1.345,0,0,1,2.956,1.612h37.5V0H2.956A2.959,2.959,0,0,0,0,2.956V8.295H1.612Zm0,0" transform="translate(0 0)"/><path class="c" d="M153.148,424.359h1.612a1.729,1.729,0,0,1,1.727-1.728V421.02a3.344,3.344,0,0,0-3.34,3.34Zm0,0" transform="translate(-136.703 -375.81)"/><path class="c" d="M446.964,34.062V30.031h-4.031v1.612h2.418v2.419Zm0,0" transform="translate(-395.372 -26.806)"/><path class="c" d="M30.031,116.613v4.031h4.031v-1.612H31.643v-2.419Zm0,0" transform="translate(-26.807 -104.091)"/><path class="c" d="M218.215,478.469h1.612v1.612h-1.612Zm0,0" transform="translate(-194.783 -427.091)"/><path class="c" d="M248.242,478.469h1.612v1.612h-1.612Zm0,0" transform="translate(-221.586 -427.091)"/><path class="c" d="M278.273,478.469h1.612v1.612h-1.612Zm0,0" transform="translate(-248.392 -427.091)"/></g></g></svg>