<svg xmlns="http://www.w3.org/2000/svg" width="188" height="188" viewBox="0 0 188 188"><defs><style>.a{fill:#ffb62a;opacity:0.1;}.b{fill:#101010;font-size:14px;font-family:SFProText-Medium, SF Pro Text;font-weight:500;letter-spacing:-0.054em;}.c{fill:#f9ba48;}</style></defs><g transform="translate(0.216)"><rect class="a" width="188" height="188" transform="translate(-0.216)"/><text class="b" transform="translate(92.784 150)"><tspan x="-49.752" y="0">Digital salesman</tspan></text><g transform="translate(69.191 59.014)"><path class="c" d="M41.6,37.416h.052a3.578,3.578,0,0,0,3.574-3.574v-1.19a3.578,3.578,0,0,0-3.574-3.574H41.6a3.578,3.578,0,0,0-3.574,3.574v1.19A3.578,3.578,0,0,0,41.6,37.416ZM39.54,32.652A2.06,2.06,0,0,1,41.6,30.594h.052a2.06,2.06,0,0,1,2.058,2.058v1.19A2.06,2.06,0,0,1,41.65,35.9H41.6a2.06,2.06,0,0,1-2.058-2.058Zm0,0" transform="translate(-33.904 -25.486)"/><path class="c" d="M11.926,116.6h-1.5a.76.76,0,0,0-.519.206l-2.082,1.954-2-1.945A.759.759,0,0,0,5.3,116.6H3.713a3.711,3.711,0,0,0-3.7,4.045v8.7a2.326,2.326,0,0,0,2.325,2.326h.027a2.264,2.264,0,0,0,.9-.2l.4,15.734a2.456,2.456,0,0,0,4.156,1.684,2.456,2.456,0,0,0,4.156-1.692l.4-15.713a2.327,2.327,0,0,0,3.24-2.141v-8.7a3.711,3.711,0,0,0-3.7-4.045Zm-2.4,31.459a.942.942,0,0,1-.942-.941V131.354H7.069v15.761a.942.942,0,0,1-1.882.042l-.451-17.782h6.184l-.452,17.774a.939.939,0,0,1-.941.908Zm4.583-27.526c0,.025,0,.051,0,.077v8.736a.811.811,0,0,1-1.622,0V127.49l.009-.352h-.009V123.5H10.967v3.978l-.01.386H4.7l-.019-.758H4.669v-3.6H3.152v5.8a.835.835,0,0,1-.8.853.809.809,0,0,1-.819-.809v-8.737c0-.026,0-.051,0-.077a2.195,2.195,0,0,1,2.184-2.416h1.28l2.3,2.235.011.009a.753.753,0,0,0,.072.06l.005,0a.78.78,0,0,0,.086.053l.018.009a.783.783,0,0,0,.085.036l.008,0a.8.8,0,0,0,.094.025l.022,0a.73.73,0,0,0,.086.01h.013a.815.815,0,0,0,.1,0l.023,0A.785.785,0,0,0,8,120.541h0a.751.751,0,0,0,.1-.033l.008,0,.008,0a.773.773,0,0,0,.173-.105l.02-.017.022-.019,2.392-2.244h1.2a2.194,2.194,0,0,1,2.183,2.416Zm0,0" transform="translate(0 -103.527)"/><path class="c" d="M351.226,37.416h.053a3.578,3.578,0,0,0,3.574-3.574v-1.19a3.579,3.579,0,0,0-3.574-3.574h-.053a3.578,3.578,0,0,0-3.574,3.574v1.19A3.578,3.578,0,0,0,351.226,37.416Zm-2.058-4.764a2.06,2.06,0,0,1,2.058-2.058h.053a2.06,2.06,0,0,1,2.058,2.058v1.19a2.06,2.06,0,0,1-2.058,2.058h-.053a2.06,2.06,0,0,1-2.058-2.058Zm0,0" transform="translate(-309.998 -25.486)"/><path class="c" d="M321.551,116.6h-1.5a.759.759,0,0,0-.519.206l-2.082,1.953-2-1.945a.759.759,0,0,0-.529-.215h-1.588a3.711,3.711,0,0,0-3.7,4.045v8.7a2.327,2.327,0,0,0,2.325,2.326h.027a2.274,2.274,0,0,0,.9-.2l.4,15.733a2.456,2.456,0,0,0,4.156,1.684,2.456,2.456,0,0,0,4.156-1.692l.4-15.713a2.327,2.327,0,0,0,3.24-2.141v-8.7a3.711,3.711,0,0,0-3.7-4.045Zm-2.4,31.459a.942.942,0,0,1-.942-.941V131.355h-1.516v15.761a.941.941,0,0,1-1.882.042l-.452-17.782h6.184l-.452,17.774a.938.938,0,0,1-.941.908Zm4.583-27.526c0,.025,0,.051,0,.077v8.736a.811.811,0,1,1-1.622,0v-1.852l.009-.352h-.009V123.5h-1.516v3.977l-.01.386h-6.261l-.019-.758h-.009v-3.6h-1.516v5.8a.835.835,0,0,1-.8.853.81.81,0,0,1-.819-.809v-8.737c0-.026,0-.051,0-.077a2.195,2.195,0,0,1,2.184-2.416h1.28l2.3,2.235.011.008a.7.7,0,0,0,.072.06l.005,0a.792.792,0,0,0,.087.053l.018.009a.766.766,0,0,0,.085.036l.007,0a.728.728,0,0,0,.095.025l.022,0a.837.837,0,0,0,.086.01h.013a.724.724,0,0,0,.1,0l.023,0a.7.7,0,0,0,.094-.017h0a.73.73,0,0,0,.1-.033l.008,0,.008,0a.755.755,0,0,0,.173-.1l.02-.017.022-.019,2.392-2.244h1.2a2.194,2.194,0,0,1,2.183,2.416Zm0,0" transform="translate(-276.091 -103.527)"/><path class="c" d="M196.41,37.416h.053a3.578,3.578,0,0,0,3.574-3.574v-1.19a3.579,3.579,0,0,0-3.574-3.574h-.053a3.579,3.579,0,0,0-3.574,3.574v1.19A3.578,3.578,0,0,0,196.41,37.416Zm-2.058-4.764a2.06,2.06,0,0,1,2.058-2.058h.053a2.06,2.06,0,0,1,2.058,2.058v1.19a2.06,2.06,0,0,1-2.058,2.058h-.053a2.06,2.06,0,0,1-2.058-2.058v-1.19Zm0,0" transform="translate(-171.95 -25.486)"/><path class="c" d="M166.739,116.6h-1.5a.76.76,0,0,0-.519.206l-2.082,1.954-2-1.945a.758.758,0,0,0-.528-.215h-1.588a3.712,3.712,0,0,0-3.7,4.045v8.7a2.327,2.327,0,0,0,2.325,2.326h.027a2.274,2.274,0,0,0,.9-.2l.4,15.733a2.456,2.456,0,0,0,4.156,1.684A2.456,2.456,0,0,0,166.8,147.2l.4-15.713a2.327,2.327,0,0,0,3.24-2.141v-8.7a3.711,3.711,0,0,0-3.7-4.045Zm-2.4,31.459a.942.942,0,0,1-.941-.941V131.355h-1.516v15.761a.942.942,0,0,1-1.882.042l-.451-17.782h6.184l-.452,17.774a.938.938,0,0,1-.941.908Zm4.583-27.526a.664.664,0,0,0,0,.077v8.736a.811.811,0,1,1-1.622,0v-1.852l.009-.352H167.3V123.5H165.78v3.977l-.01.386H159.51l-.019-.758h-.009v-3.6h-1.516v5.8a.836.836,0,0,1-.8.853.81.81,0,0,1-.819-.809v-8.737c0-.026,0-.051,0-.077a2.195,2.195,0,0,1,2.184-2.416h1.28l2.3,2.235.011.008a.707.707,0,0,0,.072.06l.005,0a.719.719,0,0,0,.086.052l.018.009a.706.706,0,0,0,.085.036l.008,0a.8.8,0,0,0,.094.025l.022,0a.733.733,0,0,0,.086.01h.013a.733.733,0,0,0,.1,0l.023,0a.7.7,0,0,0,.094-.017h0a.751.751,0,0,0,.1-.033l.008,0,.008,0a.755.755,0,0,0,.173-.1l.02-.017.022-.019,2.392-2.244h1.2a2.194,2.194,0,0,1,2.183,2.416Zm0,0" transform="translate(-138.046 -103.527)"/><path class="c" d="M123.548,5.26V4.07A3.578,3.578,0,0,0,119.974.5h-.052a3.578,3.578,0,0,0-3.574,3.574V5.26a3.578,3.578,0,0,0,3.574,3.574h.052A3.578,3.578,0,0,0,123.548,5.26Zm-1.516,0a2.06,2.06,0,0,1-2.058,2.058h-.052a2.06,2.06,0,0,1-2.058-2.058V4.07a2.06,2.06,0,0,1,2.058-2.058h.052a2.06,2.06,0,0,1,2.058,2.058Zm0,0" transform="translate(-103.745)"/><path class="c" d="M278.361,5.26V4.07A3.578,3.578,0,0,0,274.787.5h-.053A3.578,3.578,0,0,0,271.16,4.07V5.26a3.579,3.579,0,0,0,3.574,3.574h.053A3.578,3.578,0,0,0,278.361,5.26Zm-1.516,0a2.06,2.06,0,0,1-2.058,2.058h-.053a2.06,2.06,0,0,1-2.058-2.058V4.07a2.06,2.06,0,0,1,2.058-2.058h.053a2.06,2.06,0,0,1,2.058,2.058Zm0,0" transform="translate(-241.79)"/></g></g></svg>