<svg xmlns="http://www.w3.org/2000/svg" width="188" height="188" viewBox="0 0 188 188"><defs><style>.a,.c{fill:#1894c4;}.a{opacity:0.1;}.b{fill:#101010;font-size:14px;font-family:SFProText-Medium, SF Pro Text;font-weight:500;letter-spacing:-0.054em;}</style></defs><g transform="translate(0)"><rect class="a" width="188" height="188" transform="translate(0)"/><text class="b" transform="translate(94.001 150)"><tspan x="-29.063" y="0">Reliability</tspan></text><path class="c" d="M71.364,29.5a4.219,4.219,0,0,0-2-1.169A4.219,4.219,0,0,0,70,25.921a4.327,4.327,0,0,0-4.325-4.1H57.259L57.251,9.211a4.96,4.96,0,0,0-9.92,0v3.338a6.024,6.024,0,0,1-.514,2.437A11.7,11.7,0,0,1,35.569,3.306V1.771A1.773,1.773,0,0,0,33.8,0H15.517a1.773,1.773,0,0,0-1.771,1.771v1.2A11.7,11.7,0,0,1,2.055,14.667H1.772A1.773,1.773,0,0,0,0,16.438V37.695A24.661,24.661,0,0,0,47.046,48.04H61.862a3.659,3.659,0,0,0,2.594-1.093,3.481,3.481,0,0,0,.715-3.867h.506A4.327,4.327,0,0,0,70,38.982a4.217,4.217,0,0,0-.654-2.427,4.308,4.308,0,0,0,3.205-3.95A4.219,4.219,0,0,0,71.364,29.5ZM24.658,60.227A22.558,22.558,0,0,1,2.126,37.695v-20.9A13.833,13.833,0,0,0,15.872,2.976v-.85H33.444V3.306A13.837,13.837,0,0,0,45.371,16.994a6.072,6.072,0,0,1-.829.637l-5.806,3.694a3.179,3.179,0,0,1-1.712.5H35.717a3.194,3.194,0,0,0-3.052-2.267H26.712a3.194,3.194,0,0,0-3.006,2.126H18.493a2.767,2.767,0,0,0-2.763,2.763V42.725a2.766,2.766,0,0,0,2.763,2.763h5.031V55.945A18.233,18.233,0,0,1,6.377,37.766V20.155A14.522,14.522,0,0,0,19.8,6.306h3.721v9.353a1.063,1.063,0,1,0,2.126,0V5.243A1.063,1.063,0,0,0,24.587,4.18H18.753A1.063,1.063,0,0,0,17.69,5.243v.449A12.39,12.39,0,0,1,5.314,18.068a1.063,1.063,0,0,0-1.063,1.063V37.766A20.359,20.359,0,0,0,24.587,58.1a1.063,1.063,0,0,0,1.063-1.063V47.505a2.9,2.9,0,0,0,.779.109h6.235a3.184,3.184,0,0,0,2.55-1.277l1.134.642a8.162,8.162,0,0,0,4.018,1.06H44.68A22.518,22.518,0,0,1,24.658,60.227ZM23.524,43.363H18.493a.639.639,0,0,1-.638-.638V24.445a.639.639,0,0,1,.638-.638h5.031Zm44.7-8.786H59.943a1.063,1.063,0,1,0,0,2.126h5.81a2.125,2.125,0,0,1,2.124,2.2,2.183,2.183,0,0,1-2.2,2.047h-3.75c-.024,0-.048,0-.071,0s-.047,0-.071,0H59.943a1.063,1.063,0,0,0,0,2.126h1.842c.024,0,.048,0,.071,0s.047,0,.071,0a1.424,1.424,0,0,1,1.417,1.39,1.373,1.373,0,0,1-.405.989,1.521,1.521,0,0,1-1.077.456h-21.5a6.031,6.031,0,0,1-2.97-.783l-1.544-.875v-2.4a1.063,1.063,0,0,0-2.126,0v2.575a1.064,1.064,0,0,1-1.063,1.063H26.429a.781.781,0,0,1-.779-.779V22.744a1.064,1.064,0,0,1,1.063-1.063h5.952a1.064,1.064,0,0,1,1.063,1.063V36.892a1.063,1.063,0,1,0,2.126,0V23.949h1.171a5.3,5.3,0,0,0,2.852-.831l5.807-3.695a8.109,8.109,0,0,0,3.774-6.874V9.211a2.834,2.834,0,1,1,5.668,0l.008,12.967a1.774,1.774,0,0,0,1.771,1.77h8.772A2.183,2.183,0,0,1,67.878,26a2.125,2.125,0,0,1-2.124,2.2h-5.81a1.063,1.063,0,0,0,0,2.126H68.3a2.125,2.125,0,0,1,2.124,2.2,2.183,2.183,0,0,1-2.2,2.047Zm0,0" transform="translate(65.001 52.647)"/></g></svg>