<svg xmlns="http://www.w3.org/2000/svg" width="188" height="188" viewBox="0 0 188 188"><defs><style>.a,.c{fill:#ffb62a;}.a{opacity:0.1;}.b{fill:#101010;font-size:14px;font-family:SFProText-Medium, SF Pro Text;font-weight:500;letter-spacing:-0.054em;}</style></defs><g transform="translate(-0.404)"><rect class="a" width="188" height="188" transform="translate(0.404)"/><text class="b" transform="translate(93.403 150)"><tspan x="-42.938" y="0">Taking control</tspan></text><g transform="translate(70.898 49.139)"><g transform="translate(0)"><g transform="translate(0)"><path class="c" d="M67.5,0H29.71a4.529,4.529,0,0,0-1.015,8.943v42a1.015,1.015,0,0,0,1.015,1.015H67.5a1.015,1.015,0,0,0,1.015-1.015V42.91h2.5A1.015,1.015,0,0,0,72.026,41.9V4.529A4.534,4.534,0,0,0,67.5,0ZM27.942,6.3a2.473,2.473,0,0,1-.7-1.367,2.5,2.5,0,0,1,2.467-2.9H63.72c-.035.052-.068.106-.1.16l-.028.048q-.037.063-.072.128l-.03.055q-.039.075-.076.15L63.4,2.6c-.028.059-.054.119-.079.179L63.3,2.83q-.028.068-.053.137l-.021.057q-.029.083-.055.168l-.007.021c-.019.063-.036.126-.053.19l-.014.056c-.012.048-.022.1-.032.144l-.012.059c-.012.061-.023.123-.032.185l0,.011c-.01.066-.018.132-.024.2,0,.019,0,.039-.005.058q-.007.075-.011.15c0,.02,0,.04,0,.059,0,.068,0,.135,0,.2s0,.128,0,.191c0,.023,0,.046,0,.069,0,.041,0,.081.008.122s.005.051.008.077.008.075.012.112.008.054.011.081.006.047.01.071,0,.018.005.027c.009.054.019.107.03.161,0,.022.008.044.013.065q.022.1.048.2c.012.044.025.087.038.131.006.022.013.044.02.065q.024.076.051.151l.01.027a4.516,4.516,0,0,0,.478.954H29.71A2.483,2.483,0,0,1,27.942,6.3Zm38.541,43.63H30.724V9.057H66.483ZM70,40.881H68.512V8.043A1.015,1.015,0,0,0,67.5,7.028c-.064,0-.128,0-.192-.008l-.035,0q-.091-.008-.181-.023l-.037-.007c-.061-.011-.121-.024-.181-.039l-.019-.005c-.055-.015-.11-.032-.165-.051l-.04-.013c-.042-.015-.083-.031-.123-.048l-.084-.038L66.4,6.775A2.51,2.51,0,0,1,65.091,5.2c-.006-.023-.013-.046-.019-.07s-.01-.044-.015-.066-.014-.068-.02-.1c0-.014-.005-.028-.007-.042-.009-.056-.015-.113-.02-.17,0-.014,0-.028,0-.042C65,4.648,65,4.589,65,4.529a2.5,2.5,0,1,1,5,0Z" transform="translate(-25.181)"/></g></g><g transform="translate(35.509 12.763)"><g transform="translate(0)"><path class="c" d="M377.12,126.591a1.025,1.025,0,0,0-.058-.19,1.02,1.02,0,0,0-.219-.33,1.049,1.049,0,0,0-.33-.219,1.047,1.047,0,0,0-.19-.058,1,1,0,0,0-.4,0,1.022,1.022,0,0,0-.19.058,1.07,1.07,0,0,0-.176.093,1.018,1.018,0,0,0-.154.126.96.96,0,0,0-.126.154,1.043,1.043,0,0,0-.093.176,1.025,1.025,0,0,0-.058.19,1,1,0,0,0-.019.2,1.019,1.019,0,0,0,.019.2,1.049,1.049,0,0,0,.058.19,1.033,1.033,0,0,0,.093.175.96.96,0,0,0,.126.154,1.022,1.022,0,0,0,.154.127,1.079,1.079,0,0,0,.176.093,1.024,1.024,0,0,0,.19.058,1.031,1.031,0,0,0,.4,0,1.017,1.017,0,0,0,.739-.607,1.049,1.049,0,0,0,.058-.19,1.008,1.008,0,0,0,.02-.2A1,1,0,0,0,377.12,126.591Z" transform="translate(-375.111 -125.775)"/></g></g><g transform="translate(21.692 12.763)"><path class="c" d="M250.122,125.774H239.959a1.015,1.015,0,1,0,0,2.029h10.163a1.015,1.015,0,1,0,0-2.029Z" transform="translate(-238.944 -125.774)"/></g><g transform="translate(21.692 16.901)"><path class="c" d="M253.776,166.548H239.959a1.015,1.015,0,1,0,0,2.03h13.817a1.015,1.015,0,0,0,0-2.03Z" transform="translate(-238.944 -166.548)"/></g><g transform="translate(8.841 10.406)"><g transform="translate(0)"><path class="c" d="M117.742,102.544a5.441,5.441,0,1,0,5.441,5.441A5.447,5.447,0,0,0,117.742,102.544Zm0,8.852a3.411,3.411,0,1,1,3.411-3.411A3.415,3.415,0,0,1,117.742,111.4Z" transform="translate(-112.301 -102.544)"/></g></g><g transform="translate(11.752 13.959)"><g transform="translate(0)"><path class="c" d="M145.757,137.862a1.015,1.015,0,0,0-1.435,0l-1.268,1.268-.659-.269a1.015,1.015,0,0,0-.768,1.879l1.283.525a1.014,1.014,0,0,0,1.1-.222l1.745-1.745A1.015,1.015,0,0,0,145.757,137.862Z" transform="translate(-140.996 -137.564)"/></g></g><g transform="translate(35.509 26.183)"><path class="c" d="M376.842,258.322a1.09,1.09,0,0,0-.155-.127,1.024,1.024,0,0,0-.175-.092.951.951,0,0,0-.19-.058,1,1,0,0,0-.4,0,.95.95,0,0,0-.19.058,1.067,1.067,0,0,0-.176.092,1.09,1.09,0,0,0-.154.127.958.958,0,0,0-.126.154,1.033,1.033,0,0,0-.093.175,1.059,1.059,0,0,0-.058.191,1.025,1.025,0,0,0,0,.4,1.025,1.025,0,0,0,.058.19,1,1,0,0,0,.093.176.959.959,0,0,0,.126.154,1.011,1.011,0,0,0,.154.126,1.077,1.077,0,0,0,.176.093,1.025,1.025,0,0,0,.19.058,1.011,1.011,0,0,0,.587-.058,1.013,1.013,0,0,0,.33-1.654Z" transform="translate(-375.11 -258.025)"/></g><g transform="translate(21.692 26.183)"><path class="c" d="M250.122,258.019H239.959a1.015,1.015,0,1,0,0,2.03h10.163a1.015,1.015,0,1,0,0-2.03Z" transform="translate(-238.944 -258.019)"/></g><g transform="translate(21.692 30.32)"><path class="c" d="M253.776,298.792H239.959a1.015,1.015,0,1,0,0,2.03h13.817a1.015,1.015,0,0,0,0-2.03Z" transform="translate(-238.944 -298.792)"/></g><g transform="translate(8.841 23.825)"><g transform="translate(0)"><path class="c" d="M117.742,234.789a5.441,5.441,0,1,0,5.441,5.441A5.447,5.447,0,0,0,117.742,234.789Zm0,8.852a3.411,3.411,0,1,1,3.411-3.411A3.415,3.415,0,0,1,117.742,243.641Z" transform="translate(-112.301 -234.789)"/></g></g><g transform="translate(11.752 27.379)"><g transform="translate(0)"><path class="c" d="M145.756,270.107a1.015,1.015,0,0,0-1.435,0l-1.268,1.268-.659-.269a1.015,1.015,0,1,0-.768,1.879l1.283.525a1.015,1.015,0,0,0,1.1-.222l1.745-1.745A1.015,1.015,0,0,0,145.756,270.107Z" transform="translate(-140.996 -269.809)"/></g></g><g transform="translate(35.509 39.602)"><g transform="translate(0)"><path class="c" d="M377.12,391.081a1.024,1.024,0,0,0-.058-.19,1,1,0,0,0-.093-.176,1.022,1.022,0,0,0-.456-.373,1.049,1.049,0,0,0-.19-.058,1,1,0,0,0-.4,0,1.024,1.024,0,0,0-.19.058,1.07,1.07,0,0,0-.176.093,1.023,1.023,0,0,0-.154.126.962.962,0,0,0-.126.154,1.008,1.008,0,0,0-.093.176,1.024,1.024,0,0,0-.058.19,1,1,0,0,0-.019.2,1.026,1.026,0,0,0,.019.2,1.076,1.076,0,0,0,.058.19,1.035,1.035,0,0,0,.093.174.96.96,0,0,0,.126.154,1,1,0,0,0,.33.22,1.022,1.022,0,0,0,.19.058,1.01,1.01,0,0,0,.587-.058,1.026,1.026,0,0,0,.175-.093,1.093,1.093,0,0,0,.155-.127,1.031,1.031,0,0,0,.219-.329,1.076,1.076,0,0,0,.058-.19,1.016,1.016,0,0,0,.02-.2A1,1,0,0,0,377.12,391.081Z" transform="translate(-375.111 -390.265)"/></g></g><g transform="translate(21.692 39.602)"><path class="c" d="M250.122,390.264H239.959a1.015,1.015,0,0,0,0,2.03h10.163a1.015,1.015,0,0,0,0-2.03Z" transform="translate(-238.944 -390.264)"/></g><g transform="translate(21.692 43.74)"><path class="c" d="M253.776,431.038H239.959a1.015,1.015,0,0,0,0,2.03h13.817a1.015,1.015,0,0,0,0-2.03Z" transform="translate(-238.944 -431.038)"/></g><g transform="translate(8.841 37.245)"><g transform="translate(0)"><path class="c" d="M117.742,367.034a5.441,5.441,0,1,0,5.441,5.441A5.447,5.447,0,0,0,117.742,367.034Zm0,8.852a3.411,3.411,0,1,1,3.411-3.411A3.415,3.415,0,0,1,117.742,375.886Z" transform="translate(-112.301 -367.034)"/></g></g><g transform="translate(11.752 40.799)"><g transform="translate(0)"><path class="c" d="M145.756,402.351a1.015,1.015,0,0,0-1.435,0l-1.268,1.268-.659-.269a1.015,1.015,0,1,0-.768,1.879l1.283.525a1.014,1.014,0,0,0,1.1-.222l1.745-1.745A1.015,1.015,0,0,0,145.756,402.351Z" transform="translate(-140.996 -402.054)"/></g></g></g></g></svg>