<svg xmlns="http://www.w3.org/2000/svg" width="188" height="188" viewBox="0 0 188 188"><defs><style>.a,.c{fill:#26cc2c;}.a{opacity:0.1;}.b{fill:#101010;font-size:14px;font-family:SFProText-Medium, SF Pro Text;font-weight:500;letter-spacing:-0.054em;}</style></defs><g transform="translate(0.064)"><rect class="a" width="188" height="188" transform="translate(-0.064)"/><text class="b" transform="translate(92.936 150)"><tspan x="-35.602" y="0">Saving time</tspan></text><g transform="translate(56.936 -11.875)"><path class="c" d="M32.456,136.378H43.888a1.084,1.084,0,1,0,0-2.168H32.456a1.084,1.084,0,0,0,0,2.168Z" transform="translate(-26.838 -60.466)"/><path class="c" d="M82.112,185.317H77.6a1.084,1.084,0,1,0,0,2.168h4.516a1.084,1.084,0,1,0,0-2.168Z" transform="translate(-65.454 -104.187)"/><path class="c" d="M1.084,224.495H12.142a1.084,1.084,0,1,0,0-2.168H1.084a1.084,1.084,0,1,0,0,2.168Z" transform="translate(0 -135.848)"/><path class="c" d="M44.972,363.873a1.084,1.084,0,0,0-1.084-1.084H32.456a1.084,1.084,0,1,0,0,2.168H43.888A1.084,1.084,0,0,0,44.972,363.873Z" transform="translate(-26.838 -256.009)"/><path class="c" d="M82.112,311.683H77.6a1.084,1.084,0,1,0,0,2.168h4.516a1.084,1.084,0,0,0,0-2.168Z" transform="translate(-65.454 -212.29)"/><path class="c" d="M13.226,275.757a1.084,1.084,0,0,0-1.084-1.084H1.084a1.084,1.084,0,1,0,0,2.168H12.142A1.084,1.084,0,0,0,13.226,275.757Z" transform="translate(0 -180.628)"/><path class="c" d="M313.113,143.2a1.084,1.084,0,0,0,1.084-1.084v-1.655a1.084,1.084,0,0,0-2.168,0v1.655A1.084,1.084,0,0,0,313.113,143.2Z" transform="translate(-266.933 -64.89)"/><path class="c" d="M384.112,171.659a1.084,1.084,0,0,0-1.533,0l-1.17,1.17a1.084,1.084,0,0,0,1.533,1.533l1.17-1.17A1.084,1.084,0,0,0,384.112,171.659Z" transform="translate(-326.014 -92.231)"/><path class="c" d="M410.783,248.5a1.084,1.084,0,1,0,0,2.168h1.654a1.084,1.084,0,1,0,0-2.168Z" transform="translate(-350.487 -158.238)"/><path class="c" d="M382.942,317.88a1.084,1.084,0,0,0-1.533,1.533l1.17,1.17a1.084,1.084,0,0,0,1.533-1.533Z" transform="translate(-326.014 -217.32)"/><path class="c" d="M312.029,347.254v1.654a1.084,1.084,0,1,0,2.168,0v-1.654a1.084,1.084,0,0,0-2.168,0Z" transform="translate(-266.933 -241.792)"/><path class="c" d="M236.358,317.88l-1.17,1.17a1.084,1.084,0,0,0,1.533,1.533l1.17-1.17a1.084,1.084,0,1,0-1.533-1.533Z" transform="translate(-200.926 -217.32)"/><path class="c" d="M203.995,248.5a1.084,1.084,0,1,0,0,2.168h1.655a1.084,1.084,0,0,0,0-2.168Z" transform="translate(-173.585 -158.238)"/><path class="c" d="M237.891,172.829l-1.17-1.17a1.084,1.084,0,0,0-1.533,1.533l1.17,1.17a1.084,1.084,0,0,0,1.533-1.533Z" transform="translate(-200.926 -92.231)"/><path class="c" d="M318.942,195.532a1.084,1.084,0,0,0-1.084-1.084H314.2V186.4a1.084,1.084,0,1,0-2.168,0v9.132a1.084,1.084,0,0,0,1.084,1.084h4.745A1.084,1.084,0,0,0,318.942,195.532Z" transform="translate(-266.933 -104.186)"/><path class="c" d="M212.16,127.9a1.084,1.084,0,0,0,1.016-1.148,21.6,21.6,0,1,0-.2,4.56,1.084,1.084,0,1,0-2.144-.322,19.458,19.458,0,1,1,.179-4.107,1.085,1.085,0,0,0,1.148,1.016Z" transform="translate(-145.427 -36.733)"/><path class="c" d="M134.876,63.529A27.806,27.806,0,0,0,123.89,65.8H104.765a1.084,1.084,0,0,0,0,2.168h15.047a27.787,27.787,0,0,0-5.559,4.712,1.084,1.084,0,1,0,1.607,1.455,25.6,25.6,0,1,1-2.542,3.31,1.084,1.084,0,0,0-1.821-1.176,27.81,27.81,0,0,0,8.321,38.456H104.765a1.084,1.084,0,1,0,0,2.168h19.11a27.816,27.816,0,1,0,11-53.364Z" transform="translate(-88.697)"/></g></g></svg>