<svg xmlns="http://www.w3.org/2000/svg" width="188" height="188" viewBox="0 0 188 188"><defs><style>.a,.c{fill:#ed1a3b;}.a{opacity:0.1;}.b{fill:#101010;font-size:14px;font-family:SFProText-Medium, SF Pro Text;font-weight:500;letter-spacing:-0.054em;}</style></defs><g transform="translate(-0.468)"><rect class="a" width="188" height="188" transform="translate(0.468)"/><text class="b" transform="translate(93.469 150)"><tspan x="-48.402" y="0">Various location</tspan></text><g transform="translate(42.237 57.846)"><g transform="translate(31)"><path class="c" d="M60.294,31.918c5.141-8.066,4.494-7.06,4.643-7.27A15.452,15.452,0,0,0,67.8,15.663a15.568,15.568,0,1,0-28.194,9.1l4.56,7.156C39.289,32.667,31,34.9,31,39.817c0,1.792,1.17,4.346,6.743,6.337a44.671,44.671,0,0,0,14.487,2.155c10.192,0,21.229-2.875,21.229-8.492C73.459,34.9,65.18,32.669,60.294,31.918ZM41.968,23.206q-.023-.037-.049-.072a12.738,12.738,0,1,1,20.722-.143c-.136.18.575-.925-10.412,16.315ZM52.229,45.478c-11.133,0-18.4-3.272-18.4-5.661,0-1.606,3.733-4.245,12.006-5.274l5.2,8.158a1.415,1.415,0,0,0,2.387,0l5.2-8.158c8.273,1.029,12.006,3.669,12.006,5.274C70.628,42.185,63.428,45.478,52.229,45.478Z" transform="translate(-31)"/></g><g transform="translate(45.153 8.586)"><path class="c" d="M188.076,91a7.076,7.076,0,1,0,7.076,7.076A7.084,7.084,0,0,0,188.076,91Zm0,11.322a4.246,4.246,0,1,1,4.246-4.246A4.251,4.251,0,0,1,188.076,102.322Z" transform="translate(-181 -91)"/></g></g></g></svg>