<svg xmlns="http://www.w3.org/2000/svg" width="188" height="188" viewBox="0 0 188 188"><defs><style>.a,.c{fill:#0a81f6;}.a{opacity:0.1;}.b{fill:#101010;font-size:14px;font-family:SFProText-Medium, SF Pro Text;font-weight:500;letter-spacing:-0.054em;}</style></defs><g transform="translate(0)"><rect class="a" width="188" height="188" transform="translate(0)"/><text class="b" transform="translate(94.001 150)"><tspan x="-45.219" y="0">Logistics costs</tspan></text><g transform="translate(59.589 -14.727)"><g transform="translate(9.176 108.091)"><path class="c" d="M75.149,337.067a6.882,6.882,0,1,0,6.882,6.882A6.889,6.889,0,0,0,75.149,337.067Zm0,11.47a4.588,4.588,0,1,1,4.588-4.588A4.593,4.593,0,0,1,75.149,348.537Z" transform="translate(-68.267 -337.067)"/></g><g transform="translate(48.175 108.091)"><path class="c" d="M365.282,337.067a6.882,6.882,0,1,0,6.882,6.882A6.889,6.889,0,0,0,365.282,337.067Zm0,11.47a4.588,4.588,0,1,1,4.588-4.588A4.593,4.593,0,0,1,365.282,348.537Z" transform="translate(-358.4 -337.067)"/></g><g transform="translate(43.587 85.15)"><g transform="translate(0 0)"><path class="c" d="M349.319,182.985,339,166.926a1.147,1.147,0,0,0-.965-.527H325.414a1.147,1.147,0,0,0-1.147,1.147v28.676a1.146,1.146,0,0,0,1.147,1.147H330v-2.294h-3.441V168.694H337.4l9.8,15.249v11.133h-5.735v2.294h6.882a1.146,1.146,0,0,0,1.147-1.147V183.605A1.144,1.144,0,0,0,349.319,182.985Z" transform="translate(-324.267 -166.4)"/></g></g><g transform="translate(48.175 89.738)"><g transform="translate(0 0)"><path class="c" d="M360.7,210.856v-8.029h9.176v-2.294H359.548a1.147,1.147,0,0,0-1.147,1.147V212a1.146,1.146,0,0,0,1.147,1.147h17.205v-2.294H360.7Z" transform="translate(-358.401 -200.533)"/></g></g><g transform="translate(0 77.121)"><g transform="translate(0 0)"><path class="c" d="M44.734,106.667H1.147A1.147,1.147,0,0,0,0,107.814v36.7a1.147,1.147,0,0,0,1.147,1.147h9.176v-2.294H2.294V108.961H43.587v34.411H21.793v2.294H44.734a1.146,1.146,0,0,0,1.147-1.147v-36.7A1.147,1.147,0,0,0,44.734,106.667Z" transform="translate(0 -106.667)"/></g></g><g transform="translate(1.147 109.238)"><g transform="translate(0 0)"><rect class="c" width="6.882" height="2.294"/></g></g><g transform="translate(24.088 109.238)"><g transform="translate(0 0)"><rect class="c" width="19.5" height="2.294"/></g></g><g transform="translate(63.086 109.238)"><g transform="translate(0 0)"><rect class="c" width="4.588" height="2.294"/></g></g><g transform="translate(4.588 81.709)"><rect class="c" width="40.146" height="2.294"/></g><g transform="translate(14.911 113.826)"><g transform="translate(0 0)"><rect class="c" width="2.294" height="2.294"/></g></g><g transform="translate(53.91 113.826)"><g transform="translate(0 0)"><rect class="c" width="2.294" height="2.294"/></g></g><g transform="translate(4.588 72.533)"><g transform="translate(0 0)"><rect class="c" width="16.058" height="2.294"/></g></g><g transform="translate(0 72.533)"><g transform="translate(0 0)"><rect class="c" width="2.294" height="2.294"/></g></g></g></g></svg>