<svg xmlns="http://www.w3.org/2000/svg" width="188" height="188" viewBox="0 0 188 188"><defs><style>.a,.c{fill:#84d7ff;}.a{opacity:0.1;}.b{fill:#101010;font-size:14px;font-family:SFProText-Medium, SF Pro Text;font-weight:500;letter-spacing:-0.054em;}</style></defs><g transform="translate(-0.468)"><rect class="a" width="188" height="188" transform="translate(0.468)"/><text class="b" transform="translate(93.469 150)"><tspan x="-38.758" y="0">Easy Supply </tspan><tspan x="-59.449" y="18">Chain Management</tspan></text><g transform="translate(68.727 51.26)"><path class="c" d="M48.464,31.055V20.426a3.82,3.82,0,1,0-2.857-6.955l-7.6-7.6a3.82,3.82,0,1,0-5.388,1.091l-3.4,8.245L23.423,9.416l6.018-2.5a.8.8,0,1,0-.617-1.486L22.193,8.185,19.9,5.892a3.819,3.819,0,1,0-6.429-.018l-7.6,7.6a3.82,3.82,0,1,0-1.362,6.977l2.2,5.292-2.2,5.292A3.82,3.82,0,1,0,5.873,38.01l7.6,7.6a3.82,3.82,0,1,0,6.955,2.857H31.055a3.821,3.821,0,1,0,0-1.609H20.723l23.8-9.89a3.82,3.82,0,1,0,3.943-5.91ZM43.9,17.372l-2.226.919L37.068,7.207l7.4,7.4A3.8,3.8,0,0,0,43.9,17.372Zm.615,1.487a3.83,3.83,0,0,0,2.339,1.567V30.758L42.292,19.777Zm.844,12.493-9.089-9.089L40.8,20.391Zm4.512-14.661a2.212,2.212,0,1,1-2.212-2.212A2.215,2.215,0,0,1,49.872,16.691ZM34.79,1.609a2.212,2.212,0,1,1-2.212,2.212A2.215,2.215,0,0,1,34.79,1.609ZM34.108,7.58a3.772,3.772,0,0,0,1.372,0l4.708,11.328-5.149,2.126-4.59-4.59ZM33.428,21.7l-6.206,2.562,2.562-6.206ZM16,7.578a3.8,3.8,0,0,0,2.761-.549l1.824,1.824L14.4,11.422ZM12.3,12.3l-5.09,2.116,7.206-7.206ZM16.691,1.609a2.212,2.212,0,1,1-2.212,2.212A2.215,2.215,0,0,1,16.691,1.609ZM1.609,16.691A2.212,2.212,0,1,1,3.821,18.9,2.215,2.215,0,0,1,1.609,16.691ZM6,19.829A3.813,3.813,0,0,0,7.578,16l3.844-1.6-3.84,9.241Zm1.585,8.007L9.189,31.7l-2.224.918A3.851,3.851,0,0,0,6,31.651Zm0,6.272,2.226-.919,4.607,11.085-7.4-7.4a3.8,3.8,0,0,0,.562-2.771Zm-5.971.682A2.212,2.212,0,1,1,3.821,37,2.215,2.215,0,0,1,1.609,34.79ZM16.691,49.872A2.212,2.212,0,1,1,18.9,47.66,2.215,2.215,0,0,1,16.691,49.872Zm18.1-4.424a2.212,2.212,0,1,1-2.212,2.212A2.215,2.215,0,0,1,34.79,45.448Zm-14.96.037A3.813,3.813,0,0,0,16,43.9L11.293,32.575l3.135-1.294a.8.8,0,0,0-.614-1.487l-3.138,1.3L8.453,25.74l5.075-12.212,8.288-3.444,6.737,6.737-3.428,8.3-5.469,2.258a.8.8,0,0,0,.614,1.487l3.989-1.647-5.738,13.9a.8.8,0,1,0,1.487.614l6.349-15.38,8.3-3.428,9.791,9.791A3.8,3.8,0,0,0,43.9,35.48ZM47.66,37a2.212,2.212,0,1,1,2.212-2.212A2.215,2.215,0,0,1,47.66,37Z" transform="translate(0)"/><path class="c" d="M161.9,283.774a.8.8,0,1,0,1.049.44A.8.8,0,0,0,161.9,283.774Z" transform="translate(-145.161 -255.187)"/></g></g></svg>