<svg xmlns="http://www.w3.org/2000/svg" width="188" height="188" viewBox="0 0 188 188"><defs><style>.a{fill:#ffb62a;opacity:0.1;}.b{fill:#101010;font-size:14px;font-family:SFProText-Medium, SF Pro Text;font-weight:500;letter-spacing:-0.054em;}.c{fill:#f9ba48;}</style></defs><g transform="translate(-0.404)"><rect class="a" width="188" height="188" transform="translate(0.404)"/><text class="b" transform="translate(93.403 150)"><tspan x="-69.817" y="0">Reporting and strategy</tspan></text><g transform="translate(67.512 54.109)"><path class="c" d="M52.731,21.927H46.008a1.05,1.05,0,0,0-1.05,1.05v5.3a1.05,1.05,0,0,0,2.1,0V24.028H51.68V51.68H47.059V36.16a1.05,1.05,0,1,0-2.1,0V51.68h-2.1V29.937a1.05,1.05,0,0,0-1.05-1.05H35.084a1.05,1.05,0,0,0-1.05,1.05V51.68h-2.1V37.29a1.05,1.05,0,0,0-1.05-1.05H24.16a1.05,1.05,0,0,0-1.05,1.05V51.68h-2.1V43.316a1.05,1.05,0,0,0-1.05-1.05H13.235a1.05,1.05,0,0,0-1.05,1.05V51.68H3.151A1.052,1.052,0,0,1,2.1,50.63V3.151A1.052,1.052,0,0,1,3.151,2.1h27.1V9.034A3.155,3.155,0,0,0,33.4,12.185h6.933V25.1a1.05,1.05,0,0,0,2.1,0V11.135a1.051,1.051,0,0,0-.308-.743L32.042.308A1.051,1.051,0,0,0,31.3,0H3.151A3.155,3.155,0,0,0,0,3.151V50.63a3.155,3.155,0,0,0,3.151,3.151h49.58a1.05,1.05,0,0,0,1.05-1.05V22.978A1.05,1.05,0,0,0,52.731,21.927ZM32.35,3.586l6.5,6.5H33.4a1.052,1.052,0,0,1-1.05-1.05ZM18.907,51.68H14.286V44.367h4.622Zm10.924,0H25.21V38.34h4.622Zm10.924,0H36.134V30.987h4.622Z"/><g transform="translate(44.958 30.976)"><path class="c" d="M429.793,295.2a1.05,1.05,0,1,0,.308.743A1.055,1.055,0,0,0,429.793,295.2Z" transform="translate(-428 -294.89)"/></g><g transform="translate(5.63 5.749)"><path class="c" d="M63.263,54.729a1.05,1.05,0,0,0-1.05,1.05v1.89A9.661,9.661,0,1,0,72.868,68.324h1.889a1.05,1.05,0,0,0,1.05-1.05A12.559,12.559,0,0,0,63.263,54.729Zm0,20.1a7.561,7.561,0,0,1-1.05-15.048v7.488a1.05,1.05,0,0,0,1.05,1.05h7.488A7.572,7.572,0,0,1,63.263,74.834Zm1.05-8.611h0V56.882a10.464,10.464,0,0,1,9.341,9.341Z" transform="translate(-53.602 -54.729)"/></g><g transform="translate(5.672 30.908)"><path class="c" d="M75.113,294.25H55.05a1.05,1.05,0,0,0,0,2.1H75.113a1.05,1.05,0,0,0,0-2.1Z" transform="translate(-54 -294.25)"/></g><g transform="translate(5.672 35.977)"><path class="c" d="M61.773,342.5H55.05a1.05,1.05,0,0,0,0,2.1h6.723a1.05,1.05,0,1,0,0-2.1Z" transform="translate(-54 -342.5)"/></g><g transform="translate(17.655 35.977)"><path class="c" d="M169.873,342.808a1.05,1.05,0,1,0,.308.743A1.058,1.058,0,0,0,169.873,342.808Z" transform="translate(-168.08 -342.5)"/></g></g></g></svg>