<svg xmlns="http://www.w3.org/2000/svg" width="188" height="188" viewBox="0 0 188 188"><defs><style>.a,.c{fill:#00b3a8;}.a{opacity:0.1;}.b{fill:#101010;font-size:14px;font-family:SFProText-Medium, SF Pro Text;font-weight:500;letter-spacing:-0.054em;}</style></defs><g transform="translate(-0.468)"><rect class="a" width="188" height="188" transform="translate(0.468)"/><text class="b" transform="translate(93.469 150)"><tspan x="-61.617" y="0">Accounting services</tspan></text><g transform="translate(69.193 57.832)"><path class="c" d="M112.39,288a8.39,8.39,0,1,0,8.39,8.39A8.39,8.39,0,0,0,112.39,288Zm0,15.1a6.712,6.712,0,1,1,6.712-6.712A6.712,6.712,0,0,1,112.39,303.1Zm0,0" transform="translate(-93.094 -257.798)"/><path class="c" d="M155.356,322.517c1.025,0,1.678.5,1.678.839h1.678a2.739,2.739,0,0,0-2.517-2.433V320h-1.678v.923A2.735,2.735,0,0,0,152,323.356c0,1.412,1.474,2.517,3.356,2.517,1.025,0,1.678.5,1.678.839s-.653.839-1.678.839-1.678-.5-1.678-.839H152a2.739,2.739,0,0,0,2.517,2.433v.923h1.678v-.923a2.735,2.735,0,0,0,2.517-2.433c0-1.412-1.474-2.517-3.356-2.517-1.025,0-1.678-.5-1.678-.839S154.331,322.517,155.356,322.517Zm0,0" transform="translate(-136.06 -286.442)"/><path class="c" d="M42.787,48.659H7.55V28.524H20.974a2.517,2.517,0,0,0,2.517-2.517V5.033h9.229V15.1H42.787V26.846h1.678V13.914L33.906,3.355H23.491V2.516A2.517,2.517,0,0,0,20.974,0H2.516A2.517,2.517,0,0,0,0,2.516V26.007a2.517,2.517,0,0,0,2.517,2.517H5.872V50.337H44.465V38.592H42.787ZM34.4,6.219l7.2,7.2H34.4ZM1.678,26.007V2.516a.839.839,0,0,1,.839-.839H20.974a.839.839,0,0,1,.839.839V26.007a.839.839,0,0,1-.839.839H2.516a.839.839,0,0,1-.839-.839Zm0,0"/><path class="c" d="M256,200h1.678v1.678H256Zm0,0" transform="translate(-229.153 -179.027)"/><path class="c" d="M288,200h10.068v1.678H288Zm0,0" transform="translate(-257.797 -179.027)"/><path class="c" d="M256,168h1.678v1.678H256Zm0,0" transform="translate(-229.153 -150.382)"/><path class="c" d="M288,168h10.068v1.678H288Zm0,0" transform="translate(-257.797 -150.382)"/><path class="c" d="M256,232h1.678v1.678H256Zm0,0" transform="translate(-229.153 -207.671)"/><path class="c" d="M288,232h10.068v1.678H288Zm0,0" transform="translate(-257.797 -207.671)"/><path class="c" d="M256,264h1.678v1.678H256Zm0,0" transform="translate(-229.153 -236.315)"/><path class="c" d="M288,264h10.068v1.678H288Zm0,0" transform="translate(-257.797 -236.315)"/><path class="c" d="M42.457,24H24v5.873H42.457Zm-1.678,4.195h-15.1V25.678h15.1Zm0,0" transform="translate(-21.484 -21.484)"/><path class="c" d="M35.356,88H33.678A1.678,1.678,0,0,0,32,89.678v1.678a1.678,1.678,0,0,0,1.678,1.678h1.678a1.678,1.678,0,0,0,1.678-1.678V89.678A1.678,1.678,0,0,0,35.356,88Zm-1.678,3.356V89.678h1.678v1.678Zm0,0" transform="translate(-28.645 -78.772)"/><path class="c" d="M91.356,88H89.678A1.678,1.678,0,0,0,88,89.678v1.678a1.678,1.678,0,0,0,1.678,1.678h1.678a1.678,1.678,0,0,0,1.678-1.678V89.678A1.678,1.678,0,0,0,91.356,88Zm-1.678,3.356V89.678h1.678v1.678Zm0,0" transform="translate(-78.772 -78.772)"/><path class="c" d="M147.356,88h-1.678A1.678,1.678,0,0,0,144,89.678v1.678a1.678,1.678,0,0,0,1.678,1.678h1.678a1.678,1.678,0,0,0,1.678-1.678V89.678A1.678,1.678,0,0,0,147.356,88Zm-1.678,3.356V89.678h1.678v1.678Zm0,0" transform="translate(-128.899 -78.772)"/><path class="c" d="M35.356,144H33.678A1.678,1.678,0,0,0,32,145.678v1.678a1.678,1.678,0,0,0,1.678,1.678h1.678a1.678,1.678,0,0,0,1.678-1.678v-1.678A1.678,1.678,0,0,0,35.356,144Zm-1.678,3.356v-1.678h1.678v1.678Zm0,0" transform="translate(-28.645 -128.899)"/><path class="c" d="M91.356,144H89.678A1.678,1.678,0,0,0,88,145.678v1.678a1.678,1.678,0,0,0,1.678,1.678h1.678a1.678,1.678,0,0,0,1.678-1.678v-1.678A1.678,1.678,0,0,0,91.356,144Zm-1.678,3.356v-1.678h1.678v1.678Zm0,0" transform="translate(-78.772 -128.899)"/><path class="c" d="M147.356,144h-1.678A1.678,1.678,0,0,0,144,145.678v1.678a1.678,1.678,0,0,0,1.678,1.678h1.678a1.678,1.678,0,0,0,1.678-1.678v-1.678A1.678,1.678,0,0,0,147.356,144Zm-1.678,3.356v-1.678h1.678v1.678Zm0,0" transform="translate(-128.899 -128.899)"/><path class="c" d="M35.356,200H33.678A1.678,1.678,0,0,0,32,201.678v1.678a1.678,1.678,0,0,0,1.678,1.678h1.678a1.678,1.678,0,0,0,1.678-1.678v-1.678A1.678,1.678,0,0,0,35.356,200Zm-1.678,3.356v-1.678h1.678v1.678Zm0,0" transform="translate(-28.645 -179.027)"/><path class="c" d="M91.356,200H89.678A1.678,1.678,0,0,0,88,201.678v1.678a1.678,1.678,0,0,0,1.678,1.678h1.678a1.678,1.678,0,0,0,1.678-1.678v-1.678A1.678,1.678,0,0,0,91.356,200Zm-1.678,3.356v-1.678h1.678v1.678Zm0,0" transform="translate(-78.772 -179.027)"/><path class="c" d="M147.356,200h-1.678A1.678,1.678,0,0,0,144,201.678v1.678a1.678,1.678,0,0,0,1.678,1.678h1.678a1.678,1.678,0,0,0,1.678-1.678v-1.678A1.678,1.678,0,0,0,147.356,200Zm-1.678,3.356v-1.678h1.678v1.678Zm0,0" transform="translate(-128.899 -179.027)"/><path class="c" d="M300.224,249.179a2.576,2.576,0,0,0-3.559,0l-14.383,14.382a.849.849,0,0,0-.168.243l-2.025,4.4a.839.839,0,0,0,1.113,1.113l4.4-2.025a.841.841,0,0,0,.243-.168l14.381-14.383a2.516,2.516,0,0,0,0-3.559Zm-15.463,16.648-2.2,1.013,1.013-2.2L294.3,253.918l1.186,1.186Zm11.913-11.914-1.186-1.186.587-.587,1.186,1.186Zm2.366-2.366-.593.593-1.186-1.186.594-.593a.858.858,0,0,1,1.186,0A.839.839,0,0,1,299.04,251.548Zm0,0" transform="translate(-250.648 -222.41)"/></g></g></svg>