<svg xmlns="http://www.w3.org/2000/svg" width="188" height="188" viewBox="0 0 188 188"><defs><style>.a,.c{fill:#0a81f6;}.a{opacity:0.1;}.b{fill:#101010;font-size:14px;font-family:SFProText-Medium, SF Pro Text;font-weight:500;letter-spacing:-0.054em;}</style></defs><g transform="translate(0)"><rect class="a" width="188" height="188" transform="translate(0)"/><text class="b" transform="translate(94.001 150)"><tspan x="-79.512" y="0">Global compliance service</tspan></text><g transform="translate(68.272 48.616)"><path class="c" d="M127.487,30.613V18.368a11.338,11.338,0,0,0-10-11.283L120.4,1.265A.874.874,0,0,0,119.615,0H103.872a.875.875,0,0,0-.783,1.265L106,7.085A11.381,11.381,0,0,0,96,18.368V34.111h1.749V18.368a9.633,9.633,0,0,1,9.621-9.621h8.746a9.608,9.608,0,0,1,9.621,9.621V30.613ZM115.576,7h-7.665l-2.624-5.248H118.2Zm0,0" transform="translate(-85.504 0)"/><path class="c" d="M164.861,100.6a6.061,6.061,0,0,1,1.53-.628l-.437-1.693a7.893,7.893,0,0,0-1.969.807Zm0,0" transform="translate(-146.056 -87.536)"/><path class="c" d="M128,125.511h1.749v-3.5a6.076,6.076,0,0,1,1.859-4.391l-1.218-1.254a7.81,7.81,0,0,0-2.39,5.645Zm0,0" transform="translate(-114.005 -103.645)"/><path class="c" d="M2.495,303l14.849,8.1a11.367,11.367,0,0,0,5.45,1.393H51.6a.875.875,0,0,0,.875-.875V295.878A.875.875,0,0,0,51.6,295H44.911l-.1-.078a13.846,13.846,0,0,0-3.373-1.939A14.186,14.186,0,0,0,28.5,294.128H21.866a4.373,4.373,0,0,0-4.173,5.685L6.881,294.4a4.679,4.679,0,0,0-4.955.474A4.809,4.809,0,0,0,0,298.712v.1A4.767,4.767,0,0,0,2.495,303Zm42.987-6.252h5.248v13.994H45.482ZM1.749,298.712a3.09,3.09,0,0,1,1.268-2.475A2.927,2.927,0,0,1,6.1,295.96l13.628,6.822a.867.867,0,0,0,.391.093h13.12v-1.749H21.866a2.624,2.624,0,1,1,0-5.248h6.892a.884.884,0,0,0,.482-.144,12.436,12.436,0,0,1,11.545-1.125,12.146,12.146,0,0,1,2.947,1.693v14.445H22.793a9.618,9.618,0,0,1-4.611-1.179l-14.853-8.1a3.019,3.019,0,0,1-1.58-2.66Zm0,0" transform="translate(0 -260.017)"/><path class="c" d="M432,424h1.749v1.749H432Zm0,0" transform="translate(-384.769 -377.644)"/><path class="c" d="M198.123,151.744v-1.749H199a3.5,3.5,0,0,0,0-7h-3.5a1.749,1.749,0,0,1,0-3.5h6.123v-1.749h-3.5V136h-1.749v1.749H195.5a3.5,3.5,0,0,0,0,7H199a1.749,1.749,0,0,1,0,3.5h-6.123v1.749h3.5v1.749Zm0,0" transform="translate(-171.009 -121.131)"/></g></g></svg>