<svg xmlns="http://www.w3.org/2000/svg" width="192.325" height="29.333" viewBox="0 0 192.325 29.333"><g transform="translate(-0.01 0.005)"><path d="M82.64,27.116,74.215,3.656a3.683,3.683,0,0,1-.255-1.135,2.036,2.036,0,0,1,2.1-1.986,2.177,2.177,0,0,1,2.1,1.7l6.978,20.2L92.172,2.181A2.093,2.093,0,0,1,94.214.536h.227A2.229,2.229,0,0,1,96.6,2.181l6.978,20.226L110.667,2.1A2.048,2.048,0,0,1,112.653.479,1.976,1.976,0,0,1,114.7,2.408a5.069,5.069,0,0,1-.255,1.135L105.958,27.03a2.447,2.447,0,0,1-2.269,1.872h-.17a2.35,2.35,0,0,1-2.269-1.872L94.328,7.117,87.349,27.03A2.321,2.321,0,0,1,85.108,28.9h-.113a2.293,2.293,0,0,1-2.354-1.787M144.027,2.55a2.083,2.083,0,0,1,2.042-2.1,2.059,2.059,0,0,1,2.1,2.1V7.315a11.291,11.291,0,0,1,9.56-6.808,1.981,1.981,0,0,1,2.042,2.1,2.07,2.07,0,0,1-1.844,2.1c-5.361.652-9.787,4.681-9.787,12.68V26.8a2.071,2.071,0,1,1-4.142,0Zm29.019,26.608c-7.489,0-13.588-5.787-13.588-14.3v-.113c0-7.914,5.532-14.3,13.049-14.3,8.056,0,12.652,6.638,12.652,13.928a1.925,1.925,0,0,1-1.9,1.929H163.571c.567,5.957,4.737,9.3,9.588,9.3a11.077,11.077,0,0,0,7.858-3.205,1.81,1.81,0,0,1,1.163-.482,1.774,1.774,0,0,1,1.787,1.759,1.745,1.745,0,0,1-.624,1.333,14.021,14.021,0,0,1-10.3,4.142M181.1,13.244c-.426-4.993-3.262-9.361-8.68-9.361-4.737,0-8.312,3.971-8.85,9.361Zm-66.435,7.319v-.113c0-5.844,4.822-8.936,11.829-8.936a29.2,29.2,0,0,1,8.538,1.191v-.964c0-4.993-3.064-7.546-8.255-7.546a14.036,14.036,0,0,0-6.439,1.277,1.959,1.959,0,0,1-.738.17,1.817,1.817,0,0,1-1.815-1.759,1.723,1.723,0,0,1,1.135-1.73A18.3,18.3,0,0,1,127.233.564c3.915,0,6.922,1.021,8.936,3.064,1.872,1.872,2.837,4.567,2.837,8.085V27a1.97,1.97,0,0,1-1.986,2.042,1.886,1.886,0,0,1-1.957-1.929V24.477a12.145,12.145,0,0,1-10.014,4.766c-5.163-.057-10.382-3.007-10.382-8.68m20.424-2.156V15.74a28.626,28.626,0,0,0-8.141-1.191c-5.191,0-8.085,2.241-8.085,5.73v.113c0,3.489,3.205,5.532,6.978,5.532,5.078,0,9.248-3.12,9.248-7.517M7.581,2.323A3.907,3.907,0,0,0,2.333.365,3.847,3.847,0,0,0,.4,5.613L9.2,24.733c1.39,3.007,2.837,4.567,5.588,4.567,2.922,0,4.2-1.7,5.588-4.567,0,0,7.659-16.708,7.744-16.878a1.118,1.118,0,0,1,1.106-.709,1.235,1.235,0,0,1,1.22,1.248V24.733c0,2.525,1.39,4.6,4.085,4.6s4.142-2.071,4.142-4.6V11.372A4.11,4.11,0,0,1,43.04,7.117a4.005,4.005,0,0,1,4.2,4.255V24.733c0,2.525,1.39,4.6,4.085,4.6s4.142-2.071,4.142-4.6V11.372a4.11,4.11,0,0,1,4.369-4.255,4.005,4.005,0,0,1,4.2,4.255V24.733c0,2.525,1.39,4.6,4.085,4.6s4.142-2.071,4.142-4.6V9.528c0-5.588-4.482-9.5-9.9-9.5a12.769,12.769,0,0,0-8.794,3.744C51.777,1.415,49.281,0,45.082,0c-4.425,0-8.312,3.744-8.312,3.744A9.921,9.921,0,0,0,29.367,0c-3.915.028-7.035,1.759-8.936,6.1L14.815,19.343Zm177.889,1.56a3.433,3.433,0,0,1,6.865-.057v.028a3.432,3.432,0,1,1-6.865.028m6.212-.028a2.755,2.755,0,0,0-2.78-2.808,2.791,2.791,0,0,0-2.78,2.808v.028a2.773,2.773,0,0,0,2.78,2.808,2.815,2.815,0,0,0,2.78-2.837" transform="translate(0)"/><path d="M661.228,7.969A.375.375,0,0,1,661.6,7.6h1.135a1.247,1.247,0,0,1,.964.34.985.985,0,0,1,.284.766,1.041,1.041,0,0,1-.652,1.021l.511.624a.5.5,0,0,1,.113.284.345.345,0,0,1-.34.34.443.443,0,0,1-.369-.2l-.709-.908h-.6v.709a.369.369,0,0,1-.738,0ZM662.7,9.217c.369,0,.539-.2.539-.482,0-.312-.2-.482-.567-.482h-.737v.964Z" transform="translate(-473.63 -5.447)"/></g></svg>