<svg xmlns="http://www.w3.org/2000/svg" xmlns:xlink="http://www.w3.org/1999/xlink" width="156" height="156" viewBox="0 0 156 156"><defs><style>.a{fill:#fff;}.b{fill:#529adf;}.c{filter:url(#a);}</style><filter id="a" x="0" y="0" width="156" height="156" filterUnits="userSpaceOnUse"><feOffset dy="18" input="SourceAlpha"/><feGaussianBlur stdDeviation="14.5" result="b"/><feFlood flood-color="#959595" flood-opacity="0.161"/><feComposite operator="in" in2="b"/><feComposite in="SourceGraphic"/></filter></defs><g transform="translate(-320.5 -357.5)"><g class="c" transform="matrix(1, 0, 0, 1, 320.5, 357.5)"><circle class="a" cx="34.5" cy="34.5" r="34.5" transform="translate(43.5 25.5)"/></g><path class="b" d="M21.527,16.153l3.035-3.035a1.388,1.388,0,0,0-.556-2.3l-1.812-.582V4.161a1.387,1.387,0,0,0-1.387-1.387H18.032V1.04A1.04,1.04,0,0,0,16.992,0H10.75A1.04,1.04,0,0,0,9.71,1.04V2.774H6.935A1.387,1.387,0,0,0,5.548,4.161v6.073l-1.812.582a1.388,1.388,0,0,0-.556,2.3l3.035,3.035A5.237,5.237,0,0,1,1.04,19.419,1.04,1.04,0,0,0,0,20.46v.694a1.04,1.04,0,0,0,1.04,1.04,8,8,0,0,0,6.21-2.575A4.168,4.168,0,0,0,11.1,22.193h5.548a4.168,4.168,0,0,0,3.847-2.575,8,8,0,0,0,6.21,2.575,1.04,1.04,0,0,0,1.04-1.04V20.46a1.04,1.04,0,0,0-1.04-1.04A5.238,5.238,0,0,1,21.527,16.153Zm-13.2-10.6h11.1V9.342L14.3,7.7a1.387,1.387,0,0,0-.849,0L8.323,9.342Z" transform="translate(385.629 403.903)"/></g></svg>